<svg height="512" viewBox="0 0 60 60" width="512" xmlns="http://www.w3.org/2000/svg"><g id="Page-1" fill="none" fill-rule="evenodd"><g id="001---Sunny" fill="rgb(0,0,0)" fill-rule="nonzero" transform="translate(-1)"><path id="Shape" d="m31 8c-12.1502645 0-22 9.8497355-22 22s9.8497355 22 22 22 22-9.8497355 22-22c-.0137772-12.1445532-9.8554468-21.98622284-22-22zm0 42c-11.045695 0-20-8.954305-20-20s8.954305-20 20-20 20 8.954305 20 20c-.0126747 11.0404407-8.9595593 19.9873253-20 20z"/><path id="Shape" d="m31 46c-5.9092784-.000714-11.3370539-3.2584558-14.117-8.473-.2701605-.4671455-.8622361-.6356791-1.3379102-.3808344-.475674.2548446-.6633497.8411338-.4240898 1.3248344 3.1266668 5.8654308 9.2322472 9.5293942 15.879 9.529.5522847 0 1-.4477153 1-1s-.4477153-1-1-1z"/><path id="Shape" d="m55.449 23.6 1.766-7.106c.2530138-1.0610279-.380284-2.1317082-1.432-2.421l-6.817-1.836-2.021-7.063c-.3064052-1.03823356-1.3767758-1.65037791-2.427-1.388l-7.129 1.765-4.961-4.961c-.7996283-.76076242-2.0553717-.76076242-2.855 0l-4.973 4.961-7.11-1.766c-1.0614965-.25405183-2.1330363.38019708-2.421 1.433l-1.837 6.816-7.032 2.019c-1.04989052.3109506-1.66428794 1.3981996-1.389 2.458l1.818 6.809-5.089 5.28c-.74821201.7802849-.74821201 2.0117151 0 2.792l5.1 5.3-1.828 6.8c-.27407167 1.0586043.33962807 2.1440746 1.388 2.455l7.042 2.027 1.826 6.809c.2897331 1.0532373 1.3629499 1.6865459 2.425 1.431l7.117-1.765 4.961 4.961c.7894606.7867337 2.0665394.7867337 2.856 0l4.977-4.961 7.1 1.766c1.0613231.2513349 2.1313573-.3817613 2.422-1.433l1.836-6.816 7.058-2.021c1.0385773-.3059705 1.6509269-1.3767 1.388-2.427l-1.763-7.118v-.006l4.962-4.962c.7854059-.7892286.7854059-2.0647714 0-2.854zm-1.414 11.375c-.5015611.4988051-.7023294 1.2254496-.528 1.911l1.761 7.138-7.058 2.021c-.6735864.2005313-1.1965187.7336654-1.384 1.411l-1.837 6.817-7.089-1.762c-.6898017-.1785028-1.4225817.0207586-1.927.524l-4.986 4.965-4.962-4.961c-.3768772-.3771594-.8878173-.5896616-1.421-.591-.1657577-.0001756-.3308257.0213403-.491.064l-7.113 1.752-1.827-6.812c-.1891418-.6775014-.7141307-1.2096716-1.389-1.408l-7.041-2.037 1.827-6.8c.17670591-.6815382-.01253811-1.4059643-.5-1.914l-5.093-5.3 5.093-5.286c.48850679-.5082667.67785263-1.23384.5-1.916l-1.817-6.816 7.038-2.02c.6732018-.2008255 1.1957065-.7339087 1.383-1.411l1.837-6.817 7.089 1.762c.6895066.18107054 1.4232695-.01856174 1.926-.524l4.988-4.965 4.961 4.961c.4996426.50083415 1.2261507.70145981 1.912.528l7.137-1.761 2.021 7.059c.2011622.6729987.734105 1.1953658 1.411 1.383l6.817 1.837-1.762 7.093c-.1793796.6894981.0200239 1.4224201.524 1.926l4.965 4.987z"/><path id="Shape" d="m22 21c.5522847 0 1-.4477153 1-1s.4477153-1 1-1 1 .4477153 1 1 .4477153 1 1 1 1-.4477153 1-1c0-1.6568542-1.3431458-3-3-3s-3 1.3431458-3 3c0 .5522847.4477153 1 1 1z"/><path id="Shape" d="m38 17c-1.6568542 0-3 1.3431458-3 3 0 .5522847.4477153 1 1 1s1-.4477153 1-1 .4477153-1 1-1 1 .4477153 1 1 .4477153 1 1 1 1-.4477153 1-1c0-1.6568542-1.3431458-3-3-3z"/><path id="Shape" d="m34 22h-6c-.5522847 0-1 .4477153-1 1v1c0 2.209139 1.790861 4 4 4s4-1.790861 4-4v-1c0-.5522847-.4477153-1-1-1zm-3 4c-1.1045695 0-2-.8954305-2-2h4c0 1.1045695-.8954305 2-2 2z"/><path id="Shape" d="m19 26c.2651948-.0000566.5195073-.1054506.707-.293l1-1c.3789722-.3923789.3735524-1.0160848-.0121814-1.4018186s-1.0094397-.3911536-1.4018186-.0121814l-1 1c-.2859079.2859943-.3714219.7160366-.216678 1.0896546.1547439.3736179.5192821.6172591.923678.6173454z"/><path id="Shape" d="m23.293 23.293-1 1c-.2599566.2510745-.3642126.6228779-.2726972.9725073.0915155.3496295.3645604.6226744.7141899.7141899.3496294.0915154.7214328-.0127406.9725073-.2726972l1-1c.3789722-.3923789.3735524-1.0160848-.0121814-1.4018186s-1.0094397-.3911536-1.4018186-.0121814z"/><path id="Shape" d="m42.707 23.293c-.3923789-.3789722-1.0160848-.3735524-1.4018186.0121814s-.3911536 1.0094397-.0121814 1.4018186l1 1c.3923789.3789722 1.0160848.3735524 1.4018186-.0121814s.3911536-1.0094397.0121814-1.4018186z"/><path id="Shape" d="m38.707 23.293c-.3923789-.3789722-1.0160848-.3735524-1.4018186.0121814s-.3911536 1.0094397-.0121814 1.4018186l1 1c.3923789.3789722 1.0160848.3735524 1.4018186-.0121814s.3911536-1.0094397.0121814-1.4018186z"/><circle id="Oval" cx="14" cy="34" r="1"/></g></g></svg>