<svg height="49" viewBox="0 0 60 49" width="60" xmlns="http://www.w3.org/2000/svg"><g id="Page-1" fill="none" fill-rule="evenodd"><g id="002---Cloud" fill="rgb(0,0,0)" fill-rule="nonzero" transform="translate(-1)"><path id="Shape" d="m51 17c-.008 0-.943.044-1.024.053-.3672522-6.6591796-4.3863892-12.56948923-10.4443548-15.35886199s-13.1616962-2.00055542-18.4601528 2.04986498c-5.2984566 4.05042039-7.9230796 10.69847091-6.8204924 17.27599701-7.57559372.4053667-13.44993239 6.7709188-13.24692301 14.3546335.20300938 7.5837148 6.40949156 13.6258739 13.99592301 13.6253665h29c3.0671045-.0036702 5.9631388-1.4136693 7.8576844-3.8256893s2.5783421-5.5596436 1.8553156-8.5403107c4.807178-1.3564595 7.8774719-6.0505871 7.1937805-10.9984664-.6836913-4.9478792-4.9118892-8.633511-9.9067805-8.6355336zm1.69 17.818c-1.4021726.2999777-2.8588746.2219832-4.221-.226-.3394023-.1128959-.7132523-.0361471-.9807242.201336-.2674719.237483-.3879304.599621-.316.95.0719305.350379.3253219.6357681.6647242.748664 1.0201498.3383461 2.088207.5098836 3.163.508.244 0 .487-.022.73-.04.6325516 2.3985864.1166462 4.9549118-1.396649 6.9204336-1.5132951 1.9655218-3.8527593 3.1178523-6.333351 3.1195664h-29c-4.8541597-.003811-9.22792486-2.9316822-11.08137961-7.4180601-1.85345476-4.4863778-.82149612-9.6475127 2.61457234-13.0762609 3.43606847-3.4287483 8.59939237-4.4496975 13.08180727-2.586679.3317921.1494039.7185526.1067881 1.009855-.1112725.2913025-.2180606.4411641-.5771446.3912977-.93759-.0498663-.3604453-.2915891-.665355-.6311527-.7961375-1.295423-.540322-2.6653615-.8808678-4.063-1.01-1.1613607-5.9064023 1.0953304-11.96425727 5.837922-15.67130074 4.7425916-3.70704346 11.1661178-4.43407426 16.6172696-1.88078424 5.4511519 2.55329001 9.0046987 7.95352768 9.1928084 13.97008498-.4852498.1495193-.9583061.3360674-1.415.558-.4813709.2525014-.6728847.8432802-.4312048 1.3301742.24168.486894.828031.6915635 1.3202048.4608258.8542984-.411501 1.7717935-.6762021 2.714-.783 4.2132906-.4227452 8.0262381 2.5109114 8.697515 6.6918107.6712769 4.1808992-2.0316543 8.1607324-6.165515 9.0781893z"/><path id="Shape" d="m42.5 23.868c.2372065.1191251.5120425.1390544.7639534.0553967s.4602258-.2640376.5790466-.5013967c.2581687-.5155803.5713215-1.0017384.934-1.45.2355715-.2765094.3026729-.6590182.175284-.9991997s-.4292318-.5845305-.7884821-.638295-.7194035.0915118-.9408019.3794947c-.4533615.5598819-.8449631 1.1670655-1.168 1.811-.1191967.2370841-.1392734.5118234-.055809.7637171.0834644.2518936.2636252.4602847.500809.5792829z"/><path id="Shape" d="m23.278 24.927c-.1835481.1914771-.2835059.4480314-.2778796.7132139.0056262.2651824.1163754.5172663.3078796.7007861.3791682.3627982.734256.7499542 1.063 1.159.2214418.2845872.5789485.4279157.9356533.3751141.3567048-.0528015.6573575-.2935548.7868569-.6300904.1294995-.3365356.0677875-.7167274-.1615102-.9950237-.3833803-.4785061-.7975947-.9314696-1.24-1.356-.1918691-.1831621-.4486494-.2825881-.7138357-.2763992s-.5170488.1174857-.7001643.3093992z"/><path id="Shape" d="m25 17c1.6568542 0 3-1.3431458 3-3s-1.3431458-3-3-3-3 1.3431458-3 3 1.3431458 3 3 3zm0-4c.5522847 0 1 .4477153 1 1s-.4477153 1-1 1-1-.4477153-1-1 .4477153-1 1-1z"/><path id="Shape" d="m39 17c1.6568542 0 3-1.3431458 3-3s-1.3431458-3-3-3-3 1.3431458-3 3 1.3431458 3 3 3zm0-4c.5522847 0 1 .4477153 1 1s-.4477153 1-1 1-1-.4477153-1-1 .4477153-1 1-1z"/><path id="Shape" d="m32 23c2.209139 0 4-1.790861 4-4 0-.5522847-.4477153-1-1-1s-1 .4477153-1 1c0 1.1045695-.8954305 2-2 2s-2-.8954305-2-2c0-.5522847-.4477153-1-1-1s-1 .4477153-1 1c0 2.209139 1.790861 4 4 4z"/><path id="Shape" d="m15 43h-2c-.5522847 0-1 .4477153-1 1s.4477153 1 1 1h2c.5522847 0 1-.4477153 1-1s-.4477153-1-1-1z"/><path id="Shape" d="m45 43h-26c-.5522847 0-1 .4477153-1 1s.4477153 1 1 1h26c.5522847 0 1-.4477153 1-1s-.4477153-1-1-1z"/></g></g></svg>