<svg height="60" viewBox="0 0 60 60" width="60" xmlns="http://www.w3.org/2000/svg"><g id="Page-1" fill="none" fill-rule="evenodd"><g id="003---Rainbow" fill="rgb(0,0,0)" fill-rule="nonzero" transform="translate(-1)"><path id="Shape" d="m36.529 30.923c1.05677-.6049517 2.2533262-.9231371 3.471-.923.5522847 0 1-.4477153 1-1s-.4477153-1-1-1c-1.566736.000212-3.1062341.4097336-4.466 1.188-.3099279.1786328-.5010136.5090409-.501277.8667627s.1903355.688411.5.8675.6913491.1793701 1.001277.0007373z"/><path id="Shape" d="m16 27c-1.8872487.0054686-3.6632759.8934822-4.8 2.4-.3313708.4418278-.2418278 1.0686291.2 1.4.4418278.3313708 1.0686291.2418278 1.4-.2.7521713-1.0111054 1.9398129-1.6049262 3.2-1.6.5522847 0 1-.4477153 1-1s-.4477153-1-1-1z"/><path id="Shape" d="m27 43c-1.6568542 0-3 1.3431458-3 3 0 .5522847.4477153 1 1 1s1-.4477153 1-1 .4477153-1 1-1 1 .4477153 1 1 .4477153 1 1 1 1-.4477153 1-1c0-1.6568542-1.3431458-3-3-3z"/><path id="Shape" d="m39 43c-1.6568542 0-3 1.3431458-3 3 0 .5522847.4477153 1 1 1s1-.4477153 1-1 .4477153-1 1-1 1 .4477153 1 1 .4477153 1 1 1 1-.4477153 1-1c0-1.6568542-1.3431458-3-3-3z"/><path id="Shape" d="m35 49c-.5522847 0-1 .4477153-1 1s-.4477153 1-1 1-1-.4477153-1-1-.4477153-1-1-1-1 .4477153-1 1c0 1.6568542 1.3431458 3 3 3s3-1.3431458 3-3c0-.5522847-.4477153-1-1-1z"/><path id="Shape" d="m35 0c-14.3013052.01511129-25.91154512 11.5659604-26 25.867-2.73355969 2.6701174-3.70069895 6.6676264-2.49 10.292-3.49720631.7583674-5.85933591 4.0323016-5.47632045 7.5902325s3.38783447 6.2541067 6.96632045 6.2507675h10.181c.9785301 5.7668847 5.9696943 9.9898851 11.819 10h21c4.5320412-.0031483 8.496316-3.0514251 9.6634705-7.4305983s-.7541597-8.9961005-4.6834705-11.2544017c5.7854934-7.8968269 6.6384065-18.3761683 2.2060444-27.104626-4.4323622-8.72845769-13.3966798-14.22255163-23.1860444-14.210374zm-27 48c-2.76142375.0140833-5.01141674-2.2130763-5.0255-4.9745s2.21307625-5.0114167 4.9745-5.0255h.03.021c.90625231-.0005583 1.7956168.2452008 2.573.711.3064713.2129489.7060196.2375262 1.0362797.0637443s.5362736-.5170039.5343223-.8901903c-.0019513-.3731863-.2115427-.7142352-.543602-.884554-.9100254-.5416385-1.93159538-.8685956-2.987-.956-1.2838141-3.1085932-.48435142-6.6882846 2.0000169-8.9553188 2.4843683-2.2670343 6.1220956-2.7363648 9.1005073-1.1741248s4.6602575 4.8217992 4.2074758 8.1544436c-1.8816897-.2170423-3.779772.234646-5.362 1.276-.3067179.1941883-.4841083.5393479-.4634594.9017822.0206488.3624343.2360934.685213.5628819.8433087.3267885.1580958.7135898.1266752 1.0105775-.0820909 1.8546253-1.2246777 4.2330805-1.3280888 6.187-.269-4.722983 1.732301-7.8609543 6.2303529-7.856 11.261zm44.836-12.96c-.1562138-1.0634374-.4447856-2.1031692-.859-3.095.6770953-1.9089416 1.0230726-3.9195332 1.023-5.945.0044405-9.3728299-7.1878629-17.1787975-16.529726-17.94008121-9.3418631-.7612837-17.7031192 5.77719891-19.216274 15.02708121-.6657019-.0957961-1.340421-.1122444-2.01-.049 1.5420382-10.3552017 10.8135623-17.76572795 21.2540133-16.9878676 10.4404511.77786035 18.5114733 9.4804839 18.5019867 19.9498676.0068485 3.1424317-.7349584 6.2412924-2.164 9.04zm-26.955-.5c.4980737-3.1826068-.572902-6.4096895-2.875-8.663.1873654-6.5265749 5.5585088-11.7056291 12.0875785-11.6552883 6.5290697.0503409 11.8197156 5.3116003 11.9064215 11.8402883-3.7195174-2.3920644-8.401248-2.7249648-12.4218123-.8832687s-6.8262484 5.6043496-7.4441877 9.9832687c-.3985226-.2441291-.8178164-.4526047-1.253-.623zm9.119-22.54c-7.1112884.011684-13.0866375 5.3473698-13.9 12.412-.59769-.3569154-1.2311524-.650185-1.89-.875.8843338-5.7810377 4.8549176-10.6177488 10.3529393-12.6112884 5.4980218-1.99353956 11.6458181-.8256737 16.0298249 3.045105s6.3043937 9.8265678 5.0072358 15.5291834c-.5008519-.7033418-1.0703128-1.355207-1.7-1.946.4419208-3.9566488-.8216231-7.9143144-3.4745266-10.8828943-2.6529035-2.96858-6.4442237-4.6672709-10.4254734-4.6711057zm24 38c-.0049599 4.4162219-3.5837781 7.9950401-8 8h-21c-4.1293486-.0026132-7.8324289-2.5430944-9.3211649-6.3947423s-.4569247-8.2222559 2.5972117-11.0014243c3.0541365-2.7791684 7.5024235-3.3952782 11.1969532-1.5508334.4937426.2485281 1.0954718.0497425 1.344-.444.2485281-.4937426.0497425-1.0954718-.444-1.344-1.9568938-.9727341-4.1416512-1.3944753-6.32-1.22.3534947-4.171433 3.0454093-7.7800854 6.9431465-9.307651s8.3247643-.7089041 11.418452 2.1115407c3.0936876 2.8204447 4.3170626 7.1531263 3.1554015 11.1751103-1.405872.0520976-2.7844959.4032308-4.044 1.03-.3193954.1607695-.5287595.4797221-.5492267.8367114-.0204672.3569894.1510718.6977802.45.894s.6798313.2180581.9992267.0572886c2.2678931-1.1425774 4.9440731-1.1381321 7.2081579.0119732s3.8460119 3.3086849 4.2608421 5.8140268c.0714334.4403735.1065516.8858732.105 1.332zm-6.38-9.867c.1054055-.4386302.1871898-.8826022.245-1.33 2.6983108-3.7226313 4.1460872-8.2053112 4.135-12.803.0095076-11.6434084-9.061673-21.27454187-20.6847941-21.96164122s-21.7658438 7.80820662-23.1282059 19.37164122c-.7397177.21615-1.4515687.5182084-2.121.9.7011383-10.239207 7.8354756-18.8994226 17.751105-21.54767693 9.9156293-2.64825434 20.4178516 1.30161013 26.1308152 9.82774653 5.7129637 8.5261364 5.3721765 19.7413924-.8479202 27.9049304-.4833483-.158343-.9781339-.2793649-1.48-.362z"/></g></g></svg>