<svg height="60" viewBox="0 0 60 60" width="60" xmlns="http://www.w3.org/2000/svg"><g id="Page-1" fill="none" fill-rule="evenodd"><g id="004---Rain" fill="rgb(0,0,0)" fill-rule="nonzero" transform="translate(-1)"><path id="Shape" d="m51.608 16.777c1.1378142-3.931043-.2344216-8.15864607-3.4640412-10.67206557s-7.6647563-2.8053467-11.1959588-.73693443c-3.0243665-3.42567385-7.3783345-5.38182554-11.948-5.368-7.3362796.02002654-13.7270312 5.00743838-15.529 12.119-4.65665209.7120028-8.18492568 4.577395-8.47020955 9.279519-.28528388 4.7021239 2.74979342 8.965723 7.28620955 10.235481-.190983.7741607-.28735351 1.5686298-.287 2.366.00606237 5.5203344 4.4796656 9.9939376 10 10h29c6.8336977.004319 12.6719872-4.9256182 13.8124946-11.6634728 1.1405075-6.7378547-2.7500645-13.314583-9.2044946-15.5595272zm-4.608 25.223h-29c-2.4805917-.0017141-4.8200559-1.1540446-6.333351-3.1195664-1.5132952-1.9655218-2.02920063-4.5218472-1.396649-6.9204336.242.018.483.04.73.04 1.0749565.0009161 2.1430178-.171635 3.163-.511.3394023-.1128959.5927937-.398285.6647242-.748664.0719304-.350379-.0485282-.712517-.3160001-.95-.2674719-.2374831-.6413218-.3142319-.9807241-.201336-3.4313662 1.1412288-7.20165421-.161291-9.19684523-3.1772304-1.99519102-3.0159393-1.71913387-6.9953139.67338486-9.7068691 2.39251874-2.7115552 6.30654297-3.480999 9.54746037-1.8769005.3203279.1621467.7029956.1401275 1.0026105-.0576916.299615-.1978191.4701885-.5410743.446912-.8993475s-.2368302-.6765722-.5595225-.8339609c-1.2101685-.5959519-2.5288892-.9395814-3.876-1.01 1.7777256-5.93722349 7.2333676-10.01016828 13.431-10.027 4.2776959-.01301672 8.3227473 1.94587272 10.965 5.31.008.009.02.014.028.023.7615051.96323276 1.3932378 2.02228444 1.879 3.15.1261307.3484076.4345731.5985117.8015246.6499257s.7322523-.1042913.949278-.4046188c.2170258-.3003275.2501962-.6960402.0861974-1.0283069-.4096768-.9552042-.9120834-1.86790947-1.5-2.725 1.1622302-.63695622 2.4656757-.97218686 3.791-.975 2.5196754.00335488 4.8907961 1.19255663 6.4003357 3.20999706 1.5095396 2.01744044 1.9813917 4.62776024 1.2736643 7.04600294-2.7085544-.5206295-5.5102979-.2362486-8.059.818-.3395636.1307825-.5812864.4356922-.6311527.7961375-.0498664.3604454.0999952.7195294.3912977.93759.2913024.2180606.6780629.2606764 1.009855.1112725 4.4824149-1.8630185 9.6457388-.8420693 13.0818073 2.586679 3.4360684 3.4287482 4.4680271 8.5898831 2.6145723 13.0762609-1.8534547 4.4863779-6.2272199 7.4142491-11.0813796 7.4180601z"/><path id="Shape" d="m50 26c-1.6568542 0-3 1.3431458-3 3s1.3431458 3 3 3 3-1.3431458 3-3-1.3431458-3-3-3zm0 4c-.5522847 0-1-.4477153-1-1s.4477153-1 1-1 1 .4477153 1 1-.4477153 1-1 1z"/><path id="Shape" d="m36 26c-1.6568542 0-3 1.3431458-3 3s1.3431458 3 3 3 3-1.3431458 3-3-1.3431458-3-3-3zm0 4c-.5522847 0-1-.4477153-1-1s.4477153-1 1-1 1 .4477153 1 1-.4477153 1-1 1z"/><path id="Shape" d="m46 33c-.5522847 0-1 .4477153-1 1 0 1.1045695-.8954305 2-2 2s-2-.8954305-2-2c0-.5522847-.4477153-1-1-1s-1 .4477153-1 1c0 2.209139 1.790861 4 4 4s4-1.790861 4-4c0-.5522847-.4477153-1-1-1z"/><path id="Shape" d="m19.946 17.526c-.3668884-.7303351-.8212227-1.4133477-1.353-2.034-.3630639-.4028044-.9810163-.4428339-1.3930134-.090236-.411997.3525978-.4678857.9693182-.1259866 1.390236.4260252.4966927.7900333 1.0433765 1.084 1.628.1607695.3193954.4797221.5287595.8367114.5492267.3569894.0204673.6977802-.1510718.8940001-.45.1962198-.2989282.218058-.6798313.0572885-.9992267z"/><path id="Shape" d="m39 55c0-1.853-2.039-5.336-3.75-7.933-.2922296-.3978271-.7563761-.6327947-1.25-.6327947s-.9577704.2349676-1.25.6327947c-1.711 2.597-3.75 6.08-3.75 7.933 0 2.7614237 2.2385763 5 5 5s5-2.2385763 5-5zm-8 0c0-.929 1.164-3.317 3-6.185 1.837 2.869 3 5.256 3 6.185 0 1.6568542-1.3431458 3-3 3s-3-1.3431458-3-3z"/><path id="Shape" d="m18 60c2.7600532-.0033061 4.9966939-2.2399468 5-5 0-1.853-2.039-5.336-3.75-7.933-.2922296-.3978271-.7563761-.6327947-1.25-.6327947s-.9577704.2349676-1.25.6327947c-1.711 2.597-3.75 6.08-3.75 7.933.0033061 2.7600532 2.2399468 4.9966939 5 5zm0-11.185c1.837 2.869 3 5.256 3 6.185 0 1.6568542-1.3431458 3-3 3s-3-1.3431458-3-3c0-.929 1.164-3.317 3-6.185z"/><path id="Shape" d="m55 55c0-1.853-2.039-5.336-3.75-7.933-.2922296-.3978271-.7563761-.6327947-1.25-.6327947s-.9577704.2349676-1.25.6327947c-1.711 2.597-3.75 6.08-3.75 7.933 0 2.7614237 2.2385763 5 5 5s5-2.2385763 5-5zm-8 0c0-.929 1.164-3.317 3-6.185 1.837 2.869 3 5.256 3 6.185 0 1.6568542-1.3431458 3-3 3s-3-1.3431458-3-3z"/><path id="Shape" d="m17 38h-1c-.5522847 0-1 .4477153-1 1s.4477153 1 1 1h1c.5522847 0 1-.4477153 1-1s-.4477153-1-1-1z"/><path id="Shape" d="m31 38h-10c-.5522847 0-1 .4477153-1 1s.4477153 1 1 1h10c.5522847 0 1-.4477153 1-1s-.4477153-1-1-1z"/></g></g></svg>