<svg height="60" viewBox="0 0 60 60" width="60" xmlns="http://www.w3.org/2000/svg"><g id="Page-1" fill="none" fill-rule="evenodd"><g id="005---Heavy-Rain" fill="rgb(0,0,0)" fill-rule="nonzero" transform="translate(-1)"><path id="Shape" d="m49 28c1.1373619.0034029 2.1779586-.6394098 2.684-1.658.2471474-.4940187.0470187-1.0948525-.447-1.342-.4940187-.2471474-1.0948526-.0470187-1.342.447-.2070599.415452-.6727907.6337945-1.1245837.5272238-.4517929-.1065707-.7708502-.510032-.7704163-.9742238 0-.5522847-.4477153-1-1-1s-1 .4477153-1 1c0 1.6568542 1.3431458 3 3 3z"/><path id="Shape" d="m33 28c1.6568542 0 3-1.3431458 3-3 0-.5522847-.4477153-1-1-1s-1 .4477153-1 1c.0047827.4680468-.3157375.8767898-.7714226.9837559s-.9246003-.1164674-1.1285774-.5377559c-.1607695-.3193954-.4797221-.5287595-.8367114-.5492267-.3569894-.0204673-.6977802.1510718-.8940001.45-.1962198.2989282-.218058.6798313-.0572885.9992267.5079846 1.0181664 1.5501593 1.659445 2.688 1.654z"/><path id="Shape" d="m18.158 18.422c.1607695.3193954.4797221.5287595.8367114.5492267.3569894.0204673.6977802-.1510718.8940001-.45.1962198-.2989282.218058-.6798313.0572885-.9992267-.3668884-.7303351-.8212227-1.4133477-1.353-2.034-.3630639-.4028044-.9810163-.4428339-1.3930134-.090236-.411997.3525978-.4678857.9693182-.1259866 1.390236.4264322.4985618.7904541 1.0472811 1.084 1.634z"/><path id="Shape" d="m32.75 47.068c-1.711 2.596-3.75 6.079-3.75 7.932 0 2.7614237 2.2385763 5 5 5s5-2.2385763 5-5c0-1.853-2.039-5.336-3.75-7.933-.2923887-.3977102-.7566292-.6324922-1.2502531-.6322948-.4936239.0001975-.9576765.2353508-1.2497469.6332948zm4.25 7.932c0 1.6568542-1.3431458 3-3 3s-3-1.3431458-3-3c0-.929 1.164-3.317 3-6.185 1.837 2.869 3 5.256 3 6.185z"/><path id="Shape" d="m16.75 47.068c-1.711 2.596-3.75 6.079-3.75 7.932 0 2.7614237 2.2385763 5 5 5s5-2.2385763 5-5c0-1.853-2.039-5.336-3.75-7.933-.2923887-.3977102-.7566292-.6324922-1.2502531-.6322948-.4936239.0001975-.9576765.2353508-1.2497469.6332948zm4.25 7.932c0 1.6568542-1.3431458 3-3 3s-3-1.3431458-3-3c0-.929 1.164-3.317 3-6.185 1.837 2.869 3 5.256 3 6.185z"/><path id="Shape" d="m48.75 47.068c-1.71 2.595-3.75 6.077-3.75 7.932 0 2.7614237 2.2385763 5 5 5s5-2.2385763 5-5c0-1.855-2.039-5.337-3.75-7.933-.2923887-.3977102-.7566292-.6324922-1.2502531-.6322948-.4936239.0001975-.9576765.2353508-1.2497469.6332948zm4.25 7.932c0 1.6568542-1.3431458 3-3 3s-3-1.3431458-3-3c0-.93 1.163-3.318 3-6.186 1.837 2.868 3 5.256 3 6.186z"/><path id="Shape" d="m38 36c.6871054-.0443665 1.3541071-.249914 1.947-.6.3229551-.1978925.6801091-.3335635 1.053-.4.622 0 1.743 1 3 1 1.6224449-.0802654 2.9197346-1.3775551 3-3 0-2.405-2.294-5-6-5s-6 2.595-6 5c.0802654 1.6224449 1.3775551 2.9197346 3 3zm3-6c2.471 0 4 1.557 4 3-.0710467.5200264-.4799736.9289533-1 1-.622 0-1.743-1-3-1-.6871054.0443665-1.3541071.249914-1.947.6-.3229551.1978925-.6801091.3335635-1.053.4-.5200264-.0710467-.9289533-.4799736-1-1 0-1.443 1.529-3 4-3z"/><path id="Shape" d="m27.932 36.7c.6477603.4622324 1.4526308.6481659 2.2374988.5168857.784868-.1312801 1.4854209-.5690169 1.9475012-1.2168857.742-1.041.864-3.832.883-4.983.0053434-.3285521-.1510645-.6387627-.4183997-.8298305-.2673353-.1910678-.6114777-.2386068-.9206003-.1271695-1.084.391-3.684 1.412-4.427 2.452-.4633853.6477289-.6501979 1.4531313-.5192679 2.2387113s.5688563 1.4868593 1.2172679 1.9492887zm.928-3.022c.62175-.495212 1.3180531-.88876 2.063-1.166-.0197912.7941582-.1663034 1.5800579-.434 2.328-.3208774.4498359-.9456641.5543774-1.3955.2335-.4498359-.3208775-.5543774-.9456641-.2335-1.3955z"/><path id="Shape" d="m49 31.016c.019 1.151.141 3.942.884 4.983.6230712.8720853 1.6640647 1.3455208 2.7308483 1.241968s1.9972876-.7683619 2.441-1.744.3332229-2.1138827-.2898483-2.985968c-.743-1.04-3.343-2.061-4.427-2.452-.3091226-.1114373-.653265-.0638983-.9206003.1271695-.2673352.1910678-.4237431.5012784-.4183997.8298305zm4.139 2.658c.3153021.4492991.2095116 1.0687677-.2370309 1.3879619s-1.0669069.2187902-1.3899691-.2249619c-.2677615-.7483066-.4146017-1.5344921-.435-2.329.7450196.2764242 1.4411174.670047 2.062 1.166z"/><path id="Shape" d="m51.608 16.777c1.1378142-3.931043-.2344216-8.15864607-3.4640412-10.67206557s-7.6647563-2.8053467-11.1959588-.73693443c-3.0243665-3.42567385-7.3783345-5.38182554-11.948-5.368-7.3362796.02002654-13.7270312 5.00743838-15.529 12.119-4.65665209.7120028-8.18492568 4.577395-8.47020955 9.279519-.28528388 4.7021239 2.74979342 8.965723 7.28620955 10.235481-.190983.7741607-.28735351 1.5686298-.287 2.366.00606237 5.5203344 4.4796656 9.9939376 10 10h29c6.8336977.004319 12.6719872-4.9256182 13.8124946-11.6634728 1.1405075-6.7378547-2.7500645-13.314583-9.2044946-15.5595272zm-4.608 25.223h-29c-2.4805917-.0017141-4.8200559-1.1540446-6.333351-3.1195664-1.5132952-1.9655218-2.02920063-4.5218472-1.396649-6.9204336.242.018.483.04.73.04 1.0749565.0009161 2.1430178-.171635 3.163-.511.3394023-.1128959.5927937-.398285.6647242-.748664.0719304-.350379-.0485282-.712517-.3160001-.95-.2674719-.2374831-.6413218-.3142319-.9807241-.201336-3.4313662 1.1412288-7.20165421-.161291-9.19684523-3.1772304-1.99519102-3.0159393-1.71913387-6.9953139.67338486-9.7068691 2.39251874-2.7115552 6.30654297-3.480999 9.54746037-1.8769005.3203279.1621467.7029956.1401275 1.0026105-.0576916.299615-.1978191.4701885-.5410743.446912-.8993475s-.2368302-.6765722-.5595225-.8339609c-1.2101685-.5959519-2.5288892-.9395814-3.876-1.01 1.7777256-5.93722349 7.2333676-10.01016828 13.431-10.027 4.2776959-.01301672 8.3227473 1.94587272 10.965 5.31.008.009.02.014.028.023.7615051.96323276 1.3932378 2.02228444 1.879 3.15.1261307.3484076.4345731.5985117.8015246.6499257s.7322523-.1042913.949278-.4046188c.2170258-.3003275.2501962-.6960402.0861974-1.0283069-.4096768-.9552042-.9120834-1.86790947-1.5-2.725 1.1622302-.63695622 2.4656757-.97218686 3.791-.975 2.5196754.00335488 4.8907961 1.19255663 6.4003357 3.20999706 1.5095396 2.01744044 1.9813917 4.62776024 1.2736643 7.04600294-2.7085544-.5206295-5.5102979-.2362486-8.059.818-.3395636.1307825-.5812864.4356922-.6311527.7961375-.0498664.3604454.0999952.7195294.3912977.93759.2913024.2180606.6780629.2606764 1.009855.1112725 4.4824149-1.8630185 9.6457388-.8420693 13.0818073 2.586679 3.4360684 3.4287482 4.4680271 8.5898831 2.6145723 13.0762609-1.8534547 4.4863779-6.2272199 7.4142491-11.0813796 7.4180601z"/></g></g></svg>