<svg height="512" viewBox="0 0 60 60" width="512" xmlns="http://www.w3.org/2000/svg"><g id="Page-1" fill="none" fill-rule="evenodd"><g id="006---Thunder" fill="rgb(0,0,0)" fill-rule="nonzero" transform="translate(-1)"><path id="Shape" d="m8.286 31.634c-.19016342.7742902-.28619097 1.5686999-.286 2.366.01866538 5.2682995 4.1119566 9.6232923 9.369 9.968l9.96 15.37c.280199.4137688.747284.6617321 1.247.662.1926883-.0003389.383622-.0366265.563-.107.6548851-.253989 1.0441603-.9301204.935-1.624l-2.246-14.269h19.172c6.8336977.004319 12.6719872-4.9256182 13.8124946-11.6634728 1.1405075-6.7378547-2.7500645-13.314583-9.2044946-15.5595272 1.138211-3.9313326-.2340886-8.1594228-3.4640979-10.6729741-3.2300093-2.51355131-7.6656532-2.80512738-11.1969021-.7360259-3.0238196-3.42584083-7.3775719-5.38205933-11.947-5.368-7.3363962.01906592-13.727379 5.00697938-15.528 12.119-4.65685184.7114097-8.18567083 4.576495-8.47144137 9.2786975-.28577054 4.7022024 2.74901453 8.9661827 7.28544137 10.2363025zm6.303 4.366h2.419c.5333689.0032463 1.0283423-.2769848 1.3-.736.2718736-.4503669.2840584-1.011251.032-1.473l-7.999-14.791h14.9l4.621 19h-3.238c-.4430808-.000537-.8641294.1931746-1.152.53-.2835848.3309385-.4081772.7693866-.341 1.2l2.607 16.56zm-4.347-21.957c1.4828904-.1416011 2.9759817.1311918 4.313.788.3203279.1621467.7029956.1401275 1.0026105-.0576916.299615-.1978191.4701885-.5410743.446912-.8993475s-.2368302-.6765722-.5595225-.8339609c-1.2104217-.5952712-2.5290004-.9388637-3.876-1.01 1.7760738-5.9388066 7.2323237-10.01342404 13.431-10.03 4.2775589-.01241527 8.3223604 1.94635316 10.965 5.31.009.012.024.017.034.029.7588105.96162255 1.3881809 2.01864214 1.872 3.144.2320102.4811719.8012314.6950338 1.2926814.4856729s.7315764-.7680102.5453186-1.2686729c-.4100801-.95500723-.9124655-1.86767406-1.5-2.725 1.1620878-.63731634 2.4656267-.97257101 3.791-.975 2.5207606.00041441 4.8938885 1.18889021 6.4040769 3.20719775 1.5101884 2.01830755 1.9807776 4.63034815 1.2699231 7.04880225-2.7085754-.520157-5.5101824-.2357899-8.059.818-.3395636.1307825-.5812864.4356922-.6311527.7961375-.0498664.3604454.0999952.7195294.3912977.93759.2913024.2180606.6780629.2606764 1.009855.1112725 2.4155792-.9941562 5.0861917-1.1879684 7.62-.553.01971.0115167.0400783.0218678.061.031 5.8321635 1.5386424 9.6158997 7.1673401 8.8389157 13.1487988-.7769839 5.9814587-5.873204 10.4566613-11.9049157 10.4542012h-19.487l-.313-2h3.291c.4649727.0026598.9048897-.2104654 1.191-.577.2847228-.3592015.3873483-.8298756.278-1.275l-4.864-20c-.1636934-.6781912-.7733589-1.1539873-1.471-1.148h-16.113c-.53336885-.0032463-1.02834231.2769848-1.3.736-.27248435.4501895-.28467634 1.0114017-.032 1.473l8 14.791h-2.5c-.5540732-.0012442-1.0642646.3012621-1.329.788-.2612969.4803813-.238654 1.0652578.059 1.524l3.5 5.4c-3.4795806-.9499237-5.8975176-4.1051066-5.91-7.712.00087-.9430948.170196-1.8784516.5-2.762.1051645-.2812893.0783479-.5949488-.0730395-.8543039-.1513874-.2593552-.4113166-.4369452-.7079605-.4836961-3.97060063-.6456705-6.8441999-4.139376-6.71161743-8.1599458s3.23010577-7.3173713 7.23461743-7.7000542z"/><path id="Shape" d="m35 29c-.0038092 1.4645053 1.0530344 2.7165283 2.4973965 2.9586196s2.8516848-.59691 3.3256035-1.9826196c.0581332.0134436.1173859.0214779.177.024.4494307.0003074.8438561-.2992511.9641796-.7322756.1203235-.4330246-.0630173-.8931255-.4481796-1.1247244l-5-3c-.3065026-.1918041-.6926712-.2032165-1.0099658-.0298476-.3172946.173369-.5162906.5045139-.5204443.8660598-.0041536.3615458.1871822.6971751.5004101.8777878l.27.162c-.4847351.5462955-.7535374 1.2506571-.756 1.981zm3.993-.038c0 .014.007.024.007.038.0041542.4958882-.3557424.9199141-.8457127.9964086-.4899704.0764945-.9619886-.2176523-1.1091848-.6912086-.1471961-.4735564.0748996-.9834555.5218975-1.1982z"/><path id="Shape" d="m49 30c.0592787-.0025834.1181939-.0106173.176-.024.3931093 1.1454667 1.4379592 1.9409952 2.6467302 2.0151691 1.2087709.0741739 2.3430476-.5876368 2.8732589-1.6764457s.3517795-2.389862-.4519891-3.2957234l.27-.162c.3132279-.1806127.5045637-.516242.5004101-.8777878-.0041537-.3615459-.2031497-.6926908-.5204443-.8660598-.3172946-.1733689-.7034632-.1619565-1.0099658.0298476l-5 3c-.3851623.2315989-.5685031.6916998-.4481796 1.1247244.1203235.4330245.5147489.732583.9641796.7322756zm4-1c0 .5522847-.4477153 1-1 1s-1-.4477153-1-1c0-.014.006-.024.007-.038l1.426-.855c.3438522.1651587.5637916.5115536.567.893z"/><path id="Shape" d="m42 37c.5522847 0 1-.4477153 1-1 0-1.1045695.8954305-2 2-2s2 .8954305 2 2c0 .5522847.4477153 1 1 1s1-.4477153 1-1c0-2.209139-1.790861-4-4-4s-4 1.790861-4 4c0 .5522847.4477153 1 1 1z"/><path id="Shape" d="m37.75 47.068c-1.711 2.595-3.75 6.077-3.75 7.932.0000001 2.7614237 2.2385763 4.9999999 5 4.9999999s4.9999999-2.2385762 5-4.9999999c0-1.855-2.039-5.337-3.75-7.933-.2923887-.3977102-.7566292-.6324922-1.2502531-.6322948-.4936239.0001975-.9576765.2353508-1.2497469.6332948zm4.25 7.932c0 1.6568542-1.3431458 3-3 3s-3-1.3431458-3-3c0-.93 1.163-3.318 3-6.186 1.837 2.868 3 5.256 3 6.186z"/><path id="Shape" d="m13.75 47.068c-1.711 2.595-3.75 6.077-3.75 7.932 0 2.7614237 2.2385763 5 5 5s5-2.2385763 5-5c0-1.855-2.039-5.337-3.75-7.933-.2923887-.3977102-.7566292-.6324922-1.2502531-.6322948-.4936239.0001975-.9576765.2353508-1.2497469.6332948zm4.25 7.932c0 1.6568542-1.3431458 2.9999999-3 2.9999999s-3-1.3431457-3-2.9999999c0-.93 1.163-3.318 3-6.186 1.837 2.868 3 5.256 3 6.186z"/><path id="Shape" d="m5 54c2.209139 0 4-1.790861 4-4 0-1.136-.924-3.129-2.747-5.924-.29141963-.4014131-.75745775-.6389787-1.2535-.6389787s-.96208037.2375656-1.2535.6389787c-1.822 2.795-2.746 4.788-2.746 5.924 0 2.209139 1.790861 4 4 4zm0-8.171c1.378 2.2 2 3.664 2 4.171 0 1.1045695-.8954305 2-2 2s-2-.8954305-2-2c0-.507.622-1.973 2-4.171z"/><path id="Shape" d="m49.746 47.077c-1.822 2.794-2.746 4.787-2.746 5.923 0 2.209139 1.790861 4 4 4s4-1.790861 4-4c0-1.136-.924-3.129-2.747-5.924-.2915797-.401297-.7577126-.6386767-1.2537549-.6384788s-.9619856.2379494-1.2532451.6394788zm3.254 5.923c0 1.1045695-.8954305 2-2 2s-2-.8954305-2-2c0-.507.622-1.973 2-4.171 1.378 2.198 2 3.664 2 4.171z"/></g></g></svg>