<svg height="60" viewBox="0 0 60 60" width="60" xmlns="http://www.w3.org/2000/svg"><g id="Page-1" fill="none" fill-rule="evenodd"><g id="008---Full-Moon" fill="rgb(0,0,0)" fill-rule="nonzero" transform="translate(0 -1)"><path id="Shape" d="m.245 34.768c1.98113066 15.4536883 15.4764302 26.8094942 31.0413322 26.1201571s28.0034844-13.1937007 28.6107148-28.7620221c.6072305-15.5683214-10.8195985-29.00353703-26.2835213-30.90312965-15.4639228-1.89959261-29.80272648 8.37056549-32.9815257 23.62299465-.6792428 3.262876-.81003392 6.6161305-.387 9.922zm1.944-.656c-.33124429-2.8107431-.22192973-5.6559584.324-8.433 1.81930433-1.0483613 4.10006752-.8467376 5.70724014.5045306 1.60717263 1.3512682 2.19744216 3.5635329 1.47705377 5.5358336-.72038838 1.9723008-2.5975505 3.2833291-4.69729391 3.2806358-1.00609727.0005966-1.98782954-.3095344-2.811-.888zm16.824 22.634c.2013824-3.2106776 2.8990764-5.6912068 6.1153415-5.6230554 3.2162651.0681515 5.8064619 2.6607291 5.8716585 5.8770554.0019109.674516-.1124288 1.3443168-.338 1.98-3.9995768.1152967-7.9758342-.6472545-11.649-2.234zm37.5-34.712c.816211 2.4109707 1.2934413 4.9236654 1.418 7.466-.590057.3297059-1.2550787.5019021-1.931.5-1.4919245.0016442-2.8607747-.827142-3.5508298-2.1498911-.6900552-1.3227491-.5866186-2.9196018.268317-4.1422736.8549355-1.2226719 2.3192679-1.8679379 3.7985128-1.6738353zm-26.513-19.034c11.2073687.02508301 21.3264085 6.71254074 25.743 17.013-2.3527144.0988154-4.4296963 1.5658315-5.3093883 3.7501326-.8796919 2.1843012-.3991588 4.681315 1.2283866 6.3831156 1.6275455 1.7018006 4.1006521 2.2931835 6.3220017 1.5117518-.2994319 14.1391067-11.1245506 25.8207843-25.2 27.194.6847492-2.8616301-.2576817-5.8681049-2.4534413-7.8267902-2.1957595-1.9586853-5.289928-2.5529818-8.0550841-1.5471389s-4.7543436 3.4492421-5.1784746 6.3609291c-7.49239053-3.9172372-12.82673986-10.9953107-14.528-19.277 2.84701193 1.0632538 6.05484033.1680173 7.9398373-2.2158393 1.8849969-2.3838565 2.0164765-5.7116673.3254309-8.2368109-1.69104565-2.5251436-4.81824477-3.6706728-7.7402682-2.8353498 3.47420991-11.9811252 14.4313793-20.2374863 26.906-20.274z"/><path id="Shape" d="m18.479 9.943c9.359557-5.06821473 20.9340218-3.40833605 28.492 4.086.3923789.3789722 1.0160848.3735524 1.4018186-.0121814s.3911536-1.0094397.0121814-1.4018186c-8.1868855-8.11874172-20.7251103-9.91717101-30.864-4.427-.3225076.16632723-.529605.49431112-.5411317.85699972-.0115266.3626886.1743267.70316087.485622.889631.3112953.18647018.6991774.18967318 1.0135097.00836928z"/><path id="Shape" d="m12.322 14.322c.2653486.0007185.5199469-.1047939.707-.293.514-.513 1.056-1.009 1.612-1.472.27438-.2290072.4057436-.5869986.3446075-.9391223-.0611361-.3521236-.3054839-.6448836-.641-.768s-.7112275-.057885-.9856075.1711223c-.6.5-1.188 1.038-1.744 1.594-.2859079.2859943-.3714219.7160366-.216678 1.0896546.1547439.3736179.5192821.6172591.923678.6173454z"/><path id="Shape" d="m23 35c-.5522847 0-1 .4477153-1 1s-.4477153 1-1 1-1-.4477153-1-1-.4477153-1-1-1-1 .4477153-1 1c0 1.6568542 1.3431458 3 3 3s3-1.3431458 3-3c0-.5522847-.4477153-1-1-1z"/><path id="Shape" d="m41 35c-.5522847 0-1 .4477153-1 1s-.4477153 1-1 1-1-.4477153-1-1-.4477153-1-1-1-1 .4477153-1 1c0 1.6568542 1.3431458 3 3 3s3-1.3431458 3-3c0-.5522847-.4477153-1-1-1z"/><path id="Shape" d="m34 40h-8c-.5522847 0-1 .4477153-1 1v1c0 2.7614237 2.2385763 5 5 5s5-2.2385763 5-5v-1c0-.5522847-.4477153-1-1-1zm-4 5c-1.6568542 0-3-1.3431458-3-3h6c0 1.6568542-1.3431458 3-3 3z"/><path id="Shape" d="m42 30c1.6568542 0 3-1.3431458 3-3s-1.3431458-3-3-3-3 1.3431458-3 3 1.3431458 3 3 3zm0-4c.5522847 0 1 .4477153 1 1s-.4477153 1-1 1-1-.4477153-1-1 .4477153-1 1-1z"/><path id="Shape" d="m22 29c3.3137085 0 6-2.6862915 6-6s-2.6862915-6-6-6-6 2.6862915-6 6c.0033074 3.3123376 2.6876624 5.9966926 6 6zm0-10c2.209139 0 4 1.790861 4 4s-1.790861 4-4 4-4-1.790861-4-4 1.790861-4 4-4z"/><path id="Shape" d="m42 45c0 2.209139 1.790861 4 4 4s4-1.790861 4-4-1.790861-4-4-4-4 1.790861-4 4zm6 0c0 1.1045695-.8954305 2-2 2s-2-.8954305-2-2 .8954305-2 2-2 2 .8954305 2 2z"/><path id="Shape" d="m10 44c0 1.6568542 1.3431458 3 3 3s3-1.3431458 3-3-1.3431458-3-3-3-3 1.3431458-3 3zm4 0c0 .5522847-.4477153 1-1 1s-1-.4477153-1-1 .4477153-1 1-1 1 .4477153 1 1z"/><path id="Shape" d="m37 13c-2.209139 0-4 1.790861-4 4s1.790861 4 4 4 4-1.790861 4-4-1.790861-4-4-4zm0 6c-1.1045695 0-2-.8954305-2-2s.8954305-2 2-2 2 .8954305 2 2-.8954305 2-2 2z"/></g></g></svg>