<svg height="512" viewBox="0 0 40 60" width="512" xmlns="http://www.w3.org/2000/svg"><g id="Page-1" fill="none" fill-rule="evenodd"><g id="009---Low-Temperature" fill="rgb(0,0,0)" fill-rule="nonzero" transform="translate(-1 -1)"><path id="Shape" d="m18.7 60.871c.77437.0858469 1.552886.1289123 2.332.129 4.9117495.0146749 9.653031-1.7998456 13.3-5.09 4.7049574-4.2072427 7.1478287-10.3885642 6.5902253-16.6755821-.5576034-6.2870178-4.0502433-11.9419115-9.4222253-15.2554179-.300896-.1735375-.4901853-.4907863-.5-.838v-12.141c.0286632-2.66084841-1.0156984-5.22107538-2.8973115-7.10268849-1.8816131-1.88161312-4.4418401-2.92597471-7.1026885-2.89731151-5.5203344.00606237-9.9939376 4.47966557-10 10v12.141c.0077831.3142798-.1477333.6101773-.411.782-6.7644715 4.0827642-10.46761674 11.7850864-9.432 19.618 1.19492658 9.1095278 8.41955549 16.2464382 17.543 17.33zm-7.065-35.24c.5944687-.3751124 1.030416-.9555451 1.225-1.631h1.14c.5522847 0 1-.4477153 1-1s-.4477153-1-1-1h-1v-2h3c.5522847 0 1-.4477153 1-1s-.4477153-1-1-1h-3v-2h1c.5522847 0 1-.4477153 1-1s-.4477153-1-1-1h-1v-2h3c.5522847 0 1-.4477153 1-1s-.4477153-1-1-1h-2.931c.507003-3.995865 3.9031042-6.99330651 7.931-7 2.1286952-.02298571 4.176909.81248585 5.6822116 2.31778843 1.5053026 1.50530259 2.3407741 3.55351634 2.3177884 5.68221157v12.141c.0071574 1.041117.5562618 2.0032814 1.449 2.539 6.858918 4.2302593 10.0704273 12.5038368 7.8618044 20.2537939-2.2086228 7.7499571-9.2991317 13.0876121-17.3576309 13.0666287s-15.12111478-5.3954917-17.28934792-13.1568456c-2.16823313-7.7613539 1.08631935-16.0180945 7.96717442-20.212577z"/><path id="Shape" d="m21 57c8.836556 0 16-7.163444 16-16s-7.163444-16-16-16-16 7.163444-16 16c.01046962 8.8322157 7.1677843 15.9895304 16 16zm0-30c7.7319865 0 14 6.2680135 14 14s-6.2680135 14-14 14-14-6.2680135-14-14c.00826732-7.7285595 6.2714405-13.9917327 14-14z"/><path id="Shape" d="m21 7c.163 0 4 .045 4 4 0 .5522847.4477153 1 1 1s1-.4477153 1-1c.061006-1.60922649-.5515224-3.17105294-1.6902347-4.30976529-1.1387124-1.13871234-2.7005388-1.75124066-4.3097653-1.69023471-.5522847 0-1 .44771525-1 1s.4477153 1 1 1z"/><path id="Shape" d="m13 42c1.6568542 0 3-1.3431458 3-3s-1.3431458-3-3-3-3 1.3431458-3 3 1.3431458 3 3 3zm0-4c.5522847 0 1 .4477153 1 1s-.4477153 1-1 1-1-.4477153-1-1 .4477153-1 1-1z"/><path id="Shape" d="m29 42c1.6568542 0 3-1.3431458 3-3s-1.3431458-3-3-3-3 1.3431458-3 3 1.3431458 3 3 3zm0-4c.5522847 0 1 .4477153 1 1s-.4477153 1-1 1-1-.4477153-1-1 .4477153-1 1-1z"/><path id="Shape" d="m18 47c.5522847 0 1-.4477153 1-1 0-1.1045695.8954305-2 2-2s2 .8954305 2 2c0 .5522847.4477153 1 1 1s1-.4477153 1-1c0-2.209139-1.790861-4-4-4s-4 1.790861-4 4c0 .5522847.4477153 1 1 1z"/><path id="Shape" d="m14.293 43.293-1 1c-.2599566.2510745-.3642126.6228779-.2726972.9725073.0915155.3496295.3645604.6226744.7141899.7141899.3496294.0915154.7214328-.0127406.9725073-.2726972l1-1c.3789722-.3923789.3735524-1.0160848-.0121814-1.4018186s-1.0094397-.3911536-1.4018186-.0121814z"/><path id="Shape" d="m11.707 43.293c-.3904999-.3903819-1.0235001-.3903819-1.414 0l-1 1c-.25995658.2510745-.3642126.6228779-.27269716.9725073.09151544.3496295.3645604.6226744.71418984.7141899.34962942.0915154.72143282-.0127406.97250732-.2726972l1-1c.3903819-.3904999.3903819-1.0235001 0-1.414z"/><path id="Shape" d="m27.293 45.707c.3923789.3789722 1.0160848.3735524 1.4018186-.0121814s.3911536-1.0094397.0121814-1.4018186l-1-1c-.3923789-.3789722-1.0160848-.3735524-1.4018186.0121814s-.3911536 1.0094397-.0121814 1.4018186z"/><path id="Shape" d="m30.293 43.293c-.3903819.3904999-.3903819 1.0235001 0 1.414l1 1c.3923789.3789722 1.0160848.3735524 1.4018186-.0121814s.3911536-1.0094397.0121814-1.4018186l-1-1c-.3904999-.3903819-1.0235001-.3903819-1.414 0z"/></g></g></svg>