<svg height="60" viewBox="0 0 60 60" width="60" xmlns="http://www.w3.org/2000/svg"><g id="Page-1" fill="none" fill-rule="evenodd"><g id="011---Sunny-and-Clouds" fill="rgb(0,0,0)" fill-rule="nonzero" transform="translate(-1)"><path id="Shape" d="m30 21c-.5522847 0-1 .4477153-1 1 0 1.1045695-.8954305 2-2 2s-2-.8954305-2-2c0-.5522847-.4477153-1-1-1s-1 .4477153-1 1c0 2.209139 1.790861 4 4 4s4-1.790861 4-4c0-.5522847-.4477153-1-1-1z"/><path id="Shape" d="m15.293 22.293-1 1c-.2599566.2510745-.3642126.6228779-.2726972.9725073.0915155.3496295.3645604.6226744.7141899.7141899.3496294.0915154.7214328-.0127406.9725073-.2726972l1-1c.3789722-.3923789.3735524-1.0160848-.0121814-1.4018186s-1.0094397-.3911536-1.4018186-.0121814z"/><path id="Shape" d="m19.293 22.293-1 1c-.2599566.2510745-.3642126.6228779-.2726972.9725073.0915155.3496295.3645604.6226744.7141899.7141899.3496294.0915154.7214328-.0127406.9725073-.2726972l1-1c.3789722-.3923789.3735524-1.0160848-.0121814-1.4018186s-1.0094397-.3911536-1.4018186-.0121814z"/><path id="Shape" d="m37.293 23.707 1 1c.3923789.3789722 1.0160848.3735524 1.4018186-.0121814s.3911536-1.0094397.0121814-1.4018186l-1-1c-.3923789-.3789722-1.0160848-.3735524-1.4018186.0121814s-.3911536 1.0094397-.0121814 1.4018186z"/><path id="Shape" d="m34.293 24.707c.3923789.3789722 1.0160848.3735524 1.4018186-.0121814s.3911536-1.0094397.0121814-1.4018186l-1-1c-.3923789-.3789722-1.0160848-.3735524-1.4018186.0121814s-.3911536 1.0094397-.0121814 1.4018186z"/><path id="Shape" d="m53.246 41.2c.9946697-4.1260087-.1925199-8.4740055-3.146-11.522l2.352-2.351c.7304951-.7338689.7304951-1.9201311 0-2.654l-4.221-4.221 1.507-6.074c.2393836-.9875378-.3554048-1.9850753-1.338-2.244l-5.8-1.56-1.727-6.038c-.2967853-.95290876-1.2858334-1.50842557-2.254-1.266l-6.07 1.5-4.212-4.208c-.7404573-.72008165-1.9181577-.72450245-2.664-.01l-4.23 4.22-6.043-1.501c-.9919565-.25320279-2.0027956.33965036-2.266 1.329l-1.56 5.8-5.986 1.718c-.98870317.2780286-1.56877599 1.3007416-1.3 2.292l1.559 5.783-4.331 4.5c-.71799944.7158724-.72380499 1.8769836-.013 2.6l4.344 4.514-1.566 5.793c-.26166307.9869575.31716727 2.0012464 1.3 2.278l5.989 1.72 1.559 5.792c.2597275.9891517 1.266907 1.5852558 2.259 1.337l5.695-1.414c-.3982088 3.1978521.5888486 6.4134849 2.7126298 8.8371974 2.1237811 2.4237125 5.1819191 3.8245584 8.4043702 3.8498026h19.459c4.8682768-.0778908 8.8861748-3.830641 9.2957258-8.6822855.4095511-4.8516445-2.9223968-9.2248312-7.7087258-10.1177145zm-32.217 4.07-6 1.488-1.545-5.758c-.1768582-.6247854-.6614527-1.1154183-1.284-1.3l-5.952-1.709 1.552-5.743c.16912081-.6343061-.00788699-1.3108101-.466-1.781l-4.304-4.467 4.3-4.469c.45953862-.4693803.63809357-1.1459896.47-1.781l-1.552-5.741 5.968-1.709c.6176679-.1878399 1.0966296-.6781156 1.27-1.3l1.547-5.748 5.979 1.484c.6422462.17232159 1.3275402-.0140906 1.794-.488l4.194-4.194 4.182 4.182c.4667763.46985493 1.1472627.65775897 1.789.494l6.023-1.493 1.7 5.941c.167575.6432141.671776 1.1443501 1.316 1.308l5.748 1.547-1.484 5.979c-.1692331.6409396.0129342 1.3235915.479 1.795l4.193 4.193-2.365 2.364c-1.0880775-.8095908-2.3052412-1.42933-3.6-1.833.2736048-9.3849563-6.7149573-17.40267741-16.0493961-18.41288371-9.3344387-1.01020631-17.8765136 5.32673381-19.61707425 14.55293091-1.74056066 9.226197 3.90556975 18.2398014 12.96647035 20.6999528-.3040251.5904932-.5556566 1.2065217-.752 1.841-.1685486-.0039185-.3368242.0156015-.5.058zm8.328-7.609c-2.3539583.6236455-4.4380289 2.0029545-5.932 3.926-8.1737274-1.8739249-13.51387723-9.7407398-12.2384161-18.0289611 1.2754612-8.2882213 8.7337463-14.18550543 17.0927032-13.5152419 8.3589569.6702636 14.7822402 7.6806423 14.7207129 16.066203-3.3692667-.4146624-6.7585776.5970079-9.3492935 2.7906567-2.5907158 2.1936487-4.1472726 5.3698156-4.2937065 8.7613433zm22.302 20.339h-19.459c-5.1211292-.0472952-9.2371697-4.2317873-9.2-9.353 0-6.695 7.213-11.468 13.3-8.371.4899383.2363237 1.0789165.0376851 1.325657-.4470907s.0607348-1.0778646-.418657-1.3349093c-1.7981437-.909707-3.8103368-1.3117999-5.82-1.163.3104085-3.8708828 2.8040752-7.2245996 6.4216459-8.6364317 3.6175706-1.411832 7.7237254-.6338325 10.5740963 2.0034905 2.850371 2.6373231 3.9443743 6.6708013 2.8172578 10.3869412-1.2980927.0554651-2.5692583.3882596-3.728.976-.3263766.157429-.5420528.4791008-.563752.8408116-.0216991.3617109.1539743.7068598.4591895.9021782.3052152.1953185.6922116.2102427 1.0115625.0390102 2.7484452-1.3024106 6.0129569-.800041 8.2426607 1.2684476s2.9752063 5.2861956 1.8823409 8.124482c-1.0928653 2.8382863-3.8038331 4.7250999-6.8450016 4.7640704z"/><path id="Shape" d="m41.463 30c-2.5459062-.0001207-4.9402554 1.2100464-6.45 3.26-.3313708.4418278-.2418278 1.0686291.2 1.4.4418278.3313708 1.0686291.2418278 1.4-.2 1.1336012-1.5444662 2.9341653-2.457742 4.85-2.46.5522847 0 1-.4477153 1-1s-.4477153-1-1-1z"/><path id="Shape" d="m20 15c-1.6568542 0-3 1.3431458-3 3s1.3431458 3 3 3 3-1.3431458 3-3-1.3431458-3-3-3zm0 4c-.5522847 0-1-.4477153-1-1s.4477153-1 1-1 1 .4477153 1 1-.4477153 1-1 1z"/><path id="Shape" d="m37 18c0-1.6568542-1.3431458-3-3-3s-3 1.3431458-3 3 1.3431458 3 3 3 3-1.3431458 3-3zm-4 0c0-.5522847.4477153-1 1-1s1 .4477153 1 1-.4477153 1-1 1-1-.4477153-1-1z"/><path id="Shape" d="m32 47c0-1.6568542-1.3431458-3-3-3s-3 1.3431458-3 3c0 .5522847.4477153 1 1 1s1-.4477153 1-1 .4477153-1 1-1 1 .4477153 1 1 .4477153 1 1 1 1-.4477153 1-1z"/><path id="Shape" d="m39 44c-1.6568542 0-3 1.3431458-3 3 0 .5522847.4477153 1 1 1s1-.4477153 1-1 .4477153-1 1-1 1 .4477153 1 1 .4477153 1 1 1 1-.4477153 1-1c0-1.6568542-1.3431458-3-3-3z"/><path id="Shape" d="m36 50c-.5522847 0-1 .4477153-1 1s-.4477153 1-1 1-1-.4477153-1-1-.4477153-1-1-1-1 .4477153-1 1c0 1.6568542 1.3431458 3 3 3s3-1.3431458 3-3c0-.5522847-.4477153-1-1-1z"/></g></g></svg>