<svg height="60" viewBox="0 0 60 60" width="60" xmlns="http://www.w3.org/2000/svg"><g id="Page-1" fill="none" fill-rule="evenodd"><g id="012---Windy" fill="rgb(0,0,0)" fill-rule="nonzero" transform="translate(-1)"><path id="Shape" d="m51.608 16.777c1.1378142-3.931043-.2344216-8.15864607-3.4640412-10.67206557s-7.6647563-2.8053467-11.1959588-.73693443c-3.0243665-3.42567385-7.3783345-5.38182554-11.948-5.368-7.3362796.02002654-13.7270312 5.00743838-15.529 12.119-4.65665209.7120028-8.18492568 4.577395-8.47020955 9.279519-.28528388 4.7021239 2.74979342 8.965723 7.28620955 10.235481-.72343774 2.9807106-.03980088 6.128562 1.8548307 8.5406916 1.8946316 2.4121295 4.7909251 3.8220274 7.8581693 3.8253084h22v8c0 1.1045695-.8954305 2-2 2s-2-.8954305-2-2 .8954305-2 2-2c.5522847 0 1-.4477153 1-1s-.4477153-1-1-1c-2.209139 0-4 1.790861-4 4s1.790861 4 4 4 4-1.790861 4-4v-13c0-.5522847-.4477153-1-1-1s-1 .4477153-1 1v3h-22c-2.4805917-.0017141-4.8200559-1.1540446-6.333351-3.1195664-1.5132952-1.9655218-2.02920063-4.5218472-1.396649-6.9204336.242.018.483.04.73.04 1.0749565.0009161 2.1430178-.171635 3.163-.511.3394023-.1128959.5927937-.398285.6647242-.748664.0719304-.350379-.0485282-.712517-.3160001-.95-.2674719-.2374831-.6413218-.3142319-.9807241-.201336-3.4313662 1.1412288-7.20165421-.161291-9.19684523-3.1772304-1.99519102-3.0159393-1.71913387-6.9953139.67338486-9.7068691 2.39251874-2.7115552 6.30654297-3.480999 9.54746037-1.8769005.3203279.1621467.7029956.1401275 1.0026105-.0576916.299615-.1978191.4701885-.5410743.446912-.8993475s-.2368302-.6765722-.5595225-.8339609c-1.2103342-.5955064-2.5289619-.9391117-3.876-1.01 1.7777256-5.93722349 7.2333676-10.01016828 13.431-10.027 4.2775589-.01241527 8.3223604 1.94635316 10.965 5.31.008.009.02.014.028.023.7615462.96301956 1.3929731 2.02212228 1.878 3.15.2320102.4811719.8012314.6950338 1.2926814.4856729s.7315764-.7680102.5453186-1.2686729c-.4096768-.9552042-.9120834-1.86790947-1.5-2.725 1.1622302-.63695622 2.4656757-.97218686 3.791-.975 2.5196543.00324996 4.8907687 1.19247958 6.4001694 3.20999731 1.5094007 2.01751769 1.980955 4.62789849 1.2728306 7.04600269-2.7082433-.5201931-5.5095413-.2358221-8.058.818-.3395636.1307825-.5812864.4356922-.6311527.7961375-.0498664.3604454.0999952.7195294.3912977.93759.2913024.2180606.6780629.2606764 1.009855.1112725 4.142428-1.708943 8.8919137-.9674571 12.3163163 1.9228132 3.4244025 2.8902704 4.9531244 7.4477286 3.9642654 11.8183526-.988859 4.3706239-4.3305283 7.8261502-8.6655817 8.9608342v-2.621c0-.5522847-.4477153-1-1-1s-1 .4477153-1 1v13c0 2.209139 1.790861 4 4 4s4-1.790861 4-4-1.790861-4-4-4c-.5522847 0-1 .4477153-1 1s.4477153 1 1 1c1.1045695 0 2 .8954305 2 2s-.8954305 2-2 2-2-.8954305-2-2v-8.333c6.1148756-1.3453802 10.5929982-6.587311 10.9667411-12.8372764.3737428-6.2499654-3.4477745-11.9882079-9.3587411-14.0527236z"/><path id="Shape" d="m19.053 18.974c.3465502-.0003581.6682099-.1801149.8501201-.4750824s.1981346-.6630901.0428799-.9729176c-.3668884-.7303351-.8212227-1.4133477-1.353-2.034-.3630639-.4028044-.9810163-.4428339-1.3930134-.090236-.411997.3525978-.4678857.9693182-.1259866 1.390236.4260252.4966927.7900333 1.0433765 1.084 1.628.169145.3394402.5157512.5539875.895.554z"/><path id="Shape" d="m53.832 23.445c-.1471733-.2206869-.3759984-.3738581-.6361213-.4258077-.2601229-.0519495-.5302285.0015795-.7508787.1488077l-3 2c-.2781551.1854732-.4452244.4976789-.4452244.832s.1670693.6465268.4452244.832l3 2c.297245.1982824.6776931.2229246.9980332.0646441s.5319049-.4754371.555-.832-.1457882-.6983617-.4430332-.8966441l-1.755-1.168 1.752-1.168c.2211743-.1467018.3749585-.3753094.4274774-.6354656s-.0005358-.5305193-.1474774-.7515344z"/><path id="Shape" d="m36.168 28.555c.1471733.2206869.3759984.3738581.6361213.4258077.2601229.0519495.5302285-.0015795.7508787-.1488077l3-2c.2781551-.1854732.4452244-.4976789.4452244-.832s-.1670693-.6465268-.4452244-.832l-3-2c-.297245-.1982824-.6776931-.2229246-.9980331-.0646441-.3203401.1582805-.5319049.4754371-.555.832s.1457881.6983617.4430331.8966441l1.755 1.168-1.752 1.168c-.2211743.1467018-.3749585.3753094-.4274774.6354656s.0005358.5305193.1474774.7515344z"/><path id="Shape" d="m45 38c2.7614237 0 5-2.2385763 5-5s-2.2385763-5-5-5-5 2.2385763-5 5c.0033061 2.7600532 2.2399468 4.9966939 5 5zm0-8c1.6568542 0 3 1.3431458 3 3s-1.3431458 3-3 3-3-1.3431458-3-3 1.3431458-3 3-3z"/><path id="Shape" d="m45 60c.5522847 0 1-.4477153 1-1v-18c0-.5522847-.4477153-1-1-1s-1 .4477153-1 1v18c0 .5522847.4477153 1 1 1z"/><path id="Shape" d="m16 38c-.5522847 0-1 .4477153-1 1s.4477153 1 1 1h1c.5522847 0 1-.4477153 1-1s-.4477153-1-1-1z"/><path id="Shape" d="m21 40h7c.5522847 0 1-.4477153 1-1s-.4477153-1-1-1h-7c-.5522847 0-1 .4477153-1 1s.4477153 1 1 1z"/></g></g></svg>