<svg height="60" viewBox="0 0 60 60" width="60" xmlns="http://www.w3.org/2000/svg"><g id="Page-1" fill="none" fill-rule="evenodd"><g id="013---Full-Moon-and-Clouds" fill="rgb(0,0,0)" fill-rule="nonzero" transform="translate(-1 -1)"><path id="Shape" d="m16.841 8.847c7.8469155-4.24799718 17.5498763-2.85675338 23.887 3.425.2510745.2599566.6228779.3642126.9725073.2726972.3496295-.0915155.6226744-.3645604.7141899-.7141899.0915154-.3496294-.0127406-.7214328-.2726972-.9725073-6.9655859-6.90787051-17.6337481-8.43781333-26.26-3.766-.3167702.16958518-.5182088.49607885-.5276761.85526244-.0094672.3591836.1744924.69583548.4818892.88187228.3073968.18603679.6909709.1928568 1.0047869.01786528z"/><path id="Shape" d="m12.272 12.272c.429-.428.884-.844 1.352-1.234.424707-.3542907.4817907-.985793.1275-1.4105-.3542907-.42470697-.985793-.48179067-1.4105-.1275-.513.43-1.012.886-1.483 1.356-.2599566.2510745-.3642126.6228779-.2726972.9725073.0915155.3496295.3645604.6226744.7141899.7141899.3496294.0915154.7214328-.0127406.9725073-.2726972z"/><path id="Shape" d="m18 17c1.6568542 0 3-1.3431458 3-3 0-.5522847-.4477153-1-1-1s-1 .4477153-1 1-.4477153 1-1 1-1-.4477153-1-1-.4477153-1-1-1-1 .4477153-1 1c0 1.6568542 1.3431458 3 3 3z"/><path id="Shape" d="m38 13c-.5522847 0-1 .4477153-1 1s-.4477153 1-1 1-1-.4477153-1-1-.4477153-1-1-1-1 .4477153-1 1c0 1.6568542 1.3431458 3 3 3s3-1.3431458 3-3c0-.5522847-.4477153-1-1-1z"/><path id="Shape" d="m31 18h-8c-.5522847 0-1 .4477153-1 1v1c0 2.7614237 2.2385763 5 5 5s5-2.2385763 5-5v-1c0-.5522847-.4477153-1-1-1zm-4 5c-1.6568542 0-3-1.3431458-3-3h6c0 1.6568542-1.3431458 3-3 3z"/><path id="Shape" d="m21 27c-2.7614237 0-5 2.2385763-5 5s2.2385763 5 5 5 5-2.2385763 5-5c-.0033061-2.7600532-2.2399468-4.9966939-5-5zm0 8c-1.6568542 0-3-1.3431458-3-3s1.3431458-3 3-3 3 1.3431458 3 3-1.3431458 3-3 3z"/><path id="Shape" d="m12 34c-1.6568542 0-3 1.3431458-3 3s1.3431458 3 3 3 3-1.3431458 3-3-1.3431458-3-3-3zm0 4c-.5522847 0-1-.4477153-1-1s.4477153-1 1-1 1 .4477153 1 1-.4477153 1-1 1z"/><path id="Shape" d="m53.246 42.2c.8288855-3.4515927.1370312-7.0929315-1.9-10-.127-.18.294-1.464.336-1.727 2.1063311-13.3454248-6.561858-26.01741959-19.7631937-28.89174231s-26.35325497 5.04678659-29.9859549 18.05987561c-3.63269993 13.0130891 3.51483403 26.6009407 16.2961486 30.9798667.282.1 2.905.691 2.922.8.8233967 5.4772208 5.5103669 9.5406191 11.049 9.579h19.459c4.8682768-.0778908 8.8861748-3.830641 9.2957258-8.6822855.4095511-4.8516445-2.9223968-9.2248312-7.7087258-10.1177145zm-3.268-16.324c-1.4301037.363344-2.9439817-.0922249-3.9360569-1.1844712-.9920752-1.0922464-1.3003678-2.6428351-.8015554-4.0315041.4988123-1.388669 1.7232867-2.3886851 3.1836123-2.6000247.063.161.136.315.2.478.8322246 2.3145607 1.2893186 4.7472187 1.354 7.206-.002.043-.003.088 0 .132zm-46.614-3.459c1.22408777-.5993328 2.67177551-.5189214 3.82195854.2122897 1.15018304.7312111 1.83730864 2.0079743 1.81404146 3.3707103.01943673 2.1859784-1.73407504 3.9752761-3.92 4-.6625598.0000595-1.31318479-.1763168-1.885-.511-.30731328-2.352017-.2503109-4.7373472.169-7.072zm.25 9.381c1.78203254.4543385 3.67401244.0551404 5.12058509-1.0804171 1.44657261-1.1355576 2.28360971-2.8786342 2.26541491-4.7175829.0182974-3.2900741-2.62997671-5.9741357-5.92-6-.40037444.0046795-.79918037.0509276-1.19.138 2.63174933-9.3824838 10.784814-16.16460461 20.4896214-17.04427624 9.7048073-.87967162 18.9444729 4.32592211 23.2203786 13.08227624-3.1337636.7527369-5.1113341 3.8487573-4.4766847 7.0085528.6346495 3.1597955 3.6543055 5.2521157 6.8356847 4.7364472-.0507828.7921259-.1419009 1.5811492-.273 2.364-2.2203807-2.1057649-5.162882-3.2812625-8.223-3.285-6.4935967.0507699-11.812186 5.1738551-12.106 11.661-1.8563179.4906751-3.5531618 1.4555741-4.924 2.8-1.9824312-.7379434-4.1929353-.5337131-6.0066042.5549553-1.813669 1.0886684-3.0334073 2.9434667-3.3143958 5.0400447-5.83782618-3.2072649-10.02313566-8.7604986-11.498-15.256zm19.423 11.324c-1.267117 1.8337442-1.9709443 3.9977089-2.025 6.226-1.3729231-.3246205-2.7121825-.7779598-4-1.354.0231295-1.496134.7090708-2.9048419 1.8725803-3.8456914 1.1635094-.9408494 2.6845744-1.3167946 4.1524197-1.0263086zm28.622 15.878h-19.459c-4.7816721-.0905163-8.7276216-3.7679715-9.1543148-8.5314277-.4266931-4.7634561 2.8028546-9.0836664 7.4923148-10.0225723 1.9620039-.3626199 3.9887991-.07102 5.769.83.4899383.2363237 1.0789165.0376851 1.325657-.4470907s.0607348-1.0778646-.418657-1.3349093c-1.7981437-.909707-3.8103368-1.3117999-5.82-1.163.2991542-3.8794111 2.7915698-7.2456065 6.4148557-8.6637471 3.623286-1.4181406 7.7385039-.6381483 10.5915442 2.0075056 2.8530404 2.645654 3.9407915 6.6904289 2.7996001 10.4102415-1.2980927.0554651-2.5692583.3882596-3.728.976-.3263766.157429-.5420528.4791008-.563752.8408116-.0216991.3617109.1539743.7068598.4591895.9021782.3052152.1953185.6922116.2102427 1.0115625.0390102 2.7495886-1.3070914 6.0181197-.8068433 8.2509 1.2627987 2.2327802 2.0696419 2.9791067 5.2909057 1.8839856 8.1315809-1.0951211 2.8406751-3.8106317 4.7273509-6.8548856 4.7626204z"/><path id="Shape" d="m42.463 32c0-.5522847-.4477153-1-1-1-2.2423362.0099952-4.3795722.951828-5.9 2.6-.3752775.405377-.350877 1.0382225.0545 1.4135.405377.3752774 1.0382225.350877 1.4135-.0545 1.1352589-1.2483842 2.7446129-1.959739 4.432-1.959.2652165 0 .5195704-.1053568.7071068-.2928932s.2928932-.4418903.2928932-.7071068z"/><path id="Shape" d="m33 47c0-.5522847-.4477153-1-1-1s-1 .4477153-1 1-.4477153 1-1 1-1-.4477153-1-1-.4477153-1-1-1-1 .4477153-1 1c0 1.6568542 1.3431458 3 3 3s3-1.3431458 3-3z"/><path id="Shape" d="m42 46c-.5522847 0-1 .4477153-1 1s-.4477153 1-1 1-1-.4477153-1-1-.4477153-1-1-1-1 .4477153-1 1c0 1.6568542 1.3431458 3 3 3s3-1.3431458 3-3c0-.5522847-.4477153-1-1-1z"/><path id="Shape" d="m37 51c-.5522847 0-1 .4477153-1 1s-.4477153 1-1 1-1-.4477153-1-1-.4477153-1-1-1-1 .4477153-1 1c0 1.6568542 1.3431458 3 3 3s3-1.3431458 3-3c0-.5522847-.4477153-1-1-1z"/><path id="Shape" d="m54 4c-.5522847 0-1 .44771525-1 1v1c0 .55228475.4477153 1 1 1s1-.44771525 1-1v-1c0-.55228475-.4477153-1-1-1z"/><path id="Shape" d="m56 9h1c.5522847 0 1-.44771525 1-1s-.4477153-1-1-1h-1c-.5522847 0-1 .44771525-1 1s.4477153 1 1 1z"/><path id="Shape" d="m53 11c0 .5522847.4477153 1 1 1s1-.4477153 1-1v-1c0-.55228475-.4477153-1-1-1s-1 .44771525-1 1z"/><path id="Shape" d="m52 7h-1c-.5522847 0-1 .44771525-1 1s.4477153 1 1 1h1c.5522847 0 1-.44771525 1-1s-.4477153-1-1-1z"/><path id="Shape" d="m9 50c-.55228475 0-1 .4477153-1 1v1c0 .5522847.44771525 1 1 1s1-.4477153 1-1v-1c0-.5522847-.44771525-1-1-1z"/><path id="Shape" d="m11 55h1c.5522847 0 1-.4477153 1-1s-.4477153-1-1-1h-1c-.5522847 0-1 .4477153-1 1s.4477153 1 1 1z"/><path id="Shape" d="m8 57c0 .5522847.44771525 1 1 1s1-.4477153 1-1v-1c0-.5522847-.44771525-1-1-1s-1 .4477153-1 1z"/><path id="Shape" d="m7 53h-1c-.55228475 0-1 .4477153-1 1s.44771525 1 1 1h1c.55228475 0 1-.4477153 1-1s-.44771525-1-1-1z"/></g></g></svg>