<svg height="512" viewBox="0 0 60 60" width="512" xmlns="http://www.w3.org/2000/svg"><g id="Page-1" fill="none" fill-rule="evenodd"><g id="015---Sunrise" fill="rgb(0,0,0)" fill-rule="nonzero"><path id="Shape" d="m54.471 23.592 1.77-7.107c.2563462-1.0620794-.3786859-2.1353856-1.433-2.422l-6.817-1.829-2.02-7.051c-.2949351-1.04959269-1.376165-1.66959864-2.431-1.394l-7.123 1.764-4.96-4.96c-.7917476-.78875444-2.0722524-.78875444-2.864 0l-4.972 4.956-7.091-1.757c-1.065839-.2699694-2.1509086.36610591-2.436 1.428l-1.839 6.819-7.045 2.014c-1.0462734.3138303-1.65508293 1.400927-1.376 2.457l1.815 6.806-5.095 5.3c-.73892184.7809074-.73672406 2.0037537.005 2.782l5.1 5.3-1.827 6.802c-.20073279.767923.06781015 1.582164.686 2.08-2.8102761 2.851243-4.42625718 6.667648-4.518 10.67v1.833c.02458979 1.0809154.91901324 1.9382202 2 1.917h56c1.0809868.0212202 1.9754102-.8360846 2-1.917v-1.833c-.09029-3.9896286-1.6964559-7.7951549-4.492-10.643.6342764-.4912896.9209001-1.3092636.732-2.089l-1.763-7.131 4.97-4.97c.7757647-.7907352.7717538-2.0581905-.009-2.844zm3.529 34.408-56 .083v-1.833c0-10.063 12.561-18.25 28-18.25s28 8.187 28 18.25zm-28-22c-6.0086481-.0553009-11.9536477 1.2334657-17.4 3.772-4.72800165-8.413293-2.77370972-19.0028752 4.6458888-25.1743463 7.4195986-6.17147108 18.1879995-6.16436587 25.5994475.0168911 7.4114479 6.1812569 9.3517637 16.7734088 4.6126637 25.1804552-5.4619909-2.5555781-11.4279898-3.8524601-17.458-3.795zm23.063-1.027c-.5065365.4992231-.7098582 1.2298869-.534 1.919l1.771 7.136-.3.085c-1.4630785-1.3002146-3.0631406-2.4375596-4.772-3.392 5.1771911-9.2486638 3.0238466-20.8740506-5.1224436-27.6548356-8.1462903-6.78078506-19.9694219-6.78909625-28.1252373-.019771-8.15581545 6.7693253-10.3255022 18.3916732-5.1613191 27.6476066-1.71597629.9560891-3.32277432 2.0961377-4.792 3.4l-.26-.082 1.83-6.8c.18110262-.6802936-.00879518-1.4057032-.5-1.91l-5.097-5.309 5.077-5.276c.50433716-.5037811.70343697-1.2373668.523-1.927l-1.825-6.819 7.054-2.017c.6706613-.2027164 1.1890851-.7374001 1.371-1.414l1.843-6.81 7.086 1.757c.6875521.18055423 1.4192725-.01741384 1.922-.52l5-4.96 4.949 4.96c.4987926.49872153 1.223406.69782873 1.907.524l7.138-1.756 2.022 7.056c.1999153.6745242.7337423 1.1981434 1.412 1.385l6.821 1.832-1.769 7.092c-.1786615.6906249.0240524 1.4241289.532 1.925l4.96 4.986z"/><path id="Shape" d="m23.025 17c-1.6568542 0-3 1.3431458-3 3 0 .5522847.4477153 1 1 1s1-.4477153 1-1 .4477153-1 1-1 1 .4477153 1 1 .4477153 1 1 1 1-.4477153 1-1c0-1.6568542-1.3431458-3-3-3z"/><path id="Shape" d="m37.025 17c-1.6568542 0-3 1.3431458-3 3 0 .5522847.4477153 1 1 1s1-.4477153 1-1 .4477153-1 1-1 1 .4477153 1 1 .4477153 1 1 1 1-.4477153 1-1c0-1.6568542-1.3431458-3-3-3z"/><path id="Shape" d="m33.025 22h-6c-.5522847 0-1 .4477153-1 1v1c0 2.209139 1.790861 4 4 4s4-1.790861 4-4v-1c0-.5522847-.4477153-1-1-1zm-3 4c-1.1045695 0-2-.8954305-2-2h4c0 1.1045695-.8954305 2-2 2z"/><path id="Shape" d="m18.318 23.293-1 1c-.2599566.2510745-.3642126.6228779-.2726972.9725073.0915155.3496295.3645604.6226744.7141899.7141899.3496294.0915154.7214328-.0127406.9725073-.2726972l1-1c.3789722-.3923789.3735524-1.0160848-.0121814-1.4018186s-1.0094397-.3911536-1.4018186-.0121814z"/><path id="Shape" d="m22.318 23.293-1 1c-.2599566.2510745-.3642126.6228779-.2726972.9725073.0915155.3496295.3645604.6226744.7141899.7141899.3496294.0915154.7214328-.0127406.9725073-.2726972l1-1c.3789722-.3923789.3735524-1.0160848-.0121814-1.4018186s-1.0094397-.3911536-1.4018186-.0121814z"/><path id="Shape" d="m41.732 23.293c-.3923789-.3789722-1.0160848-.3735524-1.4018186.0121814s-.3911536 1.0094397-.0121814 1.4018186l1 1c.3923789.3789722 1.0160848.3735524 1.4018186-.0121814s.3911536-1.0094397.0121814-1.4018186z"/><path id="Shape" d="m37.732 23.293c-.3923789-.3789722-1.0160848-.3735524-1.4018186.0121814s-.3911536 1.0094397-.0121814 1.4018186l1 1c.3923789.3789722 1.0160848.3735524 1.4018186-.0121814s.3911536-1.0094397.0121814-1.4018186z"/><path id="Shape" d="m6 54h-1c-.55228475 0-1 .4477153-1 1s.44771525 1 1 1h1c.55228475 0 1-.4477153 1-1s-.44771525-1-1-1z"/><path id="Shape" d="m26 54h-16c-.55228475 0-1 .4477153-1 1s.44771525 1 1 1h16c.5522847 0 1-.4477153 1-1s-.4477153-1-1-1z"/></g></g></svg>