<svg height="512" viewBox="0 0 60 60" width="512" xmlns="http://www.w3.org/2000/svg"><g id="Page-1" fill="none" fill-rule="evenodd"><g id="016---Sunset" fill="rgb(0,0,0)" fill-rule="nonzero"><path id="Shape" d="m59.438 28.573-4.967-4.981 1.77-7.107c.2563462-1.0620794-.3786859-2.1353856-1.433-2.422l-6.817-1.829-2.02-7.05c-.2945005-1.04999651-1.3758652-1.67052461-2.431-1.395l-7.123 1.764-4.96-4.961c-.7917476-.78875444-2.0722524-.78875444-2.864 0l-4.973 4.957-7.09-1.757c-1.0659209-.27054672-2.1513723.36575241-2.436 1.428l-1.838 6.819-7.045 2.013c-1.04681441.3138487-1.65606201 1.40138-1.377 2.458l1.815 6.806-5.094 5.3c-.73689568.7801681-.73469927 2.0004895.005 2.778l5.1 5.3-1.828 6.806c-.20073279.767923.06781015 1.582164.686 2.08-2.8102761 2.851243-4.42625718 6.667648-4.518 10.67v1.833c.02458979 1.0809154.91901324 1.9382202 2 1.917h56c1.0809868.0212202 1.9754102-.8360846 2-1.917v-1.833c-.09029-3.9896286-1.6964559-7.7951549-4.492-10.643.6342764-.4912896.9209001-1.3092636.732-2.089l-1.763-7.131 4.97-4.97c.7757647-.7907352.7717538-2.0581905-.009-2.844zm-1.438 29.427-56 .083v-1.833c0-10.063 12.561-18.25 28-18.25s28 8.187 28 18.25zm-28-22c-6.0086481-.0553009-11.9536477 1.2334657-17.4 3.772-4.72800165-8.413293-2.77370972-19.0028752 4.6458888-25.1743463 7.4195986-6.17147108 18.1879995-6.16436587 25.5994475.0168911 7.4114479 6.1812569 9.3517637 16.7734088 4.6126637 25.1804552-5.4619909-2.5555781-11.4279898-3.8524601-17.458-3.795zm23.063-1.027c-.5065365.4992231-.7098582 1.2298869-.534 1.919l1.771 7.136-.3.085c-1.4630785-1.3002146-3.0631406-2.4375596-4.772-3.392 5.1777479-9.2486472 3.0247028-20.8744351-5.1216799-27.6555115-8.1463828-6.78107636-19.9698542-6.78938801-28.1257628-.0197718-8.15590852 6.7696163-10.32529688 18.3923655-5.1605573 27.6482833-1.71644321.9558393-3.32359893 2.0959039-4.793 3.4l-.26-.082 1.831-6.8c.18006383-.6821464-.0125947-1.4087008-.507-1.912l-5.091-5.307 5.076-5.276c.5041482-.5038928.70355085-1.2371922.524-1.927l-1.826-6.819 7.056-2.017c.6699671-.2035174 1.187756-.7379361 1.37-1.414l1.84-6.81 7.084 1.757c.6878495.17800374 1.4185986-.01959872 1.923-.52l5-4.96 4.953 4.96c.4987926.49872153 1.223406.69782873 1.907.524l7.139-1.756 2.021 7.056c.1999153.6745242.7337423 1.1981434 1.412 1.385l6.821 1.832-1.769 7.092c-.1786615.6906249.0240524 1.4241289.532 1.925l4.96 4.986z"/><path id="Shape" d="m25.025 23c-.5522847 0-1 .4477153-1 1s-.4477153 1-1 1-1-.4477153-1-1-.4477153-1-1-1-1 .4477153-1 1c0 1.6568542 1.3431458 3 3 3s3-1.3431458 3-3c0-.5522847-.4477153-1-1-1z"/><path id="Shape" d="m39.025 23c-.5522847 0-1 .4477153-1 1s-.4477153 1-1 1-1-.4477153-1-1-.4477153-1-1-1-1 .4477153-1 1c0 1.6568542 1.3431458 3 3 3s3-1.3431458 3-3c0-.5522847-.4477153-1-1-1z"/><path id="Shape" d="m18.318 29.293-1 1c-.2599566.2510745-.3642126.6228779-.2726972.9725073.0915155.3496295.3645604.6226744.7141899.7141899.3496294.0915154.7214328-.0127406.9725073-.2726972l1-1c.3789722-.3923789.3735524-1.0160848-.0121814-1.4018186s-1.0094397-.3911536-1.4018186-.0121814z"/><path id="Shape" d="m22.318 29.293-1 1c-.2599566.2510745-.3642126.6228779-.2726972.9725073.0915155.3496295.3645604.6226744.7141899.7141899.3496294.0915154.7214328-.0127406.9725073-.2726972l1-1c.3789722-.3923789.3735524-1.0160848-.0121814-1.4018186s-1.0094397-.3911536-1.4018186-.0121814z"/><path id="Shape" d="m41.732 29.293c-.3923789-.3789722-1.0160848-.3735524-1.4018186.0121814s-.3911536 1.0094397-.0121814 1.4018186l1 1c.3923789.3789722 1.0160848.3735524 1.4018186-.0121814s.3911536-1.0094397.0121814-1.4018186z"/><path id="Shape" d="m37.732 29.293c-.3923789-.3789722-1.0160848-.3735524-1.4018186.0121814s-.3911536 1.0094397-.0121814 1.4018186l1 1c.3923789.3789722 1.0160848.3735524 1.4018186-.0121814s.3911536-1.0094397.0121814-1.4018186z"/><path id="Shape" d="m30 26c-2.209139 0-4 1.790861-4 4s1.790861 4 4 4 4-1.790861 4-4-1.790861-4-4-4zm0 6c-1.1045695 0-2-.8954305-2-2s.8954305-2 2-2 2 .8954305 2 2-.8954305 2-2 2z"/><path id="Shape" d="m6 54h-1c-.55228475 0-1 .4477153-1 1s.44771525 1 1 1h1c.55228475 0 1-.4477153 1-1s-.44771525-1-1-1z"/><path id="Shape" d="m26 54h-16c-.55228475 0-1 .4477153-1 1s.44771525 1 1 1h16c.5522847 0 1-.4477153 1-1s-.4477153-1-1-1z"/></g></g></svg>