<svg height="512" viewBox="0 0 60 60" width="512" xmlns="http://www.w3.org/2000/svg"><g id="Page-1" fill="none" fill-rule="evenodd"><g id="017---Heatwave" fill="rgb(0,0,0)" fill-rule="nonzero" transform="translate(-1)"><path id="Shape" d="m31 8c-12.1502645 0-22 9.8497355-22 22s9.8497355 22 22 22 22-9.8497355 22-22c-.0137772-12.1445532-9.8554468-21.98622284-22-22zm0 42c-11.045695 0-20-8.954305-20-20s8.954305-20 20-20 20 8.954305 20 20c-.0126747 11.0404407-8.9595593 19.9873253-20 20z"/><path id="Shape" d="m55.449 23.6 1.765-7.1c.2559158-1.0619408-.3782945-2.1350492-1.432-2.423l-6.816-1.836-2.021-7.067c-.3064122-1.03871708-1.3774488-1.65099007-2.428-1.388l-7.128 1.765-4.96-4.961c-.7997612-.76139689-2.0562388-.76139689-2.856 0l-4.973 4.961-7.11-1.766c-1.0610759-.25127588-2.1308051.38190129-2.421 1.433l-1.837 6.816-7.032 2.019c-1.05054019.3100534-1.6650454 1.3982766-1.388 2.458l1.818 6.809-5.089 5.28c-.74975762.779663-.74975762 2.012337 0 2.792l5.1 5.3-1.827 6.8c-.27590699 1.0582323.33738327 2.1445437 1.386 2.455l7.041 2.027 1.827 6.808c.2901917 1.052476 1.3621473 1.6857435 2.424 1.432l7.118-1.765 4.961 4.961c.7894606.7867337 2.0665394.7867337 2.856 0l4.973-4.961 7.106 1.766c1.0636791.2671953 2.1441246-.3720609 2.422-1.433l1.836-6.816 7.059-2.021c1.0385187-.3059593 1.650559-1.3769196 1.387-2.427l-1.765-7.118v-.006l4.961-4.962c.7865032-.7887754.7865032-2.0652246 0-2.854zm-1.414 11.375c-.5012028.4990102-.7015833 1.225627-.527 1.911l1.761 7.138-7.059 2.021c-.6737899.2001933-1.1968606.7334684-1.384 1.411l-1.837 6.817-7.089-1.762c-.6894993-.17959-1.4225257.0198419-1.926.524l-4.987 4.965-4.963-4.962c-.3766714-.3767336-.8872634-.5888809-1.42-.59-.1656819.0000017-.3306846.0211732-.491.063l-7.113 1.753-1.828-6.811c-.1879706-.6780378-.7128611-1.2108697-1.388-1.409l-7.041-2.037 1.827-6.8c.17653394-.6812275-.01271028-1.4052758-.5-1.913l-5.092-5.3 5.094-5.288c.48780888-.5082494.6770782-1.2331509.5-1.915l-1.818-6.816 7.037-2.02c.6735073-.2003187 1.1962192-.7336134 1.383-1.411l1.837-6.817 7.089 1.762c.6894906.17812266 1.4217897-.02111137 1.926-.524l4.988-4.965 4.962 4.962c.4990102.50120284 1.225627.70158328 1.911.527l7.138-1.761 2.021 7.059c.2001323.6732598.732997 1.1959208 1.41 1.383l6.816 1.837-1.76 7.093c-.1808194.6899437.018308 1.4240119.523 1.928l4.965 4.985z"/><path id="Shape" d="m21 25h5c.5522847 0 1-.4477153 1-1s-.4477153-1-1-1h-5c-.5522847 0-1 .4477153-1 1s.4477153 1 1 1z"/><path id="Shape" d="m21 28h3c.5522847 0 1-.4477153 1-1s-.4477153-1-1-1h-3c-.5522847 0-1 .4477153-1 1s.4477153 1 1 1z"/><path id="Shape" d="m36 25h5c.5522847 0 1-.4477153 1-1s-.4477153-1-1-1h-5c-.5522847 0-1 .4477153-1 1s.4477153 1 1 1z"/><path id="Shape" d="m41 26h-3c-.5522847 0-1 .4477153-1 1s.4477153 1 1 1h3c.5522847 0 1-.4477153 1-1s-.4477153-1-1-1z"/><path id="Shape" d="m41.491 30.7c-.6688777 1.2840451-.5916813 2.8293048.2018405 4.0402929s2.1794889 1.8986522 3.6238007 1.7979918c1.4443118-.1006603 2.7214906-.9739307 3.3393588-2.2832847.864-1.739-.178-5.74-.4-6.525-.0760766-.2736818-.2649562-.5020951-.5194824-.6282134-.2545261-.1261182-.5506781-.1380392-.8145176-.0327866-.752.303-4.568 1.893-5.431 3.631zm1.791.888c.283-.57 1.786-1.486 3.325-2.2.36 1.666.534 3.426.258 3.981-.4955644.9808799-1.689714 1.3781658-2.6741314.8896662-.9844174-.4884997-1.3902782-1.6797622-.9088686-2.6676662z"/><path id="Shape" d="m15.912 29.651c-.2665875-.0967739-.5617284-.0757987-.8119506.057704s-.4319882.3669748-.5000494.642296c-.194.791-1.111 4.821-.2 6.533.6979 1.3047452 2.0583315 2.1183894 3.538 2.116.6566003.000386 1.3029928-.1625008 1.881-.474 1.9475662-1.0424915 2.6813526-3.4663594 1.639-5.414-.917-1.712-4.78-3.183-5.546-3.461zm2.964 7.112c-.467804.2505572-1.0160089.3049225-1.5239126.151126-.5079036-.1537966-.9338615-.5031447-1.1840874-.971126-.3-.562-.175-2.318.134-3.986 1.566.673 3.1 1.552 3.392 2.1.5207297.973188.1546381 2.1842439-.818 2.706z"/><path id="Shape" d="m23.805 19.636c.065 0 .131.007.2.007.7287019.0003984 1.4323289-.2660408 1.978-.749.959-.845 1.712-3.535 1.991-4.652.0794193-.3186612-.0026867-.6560059-.2196653-.902527-.2169785-.2465212-.5411691-.3707922-.8673347-.332473-1.144.135-3.908.538-4.867 1.383-.9107092.8013736-1.2491685 2.072347-.8576197 3.2205109.3915489 1.1481639 1.4360363 1.9475224 2.6466197 2.0254891zm-.469-3.744c.7168576-.3422287 1.4839086-.5674148 2.272-.667-.1994827.7687137-.520531 1.5006091-.951 2.168-.4143967.3639711-1.0452422.3237044-1.41-.09-.3648965-.4142696-.3250582-1.0458637.089-1.411z"/><path id="Shape" d="m37.018 19.894c.7966115.7573272 1.9435993 1.0183783 2.9894988.6804013 1.0458996-.337977 1.8232305-1.2208617 2.0260284-2.3011428s-.2014112-2.1849727-1.0535272-2.8792585c-.959-.845-3.723-1.248-4.867-1.383-.3261656-.0383192-.6503562.0859518-.8673347.332473-.2169786.2465211-.2990846.5838658-.2196653.902527.28 1.114 1.033 3.804 1.992 4.648zm2.643-3c.2827595.2318606.4164189.5995678.3485475.9588806-.0678714.3593129-.3264497.6529294-.6743021.7656723-.3478524.112743-.7295046.0266324-.9952454-.2245529-.4306814-.6672767-.7517451-1.3992073-.951-2.168.7880349.0992689 1.5550835.3241168 2.272.666z"/><path id="Shape" d="m31 27c-2.0671312-.1264835-3.8509663 1.4343722-4 3.5.1490337 2.0656278 1.9328688 3.6264835 4 3.5 2.0671312.1264835 3.8509663-1.4343722 4-3.5-.1490337-2.0656278-1.9328688-3.6264835-4-3.5zm0 5c-1.084 0-2-.687-2-1.5s.916-1.5 2-1.5 2 .687 2 1.5-.916 1.5-2 1.5z"/><path id="Shape" d="m25.64 40.568c-.2905431-.1532959-.637846-.1541168-.9291105-.0021961s-.489338.4372045-.5298895.7631961c-.143 1.143-.41 3.924.18 5.058.7657428 1.4693536 2.5776464 2.0397428 4.047 1.274s2.0397428-2.5776464 1.274-4.047c-.59-1.135-3.024-2.508-4.042-3.046zm2.336 4.732c-.0788369.2533769-.2560923.4644982-.492.586-.4891004.2548419-1.0921884.065594-1.348-.423-.1613513-.7782848-.1974721-1.5773315-.107-2.367.6991386.3775204 1.3334674.8643231 1.879 1.442.1237459.2346595.14824.509137.068.762z"/><path id="Shape" d="m40.312 38.113c-.2908744-.1525692-.6381256-.1525692-.929 0-1.019.537-3.452 1.911-4.043 3.044-.51467.9523276-.4763767 2.108067.1002024 3.0242382.5765791.9161711 1.602012 1.4506684 2.6832634 1.3986258s2.0506105-.6825527 2.5365342-1.649864c.591-1.134.324-3.914.182-5.058-.041875-.3244644-.239814-.607928-.53-.759zm-1.425 4.9c-.2554723.489552-.859394.6793687-1.349.424-.2352678-.122509-.4122236-.3334715-.4919291-.5864664-.0797056-.2529948-.05563-.5272919.0669291-.7625336.5459402-.5769528 1.1802022-1.0633667 1.879-1.441.0909923.7882347.0555462 1.5859424-.105 2.363z"/></g></g></svg>