<svg height="512" viewBox="0 0 54 60" width="512" xmlns="http://www.w3.org/2000/svg"><g id="Page-1" fill="none" fill-rule="evenodd"><g id="018---Snowflake" fill="rgb(0,0,0)" fill-rule="nonzero" transform="translate(0 -1)"><path id="Shape" d="m42.6 43.472.943.545-.181.882c-.3551591 1.6234681.6503634 3.2336359 2.265 3.627 1.2793413.2798996 2.5934201-.295792 3.255-1.426.7279359.420445 1.5988805.5161851 2.4007665.2639085.801886-.2522767 1.4611378-.8294228 1.8172335-1.5909085.6276763-1.4211558.0959207-3.0872372-1.239-3.882.7403352-1.2686549.4480418-2.8873299-.6892451-3.8169318-1.1372869-.929602-2.7817557-.8940084-3.8777549.0839318l-.743.658-.928-.547c1.8398152-4.6765875 1.8358838-9.8771995-.011-14.551l.934-.539.747.663c.6125311.5435847 1.4206606.8131308 2.2368617.7460897.8162011-.067041 1.5695163-.4648408 2.0851383-1.1010897.7545222-.9725166.8488533-2.3038082.239-3.373 1.3196303-.7859112 1.8598116-2.4230825 1.267-3.84-.3466394-.7752994-1.0056413-1.3673523-1.8135071-1.6292701s-1.6888909-.1691564-2.4244929.2552701l-.025.014c-.7286497-1.272778-2.274184-1.827383-3.6458368-1.3082851-1.3716529.519098-2.1627522 1.9579951-1.8661632 3.3942851l.2.972-.948.536c-3.130632-3.9286274-7.6307974-6.5284213-12.598-7.278v-1.067l.839-.281c1.4923057-.47843553 2.3904311-1.99794341 2.09-3.536-.3063546-1.37149788-1.5237031-2.3465404-2.929-2.346-.0300104-1.45294491-1.0724657-2.6867951-2.5-2.959-.8708772-.14720516-1.762371.09683099-2.4368584.66706188s-1.0634243 1.40870746-1.0631416 2.29193812v.024c-1.4673366-.00408729-2.7203472 1.05821354-2.956412 2.50644238s.6147329 2.85345548 2.007412 3.31555762l.941.314-.013 1.069c-4.9649412.7583698-9.4594929 3.3660814-12.582 7.3l-.943-.545.183-.891c.3172849-1.4598893-.4642078-2.9358544-1.85-3.494-.82780704-.3122902-1.75083948-.2465159-2.526.18-.47648927.2626131-.87235359.6501798-1.145 1.121-1.27307012-.7020556-2.86389409-.4162664-3.813.685-.56443179.6809661-.79960521 1.5763008-.64267486 2.4467437.15693036.8704429.68997005 1.6272781 1.45667486 2.0682563l.029.017c-.61007175 1.0705887-.51453448 2.403373.242 3.376.51613642.6344362 1.26892289 1.0306443 2.08410091 1.0969082s1.62207225-.2031615 2.23389909-.7459082l.743-.658.928.547c-1.83981522 4.6765875-1.83588376 9.8771995.011 14.551l-.934.539-.667-.592c-1.10552195-1.0046786-2.7720333-1.072923-3.956-.162-1.14564996.9289642-1.44773186 2.5520718-.713 3.831-1.32281362.800521-1.84451958 2.4594431-1.218 3.873.35611904.7612037 1.01519196 1.3381354 1.81682662 1.5903927.80163466.2522574 1.67232274.1567089 2.40017338-.2633927.66054412 1.1298822 1.97297956 1.7065951 3.252 1.429 1.61599257-.3929084 2.622324-2.0045487 2.266-3.629l-.18-.875.948-.536c3.1300065 3.9293791 7.6297779 6.5302234 12.597 7.281v1.067l-.841.281c-1.4906141.4779365-2.3878177 1.9956202-2.088 3.532.3047412 1.3730876 1.5225019 2.3501233 2.929 2.35.0300104 1.4529449 1.0724657 2.6867951 2.5 2.959.1652558.0273918.3324895.041105.5.041 1.6568542 0 3-1.3431458 3-3 1.4205872-.0064843 2.6441946-1.0031121 2.938-2.393.289485-1.5246524-.6097243-3.0241947-2.091-3.487l-.839-.28.013-1.069c4.9637089-.7588299 9.4570515-3.3661046 12.579-7.299zm-1.567-1.234c-2.8116687 3.5318749-6.8524662 5.8727877-11.315 6.555-.9845432.1402203-1.7164986.9825229-1.718 1.977v1.788c-.0001037.4306074.2754572.8129281.684.949l1.53.51c.5136636.1476916.8405618.6506119.767 1.18-.0603143.2795773-.2358932.5206816-.4834653.6638925-.247572.1432109-.544111.1752087-.8165347.0881075l-.368-.123c-.3045964-.1003827-.6388578-.0485818-.8987838.1392855-.2599259.1878672-.4139747.4890035-.4142162.8097145v1.225c.0004239.2960832-.1303816.5771322-.3571892.7674576s-.5262964.2703573-.8178108.2185424c-.4992235-.1228593-.8436864-.5792206-.825-1.093v-1.118c.0000774-.3214436-.1543712-.6233283-.4150947-.8113424-.2607234-.1880141-.5959327-.2392338-.9009053-.1376576l-.367.123c-.2683546.0913882-.5630488.0629751-.809-.078-.2488596-.1404551-.4257419-.3806656-.486-.66-.077706-.5358787.2504818-1.0473402.77-1.2l1.524-.508c.407149-.1356044.6823858-.5158657.684-.945v-1.788c-.0016437-.9951363-.7346627-1.8376821-1.72-1.977-4.4624516-.6817665-8.5032915-3.0223467-11.315-6.554-.6131798-.7810613-1.7065705-.9939489-2.568-.5l-1.568.905c-.37269581.2154821-.56565323.6453059-.479 1.067l.326 1.589c.13174479.5522264-.19157897 1.1110142-.736 1.272-.26237987.0624128-.53886779.0149648-.76542713-.1313548-.22655935-.1463195-.38353595-.3788174-.43457287-.6436452l-.078-.38c-.06466328-.3146077-.27650576-.5790086-.56944134-.7107207s-.63130785-.1147031-.90955866.0457207l-1.063.614c-.24468403.1334972-.53327768.1612641-.79892619.0768683-.2656485-.0843958-.48530114-.2736311-.60807381-.5238683-.19441209-.511718.02359045-1.0880515.508-1.343l.962-.556c.27836349-.1606424.4625529-.4452857.49504245-.7650304.03248954-.3197447-.09068073-.635619-.33104245-.8489696l-.29-.257c-.2212005-.1962862-.34417565-.4804144-.33587832-.7760309.00829733-.2956164.14701607-.5723994.37887832-.7559691.42347038-.2912392.9931142-.2457511 1.365.109l1.201 1.074c.32188154.2862084.79086233.3341541 1.164.119l1.558-.9c.8602732-.4976121 1.2227873-1.5527414.85-2.474-1.65071374-4.2037583-1.65071374-8.8762417 0-13.08.3727873-.9212586.0102732-1.9763879-.85-2.474l-1.558-.9c-.37289702-.2146675-.8413054-.1667393-1.163.119l-1.288 1.136c-.43187848.361039-1.07361029.3084891-1.441-.118-.31761981-.4699534-.22581413-1.1043654.212-1.465l.192-.17c.24045141-.2132037.36378896-.528975.33149857-.8487093s-.21627382-.6044688-.49449857-.7652907l-1.062-.613c-.25687739-.1478724-.43492123-.4020796-.48608949-.6940283s.02981194-.5915537.22108949-.8179717c.35488937-.3708172.92174301-.4406289 1.356-.167l.971.56c.27825081.1604238.61662308.1774328.90955866.0457207s.50477806-.396113.56944134-.7107207l.078-.382c.05867094-.2856271.23908852-.5314187.494-.673.26345758-.1452759.5778942-.1657986.858-.056.4617936.2140555.70861942.7240227.59 1.219l-.328 1.6c-.08665323.4216941.10630419.8515179.479 1.067l1.569.905c.8609673.492775 1.9530362.279979 2.566-.5 2.8116687-3.5318749 6.8524662-5.8727877 11.315-6.555.9857343-.1388663 1.7192855-.9815338 1.721-1.977v-1.788c.0001037-.43060741-.2754572-.81292807-.684-.949l-1.632-.544c-.2811948-.09316306-.5066141-.30620106-.6154971-.58169037-.1088829-.2754893-.0900227-.5850751.0514971-.84530963.2749069-.43547524.817865-.61799271 1.3-.437l.265.089c.3048474.10117772.6397405.04976392.9001978-.13820111.2604574-.18796502.4147728-.48959977.4148022-.81079889v-1.225c-.0004239-.29608321.1303816-.57713222.3571892-.76745759.2268076-.19032538.5262964-.27035733.8178108-.21854241.4992235.12285935.8436864.57922058.825 1.093v1.118c-.0000774.32144358.1543712.62332833.4150947.8113424.2607234.18801406.5959327.23923378.9009053.1376576l.367-.122c.2685914-.09222278.5639423-.06378158.81.078.2481746.13909394.4247701.377953.485.656.0762585.53587489-.251907 1.04663845-.771 1.2l-1.523.508c-.4081936.13595553-.6836733.5177607-.684.948v1.788c.0016437.9951363.7346627 1.8376821 1.72 1.977 4.4624516.6817665 8.5032915 3.0223467 11.315 6.554.6131798.7810613 1.7065705.9939489 2.568.5l1.568-.905c.3726958-.2154821.5656532-.6453059.479-1.067l-.345-1.689c-.0581821-.2784822.005005-.5685636.1737412-.7976173s.4270466-.3753942.7102588-.4023827c.5417438-.0138498 1.0109371.3734479 1.1.908l.056.269c.0649254.3144276.2768733.5785607.5697704.7100574.292897.1314967.6311198.1143639.9092296-.0460574l1.063-.614c.2422662-.1412404.5332494-.1725211.8-.086.2728952.0870462.4953613.286938.611.549.1813834.5080566-.0369116 1.0723047-.513 1.326l-.965.557c-.2779773.1607116-.4618749.44513-.494354.7645744-.0324792.3194443.0904111.635055.330354.8484256l.194.172c.4354994.3602229.5271528.9918529.212 1.461-.3658944.4302671-1.0105605.4843244-1.443.121l-1.286-1.14c-.3216946-.2857393-.790103-.3336675-1.163-.119l-1.558.9c-.8602732.4976121-1.2227873 1.5527414-.85 2.474 1.6507137 4.2037583 1.6507137 8.8762417 0 13.08-.3727873.9212586-.0102732 1.9763879.85 2.474l1.558.9c.372897.2146675.8413054.1667393 1.163-.119l1.288-1.142c.2215449-.1968322.5189822-.2852609.8120761-.241432.293094.0438289.5516511.2154005.7059239.468432.2391161.4538583.1263143 1.0132718-.27 1.339l-.212.188c-.2403617.2133506-.363532.5292249-.3310424.8489696.0324895.3197447.2166789.604388.4950424.7650304l.962.556c.4844095.2549485.7024121.831282.508 1.343-.1218496.2513765-.3417357.4415638-.6080464.5259207s-.5555957.0554554-.7999536-.0799207l-1.062-.613c-.2782508-.1604238-.6166231-.1774328-.9095587-.0457207-.2929355.1317121-.504778.396113-.5694413.7107207l-.078.381c-.0515333.2645018-.208662.4965673-.4351178.6426313s-.5026682.1935035-.7648822.1313687c-.544421-.1609858-.8677448-.7197736-.736-1.272l.326-1.589c.0866532-.4216941-.1063042-.8515179-.479-1.067l-1.575-.9c-.8600306-.4920457-1.9506883-.2802097-2.564.498z"/><path id="Shape" d="m21.617 15.928c-3.7282766 1.3315567-6.8305107 3.9980457-8.707 7.484-.2623353.4860106-.0810106 1.0926647.405 1.355s1.0926647.0810106 1.355-.405c1.6417306-3.0508458 4.3563662-5.3845987 7.619-6.55.5202522-.1855677.7915677-.7577478.606-1.278s-.7577478-.7915677-1.278-.606z"/><circle id="Oval" cx="27" cy="16" r="1"/><path id="Shape" d="m18 26c-2.209139 0-4 1.790861-4 4s1.790861 4 4 4 4-1.790861 4-4-1.790861-4-4-4zm0 6c-1.1045695 0-2-.8954305-2-2s.8954305-2 2-2 2 .8954305 2 2-.8954305 2-2 2z"/><path id="Shape" d="m36 26c-2.209139 0-4 1.790861-4 4s1.790861 4 4 4 4-1.790861 4-4-1.790861-4-4-4zm0 6c-1.1045695 0-2-.8954305-2-2s.8954305-2 2-2 2 .8954305 2 2-.8954305 2-2 2z"/><path id="Shape" d="m30.031 33.019h-.031c-.5312329.0073475-.967107.4227355-1 .953-.012.172-.16 1.029-2 1.029-1.826 0-1.987-.844-2-1.024-.0063513-.5522847-.4592153-.9948512-1.0115-.9885-.5522847.0063513-.9948513.4592153-.9885 1.0115 0 1.038.836 3 4 3s4-1.962 4-3c-.0015733-.5364756-.4325844-.9728243-.969-.981z"/></g></g></svg>