<svg height="512" viewBox="0 0 60 60" width="512" xmlns="http://www.w3.org/2000/svg"><g id="Page-1" fill="none" fill-rule="evenodd"><g id="019---Sunny-and-Fog" fill="rgb(0,0,0)" fill-rule="nonzero" transform="translate(-1)"><path id="Shape" d="m27 21c-2.243 0-4 1.318-4 3 0 .5522847.4477153 1 1 1s1-.4477153 1-1c0-.408.779-1 2-1s2 .592 2 1c0 .5522847.4477153 1 1 1s1-.4477153 1-1c0-1.682-1.757-3-4-3z"/><path id="Shape" d="m15.293 22.293-1 1c-.2599566.2510745-.3642126.6228779-.2726972.9725073.0915155.3496295.3645604.6226744.7141899.7141899.3496294.0915154.7214328-.0127406.9725073-.2726972l1-1c.3789722-.3923789.3735524-1.0160848-.0121814-1.4018186s-1.0094397-.3911536-1.4018186-.0121814z"/><path id="Shape" d="m19.293 22.293-1 1c-.2599566.2510745-.3642126.6228779-.2726972.9725073.0915155.3496295.3645604.6226744.7141899.7141899.3496294.0915154.7214328-.0127406.9725073-.2726972l1-1c.3789722-.3923789.3735524-1.0160848-.0121814-1.4018186s-1.0094397-.3911536-1.4018186-.0121814z"/><path id="Shape" d="m37.293 23.707 1 1c.3923789.3789722 1.0160848.3735524 1.4018186-.0121814s.3911536-1.0094397.0121814-1.4018186l-1-1c-.3923789-.3789722-1.0160848-.3735524-1.4018186.0121814s-.3911536 1.0094397-.0121814 1.4018186z"/><path id="Shape" d="m34.293 24.707c.3923789.3789722 1.0160848.3735524 1.4018186-.0121814s.3911536-1.0094397.0121814-1.4018186l-1-1c-.3923789-.3789722-1.0160848-.3735524-1.4018186.0121814s-.3911536 1.0094397-.0121814 1.4018186z"/><path id="Shape" d="m57.448 40.025c.7259397-1.2366235.7343899-2.7672261.0221484-4.0117896s-2.0361938-2.0126559-3.4701484-2.0132104h-.537c.5811138-1.0040129.6966197-2.2111879.3164402-3.30718-.3801794-1.0959922-1.2184178-1.9723309-2.2964402-2.40082l.965-.965c.731593-.7334152.731593-1.9205848 0-2.654l-4.221-4.221 1.507-6.074c.2402315-.9864093-.352676-1.9837739-1.334-2.244l-5.8-1.56-1.727-6.037c-.2967748-.95249127-1.2849408-1.50819756-2.253-1.267l-6.071 1.505-4.212-4.212c-.7394236-.72127829-1.917643-.72614513-2.663-.011l-4.232 4.22-6.042-1.501c-.9919565-.25320279-2.0027956.33965036-2.266 1.329l-1.561 5.8-5.984 1.718c-.98999907.2767704-1.57224873 1.2993882-1.305 2.292l1.56 5.784-4.331 4.5c-.71773418.7158243-.72398391 1.876488-.014 2.6l4.345 4.513-1.563 5.793c-.26166307.9869575.31716727 2.0012464 1.3 2.278l5.989 1.72 1.559 5.792c.2159562.8182434.9537526 1.3900356 1.8 1.395.1534976-.0001955.3063621-.0196815.455-.058l6.983-1.736c.7244369.6475095 1.6613666 1.0065532 2.633 1.009h.537c-.7144329 1.2374339-.7145379 2.7619908-.0002755 3.9995231s2.0344099 2.0000834 3.4632755 2.0004769h2.537c-.7144329 1.2374339-.7145379 2.7619908-.0002755 3.9995231s2.0344099 2.0000834 3.4632755 2.0004769h18c2.209139 0 4-1.790861 4-4s-1.790861-4-4-4h-4.537c.7159782-1.2372162.7159782-2.7627838 0-4h8.537c2.1225547.0007897 3.8761437-1.6564376 3.9951917-3.7756512.119048-2.1192137-1.4379027-3.9624123-3.5471917-4.1993488zm-42.416 6.734-1.548-5.752c-.1782994-.6254312-.6618326-1.1176258-1.284-1.307l-5.952-1.709 1.552-5.743c.16917128-.6341307-.00742318-1.3105065-.465-1.781l-4.305-4.467 4.3-4.469c.4591788-.4695846.63767983-1.1459895.47-1.781l-1.552-5.741 5.968-1.709c.6153929-.1912283 1.0926771-.6801719 1.269-1.3l1.547-5.749 5.981 1.485c.6419372.1721506 1.3268538-.01426284 1.793-.488l4.194-4.194 4.184 4.184c.466877.46825329 1.1462433.65529762 1.787.492l6.022-1.493 1.7 5.941c.1679614.642992.6719958 1.1439623 1.316 1.308l5.749 1.547-1.485 5.979c-.1692331.6409396.0129342 1.3235915.479 1.795l4.194 4.193-2 2h-4.057c.059-.64.111-1.307.111-2 .0034264-9.1733256-6.8922429-16.88178393-16.0092962-17.89630412-9.1170534-1.01452019-17.5386067 4.98948052-19.55185748 13.93915842-2.01325075 8.9496779 3.02591478 17.9816985 11.69915368 20.9691457-.2063015.7266443-.1807828 1.4995462.073 2.211zm17.505-12.759h-1.537c-1.4288656.0003935-2.7490131.7629446-3.4632755 2.0004769s-.7141574 2.7620892.0002755 3.9995231h-2.537c-1.0859381.0009318-2.1244132.4452185-2.875 1.23-7.8096871-2.4983039-12.466742-10.4961762-10.7847436-18.5213626s9.1585943-13.47996744 17.3141977-12.6321069c8.1556035.8478606 14.3502797 7.7239138 14.3455459 15.9234695 0 .676-.057 1.353-.119 2h-6.881c-1.4288656.0003935-2.7490131.7629446-3.4632755 2.0004769s-.7141574 2.7620892.0002755 3.9995231zm24.463 12h-18c-.5522847 0-1 .4477153-1 1s.4477153 1 1 1h6c1.1045695 0 2 .8954305 2 2s-.8954305 2-2 2c-.5522847 0-1 .4477153-1 1s.4477153 1 1 1h8c1.1045695 0 2 .8954305 2 2s-.8954305 2-2 2h-18c-1.1045695 0-2-.8954305-2-2s.8954305-2 2-2h4c.5522847 0 1-.4477153 1-1s-.4477153-1-1-1h-10c-1.1045695 0-2-.8954305-2-2s.8954305-2 2-2h3c.5522847 0 1-.4477153 1-1s-.4477153-1-1-1h-7c-1.1045695 0-2-.8954305-2-2s.8954305-2 2-2h15c.5522847 0 1-.4477153 1-1s-.4477153-1-1-1h-9c-1.1045695 0-2-.8954305-2-2s.8954305-2 2-2h5c.5522847 0 1-.4477153 1-1s-.4477153-1-1-1c-1.1045695 0-2-.8954305-2-2s.8954305-2 2-2h14c1.1045695 0 2 .8954305 2 2s-.8954305 2-2 2h-8c-.5522847 0-1 .4477153-1 1s.4477153 1 1 1h12c1.1045695 0 2 .8954305 2 2s-.8954305 2-2 2h-3c-.5522847 0-1 .4477153-1 1s.4477153 1 1 1h6c1.1045695 0 2 .8954305 2 2s-.8954305 2-2 2z"/><path id="Shape" d="m46 40h-1c-.5522847 0-1 .4477153-1 1s.4477153 1 1 1h1c.5522847 0 1-.4477153 1-1s-.4477153-1-1-1z"/><path id="Shape" d="m20 15c-1.6568542 0-3 1.3431458-3 3s1.3431458 3 3 3 3-1.3431458 3-3-1.3431458-3-3-3zm0 4c-.5522847 0-1-.4477153-1-1s.4477153-1 1-1 1 .4477153 1 1-.4477153 1-1 1z"/><path id="Shape" d="m37 18c0-1.6568542-1.3431458-3-3-3s-3 1.3431458-3 3 1.3431458 3 3 3 3-1.3431458 3-3zm-4 0c0-.5522847.4477153-1 1-1s1 .4477153 1 1-.4477153 1-1 1-1-.4477153-1-1z"/></g></g></svg>