<svg height="512" viewBox="0 0 60 60" width="512" xmlns="http://www.w3.org/2000/svg"><g id="Page-1" fill="none" fill-rule="evenodd"><g id="020---Cloudy" fill="rgb(0,0,0)" fill-rule="nonzero" transform="translate(-1)"><path id="Shape" d="m29 33c1.6568542 0 3-1.3431458 3-3s-1.3431458-3-3-3-3 1.3431458-3 3 1.3431458 3 3 3zm0-4c.5522847 0 1 .4477153 1 1s-.4477153 1-1 1-1-.4477153-1-1 .4477153-1 1-1z"/><path id="Shape" d="m46 30c0-1.6568542-1.3431458-3-3-3s-3 1.3431458-3 3 1.3431458 3 3 3 3-1.3431458 3-3zm-3 1c-.5522847 0-1-.4477153-1-1s.4477153-1 1-1 1 .4477153 1 1-.4477153 1-1 1z"/><path id="Shape" d="m36 38c2.243 0 4-1.318 4-3 0-.5522847-.4477153-1-1-1s-1 .4477153-1 1c0 .408-.779 1-2 1s-2-.592-2-1c0-.5522847-.4477153-1-1-1s-1 .4477153-1 1c0 1.682 1.757 3 4 3z"/><path id="Shape" d="m12.088 39.941c-1.9847059 2.1901342-3.08519944 5.0393719-3.088 7.995.04734305 6.698941 5.5079662 12.0955952 12.207 12.064h25c4.8077901.0216164 8.7259671-3.8522748 8.759-8.66.0002085-.6418952-.0729326-1.2817121-.218-1.907 3.7043018-1.0628771 6.2554975-4.4522295 6.252-8.306-.0183399-2.439872-1.0571398-4.7606759-2.8645516-6.3997531s-4.2184024-2.4467651-6.6484484-2.2272469c-.1224095-1.9577649-.622609-3.8733285-1.473-5.641 1.9076626-1.7703303 2.9899741-4.256457 2.986-6.859.0502295-4.3782453-3.0279325-8.1701475-7.323-9.021-1.4365675-6.33360797-7.0134868-10.86673875-13.507-10.979-3.9825649.00937291-7.7600897 1.76724545-10.332 4.808-1.3046459-.78100168-2.7974571-1.19171492-4.318-1.188-4.9395929.11256444-8.85716823 4.20008024-8.76 9.14-.00078567.8327967.10712572 1.6621343.321 2.467-4.92871029 1.9354918-8.14603259 6.7182777-8.081 12.013-.11214452 6.4521908 4.67972667 11.9411479 11.088 12.701zm46.912 1.186c-.0042636 3.2947052-2.4165878 6.0913009-5.675 6.579-.0504485.0158455-.0995952.035571-.147.059-.0616695-.0115808-.1242538-.0176049-.187-.018-.9740415.1040298-1.9590729.0018127-2.891-.3-.5246705-.172589-1.089911.1128295-1.2625.6375s.1128295 1.089911.6375 1.2625c.8926321.2933608 1.8263984.4422368 2.766.441.171 0 .336-.017.5-.027.1387885.5154875.2130232 1.0462155.221 1.58-.0319063 3.7018908-3.0530318 6.6800809-6.755 6.659h-25c-3.636756.0627938-7.0244539-1.8414465-8.8612006-4.9809208-1.8367467-3.1394742-1.8367467-7.0256842 0-10.1651584 1.8367467-3.1394743 5.2244446-5.0437146 8.8612006-4.9809208 1.3479919-.0033085 2.6834263.2590211 3.93.772.5003195.1732464 1.0489653-.0735144 1.251306-.5627916.2023406-.4892772-.0117613-1.0514725-.488306-1.2822084-1.0979062-.4514365-2.2557378-.7404733-3.437-.858-.162935-.8130583-.2479864-1.6397983-.254-2.469.1049937-7.3551533 6.0185619-13.3047047 13.3729429-13.4543155 7.3543811-.1496108 13.505021 5.5545174 13.9090571 12.8993155-.3885105.1250384-.7680552.2763885-1.136.453-.4970562.2430053-.7030052.8429437-.46 1.34.2430053.4970562.8429437.7030053 1.34.46.4891984-.2399811 1.0056101-.4199529 1.538-.536 1.9838349-.4439422 4.0621064.0294401 5.6579782 1.2887569 1.5958717 1.2593169 2.5395171 3.1705565 2.5690218 5.2032431zm-48.4-24.293c.025-.006.044-.026.068-.034 2.1425926-.562013 4.4118364-.3884039 6.444.493.1259374.0559467.2621948.0849014.4.085.4739764.0005281.8832163-.3317555.9800309-.7957393.0968145-.4639837-.1453939-.9321981-.5800309-1.1212607-2.1721219-.9476454-4.579133-1.2197757-6.908-.781-.1649945-.6267182-.2493424-1.2719289-.251-1.92-.0980324-3.83573529 2.9246378-7.02831894 6.76-7.14 1.0950003.00034893 2.1714987.28238738 3.126.819-.5024002.76069026-.9335601 1.56610239-1.288 2.406-.2062147.51030123.0387045 1.09131383.548 1.3.1198481.0495941.248296.0750798.378.075.4084339.0032677.7778032-.24218667.933-.62.4126648-1.00826862.9530834-1.95937836 1.608-2.83.006-.007.015-.01.02-.018 2.1838444-2.97099599 5.6447726-4.7333546 9.332-4.752 5.3594054.1014345 10.0091081 3.7270131 11.414 8.9-1.1351899.0821973-2.2420368.393094-3.254.914-.4896004.2557078-.6792078.8598996-.4235 1.3495s.8598996.6792078 1.3495.4235c1.1246626-.5846745 2.3963314-.8260029 3.657-.694 3.5378698.4822771 6.1542139 3.5370426 6.087 7.107.0031345 1.8857189-.718628 3.7005076-2.016 5.069-3.782392-5.7584899-10.8812591-8.3724098-17.4948679-6.4418988-6.6136089 1.930511-11.1915432 7.9528867-11.2821321 14.8418988-.0003703.8141746.0641675 1.627083.193 2.431-2.1807253.1424248-4.2832295.8676645-6.088 2.1h-1.1c-5.78678937-.1613522-10.35308019-4.9726809-10.212-10.76-.08500996-4.77991 3.02088006-9.0325273 7.6-10.406z"/><path id="Shape" d="m47 54h-1c-.5522847 0-1 .4477153-1 1s.4477153 1 1 1h1c.5522847 0 1-.4477153 1-1s-.4477153-1-1-1z"/><path id="Shape" d="m42 54h-22c-.5522847 0-1 .4477153-1 1s.4477153 1 1 1h22c.5522847 0 1-.4477153 1-1s-.4477153-1-1-1z"/></g></g></svg>