<svg height="512" viewBox="0 0 55 60" width="512" xmlns="http://www.w3.org/2000/svg"><g id="Page-1" fill="none" fill-rule="evenodd"><g id="022---Tornado" fill="rgb(0,0,0)" fill-rule="nonzero"><path id="Shape" d="m52 13c-.545859.0005356-.9891562.4411543-.993.987-.0039872.5486975.4324571.9993785.981 1.013.2741498-.0291128.5468874.0663894.7429897.2601664.1961024.193777.294851.465356.2690103.7398336 0 .677-.432 2.114-3.512 3.526.1797806-1.1922705.043579-2.4108444-.395-3.534 1.2458207-3.5735929 1.5556644-7.40670342.9-11.134h-.01c-.0202959-.1660472-.0822115-.324276-.18-.46-.138-.178-3.445-4.398-15.803-4.398-12.015 0-23.26.644-28.814 8.419-.0889784.12373467-.14787168.26651662-.172.417-.33614644 2.7340371.24340631 5.5023862 1.648 7.872-1.08198061-.367181-2.11135718-.8741371-3.062-1.508-1.208-.906-1.4-1.46-1.375-1.6.041-.209.6-.523 1.022-.634.53200814-.1382352.8527092-.6799455.71803604-1.2128665-.13467317-.532921-.67422609-.8572387-1.20803604-.7261335-.221.055-2.172.587-2.493 2.176-.349 1.733 1.521 3.136 2.136 3.597 1.99740825 1.2767582 4.20309875 2.1936242 6.517 2.709-.169 1.5-.272 5 2.062 6.973-.073 2.829.18 15.539 10.039 23.034.1062425 1.7109804.4867606 3.3937689 1.127 4.984-1.141098-.0621136-2.2654089-.3026999-3.332-.713-.677-.277-1.813-.887-1.813-1.787-.0261168-.2741851.0722548-.5456088.267977-.7393932.1957223-.1937844.4681113-.2894505.742023-.2606068.5522847-.0027614.9977614-.4527153.995-1.005s-.4527153-.9977614-1.005-.995c-.8026156-.0234737-1.5793921.2850527-2.1471697.8528303s-.876304 1.3445541-.8528303 2.1471697c0 1.532 1.083 2.824 3.048 3.638 1.6435376.629488 3.3922445.9390417 5.152.912h.046c1.0568787 1.5983107 2.6196822 2.7955914 4.438 3.4.1019674.0335176.2086659.0504002.316.05h3c.127363-.0000472.2535725-.0241356.372-.071.22-.089 5.378-2.237 7.524-10.4 6.2703354-6.420408 9.269878-15.3501868 8.147-24.254.7470075-1.046612 1.3604184-2.1823964 1.826-3.381 4.761-1.757 6.131-3.954 6.131-5.894.0234737-.8026156-.2850527-1.5793921-.8528303-2.1471697s-1.3445541-.876304-2.1471697-.8528303zm-18-11c7.617 0 11.436 1.658 13.1 2.724-19.775 8.222-34.98 5.027-39.418 3.763 4.751-5.387 13.363-6.487 26.318-6.487zm11.276 22.3c-.9989158.5517176-2.1388347.79529-3.276.7-.5522847 0-1 .4477153-1 1s.4477153 1 1 1c1.0710876.02273 2.1386347-.1306455 3.16-.454.6517446 8.0289866-2.2037465 15.9470482-7.83 21.712 0 0-.008.011-.013.016l-.013.008c-.6569827.5080092-1.4747301.7628454-2.304.718-.5522847 0-1 .4477153-1 1s.4477153 1 1 1c.4665279-.0002949.931625-.0515998 1.387-.153-1.84 5.034-4.874 6.794-5.6 7.153h-2.619c-.9450545-.341985-1.7958633-.9025663-2.483-1.636 2.2344461-.2391912 4.3390819-1.1677893 6.022-2.657.3789722-.3923789.3735524-1.0160848-.0121814-1.4018186s-1.0094397-.3911536-1.4018186-.0121814c-1.6714574 1.3786682-3.7588157 2.1537211-5.925 2.2-.6461388-1.3015238-1.0690244-2.7023535-1.251-4.144 1.5969077.4056572 3.235593.6241262 4.883.651.5522847 0 1-.4477153 1-1s-.4477153-1-1-1c-1.8755157-.0489215-3.7357617-.351674-5.53-.9-8.529-6.3-9.433-17.2-9.486-20.821 2.6400684.5155484 5.3263079.7571625 8.016.721.5522847 0 1-.4477153 1-1s-.4477153-1-1-1c-2.8729556.0718943-5.7429725-.2323537-8.537-.905-1.69-1.224-1.7-3.848-1.58-5.145 2.2899618.4352188 4.616051.652191 6.947.648 7.5707528-.1057785 14.9999245-2.0674562 21.636-5.713.488772-.2573647.6763647-.862228.419-1.351s-.862228-.6763647-1.351-.419c-11.947 6.285-22.158 6.043-28.487 4.593-2.01947788-1.9075295-3.15447584-4.5691414-3.133-7.347 4.5750674 1.2961166 9.3132255 1.9252664 14.068 1.868 9.355828-.0929579 18.5980246-2.0610901 27.18-5.788.3785394 3.010302.0445672 6.0674323-.975 8.925-1.3744603.7958856-2.8714576 1.3581889-4.43 1.664-.4897554.1227443-.8111846.5913178-.7493732 1.0924224s.4874708.8775246.9923732.8775776c.0822727.0003241.1642562-.0097558.244-.03 1.4530079-.3316816 2.8658878-.8195174 4.214-1.455.1654575.9538172.1023994 1.9332737-.184 2.858-3.66 1.18-9.616 2.227-19.316 2.627-.5522847.011598-.9905979.4687153-.979 1.021.011598.5522847.4687153.990598 1.021.979h.042c8.307-.346 14.165-1.186 18.248-2.289-.3008872.5524548-.6396988 1.0833934-1.014 1.589z"/><path id="Shape" d="m37.372 5.929c.3318997-.1329028.5676849-.43277645.6185376-.78666145s-.0909529-.70801781-.372-.92900001-.6586379-.27524135-.9905376-.14233854c-6.200435 2.31045488-12.8921761 2.9817645-19.428 1.949-.5412391-.11045695-1.0695431.23876095-1.18.78s.2387609 1.06954305.78 1.18c2.1320568.37279151 4.2936913.55019415 6.458.53 4.8251739.03558958 9.6136934-.84007775 14.114-2.581z"/><path id="Shape" d="m23.143 29.485c-.2843303.4733224-.1312297 1.0875154.342 1.372l.27.162c-.805887.9057219-.9857948 2.2081381-.4556228 3.298415.5301721 1.0902769 1.6656914 1.7530366 2.875743 1.6784624s2.2555966-.8717506 2.6478798-2.0188774c.0582493.0126245.1174587.0203184.177.023.4494307.0003074.8438561-.2992511.9641796-.7322756.1203235-.4330246-.0630173-.8931255-.4481796-1.1247244l-5-3c-.2273881-.13686-.4998542-.1777158-.7573829-.1135681-.2575288.0641478-.4789951.2280369-.6156171.4555681zm2.857 4.515c-.4657296.0021116-.8706116-.3191173-.9744604-.7731261-.1038488-.4540087.1211245-.9193091.5414604-1.1198739l1.426.855c0 .014.007.024.007.038 0 .2652165-.1053568.5195704-.2928932.7071068s-.4418903.2928932-.7071068.2928932z"/><path id="Shape" d="m37 34c.0592061-.0027374.1180787-.010431.176-.023.3936685 1.1449448 1.4385556 1.9397863 2.6470367 2.0135902 1.2084811.0738038 2.3423266-.5879789 2.872397-1.6765096.5300704-1.0885306.3518721-2.3892256-.4514337-3.2950806l.27-.162c.4622053-.2892402.6075113-.8954316.3266637-1.3627839-.2808477-.4673523-.8843167-.6235797-1.3566637-.3512161l-5 3c-.3851623.2315989-.5685031.6916998-.4481796 1.1247244.1203235.4330245.5147489.732583.9641796.7322756zm4-1c0 .5522847-.4477153 1-1 1s-1-.4477153-1-1c0-.014.006-.024.007-.038l1.426-.855c.3438522.1651587.5637916.5115536.567.893z"/><path id="Shape" d="m29 39v2c0 .5522847.4477153 1 1 1h6c.5522847 0 1-.4477153 1-1v-2c0-1.6568542-1.3431458-3-3-3h-2c-1.6568542 0-3 1.3431458-3 3zm2 0c0-.5522847.4477153-1 1-1h2c.5522847 0 1 .4477153 1 1v1h-4z"/></g></g></svg>