<svg height="512" viewBox="0 0 61 60" width="512" xmlns="http://www.w3.org/2000/svg"><g id="Page-1" fill="none" fill-rule="evenodd"><g id="023---Cresent-Moon" fill="rgb(0,0,0)" fill-rule="nonzero"><path id="Shape" d="m59.167 24.674c-.8479912-.1744826-1.7097508.2295435-2.118.993-3.2715717 5.9799249-9.9725178 9.2305759-16.6941899 8.0984065-6.7216721-1.1321695-11.9880471-6.3985445-13.1202166-13.1202166-1.1321694-6.7216721 2.1184816-13.42261818 8.0984065-16.6941899.7642163-.40752803 1.1685229-1.26988601.993-2.118-.1608537-.85788228-.8594616-1.51237184-1.726-1.617-2.7015759-.32232257-5.4341212-.28196497-8.125.12-15.5392974 2.34497241-26.63542102 16.2843996-25.43600188 31.9537982 1.19941914 15.6693985 14.28783688 27.7576122 30.00300188 27.7102018.636 0 1.2736667-.0203333 1.913-.061 14.0452817-.9315571 25.5614794-11.4884873 27.708-25.4.4032783-2.6927668.4439737-5.4274256.121-8.131-.1013672-.8696212-.7565663-1.572228-1.617-1.734zm-34.155-6.674h-.012c-2.11346.0029209-4.0004966-1.3233132-4.7136536-3.3128179-.7131571-1.9895047-.0983884-4.2125349 1.5356387-5.55293675 1.6340272-1.34040181 3.9343532-1.50864038 5.7460149-.42024535-1.6792067 2.8058959-2.5628044 6.0160244-2.556 9.286zm19.955 36.24c-1.275763-1.4465338-1.9757551-3.3112816-1.967-5.24.0049599-4.4162219 3.5837781-7.9950401 8-8 1.7941244-.0039589 3.5363516.6018186 4.941 1.718-2.4755185 4.8146402-6.285371 8.8143951-10.974 11.521zm13.718-20c-.3436866 2.283402-.9739938 4.5143401-1.876 6.64-1.6900931-1.2226575-3.7230216-1.8805858-5.809-1.88-5.5203344.0060624-9.9939376 4.4796656-10 10-.006768 2.2508685.7576558 4.4361465 2.166 6.192-3.2344351 1.5800736-6.7459824 2.5141765-10.338 2.75-15.0019889 1.0433558-28.14904853-9.9499598-29.77791246-24.899711-1.62886392-14.9497513 8.84224156-28.51640576 23.71691246-30.728289 2.5198155-.37408446 5.0781075-.41241848 7.608-.114-2.212064 1.20853723-4.1455013 2.86839741-5.675 4.872-2.5196228-1.57183348-5.7571568-1.38111428-8.0748035.47567687-2.3176468 1.85679116-3.2100091 4.97475353-2.2256604 7.77657743.9843488 2.8018239 3.630757 4.6765303 6.6004639 4.6757457.04 0 .077-.01.117-.01.013.117.016.232.031.349 1.0138907 7.7255189 6.8815725 13.922528 14.5402764 15.3563587 7.6587039 1.4338306 15.370775-2.2208338 19.1107236-9.0563587.3020676 2.5270308.2637256 5.0831661-.114 7.6z"/><path id="Shape" d="m9 24c-2.209139 0-4 1.790861-4 4s1.790861 4 4 4 4-1.790861 4-4-1.790861-4-4-4zm0 6c-1.1045695 0-2-.8954305-2-2s.8954305-2 2-2 2 .8954305 2 2-.8954305 2-2 2z"/><path id="Shape" d="m35 39c0-.5522847-.4477153-1-1-1s-1 .4477153-1 1-.4477153 1-1 1-1-.4477153-1-1-.4477153-1-1-1-1 .4477153-1 1c0 1.6568542 1.3431458 3 3 3s3-1.3431458 3-3z"/><path id="Shape" d="m20 38c-.5522847 0-1 .4477153-1 1s-.4477153 1-1 1-1-.4477153-1-1-.4477153-1-1-1-1 .4477153-1 1c0 1.6568542 1.3431458 3 3 3s3-1.3431458 3-3c0-.5522847-.4477153-1-1-1z"/><path id="Shape" d="m28.032 43.019c-.5428128-.0086037-.9968716.4102567-1.032.952-.011.172-.16 1.029-2 1.029s-1.989-.857-2-1c0-.5522847-.4477153-1-1-1s-1 .4477153-1 1c0 1.038.836 3 4 3s4-1.962 4-3c-.0015636-.5360926-.4319759-.9722853-.968-.981z"/><path id="Shape" d="m33 49c-1.6568542 0-3 1.3431458-3 3s1.3431458 3 3 3 3-1.3431458 3-3-1.3431458-3-3-3zm0 4c-.5522847 0-1-.4477153-1-1s.4477153-1 1-1 1 .4477153 1 1-.4477153 1-1 1z"/><path id="Shape" d="m22 35c1.6568542 0 3-1.3431458 3-3s-1.3431458-3-3-3-3 1.3431458-3 3 1.3431458 3 3 3zm0-4c.5522847 0 1 .4477153 1 1s-.4477153 1-1 1-1-.4477153-1-1 .4477153-1 1-1z"/><path id="Shape" d="m56 0c-.5522847 0-1 .44771525-1 1v1c0 .55228475.4477153 1 1 1s1-.44771525 1-1v-1c0-.55228475-.4477153-1-1-1z"/><path id="Shape" d="m58 5h1c.5522847 0 1-.44771525 1-1s-.4477153-1-1-1h-1c-.5522847 0-1 .44771525-1 1s.4477153 1 1 1z"/><path id="Shape" d="m54 3h-1c-.5522847 0-1 .44771525-1 1s.4477153 1 1 1h1c.5522847 0 1-.44771525 1-1s-.4477153-1-1-1z"/><path id="Shape" d="m55 7c0 .55228475.4477153 1 1 1s1-.44771525 1-1v-1c0-.55228475-.4477153-1-1-1s-1 .44771525-1 1z"/><path id="Shape" d="m49 17c-.5522847 0-1 .4477153-1 1v1c0 .5522847.4477153 1 1 1s1-.4477153 1-1v-1c0-.5522847-.4477153-1-1-1z"/><path id="Shape" d="m51 20c-.5522847 0-1 .4477153-1 1s.4477153 1 1 1h1c.5522847 0 1-.4477153 1-1s-.4477153-1-1-1z"/><path id="Shape" d="m47 20h-1c-.5522847 0-1 .4477153-1 1s.4477153 1 1 1h1c.5522847 0 1-.4477153 1-1s-.4477153-1-1-1z"/><path id="Shape" d="m48 24c0 .5522847.4477153 1 1 1s1-.4477153 1-1v-1c0-.5522847-.4477153-1-1-1s-1 .4477153-1 1z"/><path id="Shape" d="m37 11c-.5522847 0-1 .4477153-1 1v1c0 .5522847.4477153 1 1 1s1-.4477153 1-1v-1c0-.5522847-.4477153-1-1-1z"/><path id="Shape" d="m39 16h1c.5522847 0 1-.4477153 1-1s-.4477153-1-1-1h-1c-.5522847 0-1 .4477153-1 1s.4477153 1 1 1z"/><path id="Shape" d="m35 14h-1c-.5522847 0-1 .4477153-1 1s.4477153 1 1 1h1c.5522847 0 1-.4477153 1-1s-.4477153-1-1-1z"/><path id="Shape" d="m37 19c.5522847 0 1-.4477153 1-1v-1c0-.5522847-.4477153-1-1-1s-1 .4477153-1 1v1c0 .5522847.4477153 1 1 1z"/></g></g></svg>