<svg height="512" viewBox="0 0 60 60" width="512" xmlns="http://www.w3.org/2000/svg"><g id="Page-1" fill="none" fill-rule="evenodd"><g id="024---Sunny-and-Rain" fill="rgb(0,0,0)" fill-rule="nonzero"><path id="Shape" d="m23.383 19.823c-.1721665.201812-.2570922.4637619-.2360871.7282012.0210052.2644394.1462197.5096973.3480871.6817988.8403012.7179702.9394702 1.9811988.2215 2.8215s-1.9811988.9394702-2.8215.2215c-.271724-.2356077-.6490375-.3071563-.9881517-.1873796-.3391142.1197766-.5877907.4124277-.6512626.7664279-.0634718.3540003.0680385.7148185.3444143.9449517.7207835.619138 1.6398108.9590716 2.59.958.107 0 .215 0 .322-.013 1.6131708-.1273156 2.9907202-1.2140377 3.4900724-2.7532507.4993521-1.5392131.0221251-3.2276626-1.2090724-4.2777493-.4194611-.3592585-1.0507375-.3104577-1.41.109z"/><path id="Shape" d="m52.246 31.2c.2263058-.9500328.3400874-1.9233858.339-2.9.0028881-3.4839585-1.4683885-6.8065006-4.05-9.146l1.013-2.854c.1739336-.4666589.1519353-.9837979-.061-1.434-.2134613-.4542535-.5987547-.8050108-1.071-.975l-5.628-2-1.24-6.132c-.2089427-.99231308-1.1689739-1.6386839-2.167-1.459l-5.909 1.074-4.153-4.719c-.6746862-.73403733-1.8070656-.80844328-2.572-.169l-4.838 3.958-5.609-1.992c-.4784765-.17515504-1.0073749-.1499179-1.467.07-.444575.21141728-.7842014.59435416-.941 1.061l-2.022 5.632-6.094 1.232c-.48478351.0903419-.9133941.3705919-1.19056247.7784575-.27716838.4078657-.37992783.9095505-.28543753 1.3935425l1.078 5.909-4.671 4.114c-.77877297.6757161-.86799819 1.8525969-.2 2.638l3.893 4.553-1.98 5.916c-.17078527.4656195-.14516092.9806329.071 1.427.20341439.4348486.57315138.7696299 1.026.929l5.864 2.216 1.076 5.893c.1788236 1.012814 1.1438122 1.6896928 2.157 1.513l6.139-1.017 3.9 4.56c.3153752.3810348.7702678.6198263 1.263.663.057.005.113.007.169.007.4307575.0014292.8482277-.1490584 1.179-.425l2.519-2.059c1.1031428.3605697 2.2564249.5441767 3.417.544h19.459c4.8682768-.0778908 8.8861748-3.830641 9.2957258-8.6822855.4095511-4.8516445-2.9223968-9.2248312-7.7087258-10.1177145zm-28.146 18.684-3.873-4.531c-.4287819-.488305-1.0763242-.7252475-1.719-.629l-6.1 1.01-1.071-5.87c-.1279279-.6346483-.5727594-1.1591568-1.178-1.389l-5.8-2.192 1.975-5.9c.19838469-.6211653.06437127-1.3006699-.355-1.8l-3.87-4.51 4.671-4.119c.46190201-.4415387.67661173-1.0823014.574-1.713l-1.107-5.848 6.083-1.231c.6491512-.1279873 1.1818956-.5903333 1.4-1.215l2-5.574 5.557 1.972c.6234225.24042518 1.3283798.12114241 1.838-.311l4.804-3.934 4.071 4.63c.4264294.5151682 1.1011553.75479763 1.757.624l5.857-1.068 1.222 6.044c.128958.6484335.5857161 1.1832117 1.206 1.412l5.6 1.955-.774 2.177c-1.767759-1.1240492-3.8009208-1.7615251-5.894-1.848-4.4109802-6.62154627-12.6469068-9.56023554-20.2532099-7.22661741-7.6063031 2.33361811-12.77711602 9.38550271-12.71569835 17.34149721.06141766 7.9559946 5.34048425 14.9272095 12.98190825 17.1431202.9802518 2.2158288 2.6431886 4.0602661 4.746 5.264zm4.259-22.223c-4.9574363 1.3394445-8.3900963 5.8508934-8.359 10.986-.0002862.7632893.0754204 1.524711.226 2.273-6.3071001-2.432833-10.40467553-8.567029-10.23692535-15.3249908.16775015-6.7579618 4.56462505-12.6813034 10.98466165-14.7982158 6.4200366-2.11691242 13.477774.0294397 17.6322637 5.3622066-5.7029181.9343488-9.9757096 5.729514-10.249 11.502zm22.3 20.339h-19.459c-4.7831319-.0877027-8.7317545-3.7652444-9.1588507-8.5300771-.4270963-4.7648327 2.8045631-9.0859797 7.4958507-10.0229229 1.9619903-.3632951 3.9890024-.071664 5.769.83.1397413.0720664.2947709.1094518.452.109.4625433.0004615.8650435-.3163539.9732495-.7660627.1082059-.4497087-.106123-.9149415-.5182495-1.1249373-1.7981103-.9098035-3.8103305-1.3119018-5.82-1.163.3845306-5.4842138 5.0794089-9.6569059 10.5708503-9.3951109 5.4914414.2617949 9.7680781 4.8621884 9.6291497 10.3581109.000298.9434522-.128565 1.882504-.383 2.791-1.2980927.0554651-2.5692583.3882596-3.728.976-.3263766.157429-.5420528.4791008-.563752.8408116-.0216991.3617109.1539743.7068598.4591895.9021782.3052152.1953185.6922116.2102427 1.0115625.0390102 1.0145796-.5188161 2.1384699-.7876172 3.278-.784.0425781-.0055808.0846906-.0142707.126-.026.041622.0141092.0840263.0257954.127.035 4.0214238.2078604 7.1545898 3.565439 7.0842106 7.5916161s-3.3189789 7.2721998-7.3452106 7.3393839z"/><path id="Shape" d="m40.463 20c-2.5459062-.0001207-4.9402554 1.2100464-6.45 3.26-.3313708.4418278-.2418278 1.0686291.2 1.4.4418278.3313708 1.0686291.2418278 1.4-.2 1.1336012-1.5444662 2.9341653-2.457742 4.85-2.46.5522847 0 1-.4477153 1-1s-.4477153-1-1-1z"/><path id="Shape" d="m15.134 23.142c-1.2093154.0958946-2.2418577.9106644-2.6163385 2.0645291-.3744807 1.1538647-.0171874 2.4196984.9053385 3.2074709.4200126.3589851 1.0515149.3095125 1.4105-.1105.358985-.4200126.3095125-1.0515149-.1105-1.4105-.3079575-.2624541-.4274063-.6846248-.3026102-1.0695221.124796-.3848973.46924-.656659.8726102-.6884779.2646968-.0223985.5272193.0630655.728.237.4202887.3589851 1.0520149.3092887 1.411-.111s.3092887-1.0520149-.111-1.411c-.605142-.5186919-1.3926897-.7736457-2.187-.708z"/><path id="Shape" d="m24.221 12.492c-1.2093154.0958946-2.2418577.9106644-2.6163385 2.0645291-.3744807 1.1538647-.0171874 2.4196984.9053385 3.2074709.2715218.2322227.6463077.30195.9831793.1829165.3368717-.1190335.5846503-.4087438.65-.76.0653498-.3512561-.0616574-.7106939-.3331793-.9429165-.2718791-.2322226-.3992165-.591851-.3340453-.9434165.0651711-.3515655.3129497-.6416571.65-.761.3370502-.1193429.7121662-.0498061.9840453.1824165s.6469951.3017594.9840453.1824165c.3370503-.1193429.5848289-.4094345.65-.761.0651712-.3515655-.0621662-.7111939-.3340453-.9434165-.6055887-.5193039-1.3940045-.7743055-2.189-.708z"/><path id="Shape" d="m39.177 52.432c-.655.947-2.177 3.29-2.177 4.568 0 1.6568542 1.3431458 3 3 3s3-1.3431458 3-3c0-1.278-1.522-3.621-2.177-4.568-.1964761-.2556332-.5005854-.4054536-.823-.4054536s-.6265239.1498204-.823.4054536zm.823 5.568c-.5522847 0-1-.4477153-1-1 .2168254-.7643706.554416-1.4891774 1-2.147.4455093.6578649.783094 1.3826594 1 2.147 0 .5522847-.4477153 1-1 1z"/><path id="Shape" d="m29.177 52.432c-.655.947-2.177 3.29-2.177 4.568 0 1.6568542 1.3431458 3 3 3s3-1.3431458 3-3c0-1.278-1.522-3.621-2.177-4.568-.1964761-.2556332-.5005854-.4054536-.823-.4054536s-.6265239.1498204-.823.4054536zm.823 5.568c-.5522847 0-1-.4477153-1-1 .2168254-.7643706.554416-1.4891774 1-2.147.4455093.6578649.783094 1.3826594 1 2.147 0 .5522847-.4477153 1-1 1z"/><path id="Shape" d="m49.177 52.432c-.655.947-2.177 3.29-2.177 4.568.0000001 1.6568542 1.3431458 2.9999999 3 2.9999999s2.9999999-1.3431457 3-2.9999999c0-1.278-1.522-3.621-2.177-4.568-.1964761-.2556332-.5005854-.4054536-.823-.4054536s-.6265239.1498204-.823.4054536zm.823 5.568c-.5522847 0-1-.4477153-1-1 .2168254-.7643706.554416-1.4891774 1-2.147.4455093.6578649.783094 1.3826594 1 2.147 0 .5522847-.4477153 1-1 1z"/><path id="Shape" d="m30 38c.5522847 0 1-.4477153 1-1 0-1.6568542-1.3431458-3-3-3s-3 1.3431458-3 3c0 .5522847.4477153 1 1 1s1-.4477153 1-1 .4477153-1 1-1 1 .4477153 1 1 .4477153 1 1 1z"/><path id="Shape" d="m38 34c-1.6568542 0-3 1.3431458-3 3 0 .5522847.4477153 1 1 1s1-.4477153 1-1 .4477153-1 1-1 1 .4477153 1 1 .4477153 1 1 1 1-.4477153 1-1c0-1.6568542-1.3431458-3-3-3z"/><path id="Shape" d="m36 40h-6c-.5522847 0-1 .4477153-1 1v1c0 2.209139 1.790861 4 4 4s4-1.790861 4-4v-1c0-.5522847-.4477153-1-1-1zm-3 4c-1.1045695 0-2-.8954305-2-2h4c0 1.1045695-.8954305 2-2 2z"/></g></g></svg>