<svg height="60" viewBox="0 0 60 60" width="60" xmlns="http://www.w3.org/2000/svg"><g id="Page-1" fill="none" fill-rule="evenodd"><g id="025---Cresent-Moon" fill="rgb(0,0,0)" fill-rule="nonzero" transform="translate(-1)"><path id="Shape" d="m14 22c0-2.209139-1.790861-4-4-4s-4 1.790861-4 4 1.790861 4 4 4 4-1.790861 4-4zm-6 0c0-1.1045695.8954305-2 2-2s2 .8954305 2 2-.8954305 2-2 2-2-.8954305-2-2z"/><path id="Shape" d="m21 33c0 1.6568542 1.3431458 3 3 3s3-1.3431458 3-3c0-.5522847-.4477153-1-1-1s-1 .4477153-1 1-.4477153 1-1 1-1-.4477153-1-1-.4477153-1-1-1-1 .4477153-1 1z"/><path id="Shape" d="m15 33c0-.5522847-.4477153-1-1-1s-1 .4477153-1 1-.4477153 1-1 1-1-.4477153-1-1-.4477153-1-1-1c-.55228475 0-1 .4477153-1 1 .00000003 1.6568542 1.3431458 2.9999999 3 2.9999999s3-1.3431457 3-2.9999999z"/><path id="Shape" d="m19 30c1.6568542 0 3-1.3431458 3-3s-1.3431458-3-3-3-3 1.3431458-3 3 1.3431458 3 3 3zm0-4c.5522847 0 1 .4477153 1 1s-.4477153 1-1 1-1-.4477153-1-1 .4477153-1 1-1z"/><path id="Shape" d="m52.646 37.661c-.0963148-1.8929984-.6273774-3.7383723-1.552-5.393.875974-3.1947249 1.1212081-6.5295003.722-9.818-.0900328-.7953441-.683138-1.4416486-1.4678421-1.5995018-.7847041-.1578533-1.5815862.2088374-1.9721579.9075018-1.0596709 1.9162503-2.5697934 3.5458097-4.4 4.748-3.5997073-1.0843417-7.5000871-.4048059-10.521 1.833-5.3599486-1.3120029-9.3619083-5.7841245-10.0729188-11.2563146s2.0152224-10.81851663 6.8619188-13.4566854c.6975803-.38914001 1.0648552-1.18353715.9094291-1.96704905-.1554262-.78351189-.7981284-1.37755871-1.5914291-1.47095095-2.2963321-.27426491-4.6188848-.24299266-6.907.093-12.1523489 1.84166721-21.26169966 12.090122-21.66538953 24.3745982-.40368986 12.2844763 8.01316926 23.1088736 20.01838953 25.7444018 0 .045-.006.089-.006.134-.0266233 5.1905856 4.1515146 9.4241815 9.342 9.466h19.464c5.6584709-.0893327 10.390543-4.3250716 11.1037657-9.9391242s-2.809384-10.8984857-8.2657657-12.3998758zm-2.764-14.507c.1957125 1.9682189.145661 3.9531462-.149 5.909-.05.343-.12.683-.186 1.023-.9585246-1.085399-2.1023064-1.9918241-3.378-2.677 1.4870911-1.1797231 2.7455221-2.6218518 3.713-4.255zm-28.6-7.962c-1.6829318-.0535744-3.1584393-1.1396369-3.7097566-2.7306049-.5513173-1.5909679-.0641934-3.35714015 1.2247388-4.44055306s3.1125634-1.25954757 4.5850178-.44284204c-1.3512122 2.31182674-2.0754282 4.9363773-2.101 7.614zm-18.232 8.762c.73712809-10.9966923 9.0039514-20.0105878 19.896-21.694 1.9536443-.28655702 3.9349628-.33357136 5.9-.14-1.6680455.98055448-3.1357916 2.26746179-4.326 3.793-2.1976307-1.30338663-4.9762756-1.09050273-6.9497071.53244688-1.9734316 1.62294962-2.7187951 4.30820932-1.8642392 6.71614032.854556 2.407931 3.1259225 4.0225767 5.6809463 4.0384128.006.05.007.1.013.15.798968 5.7879033 4.7790929 10.637473 10.3 12.55-2.8041093 3.0401556-3.907886 7.2782379-2.943 11.3-3.7269319.6507397-6.6920581 3.4874969-7.507 7.182-11.241071-2.5703258-18.95313012-12.9214346-18.2-24.428zm46.758 34.046h-19.464c-4.0891308-.0395883-7.3745197-3.3817915-7.344-7.471 0-5.335 5.773-9.153 10.62-6.686.4899383.2363237 1.0789165.0376851 1.325657-.4470907s.0607348-1.0778646-.418657-1.3349093c-1.1591673-.5875586-2.4306181-.9203384-3.729-.976-.2539441-.9085978-.3827978-1.847582-.383-2.791-.0961582-5.4679012 4.170664-10.0222723 9.6332195-10.2824198 5.4625556-.2601474 10.142878 3.868127 10.5667805 9.3204198-2.010962-.1508161-4.0248905.2510013-5.824 1.162-.4121265.2099958-.6264554.6752286-.5182495 1.1249373.108206.4497088.5107062.7665242.9732495.7660627.1575349.000339.3128626-.0370356.453-.109 1.7801978-.9021897 3.8078108-1.1935053 5.77-.829 4.6909939.9367948 7.9226675 5.2573963 7.4961091 10.0219588-.4265584 4.7645626-4.3743115 8.4424094-9.1571091 8.5310412z"/><path id="Shape" d="m45.389 34.46c.3313709.4418278.9581722.5313708 1.4.2.4418278-.3313709.5313708-.9581722.2-1.4-1.5097446-2.0499536-3.9040938-3.2601207-6.45-3.26-.5522847 0-1 .4477153-1 1s.4477153 1 1 1c1.9157576.0025794 3.716185.9157858 4.85 2.46z"/><path id="Shape" d="m55 45c-.5522847 0-1 .4477153-1 1s-.4477153 1-1 1-1-.4477153-1-1-.4477153-1-1-1-1 .4477153-1 1c0 1.6568542 1.3431458 3 3 3s3-1.3431458 3-3c0-.5522847-.4477153-1-1-1z"/><path id="Shape" d="m46 46c0-.5522847-.4477153-1-1-1s-1 .4477153-1 1-.4477153 1-1 1-1-.4477153-1-1-.4477153-1-1-1-1 .4477153-1 1c0 1.6568542 1.3431458 3 3 3s3-1.3431458 3-3z"/><path id="Shape" d="m50 50c-.5522847 0-1 .4477153-1 1s-.4477153 1-1 1-1-.4477153-1-1-.4477153-1-1-1-1 .4477153-1 1c.0000001 1.6568542 1.3431458 2.9999999 3 2.9999999s2.9999999-1.3431457 3-2.9999999c0-.5522847-.4477153-1-1-1z"/><path id="Shape" d="m21 37h-6c-.5522847 0-1 .4477153-1 1v1c0 2.209139 1.790861 4 4 4s4-1.790861 4-4v-1c0-.5522847-.4477153-1-1-1zm-3 4c-1.1045695 0-2-.8954305-2-2h4c0 1.1045695-.8954305 2-2 2z"/><path id="Shape" d="m34 8c-.5522847 0-1 .44771525-1 1v1c0 .5522847.4477153 1 1 1s1-.4477153 1-1v-1c0-.55228475-.4477153-1-1-1z"/><path id="Shape" d="m32 11h-1c-.5522847 0-1 .4477153-1 1s.4477153 1 1 1h1c.5522847 0 1-.4477153 1-1s-.4477153-1-1-1z"/><path id="Shape" d="m33 15c0 .5522847.4477153 1 1 1s1-.4477153 1-1v-1c0-.5522847-.4477153-1-1-1s-1 .4477153-1 1z"/><path id="Shape" d="m36 13h1c.5522847 0 1-.4477153 1-1s-.4477153-1-1-1h-1c-.5522847 0-1 .4477153-1 1s.4477153 1 1 1z"/><path id="Shape" d="m49 0c-.5522847 0-1 .44771525-1 1v1c0 .55228475.4477153 1 1 1s1-.44771525 1-1v-1c0-.55228475-.4477153-1-1-1z"/><path id="Shape" d="m47 3h-1c-.5522847 0-1 .44771525-1 1s.4477153 1 1 1h1c.5522847 0 1-.44771525 1-1s-.4477153-1-1-1z"/><path id="Shape" d="m48 7c0 .55228475.4477153 1 1 1s1-.44771525 1-1v-1c0-.55228475-.4477153-1-1-1s-1 .44771525-1 1z"/><path id="Shape" d="m52 3h-1c-.5522847 0-1 .44771525-1 1s.4477153 1 1 1h1c.5522847 0 1-.44771525 1-1s-.4477153-1-1-1z"/><path id="Shape" d="m57 15c.5522847 0 1-.4477153 1-1v-1c0-.5522847-.4477153-1-1-1s-1 .4477153-1 1v1c0 .5522847.4477153 1 1 1z"/><path id="Shape" d="m55 15h-1c-.5522847 0-1 .4477153-1 1s.4477153 1 1 1h1c.5522847 0 1-.4477153 1-1s-.4477153-1-1-1z"/><path id="Shape" d="m56 19c0 .5522847.4477153 1 1 1s1-.4477153 1-1v-1c0-.5522847-.4477153-1-1-1s-1 .4477153-1 1z"/><path id="Shape" d="m60 15h-1c-.5522847 0-1 .4477153-1 1s.4477153 1 1 1h1c.5522847 0 1-.4477153 1-1s-.4477153-1-1-1z"/></g></g></svg>