<svg height="512" viewBox="0 0 60 60" width="512" xmlns="http://www.w3.org/2000/svg"><g id="Page-1" fill="none" fill-rule="evenodd"><g id="026---Umbrella" fill="rgb(0,0,0)" fill-rule="nonzero"><path id="Shape" d="m49.936 14.385c-5.1944977-4.7001196-11.9310697-7.33412782-18.936-7.404v-.981c0-.55228475-.4477153-1-1-1s-1 .44771525-1 1v.98c-7.0041843.06836912-13.7405159 2.70099937-18.935 7.4-6.678 6.238-10.065 15.866-10.065 28.62-.000097.4752686.33433375.8849463.8.98.06576609.0137577.1328119.0204623.2.02.4038222-.0001345.76793229-.2431376.923-.616.015-.033 1.619-3.384 9.077-3.384s9.067 3.365 9.077 3.385c.1512905.3839873.528577.6305666.941.615.4105191-.0071574.7749483-.2645182.919-.649.01-.028.995-2.29 5.063-3.079v11.728c0 1.1045695-.8954305 2-2 2s-2-.8954305-2-2v-2c0-1.6568542-1.3431458-3-3-3s-3 1.3431458-3 3v2c0 4.418278 3.581722 8 8 8s8-3.581722 8-8v-11.734c4.063.772 5.026 2.993 5.072 3.107.1523085.3788649.5196662.6270689.928.627.3959712-.0058572.7530686-.2395087.917-.6.016-.035 1.637-3.4 9.083-3.4s9.068 3.368 9.084 3.4c.1897877.4333394.6572695.6743979 1.120363.5777186.4630934-.0966792.7950803-.5046413.795637-.9777186 0-12.754-3.387-22.382-10.064-28.615zm-18.936 37.615c-.0000001 3.3137084-2.6862916 5.9999999-6 5.9999999s-5.9999999-2.6862915-6-5.9999999v-2c0-.5522847.4477153-1 1-1s1 .4477153 1 1v2c0 2.209139 1.790861 4 4 4s4-1.790861 4-4v-11.968c.321-.018.649-.032 1-.032s.679.014 1 .031zm18-14c-4.674 0-7.427 1.221-9 2.408-.0105879-4.2112214-.3731837-8.4141883-1.084-12.565-.0972777-.5405921-.6123712-.9015322-1.1536975-.8084273-.5413264.0931048-.906229.6053988-.8173025 1.1474273.6797171 3.9942865 1.0325532 8.0373539 1.055 12.089-1.464-1.144-3.93-2.271-8-2.271-4.1 0-6.569 1.142-8.025 2.294.020137-4.0609076.3719737-8.1133841 1.052-12.117.0734897-.3575014-.053626-.7266459-.3316468-.9631039s-.6627834-.3026685-1.0038517-.172744c-.3410683.1299244-.5842641.4353453-.6345015.7968479-.710657 4.1451295-1.0735872 8.3424083-1.085 12.548-1.581-1.18-4.328-2.386-8.972-2.386-4.619 0-7.364 1.193-8.948 2.367.43-10.856 3.573-19.089 9.357-24.5 4.5947486-4.1290572 10.472828-6.54732372 16.643-6.847-1.3907525 2.0777859-2.5715558 4.2886517-3.525 6.6-.1477765.331755-.1040686.7175508.1141808 1.0078376.2182493.2902869.576727.4394261.936473.3896053.3597459-.0498208.6642009-.2907688.7953462-.6294429.9622858-2.3471847 2.1742571-4.5840512 3.615-6.672 1.4369833 2.0883322 2.6477925 4.3235691 3.612 6.668.1546469.3718568.5172702.6146567.92.616.131861.0002684.2624364-.0259147.384-.077.5092385-.2125965.750009-.7975166.538-1.307-.9526578-2.31058-2.131389-4.5213291-3.519-6.6 6.1787162.29557684 12.066124 2.7144014 16.668 6.848 5.782 5.409 8.924 13.638 9.357 24.486-1.581-1.169-4.321-2.35-8.948-2.35z"/><path id="Shape" d="m23 19c-1.6568542 0-3 1.3431458-3 3 0 .5522847.4477153 1 1 1s1-.4477153 1-1 .4477153-1 1-1 1 .4477153 1 1 .4477153 1 1 1 1-.4477153 1-1c0-1.6568542-1.3431458-3-3-3z"/><path id="Shape" d="m37 19c-1.6568542 0-3 1.3431458-3 3 0 .5522847.4477153 1 1 1s1-.4477153 1-1 .4477153-1 1-1 1 .4477153 1 1 .4477153 1 1 1 1-.4477153 1-1c0-1.6568542-1.3431458-3-3-3z"/><path id="Shape" d="m7 12c0-1.278-1.522-3.621-2.177-4.568-.19647611-.25563315-.50058541-.40545356-.823-.40545356s-.62652389.14982041-.823.40545356c-.655.947-2.177 3.29-2.177 4.568.00000002 1.6568542 1.34314577 3 3 3s2.99999998-1.3431458 3-3zm-4 0c.21692468-.7640223.5545119-1.4884844 1-2.146.44541343.6575579.78299487 1.3820077 1 2.146 0 .5522847-.44771525 1-1 1s-1-.4477153-1-1z"/><path id="Shape" d="m15 5c0-1.278-1.522-3.621-2.177-4.568-.1964761-.25563315-.5005854-.40545356-.823-.40545356s-.6265239.14982041-.823.40545356c-.655.947-2.177 3.29-2.177 4.568 0 1.65685425 1.3431458 3 3 3s3-1.34314575 3-3zm-4 0c.2168254-.76437059.554416-1.48917743 1-2.147.4455093.65786493.783094 1.38265936 1 2.147 0 .55228475-.4477153 1-1 1s-1-.44771525-1-1z"/><path id="Shape" d="m59 12c0-1.278-1.522-3.621-2.177-4.568-.1964761-.25563315-.5005854-.40545356-.823-.40545356s-.6265239.14982041-.823.40545356c-.655.947-2.177 3.29-2.177 4.568 0 1.6568542 1.3431458 3 3 3s3-1.3431458 3-3zm-4 0c.2177526-.7640254.5552768-1.4886899 1-2.147.4457938.6577036.7834006 1.3825453 1 2.147 0 .5522847-.4477153 1-1 1s-1-.4477153-1-1z"/><path id="Shape" d="m51 5c0-1.278-1.522-3.621-2.177-4.568-.1964761-.25563315-.5005854-.40545356-.823-.40545356s-.6265239.14982041-.823.40545356c-.655.947-2.177 3.29-2.177 4.568 0 1.65685425 1.3431458 3 3 3s3-1.34314575 3-3zm-4 0c.2177526-.76402537.5552768-1.48868988 1-2.147.4457938.65770364.7834006 1.38254534 1 2.147 0 .55228475-.4477153 1-1 1s-1-.44771525-1-1z"/><path id="Shape" d="m33 24h-6c-.5522847 0-1 .4477153-1 1v1c0 2.209139 1.790861 4 4 4s4-1.790861 4-4v-1c0-.5522847-.4477153-1-1-1zm-3 4c-1.1045695 0-2-.8954305-2-2h4c0 1.1045695-.8954305 2-2 2z"/></g></g></svg>