<svg height="60" viewBox="0 0 60 60" width="60" xmlns="http://www.w3.org/2000/svg"><g id="Page-1" fill="none" fill-rule="evenodd"><g id="027---Sleet" fill="rgb(0,0,0)" fill-rule="nonzero" transform="translate(-1)"><path id="Shape" d="m51.608 16.777c1.138211-3.9313326-.2340886-8.1594228-3.4640979-10.6729741-3.2300093-2.51355131-7.6656532-2.80512738-11.1969021-.7360259-3.0238196-3.42584083-7.3775719-5.38205933-11.947-5.368-7.3363962.01906592-13.727379 5.00697938-15.528 12.119-4.65685184.7114097-8.18567083 4.576495-8.47144137 9.2786975-.28577054 4.7022024 2.74901453 8.9661827 7.28544137 10.2363025-.7230675 2.9808374-.03914942 6.1286401 1.855625 8.5407031 1.8947744 2.4120631 4.7910949 3.8219329 7.858375 3.8252969h29c6.8336977.004319 12.6719872-4.9256182 13.8124946-11.6634728 1.1405075-6.7378547-2.7500645-13.314583-9.2044946-15.5595272zm-4.608 25.223h-29c-2.4807674-.0014041-4.8205205-1.1536044-6.3340457-3.1191707-1.5135251-1.9655662-2.02955049-4.5220732-1.3969543-6.9208293.243.018.484.04.731.04 1.0749565.0009161 2.1430178-.171635 3.163-.511.3394023-.1130746.5926984-.3986287.6644741-.749097s-.0488734-.7126063-.3165-.95c-.2676266-.2373938-.6415718-.3139776-.9809741-.200903-3.4314347 1.1409513-7.20159759-.1618418-9.19656139-3.1779044-1.9949638-3.0160627-1.71864037-6.9953896.67403598-9.7067757 2.39267634-2.711386 6.30671811-3.48059 9.54752541-1.8763199.3203279.1621467.7029956.1401275 1.0026105-.0576916.299615-.1978191.4701885-.5410743.446912-.8993475s-.2368302-.6765722-.5595225-.8339609c-1.2103828-.5953757-2.5289833-.9389739-3.876-1.01 1.7771606-5.93761855 7.2331494-10.01082228 13.431-10.027 4.2775589-.01241527 8.3223604 1.94635316 10.965 5.31.009.012.024.017.034.029.7588105.96162255 1.3881809 2.01864214 1.872 3.144.2320102.4811719.8012314.6950338 1.2926814.4856729s.7315764-.7680102.5453186-1.2686729c-.4100801-.95500723-.9124655-1.86767406-1.5-2.725 1.1620878-.63731634 2.4656267-.97257101 3.791-.975 2.5196754.00335488 4.8907961 1.19255663 6.4003357 3.20999706 1.5095396 2.01744044 1.9813917 4.62776024 1.2736643 7.04600294-2.7085176-.5214579-5.5105005-.2370527-8.059.818-.3395636.1307825-.5812864.4356922-.6311527.7961375-.0498664.3604454.0999952.7195294.3912977.93759.2913024.2180606.6780629.2606764 1.009855.1112725 4.4824149-1.8630185 9.6457388-.8420693 13.0818073 2.586679 3.4360684 3.4287482 4.4680271 8.5898831 2.6145723 13.0762609-1.8534547 4.4863779-6.2272199 7.4142491-11.0813796 7.4180601z"/><path id="Shape" d="m45 31c-.5522847 0-1 .4477153-1 1 0 1.1045695-.8954305 2-2 2s-2-.8954305-2-2c0-.5522847-.4477153-1-1-1s-1 .4477153-1 1c0 2.209139 1.790861 4 4 4s4-1.790861 4-4c0-.5522847-.4477153-1-1-1z"/><path id="Shape" d="m19.946 17.526c-.3664056-.7306154-.8207776-1.4136845-1.353-2.034-.2275866-.2869618-.5938406-.4265481-.9546891-.3638502-.3608486.0626979-.6585514.3176476-.7760016.66456-.1174502.3469123-.0358542.7302769.2126907.9992902.4260607.4962445.7894565 1.0430174 1.082 1.628.2485281.4940187.8504813.6930281 1.3445.4445s.6930281-.8504813.4445-1.3445z"/><path id="Shape" d="m40.707 51.293c-.3904999-.3903819-1.0235001-.3903819-1.414 0l-.707.707h-2.172l1.293-1.293c.3789722-.3923789.3735524-1.0160848-.0121814-1.4018186s-1.0094397-.3911536-1.4018186-.0121814l-1.293 1.293v-2.172l.707-.707c.3789722-.3923789.3735524-1.0160848-.0121814-1.4018186s-1.0094397-.3911536-1.4018186-.0121814l-.293.293-.293-.293c-.3923789-.3789722-1.0160848-.3735524-1.4018186.0121814s-.3911536 1.0094397-.0121814 1.4018186l.707.707v2.172l-1.293-1.293c-.3923789-.3789722-1.0160848-.3735524-1.4018186.0121814s-.3911536 1.0094397-.0121814 1.4018186l1.293 1.293h-2.172l-.707-.707c-.3923789-.3789722-1.0160848-.3735524-1.4018186.0121814s-.3911536 1.0094397-.0121814 1.4018186l.293.293-.293.293c-.2599566.2510745-.3642126.6228779-.2726972.9725073.0915155.3496295.3645604.6226744.7141899.7141899.3496294.0915154.7214328-.0127406.9725073-.2726972l.707-.707h2.172l-1.293 1.293c-.2599566.2510745-.3642126.6228779-.2726972.9725073.0915155.3496295.3645604.6226744.7141899.7141899.3496294.0915154.7214328-.0127406.9725073-.2726972l1.293-1.293v2.172l-.707.707c-.3789722.3923789-.3735524 1.0160848.0121814 1.4018186s1.0094397.3911536 1.4018186.0121814l.293-.293.293.293c.3923789.3789722 1.0160848.3735524 1.4018186-.0121814s.3911536-1.0094397.0121814-1.4018186l-.707-.707v-2.172l1.293 1.293c.3923789.3789722 1.0160848.3735524 1.4018186-.0121814s.3911536-1.0094397.0121814-1.4018186l-1.293-1.293h2.172l.707.707c.3923789.3789722 1.0160848.3735524 1.4018186-.0121814s.3911536-1.0094397.0121814-1.4018186l-.293-.293.293-.293c.3903819-.3904999.3903819-1.0235001 0-1.414z"/><path id="Shape" d="m17 38h-1c-.5522847 0-1 .4477153-1 1s.4477153 1 1 1h1c.5522847 0 1-.4477153 1-1s-.4477153-1-1-1z"/><path id="Shape" d="m36 38h-15c-.5522847 0-1 .4477153-1 1s.4477153 1 1 1h15c.5522847 0 1-.4477153 1-1s-.4477153-1-1-1z"/><path id="Shape" d="m45.177 46.432c-.655.947-2.177 3.29-2.177 4.568 0 1.6568542 1.3431458 3 3 3s3-1.3431458 3-3c0-1.278-1.522-3.621-2.177-4.568-.1964761-.2556332-.5005854-.4054536-.823-.4054536s-.6265239.1498204-.823.4054536zm.823 5.568c-.5522847 0-1-.4477153-1-1 .2177526-.7640254.5552768-1.4886899 1-2.147.4457938.6577036.7834006 1.3825453 1 2.147 0 .5522847-.4477153 1-1 1z"/><path id="Shape" d="m52.177 52.432c-.655.947-2.177 3.29-2.177 4.568 0 1.6568542 1.3431458 3 3 3s3-1.3431458 3-3c0-1.278-1.522-3.621-2.177-4.568-.1964761-.2556332-.5005854-.4054536-.823-.4054536s-.6265239.1498204-.823.4054536zm.823 5.568c-.5522847 0-1-.4477153-1-1 .2177526-.7640254.5552768-1.4886899 1-2.147.4457938.6577036.7834006 1.3825453 1 2.147 0 .5522847-.4477153 1-1 1z"/><path id="Shape" d="m21.177 46.432c-.655.947-2.177 3.29-2.177 4.568 0 1.6568542 1.3431458 3 3 3s3-1.3431458 3-3c0-1.278-1.522-3.621-2.177-4.568-.1964761-.2556332-.5005854-.4054536-.823-.4054536s-.6265239.1498204-.823.4054536zm.823 5.568c-.5522847 0-1-.4477153-1-1 .2168254-.7643706.554416-1.4891774 1-2.147.4455093.6578649.783094 1.3826594 1 2.147 0 .5522847-.4477153 1-1 1z"/><path id="Shape" d="m14.177 52.432c-.655.947-2.177 3.29-2.177 4.568 0 1.6568542 1.3431458 2.9999999 3 2.9999999s3-1.3431457 3-2.9999999c0-1.278-1.522-3.621-2.177-4.568-.1964761-.2556332-.5005854-.4054536-.823-.4054536s-.6265239.1498204-.823.4054536zm.823 5.568c-.5522847 0-1-.4477153-1-1 .2168254-.7643706.554416-1.4891774 1-2.147.4455093.6578649.783094 1.3826594 1 2.147 0 .5522847-.4477153 1-1 1z"/><path id="Shape" d="m50 25c-1.6568542 0-3 1.3431458-3 3s1.3431458 3 3 3 3-1.3431458 3-3-1.3431458-3-3-3zm0 4c-.5522847 0-1-.4477153-1-1s.4477153-1 1-1 1 .4477153 1 1-.4477153 1-1 1z"/><path id="Shape" d="m34 25c-1.6568542 0-3 1.3431458-3 3s1.3431458 3 3 3 3-1.3431458 3-3-1.3431458-3-3-3zm0 4c-.5522847 0-1-.4477153-1-1s.4477153-1 1-1 1 .4477153 1 1-.4477153 1-1 1z"/></g></g></svg>