<svg height="60" viewBox="0 0 60 60" width="60" xmlns="http://www.w3.org/2000/svg"><g id="Page-1" fill="none" fill-rule="evenodd"><g id="029---Full-Moon-Fog" fill="rgb(0,0,0)" fill-rule="nonzero" transform="translate(0 -1)"><path id="Shape" d="m15.842 8.847c7.8461834-4.25021059 17.5502747-2.85874644 23.886 3.425.2510745.2599566.6228779.3642126.9725073.2726972.3496295-.0915155.6226744-.3645604.7141899-.7141899.0915154-.3496294-.0127406-.7214328-.2726972-.9725073-6.9652629-6.90770249-17.6330553-8.43765054-26.259-3.766-.3167702.16958518-.5182088.49607885-.5276761.85526244-.0094672.3591836.1744924.69583548.4818892.88187228.3073968.18603679.6909709.1928568 1.0047869.01786528z"/><path id="Shape" d="m11.272 12.272c.432-.431.886-.846 1.351-1.234.424707-.3537384.4822384-.984793.1285-1.4095-.3537384-.42470697-.984793-.48223838-1.4095-.1285-.511.427-1.01.883-1.484 1.356-.25995658.2510745-.3642126.6228779-.27269716.9725073.09151544.3496295.3645604.6226744.71418986.7141899.3496294.0915154.7214328-.0127406.9725073-.2726972z"/><path id="Shape" d="m17 20c1.6568542 0 3-1.3431458 3-3 0-.5522847-.4477153-1-1-1s-1 .4477153-1 1-.4477153 1-1 1-1-.4477153-1-1-.4477153-1-1-1-1 .4477153-1 1c0 1.6568542 1.3431458 3 3 3z"/><path id="Shape" d="m37 16c-.5522847 0-1 .4477153-1 1s-.4477153 1-1 1-1-.4477153-1-1-.4477153-1-1-1-1 .4477153-1 1c0 1.6568542 1.3431458 3 3 3s3-1.3431458 3-3c0-.5522847-.4477153-1-1-1z"/><path id="Shape" d="m26 18c-2.7600532.0033061-4.9966939 2.2399468-5 5v1c0 .5522847.4477153 1 1 1h8c.5522847 0 1-.4477153 1-1v-1c-.0033061-2.7600532-2.2399468-4.9966939-5-5zm-3 5c0-1.6568542 1.3431458-3 3-3s3 1.3431458 3 3z"/><path id="Shape" d="m20 27c-2.7614237 0-5 2.2385763-5 5s2.2385763 5 5 5 5-2.2385763 5-5c-.0033061-2.7600532-2.2399468-4.9966939-5-5zm0 8c-1.6568542 0-3-1.3431458-3-3s1.3431458-3 3-3 3 1.3431458 3 3-1.3431458 3-3 3z"/><path id="Shape" d="m11 34c-1.65685425 0-3 1.3431458-3 3s1.34314575 3 3 3c1.6568542 0 3-1.3431458 3-3s-1.3431458-3-3-3zm0 4c-.5522847 0-1-.4477153-1-1s.4477153-1 1-1 1 .4477153 1 1-.4477153 1-1 1z"/><path id="Shape" d="m56.448 41.025c.7259397-1.2366235.7343899-2.7672261.0221484-4.0117896s-2.0361938-2.0126559-3.4701484-2.0132104h-.537c.5496827-.948038.6838131-2.0808805.3707243-3.1310721-.3130889-1.0501916-1.0456474-1.924652-2.0247243-2.4169279 1.1467118-9.7849126-3.4479559-19.354584-11.8008196-24.57848397-8.3528636-5.22389995-18.9682441-5.16662724-27.2642546.14709766-8.29601044 5.31372491-12.78715198 14.93241661-11.5349258 24.70438631.37226663 2.5920464 1.11309045 5.1175822 2.2 7.5.77334814 1.7442904 1.75336403 3.389401 2.919 4.9 4.58123364 5.8011798 11.4211454 9.3706677 18.8 9.811.4310752 1.7911285 2.0297443 3.0561911 3.872 3.064h2.537c-.7144329 1.2374339-.7145379 2.7619908-.0002755 3.9995231s2.0344099 2.0000834 3.4632755 2.0004769h18c2.209139 0 4-1.790861 4-4s-1.790861-4-4-4h-4.537c.7166003-1.2370491.7166003-2.7629509 0-4h8.537c2.1225547.0007897 3.8761437-1.6564376 3.9951917-3.7756512.119048-2.1192137-1.4379027-3.9624123-3.5471917-4.1993488zm-8.83-22.486c.8333846 2.3146277 1.2908398 4.7477491 1.355 7.207v.13c-1.4304086.3639393-2.9448812-.0915018-3.9372879-1.1840445-.9924068-1.0925426-1.3006123-2.6436916-.801265-4.0326383.4993472-1.3889467 1.7246659-2.3887706 3.1855529-2.5993172.066.161.139.316.198.479zm-45.254 3.879c1.22388598-.5998602 2.67169691-.5198333 3.82201521.2112597s1.83747072 2.0079573 1.81398479 3.3707403c.01943673 2.1859784-1.73407504 3.9752761-3.92 4-.66247421.0004111-1.31310539-.1756218-1.885-.51-.30721758-2.3520221-.25021555-4.7373375.169-7.072zm.25 9.38c1.78203254.4543385 3.67401244.0551404 5.12058509-1.0804171 1.44657265-1.1355576 2.28360971-2.8786342 2.26541491-4.7175829.018849-3.2902986-2.62974485-5.9746842-5.92-6-.40037077.0047371-.79917076.0509845-1.19.138 2.63084711-9.3833031 10.7841076-16.16635828 20.4894579-17.04607913 9.7053504-.87972084 18.9453766 4.32675682 23.2205421 13.08407913-3.1356348.7492106-5.1169945 3.8444436-4.4845807 7.0057052s3.6520412 5.2560417 6.8345807 4.7412948c-.022.363-.059.72-.1 1.077h-13.85c-1.4288656.0003935-2.7490131.7629446-3.4632755 2.0004769s-.7141574 2.7620892.0002755 3.9995231h-1.537c-1.4288656.0003935-2.7490131.7629446-3.4632755 2.0004769s-.7141574 2.7620892.0002755 3.9995231h-2.537c-.4469695.0048299-.8898954.0853004-1.31.238-1.9193835-.4754196-3.9503738-.1128354-5.5866828.9973672-1.6363089 1.1102026-2.7237765 2.8634292-2.9913172 4.8226328-5.83810763-3.2079061-10.02341536-8.7618656-11.498-15.258zm21.528 18.145c-2.8068192-.1372092-5.5635139-.7961166-8.129-1.943.0731233-2.5493527 1.9984442-4.6625305 4.53-4.972-.7102302 1.2334519-.7084869 2.7521081.0045732 3.9839262.7130601 1.231818 2.029111 1.9896636 3.4524268 1.9880738h.537c-.1716102.2960693-.3043692.6130104-.395.943zm31.858-2.943h-18c-.5522847 0-1 .4477153-1 1s.4477153 1 1 1h6c1.1045695 0 2 .8954305 2 2s-.8954305 2-2 2c-.5522847 0-1 .4477153-1 1s.4477153 1 1 1h8c1.1045695 0 2 .8954305 2 2s-.8954305 2-2 2h-18c-1.1045695 0-2-.8954305-2-2s.8954305-2 2-2h4c.5522847 0 1-.4477153 1-1s-.4477153-1-1-1h-10c-1.1045695 0-2-.8954305-2-2s.8954305-2 2-2h3c.5522847 0 1-.4477153 1-1s-.4477153-1-1-1h-7c-1.1045695 0-2-.8954305-2-2s.8954305-2 2-2h15c.5522847 0 1-.4477153 1-1s-.4477153-1-1-1h-9c-1.1045695 0-2-.8954305-2-2s.8954305-2 2-2h5c.5522847 0 1-.4477153 1-1s-.4477153-1-1-1c-1.1045695 0-2-.8954305-2-2s.8954305-2 2-2h14c1.1045695 0 2 .8954305 2 2s-.8954305 2-2 2h-8c-.5522847 0-1 .4477153-1 1s.4477153 1 1 1h12c1.1045695 0 2 .8954305 2 2s-.8954305 2-2 2h-3c-.5522847 0-1 .4477153-1 1s.4477153 1 1 1h6c1.1045695 0 2 .8954305 2 2s-.8954305 2-2 2z"/><path id="Shape" d="m45 41h-1c-.5522847 0-1 .4477153-1 1s.4477153 1 1 1h1c.5522847 0 1-.4477153 1-1s-.4477153-1-1-1z"/><path id="Shape" d="m53 4c-.5522847 0-1 .44771525-1 1v1c0 .55228475.4477153 1 1 1s1-.44771525 1-1v-1c0-.55228475-.4477153-1-1-1z"/><path id="Shape" d="m55 9h1c.5522847 0 1-.44771525 1-1s-.4477153-1-1-1h-1c-.5522847 0-1 .44771525-1 1s.4477153 1 1 1z"/><path id="Shape" d="m52 11c0 .5522847.4477153 1 1 1s1-.4477153 1-1v-1c0-.55228475-.4477153-1-1-1s-1 .44771525-1 1z"/><path id="Shape" d="m51 7h-1c-.5522847 0-1 .44771525-1 1s.4477153 1 1 1h1c.5522847 0 1-.44771525 1-1s-.4477153-1-1-1z"/><path id="Shape" d="m8 53c.55228475 0 1-.4477153 1-1v-1c0-.5522847-.44771525-1-1-1s-1 .4477153-1 1v1c0 .5522847.44771525 1 1 1z"/><path id="Shape" d="m11 53h-1c-.55228475 0-1 .4477153-1 1s.44771525 1 1 1h1c.5522847 0 1-.4477153 1-1s-.4477153-1-1-1z"/><path id="Shape" d="m8 55c-.55228475 0-1 .4477153-1 1v1c0 .5522847.44771525 1 1 1s1-.4477153 1-1v-1c0-.5522847-.44771525-1-1-1z"/><path id="Shape" d="m6 53h-1c-.55228475 0-1 .4477153-1 1s.44771525 1 1 1h1c.55228475 0 1-.4477153 1-1s-.44771525-1-1-1z"/></g></g></svg>