<svg height="512" viewBox="0 0 60 52" width="512" xmlns="http://www.w3.org/2000/svg"><g id="Page-1" fill="none" fill-rule="evenodd"><g id="030---Raindrops" fill="rgb(0,0,0)" fill-rule="nonzero"><path id="Shape" d="m21.782 18.036c.2275438.1363698.4999488.1767389.7572629.1122228.2573141-.064516.4784493-.22863.6147371-.4562228 2.2260284-3.6198063 4.7672227-7.0360629 7.594-10.209.2370457-.26794919.3131358-.64200684.1996079-.98126906-.113528-.33926221-.3994264-.59218699-.75-.66350001-.3505737-.07131301-.7125622.04981987-.9496079.31776907-2.9084303 3.26596784-5.5229089 6.7822792-7.813 10.508-.1361117.2279074-.1760202.500582-.1109311.757937.065089.257355.2298338.4782697.4579311.614063z"/><path id="Shape" d="m8.076 30.373c-1.859 2.739-4.076 6.699-4.076 10.007 0 .5522847.44771525 1 1 1s1-.4477153 1-1c0-2.18 1.325-5.34 3.73-8.88.21282259-.2952565.24842075-.6828289.09294325-1.0119134-.15547749-.3290844-.47747608-.5477086-.8407065-.5708061-.36323041-.0230975-.71032772.1529794-.90623675.4597195z"/><path id="Shape" d="m48.694 20.281c-.3874691-.3740097-1.0015309-.3740097-1.389 0-.037.036-.7.683-1.7 1.779-3.854-10.908-14.364-21.247-14.905-21.776-.3881016-.3772385-1.0058984-.3772385-1.394 0-.544.529-11.054 10.869-14.9 21.776-1-1.1-1.668-1.743-1.7-1.779-.3874691-.3740097-1.0015309-.3740097-1.389 0-.473.445-11.317 11.019-11.317 20.099.11394529 6.5185756 5.48113248 11.7158019 12 11.62 4.8834796.0308848 9.2998946-2.896922 11.173-7.407 4.3580085 1.8760443 9.2959915 1.8760443 13.654 0 1.8731054 4.510078 6.2895204 7.4378848 11.173 7.407 6.5188675.0958019 11.8860547-5.1014244 12-11.62 0-9.08-10.844-19.654-11.306-20.099zm-36.694 29.719c-5.41483131.097074-9.88733105-4.2054707-10-9.62 0-6.987 7.629-15.48 10-17.956.425.442 1.024 1.086 1.711 1.868-.4546319 1.6710131-.6935722 3.3933328-.711 5.125.0344583 5.9156967 3.2332736 11.3602453 8.384 14.27-1.5233161 3.8409808-5.2521369 6.3495109-9.384 6.313zm3-20.583c0-10.753 11.955-23.835 15-26.992 3.045 3.155 15 16.231 15 26.992-.1261198 8.16439-6.8352989 14.687054-15 14.583-8.1647011.104054-14.8738802-6.41861-15-14.583zm33 20.583c-4.1318631.0365109-7.8606839-2.4720192-9.384-6.313 5.1507264-2.9097547 8.3495417-8.3543033 8.384-14.27-.0177538-1.7317103-.2570303-3.4540307-.712-5.125.687-.783 1.287-1.426 1.712-1.868 2.371 2.47 10 10.961 10 17.956-.112669 5.4145293-4.5851687 9.717074-10 9.62z"/><path id="Shape" d="m27 32c0-1.6568542-1.3431458-3-3-3s-3 1.3431458-3 3c0 .5522847.4477153 1 1 1s1-.4477153 1-1 .4477153-1 1-1 1 .4477153 1 1 .4477153 1 1 1 1-.4477153 1-1z"/><path id="Shape" d="m36 29c-1.6568542 0-3 1.3431458-3 3 0 .5522847.4477153 1 1 1s1-.4477153 1-1 .4477153-1 1-1 1 .4477153 1 1 .4477153 1 1 1 1-.4477153 1-1c0-1.6568542-1.3431458-3-3-3z"/><path id="Shape" d="m33 35h-6c-.5522847 0-1 .4477153-1 1v1c0 2.209139 1.790861 4 4 4s4-1.790861 4-4v-1c0-.5522847-.4477153-1-1-1zm-3 4c-1.1045695 0-2-.8954305-2-2h4c0 1.1045695-.8954305 2-2 2z"/><circle id="Oval" cx="20" cy="21" r="1"/></g></g></svg>