<?xml version="1.0" encoding="iso-8859-1"?>
<!-- Generator: Adobe Illustrator 19.0.0, SVG Export Plug-In . SVG Version: 6.00 Build 0)  -->
<svg version="1.1" id="Capa_1" xmlns="http://www.w3.org/2000/svg" xmlns:xlink="http://www.w3.org/1999/xlink" x="0px" y="0px"
	 viewBox="0 0 464 464" style="enable-background:new 0 0 464 464;" xml:space="preserve">
<g>
	<g>
		<path d="M231.617,319.999c-5.461,0-10.786,0.565-16,1.446v94.49c0,8.912-7.297,15.968-16.207,15.968
			c-8.898,0-16.114-7.216-16.114-16.128c0-8.88-7.168-16.063-16.031-16.063c-8.898,0-16.062,7.183-16.062,16.063
			c0,26.656,21.566,48.225,48.207,48.225c26.656,0,48.207-21.408,48.207-48.065v-94.49
			C242.402,320.564,237.078,319.999,231.617,319.999z"/>
	</g>
</g>
<g>
	<g>
		<path d="M247.617,128.775V112c0-8.837-7.164-16-16-16s-16,7.163-16,16v16.775C104.445,136.656,15.852,225.542,8.383,336.847
			c20.27-20.293,48.285-32.848,79.234-32.848c27.43,0,52.527,9.894,72,26.264c20.457-17.198,46.484-26.264,72-26.264
			c26.527,0,52.598,9.951,72,26.262c19.473-16.37,44.57-26.262,72-26.262c30.95,0,58.965,12.554,79.234,32.846
			C447.383,225.543,358.785,136.657,247.617,128.775z"/>
	</g>
</g>
<g>
	<g>
		<path d="M71.617,32c-13.809,13.808-32,26.832-32,45.248c0,42.288,64,42.336,64,0C103.617,58.815,85.426,45.807,71.617,32z"/>
	</g>
</g>
<g>
	<g>
		<path d="M423.617,96c-13.809,13.808-32,26.832-32,45.248c0,42.288,64,42.336,64,0C455.617,122.815,437.426,109.807,423.617,96z"/>
	</g>
</g>
<g>
	<g>
		<path d="M343.617,0c-34.106,34.103-48.004,42.899-48.004,67.884c0,26.507,21.492,48,48.004,48c26.508,0,48-21.492,48-48
			C391.617,42.924,377.793,34.176,343.617,0z"/>
	</g>
</g>
<g>
</g>
<g>
</g>
<g>
</g>
<g>
</g>
<g>
</g>
<g>
</g>
<g>
</g>
<g>
</g>
<g>
</g>
<g>
</g>
<g>
</g>
<g>
</g>
<g>
</g>
<g>
</g>
<g>
</g>
</svg>
