<?xml version="1.0" encoding="iso-8859-1"?>
<!-- Generator: Adobe Illustrator 21.0.0, SVG Export Plug-In . SVG Version: 6.00 Build 0)  -->
<svg xmlns="http://www.w3.org/2000/svg" xmlns:xlink="http://www.w3.org/1999/xlink" version="1.1" id="Capa_1" x="0px" y="0px" viewBox="0 0 512.001 512.001" style="enable-background:new 0 0 512.001 512.001;" xml:space="preserve" width="512" height="512">
<g>
	<path d="M358.99,399.499c-2.68-4.64-7.631-7.499-12.99-7.499s-10.31,2.858-12.99,7.499l-25.999,45.021   c-3.933,6.813-6.012,14.586-6.012,22.48c0,24.813,20.187,45,45,45s45-20.187,45-45c0-7.895-2.079-15.669-6.013-22.482   L358.99,399.499z M346.001,482c-11.54,0-18.739-12.554-13.008-22.479l13.008-22.525l13.007,22.525   C364.738,469.444,357.542,482,346.001,482z"/>
	<path d="M316.001,60c8.284,0,15-6.716,15-15V15c0-8.284-6.716-15-15-15s-15,6.716-15,15v30C301.001,53.284,307.716,60,316.001,60z"/>
	<path d="M466.001,151h-30c-8.284,0-15,6.716-15,15s6.716,15,15,15h30c8.284,0,15-6.716,15-15S474.285,151,466.001,151z"/>
	<path d="M411.461,91.754l21.212-21.213c5.858-5.858,5.858-15.355,0-21.213c-5.857-5.858-15.355-5.858-21.213,0l-21.212,21.213   c-5.858,5.858-5.858,15.355,0,21.213C396.104,97.611,405.602,97.612,411.461,91.754z"/>
	<path d="M220.541,91.754c5.859,5.859,15.356,5.857,21.213,0c5.858-5.858,5.858-15.355,0-21.213l-21.212-21.213   c-5.859-5.858-15.355-5.858-21.213,0c-5.858,5.858-5.858,15.355,0,21.213L220.541,91.754z"/>
	<path d="M383.746,198.123c4.724-9.987,7.254-20.985,7.254-32.123c0-41.355-33.645-75-75-75c-25.562,0-48.865,12.835-62.575,33.614   c-8.784-2.357-17.982-3.614-27.425-3.614c-41.346,0-78.098,23.849-95.163,60.534c-3.259-0.355-6.543-0.534-9.837-0.534   c-49.626,0-90,40.374-90,90c0,38.263,23.963,71.406,58.364,84.281l-26.249,44.04c-2.763,4.635-2.823,10.397-0.157,15.089   S70.605,422,76.001,422h75v75c0,6.75,4.509,12.669,11.017,14.462c1.322,0.364,2.661,0.54,3.983,0.54   c5.188,0,10.13-2.701,12.884-7.322L264.522,361h66.478c49.626,0,90-40.374,90-90C421.001,241.061,406.302,214.494,383.746,198.123z    M316.001,121c24.813,0,45,20.187,45,45c0,6.611-1.404,12.971-4.098,18.805c-8.207-2.471-16.901-3.805-25.902-3.805   c-3.293,0-6.578,0.179-9.837,0.534c-8.706-18.717-22.545-34.08-39.496-44.651C290.068,126.962,302.508,121,316.001,121z    M181.001,442.536V407c0-8.284-6.716-15-15-15h-63.597l48.597-81.536V346c0,8.284,6.716,15,15,15h63.597L181.001,442.536z    M331.001,331h-150v-75c0-6.75-4.509-12.669-11.017-14.462c-6.508-1.792-13.412,0.983-16.868,6.782l-48.01,80.55   c-25.681-7.001-44.105-30.466-44.105-57.87c0-33.084,26.916-60,60-60c5.238,0,10.43,0.673,15.434,2   c7.721,2.048,15.691-2.314,18.129-9.92c9.984-31.15,38.693-52.08,71.437-52.08c32.31,0,61.33,20.548,71.437,52.08   c2.438,7.606,10.411,11.968,18.129,9.92c5.003-1.327,10.196-2,15.434-2c33.084,0,60,26.916,60,60S364.085,331,331.001,331z"/>
</g>















</svg>
