<?xml version="1.0" encoding="iso-8859-1"?>
<!-- Generator: Adobe Illustrator 21.0.0, SVG Export Plug-In . SVG Version: 6.00 Build 0)  -->
<svg xmlns="http://www.w3.org/2000/svg" xmlns:xlink="http://www.w3.org/1999/xlink" version="1.1" id="Capa_1" x="0px" y="0px" viewBox="0 0 511.002 511.002" style="enable-background:new 0 0 511.002 511.002;" xml:space="preserve" width="512" height="512">
<g>
	<ellipse transform="matrix(0.8444 -0.5357 0.5357 0.8444 -258.6265 101.5386)" cx="45.488" cy="496" rx="15" ry="15"/>
	<ellipse transform="matrix(0.8444 -0.5357 0.5357 0.8444 -239.956 165.8218)" cx="165.488" cy="496" rx="15" ry="15"/>
	<ellipse transform="matrix(0.8444 -0.5357 0.5357 0.8444 -221.2855 230.105)" cx="285.488" cy="496" rx="15" ry="15"/>
	<ellipse transform="matrix(0.8444 -0.5357 0.5357 0.8444 -225.185 126.6788)" cx="105.488" cy="451" rx="15" ry="15"/>
	<ellipse transform="matrix(0.8444 -0.5357 0.5357 0.8444 -206.5146 190.962)" cx="225.488" cy="451" rx="15" ry="15"/>
	<ellipse transform="matrix(0.8444 -0.5357 0.5357 0.8444 -187.8441 255.2451)" cx="345.488" cy="451" rx="15" ry="15"/>
	<ellipse transform="matrix(0.8444 -0.5357 0.5357 0.8444 -202.6151 294.3882)" cx="405.488" cy="496" rx="15" ry="15"/>
	<ellipse transform="matrix(0.8444 -0.5357 0.5357 0.8444 -210.4141 87.5358)" cx="45.488" cy="406" rx="15" ry="15"/>
	<ellipse transform="matrix(0.8444 -0.5357 0.5357 0.8444 -191.7436 151.819)" cx="165.488" cy="406" rx="15" ry="15"/>
	<ellipse transform="matrix(0.8444 -0.5357 0.5357 0.8444 -173.0732 216.1021)" cx="285.488" cy="406" rx="15" ry="15"/>
	<ellipse transform="matrix(0.8444 -0.5357 0.5357 0.8444 -154.4027 280.3853)" cx="405.488" cy="406" rx="15" ry="15"/>
	<path d="M480.516,120c0-6.184-3.384-11.269-8.344-13.74c-5.093-2.536-11.184-1.973-15.725,1.455   C445.802,115.752,433.377,120,420.516,120c-33.084,0-60-26.916-60-60c0-13.128,4.478-25.589,12.285-35.931   c3.428-4.541,3.992-10.631,1.455-15.725C371.781,3.375,366.694,0,360.516,0c-66.168,0-120,53.281-120,120   c0,0.355,0.01,0.71,0.013,1.065c-4.917-0.701-9.93-1.065-15.013-1.065c-41.346,0-78.098,23.848-95.163,60.534   c-3.259-0.355-6.543-0.534-9.837-0.534c-49.626,0-90,40.374-90,90s40.374,90,90,90h210c49.626,0,90-40.374,90-90   c0-14.735-3.56-28.655-9.864-40.944C452.611,209.764,480.516,167.4,480.516,120z M330.516,330h-210c-33.084,0-60-26.916-60-60   s26.916-60,60-60c5.238,0,10.43,0.673,15.434,2c7.719,2.048,15.692-2.314,18.129-9.92c9.984-31.15,38.693-52.079,71.437-52.079   c9.151,0,17.986,1.638,26.187,4.673c0.211,0.09,0.428,0.167,0.643,0.247c20.839,7.934,37.486,24.943,44.607,47.159   c2.438,7.606,10.412,11.969,18.129,9.92c5.003-1.327,10.196-2,15.434-2c33.084,0,60,26.916,60,60S363.6,330,330.516,330z    M392.003,204.343C375.901,189.255,354.271,180,330.516,180c-3.293,0-6.578,0.179-9.837,0.534   c-10.372-22.296-28.023-39.836-49.55-50.177c-0.392-3.43-0.613-6.89-0.613-10.357c0-41.088,27.074-74.904,64.129-86.169   c-2.712,8.755-4.129,16.932-4.129,26.169c0,49.626,40.374,90,90,90c8.944,0,17.727-1.343,26.151-3.962   C438.626,172.608,418.559,194.445,392.003,204.343z"/>
</g>















</svg>
