<?xml version="1.0" encoding="iso-8859-1"?>
<!-- Generator: Adobe Illustrator 19.0.0, SVG Export Plug-In . SVG Version: 6.00 Build 0)  -->
<svg version="1.1" id="Capa_1" xmlns="http://www.w3.org/2000/svg" xmlns:xlink="http://www.w3.org/1999/xlink" x="0px" y="0px"
	 viewBox="0 0 466.003 466.003" style="enable-background:new 0 0 466.003 466.003;" xml:space="preserve">
<g>
	<g>
		<path d="M289.001,349.996c-9.629,9.43-17.442,16.981-23.746,23.355c-18.918,19.129-24.254,27.676-24.254,44.652
			c0,13.086,5.274,24.95,13.793,33.617c0.098,0.098,0.183,0.211,0.282,0.309c8.691,8.691,20.691,14.074,33.926,14.074
			c6.164,0,12.043-1.211,17.465-3.336c1.742-0.687,3.45-1.442,5.09-2.32c0.102-0.05,0.207-0.09,0.305-0.145
			c14.961-8.137,25.141-24.004,25.141-42.199C337.001,395.371,327.49,387.707,289.001,349.996z"/>
	</g>
</g>
<g>
	<g>
		<path d="M393.001,292.512c-3.672,3.594-6.981,6.817-9.977,9.754c-4.574,4.481-8.383,8.266-11.57,11.617
			c-1.297,1.367-2.469,2.652-3.562,3.89c-8.285,9.394-10.89,15.558-10.89,25.746c0,14.012,8.129,26.05,19.848,31.996
			c2.805,1.422,5.738,2.621,8.906,3.27c2.34,0.481,4.762,0.734,7.246,0.734c19.851,0,36-16.152,36-36
			C429.001,326.543,421.868,320.793,393.001,292.512z"/>
	</g>
</g>
<g>
	<g>
		<path d="M361.002,64c-5.586,0-11.031,0.578-16.355,1.496C322.729,26.434,280.978,0,233.002,0s-89.726,26.434-111.645,65.496
			C116.033,64.578,110.587,64,105.002,64c-53.019,0-96,42.981-96,96c0,53.019,42.981,96,96,96h31.617l73.859-134.191
			c5.965-10.898,22.523-6.661,22.523,5.762V192h51.149c6.082,0,9.938,6.519,7.008,11.851L263.697,256h97.305
			c53.019,0,96-42.981,96-96C457.002,106.981,414.021,64,361.002,64z"/>
	</g>
</g>
<g>
	<g>
		<path d="M270.626,208c-46.508,0-34.062,0-53.625,0c0-23.031,0-41.664,0-64.793l-62.258,112.789h46.258v80.11L270.626,208z"/>
	</g>
</g>
<g>
</g>
<g>
</g>
<g>
</g>
<g>
</g>
<g>
</g>
<g>
</g>
<g>
</g>
<g>
</g>
<g>
</g>
<g>
</g>
<g>
</g>
<g>
</g>
<g>
</g>
<g>
</g>
<g>
</g>
</svg>
