<?xml version="1.0" encoding="iso-8859-1"?>
<!-- Generator: Adobe Illustrator 21.0.0, SVG Export Plug-In . SVG Version: 6.00 Build 0)  -->
<svg xmlns="http://www.w3.org/2000/svg" xmlns:xlink="http://www.w3.org/1999/xlink" version="1.1" id="Capa_1" x="0px" y="0px" viewBox="0 0 512 512" style="enable-background:new 0 0 512 512;" xml:space="preserve" width="512" height="512">
<g>
	<path d="M346,422c-8.284,0-15,6.716-15,15s6.716,15,15,15c8.271,0,15,6.729,15,15s-6.729,15-15,15h-90c-8.284,0-15,6.716-15,15   s6.716,15,15,15h90c24.813,0,45-20.187,45-45S370.813,422,346,422z"/>
	<path d="M196,392c-8.284,0-15,6.716-15,15s6.716,15,15,15c8.271,0,15,6.729,15,15s-6.729,15-15,15H76c-8.284,0-15,6.716-15,15   s6.716,15,15,15h120c24.813,0,45-20.187,45-45S220.813,392,196,392z"/>
	<path d="M76,422h60c8.284,0,15-6.716,15-15s-6.716-15-15-15H76c-8.284,0-15,6.716-15,15S67.716,422,76,422z"/>
	<path d="M481,120c0-6.175-3.375-11.265-8.344-13.74c-5.094-2.537-11.184-1.973-15.725,1.455C446.285,115.752,433.86,120,421,120   c-33.084,0-60-26.916-60-60c0-12.86,4.248-25.285,12.285-35.931c3.428-4.541,3.992-10.631,1.455-15.725   C372.265,3.375,367.178,0,361,0c-66.168,0-120,53.832-120,120c0,0.355,0.01,0.71,0.013,1.065C236.097,120.365,231.084,120,226,120   c-41.346,0-78.098,23.848-95.163,60.534C127.578,180.179,124.293,180,121,180c-49.626,0-90,40.374-90,90s40.374,90,90,90h210   c49.626,0,90-40.374,90-90c0-14.735-3.56-28.655-9.864-40.944C453.095,209.764,481,167.4,481,120z M331,330H121   c-33.084,0-60-26.916-60-60s26.916-60,60-60c5.238,0,10.43,0.673,15.434,2c7.721,2.048,15.691-2.314,18.129-9.92   C164.547,170.929,193.256,150,226,150c32.425,0,61.364,20.652,71.437,52.079c2.438,7.606,10.411,11.969,18.129,9.92   c5.003-1.327,10.196-2,15.434-2c33.084,0,60,26.916,60,60S364.084,330,331,330z M392.486,204.343   C376.385,189.255,354.754,180,331,180c-3.293,0-6.578,0.179-9.837,0.534c-10.372-22.296-28.023-39.836-49.55-50.177   c-0.392-3.43-0.613-6.89-0.613-10.357c0-40.579,26.991-74.97,63.965-86.162C332.344,42.266,331,51.053,331,60   c0,49.626,40.374,90,90,90c8.944,0,17.727-1.343,26.151-3.962C439.109,172.608,419.043,194.445,392.486,204.343z"/>
</g>















</svg>
