<?xml version="1.0" encoding="iso-8859-1"?>
<!-- Generator: Adobe Illustrator 19.0.0, SVG Export Plug-In . SVG Version: 6.00 Build 0)  -->
<svg version="1.1" id="Capa_1" xmlns="http://www.w3.org/2000/svg" xmlns:xlink="http://www.w3.org/1999/xlink" x="0px" y="0px"
	 viewBox="0 0 464.001 464.001" style="enable-background:new 0 0 464.001 464.001;" xml:space="preserve">
<g>
	<g>
		<circle cx="400.012" cy="328" r="8"/>
	</g>
</g>
<g>
	<g>
		<path d="M400,272.001c-4.418,0-8,3.581-8,8v16c0,4.418,3.582,8,8,8s8-3.582,8-8v-16C408,275.582,404.417,272.001,400,272.001z"/>
	</g>
</g>
<g>
	<g>
		<path d="M400,352.001c-4.418,0-8,3.581-8,7.999v16.001c0,4.418,3.582,8,8,8s8-3.582,8-8V360
			C408,355.582,404.417,352.001,400,352.001z"/>
	</g>
</g>
<g>
	<g>
		<path d="M376.3,305.081l-13.855-8c-3.828-2.209-8.718-0.898-10.93,2.928s-0.898,8.718,2.93,10.928l13.855,8
			c3.824,2.209,8.718,0.898,10.926-2.928C381.437,312.182,380.124,307.29,376.3,305.081z"/>
	</g>
</g>
<g>
	<g>
		<path d="M445.581,345.082l-13.855-8c-3.828-2.209-8.718-0.898-10.93,2.928c-2.207,3.827-0.898,8.72,2.93,10.929l13.855,8
			c3.828,2.209,8.718,0.898,10.93-2.929C450.718,352.183,449.41,347.29,445.581,345.082z"/>
	</g>
</g>
<g>
	<g>
		<path d="M379.203,340.01c-2.211-3.827-7.102-5.138-10.93-2.929l-13.851,8c-3.828,2.209-5.141,7.102-2.93,10.928
			c2.211,3.827,7.102,5.138,10.93,2.929l13.851-8C380.101,348.73,381.414,343.837,379.203,340.01z"/>
	</g>
</g>
<g>
	<g>
		<path d="M448.488,300.013c-2.211-3.826-7.106-5.137-10.93-2.928l-13.855,8c-3.828,2.209-5.137,7.102-2.93,10.928
			c2.21,3.826,7.102,5.138,10.93,2.928l13.855-8C449.382,308.732,450.695,303.839,448.488,300.013z"/>
	</g>
</g>
<g>
	<g>
		<circle cx="288.012" cy="408" r="8"/>
	</g>
</g>
<g>
	<g>
		<path d="M288,352.001c-4.418,0-8,3.581-8,8v16c0,4.418,3.582,8,8,8s8-3.582,8-8v-16C296,355.582,292.417,352.001,288,352.001z"/>
	</g>
</g>
<g>
	<g>
		<path d="M288,432.001c-4.418,0-8,3.581-8,7.999v16.001c0,4.418,3.582,8,8,8s8-3.582,8-8V440
			C296,435.582,292.417,432.001,288,432.001z"/>
	</g>
</g>
<g>
	<g>
		<path d="M264.3,385.081l-13.855-8c-3.828-2.209-8.718-0.898-10.93,2.928s-0.898,8.718,2.93,10.928l13.855,8
			c3.824,2.209,8.718,0.898,10.926-2.928C269.437,392.182,268.124,387.29,264.3,385.081z"/>
	</g>
</g>
<g>
	<g>
		<path d="M333.581,425.082l-13.855-8c-3.828-2.209-8.718-0.898-10.93,2.928c-2.207,3.827-0.898,8.72,2.93,10.929l13.855,8
			c3.828,2.209,8.718,0.898,10.93-2.929C338.718,432.183,337.41,427.29,333.581,425.082z"/>
	</g>
</g>
<g>
	<g>
		<path d="M267.203,420.01c-2.211-3.827-7.102-5.138-10.93-2.929l-13.851,8c-3.828,2.209-5.141,7.102-2.93,10.928
			c2.211,3.827,7.102,5.138,10.93,2.929l13.851-8C268.101,428.73,269.414,423.837,267.203,420.01z"/>
	</g>
</g>
<g>
	<g>
		<path d="M336.488,380.013c-2.211-3.826-7.106-5.137-10.93-2.928l-13.855,8c-3.828,2.209-5.137,7.102-2.93,10.928
			c2.21,3.826,7.102,5.138,10.93,2.928l13.855-8C337.382,388.732,338.695,383.839,336.488,380.013z"/>
	</g>
</g>
<g>
	<g>
		<path d="M360,64c-5.586,0-11.031,0.578-16.355,1.494C321.728,26.435,279.977,0,232,0s-89.726,26.434-111.645,65.494
			C115.032,64.578,109.586,64,104,64c-53.019,0-96,42.981-96,96c0,53.019,42.981,96,96,96h31.617l73.859-134.194
			c5.965-10.894,22.523-6.658,22.523,5.764V192h51.149c6.082,0,9.938,6.519,7.008,11.851L262.696,256H360c53.019,0,96-42.981,96-96
			C456,106.981,413.02,64,360,64z"/>
	</g>
</g>
<g>
	<g>
		<path d="M269.624,208.001c-46.508,0-34.062,0-53.625,0c0-23.031,0-41.664,0-64.796l-62.258,112.789H200v80.11L269.624,208.001z"/>
	</g>
</g>
<g>
</g>
<g>
</g>
<g>
</g>
<g>
</g>
<g>
</g>
<g>
</g>
<g>
</g>
<g>
</g>
<g>
</g>
<g>
</g>
<g>
</g>
<g>
</g>
<g>
</g>
<g>
</g>
<g>
</g>
</svg>
