<?xml version="1.0" encoding="iso-8859-1"?>
<!-- Generator: Adobe Illustrator 19.0.0, SVG Export Plug-In . SVG Version: 6.00 Build 0)  -->
<svg version="1.1" id="Capa_1" xmlns="http://www.w3.org/2000/svg" xmlns:xlink="http://www.w3.org/1999/xlink" x="0px" y="0px"
	 viewBox="0 0 511.998 511.998" style="enable-background:new 0 0 511.998 511.998;" xml:space="preserve">
<g>
	<g>
		<path d="M458.555,231.328l-24.094-14.457c-11.922-7.154-15.078-23.027-6.801-34.198l16.726-22.574
			c1.713-2.31,0.346-5.614-2.5-6.036l-27.793-4.136c-13.752-2.047-22.742-15.503-19.371-28.991l6.817-27.258
			c0.695-2.79-1.832-5.318-4.621-4.62l-27.262,6.815c-13.488,3.372-26.942-5.619-28.988-19.369l-4.137-27.794
			c-0.422-2.845-3.725-4.213-6.035-2.501l-22.579,16.729c-11.17,8.276-27.043,5.119-34.195-6.802l-14.457-24.094
			c-1.478-2.466-5.053-2.466-6.531,0l-14.457,24.094c-7.152,11.922-23.026,15.079-34.195,6.802l-22.578-16.73
			c-2.31-1.712-5.614-0.344-6.035,2.501l-4.137,27.794c-2.047,13.75-15.5,22.742-28.988,19.369l-27.262-6.815
			c-2.789-0.698-5.317,1.83-4.621,4.62l6.817,27.261c3.371,13.486-5.619,26.942-19.369,28.988l-27.795,4.137
			c-2.846,0.423-4.213,3.726-2.5,6.036l16.726,22.574c8.278,11.171,5.121,27.044-6.801,34.198l-24.094,14.457
			c-1.234,0.74-1.851,2.005-1.851,3.267h76.66c-0.006-8.212,0.51-16.546,2.123-25.05c9.549-50.385,50.18-91.017,100.562-100.57
			c81.672-15.483,152.767,46.761,152.805,125.621h76.66C460.406,233.333,459.79,232.068,458.555,231.328z"/>
	</g>
</g>
<g>
	<g>
		<path d="M0,298.595h75.39l-7.778,10.495c-1.713,2.311-0.346,5.614,2.5,6.037l27.793,4.136
			c13.752,2.046,22.743,15.503,19.37,28.991l-6.816,27.258c-0.698,2.79,1.83,5.318,4.62,4.62l27.261-6.816
			c5.217-1.305,10.41-0.734,14.95,1.234c2.903,1.258,6.273,0.488,8.51-1.75l19.945-19.947c3.622-3.622,2.825-9.477-1.402-12.37
			c-15.83-10.838-29.002-25.218-38.684-41.89h220.832c-9.694,16.665-22.958,31.061-38.817,41.912
			c-4.227,2.892-5.022,8.747-1.401,12.37l19.923,19.926c2.238,2.238,5.607,3.008,8.51,1.75c4.54-1.968,9.734-2.538,14.95-1.234
			l27.26,6.815c2.79,0.698,5.318-1.83,4.621-4.621l-6.816-27.258c-3.373-13.488,5.618-26.945,19.37-28.991l27.793-4.136
			c2.846-0.424,4.213-3.726,2.5-6.037l-7.778-10.495h75.39v-31.999H0V298.595z"/>
	</g>
</g>
<g>
	<g>
		<polygon points="312.563,379.986 272,420.554 272,331.181 240,331.181 240,420.554 199.438,379.986 176.813,402.611 256,481.806 
			335.188,402.611 		"/>
	</g>
</g>
<g>
</g>
<g>
</g>
<g>
</g>
<g>
</g>
<g>
</g>
<g>
</g>
<g>
</g>
<g>
</g>
<g>
</g>
<g>
</g>
<g>
</g>
<g>
</g>
<g>
</g>
<g>
</g>
<g>
</g>
</svg>
