<?xml version="1.0" encoding="iso-8859-1"?>
<!-- Generator: Adobe Illustrator 21.0.0, SVG Export Plug-In . SVG Version: 6.00 Build 0)  -->
<svg xmlns="http://www.w3.org/2000/svg" xmlns:xlink="http://www.w3.org/1999/xlink" version="1.1" id="Capa_1" x="0px" y="0px" viewBox="0 0 512 512" style="enable-background:new 0 0 512 512;" xml:space="preserve" width="512" height="512">
<g>
	<path d="M497,346h-16v-15c0-8.284-6.716-15-15-15H286c-8.284,0-15,6.716-15,15v15h-30v-15c0-8.284-6.716-15-15-15H46   c-8.284,0-15,6.716-15,15v15H15c-8.284,0-15,6.716-15,15s6.716,15,15,15h17.076c3.291,22.903,13.994,43.443,29.601,59.097L34,472   c-4.971,6.627-3.627,16.029,3,21c6.627,4.971,16.03,3.627,21-3l27.659-36.878C100.614,461.327,117.771,466,136,466   c52.804,0,96.623-39.184,103.924-90h32.152c7.301,50.816,51.12,90,103.924,90c18.229,0,35.386-4.673,50.341-12.878L454,490   c4.971,6.628,14.372,7.97,21,3c6.627-4.971,7.971-14.373,3-21l-27.677-36.903c15.607-15.654,26.31-36.195,29.601-59.097H497   c8.284,0,15-6.716,15-15S505.284,346,497,346z M136,436c-41.355,0-75-33.645-75-75v-15h150v15C211,402.354,177.355,436,136,436z    M376,436c-41.355,0-75-33.645-75-75v-15h150v15C451,402.354,417.355,436,376,436z"/>
	<path d="M136,165.999h46.509c1.949,9.562,5.731,18.46,10.948,26.33l-32.917,32.917c-5.858,5.858-5.858,15.355,0,21.213   c5.857,5.858,15.356,5.858,21.213,0l32.917-32.917c7.869,5.218,16.768,9,26.33,10.948V271c0,8.284,6.716,15,15,15s15-6.716,15-15   V224.49c9.561-1.949,18.46-5.731,26.33-10.948l32.917,32.917c5.857,5.858,15.356,5.858,21.213,0c5.858-5.858,5.858-15.355,0-21.213   l-32.917-32.917c5.218-7.869,9-16.768,10.948-26.33H376c8.284,0,15-6.716,15-15s-6.716-15-15-15h-46.509   c-1.949-9.562-5.731-18.46-10.948-26.33l32.917-32.917c5.858-5.858,5.858-15.355,0-21.213c-5.857-5.858-15.355-5.858-21.213,0   L297.33,88.457c-7.869-5.218-16.768-9-26.33-10.948V31c0-8.284-6.716-15-15-15s-15,6.716-15,15v46.509   c-9.561,1.949-18.46,5.731-26.33,10.948L181.753,55.54c-5.857-5.858-15.355-5.858-21.213,0c-5.858,5.858-5.858,15.355,0,21.213   l32.917,32.917c-5.218,7.869-9,16.768-10.948,26.33H136c-8.284,0-15,6.716-15,15S127.716,165.999,136,165.999z M256,106   c24.813,0,45,20.187,45,45s-20.187,45-45,45s-45-20.187-45-45S231.187,106,256,106z"/>
</g>















</svg>
