<?xml version="1.0" encoding="iso-8859-1"?>
<!-- Generator: Adobe Illustrator 21.0.0, SVG Export Plug-In . SVG Version: 6.00 Build 0)  -->
<svg xmlns="http://www.w3.org/2000/svg" xmlns:xlink="http://www.w3.org/1999/xlink" version="1.1" id="Capa_1" x="0px" y="0px" viewBox="0 0 512 512" style="enable-background:new 0 0 512 512;" xml:space="preserve" width="512" height="512">
<g>
	<path d="M463.141,7.558C460.471,2.884,455.501,0,450.118,0h-420C23.615,0,17.854,4.192,15.85,10.38   c-2.004,6.187,0.209,12.962,5.478,16.775c0.702,0.508,31.138,22.8,63.979,56.658c3.022,4.934,93.642,87.959,80.014,169.721   c-16.604,99.622,28.042,164.581,68.419,201.531c43.081,39.426,89.603,55.477,91.563,56.141c1.574,0.533,3.199,0.794,4.813,0.794   c3.59,0,7.122-1.29,9.901-3.73c4.027-3.538,5.861-8.956,4.81-14.212c-4.567-22.836-8.556-35.481-11.468-44.714   c-4.591-14.556-6.896-21.862-6.896-57.076c0-39.907,35.228-73.116,72.524-108.275c33.776-31.841,68.702-64.766,86.482-108.409   C506.107,124.927,498.803,69.965,463.141,7.558z M330.118,151h-63.597l48.597-81.536V106c0,8.284,6.716,15,15,15h63.507   l-48.507,80.845V166C345.118,157.716,338.402,151,330.118,151z M457.686,164.265c-15.32,37.605-47.834,68.256-79.278,97.898   c-20.656,19.473-40.167,37.865-55.292,58.242c-2.631,3.545-5.04,7.074-7.276,10.595h-75.722c-8.284,0-15,6.716-15,15   s6.716,14.8,15,14.8h61.331c-3.335,10.366-4.986,20.952-4.986,31.468c0,38.14,2.69,48.36,8.285,66.1   c1.149,3.641,2.41,7.641,3.784,12.502c-15.589-8.181-35.987-20.808-55.274-38.613c-47.138-43.517-67.32-97.719-60.1-161.257h46.96   c8.284,0,15-6.716,15-15s-6.716-15-15-15h-43.486c0.813-25.021-5.225-51.492-18.037-78.938   C167.824,138.99,152.223,115.13,132.153,91h47.965c8.284,0,15-6.716,15-15s-6.716-15-15-15h-75.093   C93.386,49.085,82.14,38.629,72.324,30h231.392l-76.482,128.32c-2.763,4.635-2.823,10.397-0.157,15.089s7.646,7.59,13.042,7.59h75   v75c0,8.292,6.732,15.001,15,15.001c5.172,0,10.103-2.685,12.862-7.284l90-150c2.78-4.634,2.854-10.405,0.191-15.108   S425.522,91,420.118,91h-75V30h96.17C468.865,81.25,474.053,124.091,457.686,164.265z"/>
</g>















</svg>
