<?xml version="1.0" encoding="iso-8859-1"?>
<!-- Generator: Adobe Illustrator 21.0.0, SVG Export Plug-In . SVG Version: 6.00 Build 0)  -->
<svg xmlns="http://www.w3.org/2000/svg" xmlns:xlink="http://www.w3.org/1999/xlink" version="1.1" id="Capa_1" x="0px" y="0px" viewBox="0 0 511.974 511.974" style="enable-background:new 0 0 511.974 511.974;" xml:space="preserve" width="512" height="512">
<g>
	<path d="M135.971,60c-8.284,0-15,6.716-15,15v289.58c-17.459,6.192-30,22.865-30,42.42c0,24.813,20.187,45,45,45s45-20.187,45-45   c0-19.555-12.541-36.228-30-42.42V75C150.971,66.716,144.255,60,135.971,60z M135.971,422c-8.271,0-15-6.729-15-15s6.729-15,15-15   s15,6.729,15,15S144.242,422,135.971,422z"/>
	<path d="M210.971,75c0-41.355-33.645-75-75-75s-75,33.645-75,75v258.975c-23.682,24.234-34.249,57.975-28.375,91.597   c7.436,42.558,42.245,77.429,84.65,84.8c6.18,1.074,12.37,1.603,18.518,1.603C194.296,511.97,240.971,464.764,240.971,407   c0-27.155-10.856-53.401-30-73.021V75z M122.384,480.814c-30.168-5.244-54.938-30.084-60.235-60.406   c-4.548-26.032,4.149-51.148,23.862-68.907c3.157-2.845,4.96-6.895,4.96-11.145V75c0-24.813,20.187-45,45-45s45,20.187,45,45v15   h-15c-8.284,0-15,6.716-15,15s6.716,15,15,15h15v31h-15c-8.284,0-15,6.716-15,15s6.716,15,15,15h15v30h-15c-8.284,0-15,6.716-15,15   s6.716,15,15,15h15v30h-15c-8.284,0-15,6.716-15,15s6.716,15,15,15h15v39.357c0,4.25,1.803,8.3,4.96,11.145   c16.147,14.547,25.04,34.256,25.04,55.499C210.971,452.268,170.528,489.181,122.384,480.814z"/>
	<path d="M405.971,151c-8.284,0-15,6.716-15,15v30c0,8.271-6.729,15-15,15s-15-6.729-15-15v-30c0-57.897-47.103-105-105-105   c-6.201,0-11.745,3.831-13.977,9.616c-2.232,5.786-0.657,12.363,3.938,16.528c0.25,0.227,25.04,23,25.04,48.855   c0,8.756-2.872,18.146-8.535,27.908c-14.243,24.553-21.465,49.584-21.465,74.398c0,72.693,56.696,122.693,120,122.693   c66.168,0,120-53.832,120-120v-15C480.971,184.645,447.326,151,405.971,151z M450.971,241c0,49.626-40.374,90-90,90   c-46.939,0-90-36.725-90-92.693c0-19.458,5.859-39.425,17.415-59.345c8.351-14.396,12.585-28.85,12.585-42.962   c0-13.114-3.72-25.242-8.736-35.636c23.078,12.803,38.736,37.427,38.736,65.636v30c0,24.813,20.187,45,45,45s45-20.187,45-45   v-12.43c17.461,6.191,30,22.874,30,42.43V241z"/>
</g>















</svg>
