<?xml version="1.0" encoding="iso-8859-1"?>
<!-- Generator: Adobe Illustrator 19.0.0, SVG Export Plug-In . SVG Version: 6.00 Build 0)  -->
<svg version="1.1" id="Capa_1" xmlns="http://www.w3.org/2000/svg" xmlns:xlink="http://www.w3.org/1999/xlink" x="0px" y="0px"
	 viewBox="0 0 464 464" style="enable-background:new 0 0 464 464;" xml:space="preserve">
<g>
	<g>
		<circle cx="284.345" cy="198.87" r="20.568"/>
	</g>
</g>
<g>
	<g>
		<circle cx="385.529" cy="289.142" r="11.432"/>
	</g>
</g>
<g>
	<g>
		<path d="M336.002,104c-70.691,0-128,57.308-128,128c0,43.988,22.205,82.774,56,105.815
			c-20.516,13.986-45.295,22.182-71.998,22.182c-70.694,0-128.002-57.306-128.002-127.998S121.31,104,192.003,104
			c20.51,0,39.822,4.944,57.004,13.518c9.912-7.55,20.756-13.911,32.438-18.713c-5.142-3.314-8.932-8.711-9.912-15.302
			l-3.886-26.107c-0.397-2.672-3.498-3.957-5.668-2.349L240.77,70.76c-10.492,7.774-25.4,4.809-32.119-6.39l-13.578-22.632
			c-1.39-2.317-4.748-2.317-6.138,0L175.355,64.37c-6.718,11.198-21.627,14.164-32.119,6.39l-21.209-15.714
			c-2.17-1.608-5.271-0.323-5.67,2.349l-3.885,26.107c-1.922,12.916-14.561,21.36-27.229,18.194l-25.61-6.402
			c-2.621-0.655-4.994,1.718-4.34,4.34l6.402,25.606c3.168,12.669-5.278,25.308-18.194,27.23l-26.107,3.885
			c-2.672,0.398-3.957,3.5-2.35,5.67l15.713,21.205c7.775,10.493,4.809,25.402-6.389,32.122l-22.633,13.58
			c-2.317,1.39-2.317,4.747,0,6.137l22.634,13.581c11.198,6.718,14.162,21.627,6.386,32.118l-15.713,21.207
			c-1.607,2.171-0.322,5.273,2.35,5.67l26.107,3.885c12.916,1.922,21.362,14.562,18.194,27.23l-6.402,25.606
			c-0.654,2.621,1.718,4.995,4.34,4.34l25.606-6.402c12.672-3.168,25.31,5.278,27.233,18.194l3.885,26.106
			c0.398,2.672,3.5,3.957,5.67,2.349l21.205-15.714c10.492-7.774,25.402-4.809,32.121,6.389l13.58,22.634
			c1.39,2.317,4.748,2.317,6.138,0l13.578-22.633c6.718-11.198,21.629-14.164,32.121-6.389l21.207,15.713
			c2.17,1.608,5.271,0.323,5.668-2.349l3.886-26.106c1.922-12.917,14.562-21.362,27.23-18.194l25.606,6.402
			c2.621,0.655,4.996-1.718,4.34-4.34l-1.199-4.794c2.82,0.186,5.625,0.429,8.492,0.429c70.691,0,128-57.308,128-128
			S406.694,104,336.002,104z M248.002,266.637c-2.523,0-4.57-2.047-4.57-4.571s2.047-4.571,4.57-4.571s4.57,2.047,4.57,4.571
			S250.526,266.637,248.002,266.637z M297.145,298.286c-5.049,0-9.142-4.094-9.142-9.142c0-5.049,4.094-9.142,9.142-9.142
			c5.049,0,9.142,4.094,9.142,9.142C306.287,294.192,302.194,298.286,297.145,298.286z M284.381,235.429
			c-20.172,0-36.57-16.4-36.57-36.571c0-20.172,16.398-36.572,36.57-36.572s36.574,16.4,36.574,36.572
			C320.955,219.029,304.553,235.429,284.381,235.429z M321.145,333.464c-2.526,0-4.572-2.047-4.572-4.571
			c0-2.526,2.047-4.572,4.572-4.572s4.572,2.047,4.572,4.572C325.717,331.418,323.67,333.464,321.145,333.464z M390.859,161.143
			c8.836,0,16,7.164,16,16s-7.164,16-16,16s-16-7.164-16-16S382.023,161.143,390.859,161.143z M339.049,150.857
			c-2.523,0-4.57-2.047-4.57-4.571s2.047-4.571,4.57-4.571c2.526,0,4.572,2.047,4.572,4.571S341.574,150.857,339.049,150.857z
			 M348.194,232c-2.526,0-4.572-2.047-4.572-4.571c0-2.526,2.047-4.572,4.572-4.572c2.523,0,4.57,2.047,4.57,4.572
			C352.763,229.954,350.717,232,348.194,232z M385.526,316.571c-15.129,0-27.43-12.3-27.43-27.429
			c0-15.129,12.301-27.429,27.43-27.429s27.43,12.3,27.43,27.429C412.955,304.271,400.654,316.571,385.526,316.571z
			 M421.334,242.797c-2.523,0-4.57-2.047-4.57-4.571s2.047-4.571,4.57-4.571c2.526,0,4.572,2.047,4.572,4.571
			S423.859,242.797,421.334,242.797z"/>
	</g>
</g>
<g>
</g>
<g>
</g>
<g>
</g>
<g>
</g>
<g>
</g>
<g>
</g>
<g>
</g>
<g>
</g>
<g>
</g>
<g>
</g>
<g>
</g>
<g>
</g>
<g>
</g>
<g>
</g>
<g>
</g>
</svg>
