<?xml version="1.0" encoding="iso-8859-1"?>
<!-- Generator: Adobe Illustrator 21.0.0, SVG Export Plug-In . SVG Version: 6.00 Build 0)  -->
<svg xmlns="http://www.w3.org/2000/svg" xmlns:xlink="http://www.w3.org/1999/xlink" version="1.1" id="Capa_1" x="0px" y="0px" viewBox="0 0 512 512" style="enable-background:new 0 0 512 512;" xml:space="preserve" width="512" height="512">
<g>
	<path d="M497,241h-54.787l4.393-4.394c5.858-5.858,5.858-15.355,0-21.213c-5.857-5.858-15.355-5.858-21.213,0L399.787,241H298.42   c-0.532-1.5-1.135-2.967-1.818-4.389l6.611-6.611h37.64c8.284,0,15-6.716,15-15s-6.716-15-15-15h-7.64l15.742-15.742l60.28-20.093   c4.479-1.493,7.994-5.008,9.487-9.487l21.213-63.64c1.796-5.39,0.394-11.333-3.624-15.35c-4.017-4.018-9.958-5.419-15.35-3.624   l-63.64,21.213c-4.479,1.493-7.994,5.008-9.487,9.487l-20.093,60.28L312,178.787v-7.64c0-8.284-6.716-15-15-15s-15,6.716-15,15   v37.64l-6.611,6.611c-1.423-0.682-2.889-1.286-4.389-1.818V112.213l25.606-25.606c5.858-5.858,5.858-15.355,0-21.213   c-5.857-5.858-15.355-5.858-21.213,0L271,69.787V15c0-8.284-6.716-15-15-15s-15,6.716-15,15v54.787l-4.394-4.394   c-5.857-5.858-15.355-5.858-21.213,0c-5.858,5.858-5.858,15.355,0,21.213L241,112.213V213.58c-1.5,0.532-2.967,1.136-4.389,1.818   L230,208.787v-37.64c0-8.284-6.716-15-15-15s-15,6.716-15,15v7.64l-15.742-15.742l-20.093-60.28   c-1.493-4.479-5.008-7.994-9.487-9.487l-63.64-21.213c-5.389-1.796-11.333-0.393-15.35,3.624s-5.42,9.96-3.624,15.35l21.213,63.64   c1.493,4.479,5.008,7.994,9.487,9.487l60.28,20.093L178.787,200h-7.64c-8.284,0-15,6.716-15,15s6.716,15,15,15h37.64l6.611,6.611   c-0.682,1.422-1.285,2.889-1.818,4.389H112.213l-25.606-25.606c-5.857-5.858-15.355-5.858-21.213,0   c-5.858,5.858-5.858,15.355,0,21.213L69.787,241H15c-8.284,0-15,6.716-15,15s6.716,15,15,15h54.787l-4.393,4.394   c-5.858,5.858-5.858,15.355,0,21.213c5.857,5.858,15.356,5.858,21.213,0L112.213,271H213.58c0.532,1.5,1.135,2.967,1.818,4.389   L208.787,282h-37.64c-8.284,0-15,6.716-15,15s6.716,15,15,15h7.64l-15.742,15.742l-60.28,20.093   c-4.479,1.493-7.994,5.008-9.487,9.487l-21.213,63.64c-1.796,5.39-0.394,11.333,3.624,15.35c4.016,4.017,9.956,5.421,15.35,3.624   l63.64-21.213c4.479-1.493,7.994-5.008,9.487-9.487l20.093-60.28L200,333.213v7.64c0,8.284,6.716,15,15,15s15-6.716,15-15v-37.64   l6.611-6.611c1.423,0.682,2.889,1.286,4.389,1.818v101.367l-25.606,25.606c-5.858,5.858-5.858,15.355,0,21.213   c5.857,5.858,15.355,5.858,21.213,0l4.394-4.394V497c0,8.284,6.716,15,15,15s15-6.716,15-15v-54.787l4.394,4.394   c5.857,5.858,15.356,5.858,21.213,0c5.858-5.858,5.858-15.355,0-21.213L271,399.787V298.42c1.5-0.532,2.967-1.136,4.389-1.818   l6.611,6.611v37.64c0,8.284,6.716,15,15,15s15-6.716,15-15v-7.64l15.742,15.742l20.093,60.28c1.493,4.479,5.008,7.994,9.487,9.487   l63.64,21.213c5.385,1.795,11.328,0.398,15.35-3.624c4.018-4.017,5.42-9.96,3.624-15.35l-21.213-63.64   c-1.493-4.479-5.008-7.994-9.487-9.487l-60.28-20.093L333.213,312h7.64c8.284,0,15-6.716,15-15s-6.716-15-15-15h-37.64   l-6.611-6.611c0.682-1.422,1.285-2.889,1.818-4.389h101.367l25.606,25.606c5.857,5.858,15.356,5.858,21.213,0   c5.858-5.858,5.858-15.355,0-21.213L442.213,271H497c8.284,0,15-6.716,15-15S505.284,241,497,241z M373.924,119.366l28.064-9.354   l-9.354,28.064l-28.064,9.354L373.924,119.366z M119.366,138.076l-9.354-28.064l28.064,9.354l9.354,28.064L119.366,138.076z    M138.076,392.634l-28.064,9.354l9.354-28.064l28.064-9.354L138.076,392.634z M392.634,373.924l9.354,28.064l-28.064-9.354   l-9.354-28.064L392.634,373.924z M271,256c0,8.271-6.729,15-15,15s-15-6.729-15-15s6.729-15,15-15S271,247.729,271,256z"/>
</g>















</svg>
