<?xml version="1.0" encoding="iso-8859-1"?>
<!-- Generator: Adobe Illustrator 21.0.0, SVG Export Plug-In . SVG Version: 6.00 Build 0)  -->
<svg xmlns="http://www.w3.org/2000/svg" xmlns:xlink="http://www.w3.org/1999/xlink" version="1.1" id="Capa_1" x="0px" y="0px" viewBox="0 0 512 512" style="enable-background:new 0 0 512 512;" xml:space="preserve" width="512" height="512">
<g>
	<path d="M466.983,264.556L388.99,129.499c-2.68-4.64-7.631-7.499-12.99-7.499s-10.31,2.858-12.99,7.499l-77.994,135.058   c0,0,0,0.001,0,0.001C275.847,280.439,271,298.573,271,317c0,57.897,47.103,105,105,105s105-47.103,105-105   C481,298.573,476.153,280.439,466.983,264.556z M376,392c-57.664,0-93.726-62.691-65.004-112.441L376,166.995l65.003,112.563   C469.709,329.275,433.68,392,376,392z"/>
	<path d="M148.99,219.499c-2.68-4.64-7.631-7.499-12.99-7.499s-10.31,2.858-12.99,7.499L45.017,354.556c0,0,0,0.001,0,0.001   C35.847,370.439,31,388.573,31,407c0,57.897,47.103,105,105,105s105-47.103,105-105c0-18.427-4.847-36.561-14.017-52.444   L148.99,219.499z M136,482c-57.664,0-93.726-62.691-65.004-112.441L136,256.995l65.003,112.563C229.709,419.275,193.68,482,136,482   z"/>
	<path d="M226,211c41.355,0,75-33.645,75-75c0-13.192-3.464-26.146-9.973-37.38L239.025,7.562C236.355,2.886,231.385,0,226,0   c-5.384,0-10.355,2.886-13.026,7.561l-51.975,91c-6.542,11.307-10,24.253-10,37.439C151,177.355,184.645,211,226,211z    M187.009,113.513l38.99-68.267l39.023,68.332C282.218,143.26,260.655,181,226,181C191.32,181,169.778,143.294,187.009,113.513z"/>
</g>















</svg>
