<?xml version="1.0" encoding="iso-8859-1"?>
<!-- Generator: Adobe Illustrator 19.0.0, SVG Export Plug-In . SVG Version: 6.00 Build 0)  -->
<svg version="1.1" id="Capa_1" xmlns="http://www.w3.org/2000/svg" xmlns:xlink="http://www.w3.org/1999/xlink" x="0px" y="0px"
	 viewBox="0 0 464 464" style="enable-background:new 0 0 464 464;" xml:space="preserve">
<g>
	<g>
		<path d="M462.408,181.188l-20.746-12.45c-10.264-6.159-12.982-19.826-5.858-29.446l14.404-19.438
			c1.474-1.99,0.297-4.833-2.152-5.198l-23.932-3.561c-11.84-1.762-19.582-13.349-16.68-24.962l5.869-23.47
			c0.6-2.402-1.576-4.579-3.978-3.978l-23.473,5.868c-11.614,2.903-23.199-4.838-24.961-16.678l-3.561-23.932
			c-0.366-2.45-3.209-3.627-5.198-2.152l-19.442,14.403c-9.617,7.127-23.285,4.408-29.442-5.857L290.81,9.593
			c-1.274-2.124-4.351-2.124-5.625,0L272.74,30.34c-6.158,10.265-19.826,12.983-29.443,5.857l-19.442-14.403
			c-1.988-1.474-4.832-0.297-5.195,2.152l-3.562,23.932c-1.762,11.84-13.348,19.581-24.959,16.678l-23.474-5.868
			c-2.402-0.601-4.578,1.576-3.977,3.978l5.867,23.472c2.904,11.612-4.838,23.198-16.678,24.96l-23.932,3.562
			c-2.45,0.364-3.629,3.208-2.152,5.198l14.402,19.438c7.127,9.619,4.41,23.286-5.855,29.446l-20.746,12.448
			c-2.125,1.274-2.125,4.351,0,5.625l20.746,12.45c4.039,2.423,6.859,6.022,8.422,10.066c10.91-7.474,22.851-13.293,35.422-17.539
			c-0.182-2.583-0.394-5.159-0.394-7.788c0-60.869,49.344-110.213,110.211-110.213c60.871,0,110.215,49.344,110.215,110.213
			c0,25.047-8.451,48.066-22.527,66.575c12.68,2.743,24.516,7.694,35.207,14.341c3.074-4.146,7.672-7.186,13.23-8.014l23.932-3.562
			c2.45-0.364,3.627-3.208,2.152-5.198l-14.404-19.439c-7.129-9.618-4.41-23.285,5.854-29.442l20.748-12.45
			C464.531,185.539,464.531,182.462,462.408,181.188z"/>
	</g>
</g>
<g>
	<g>
		<path d="M351.999,264.002c-5.588,0-11.031,0.578-16.355,1.494c-21.918-39.059-63.668-65.494-111.645-65.494
			s-89.726,26.434-111.644,65.494c-5.324-0.916-10.767-1.494-16.355-1.494c-53.019,0-96,42.981-96,96c0,53.019,42.981,96,96,96h256
			c53.019,0,96-42.981,96-96C448,306.982,405.019,264.002,351.999,264.002z"/>
	</g>
</g>
<g>
</g>
<g>
</g>
<g>
</g>
<g>
</g>
<g>
</g>
<g>
</g>
<g>
</g>
<g>
</g>
<g>
</g>
<g>
</g>
<g>
</g>
<g>
</g>
<g>
</g>
<g>
</g>
<g>
</g>
</svg>
