<?xml version="1.0" encoding="iso-8859-1"?>
<!-- Generator: Adobe Illustrator 21.0.0, SVG Export Plug-In . SVG Version: 6.00 Build 0)  -->
<svg xmlns="http://www.w3.org/2000/svg" xmlns:xlink="http://www.w3.org/1999/xlink" version="1.1" id="Capa_1" x="0px" y="0px" viewBox="0 0 512 512" style="enable-background:new 0 0 512 512;" xml:space="preserve" width="512" height="512">
<g>
	<path d="M136,150c24.813,0,45-20.187,45-45c0-7.895-2.079-15.668-6.013-22.482L148.99,37.499C146.31,32.858,141.358,30,136,30   s-10.31,2.858-12.99,7.499L97.012,82.52C93.079,89.333,91,97.106,91,105C91,129.813,111.187,150,136,150z M122.992,97.521   L136,74.995l13.007,22.524C154.739,107.447,147.539,120,136,120C124.459,120,117.261,107.447,122.992,97.521z"/>
	<path d="M256,120c24.813,0,45-20.187,45-45c0-7.895-2.079-15.668-6.013-22.482L268.99,7.499C266.31,2.858,261.358,0,256,0   s-10.31,2.858-12.99,7.499L217.012,52.52C213.079,59.333,211,67.106,211,75C211,99.813,231.187,120,256,120z M242.992,67.521   L256,44.995l13.007,22.524C274.739,77.447,267.539,90,256,90C244.459,90,237.261,77.447,242.992,67.521z"/>
	<path d="M376,150c24.813,0,45-20.187,45-45c0-7.895-2.079-15.668-6.013-22.482L388.99,37.499C386.31,32.858,381.358,30,376,30   s-10.31,2.858-12.99,7.499L337.012,82.52C333.079,89.333,331,97.106,331,105C331,129.813,351.187,150,376,150z M362.992,97.521   L376,74.995l13.007,22.524C394.739,107.447,387.539,120,376,120C364.459,120,357.261,107.447,362.992,97.521z"/>
	<path d="M256,151c-107.999,0-195,57.182-195,165v30c0,8.284,6.716,15,15,15s15-6.716,15-15v-24.565   c7.762-8.27,18.461-12.935,30-12.935s22.238,4.665,30,12.935V346c0,8.284,6.716,15,15,15s15-6.716,15-15v-24.565   c7.762-8.27,18.461-12.935,30-12.935s22.238,4.665,30,12.935V467c0,24.813,20.187,45,45,45s45-20.187,45-45c0-8.284-6.716-15-15-15   s-15,6.716-15,15c0,8.271-6.729,15-15,15s-15-6.729-15-15V321.435c7.762-8.27,18.461-12.935,30-12.935s22.238,4.665,30,12.935V346   c0,8.284,6.716,15,15,15s15-6.716,15-15v-24.565c7.762-8.27,18.461-12.935,30-12.935s22.238,4.665,30,12.935V346   c0,8.284,6.716,15,15,15s15-6.716,15-15v-30C451,208.291,364.164,151,256,151z M121,278.5c-9.316,0-18.319,1.76-26.632,5.092   c10.308-46.699,43.185-75.03,83.537-89.754c-15.473,22.94-24.52,54.233-26.49,91.417C142.075,280.854,131.75,278.5,121,278.5z    M211,278.5C210.999,278.5,211.001,278.5,211,278.5c-10.405,0-20.416,2.197-29.517,6.327   c3.449-56.601,25.289-93.829,59.516-102.084v102.311C231.771,280.78,221.591,278.5,211,278.5z M271,285.054V182.743   c34.228,8.255,56.067,45.483,59.516,102.083c-9.1-4.13-19.11-6.327-29.516-6.327C290.41,278.5,280.23,280.78,271,285.054z    M391,278.5c-10.75,0-21.075,2.354-30.415,6.753c-1.969-37.183-11.017-68.476-26.49-91.416   c40.352,14.725,73.229,43.055,83.537,89.754C409.319,280.26,400.316,278.5,391,278.5z"/>
</g>















</svg>
