<?xml version="1.0" encoding="iso-8859-1"?>
<!-- Generator: Adobe Illustrator 19.0.0, SVG Export Plug-In . SVG Version: 6.00 Build 0)  -->
<svg version="1.1" id="Capa_1" xmlns="http://www.w3.org/2000/svg" xmlns:xlink="http://www.w3.org/1999/xlink" x="0px" y="0px"
	 viewBox="0 0 509.572 509.572" style="enable-background:new 0 0 509.572 509.572;" xml:space="preserve">
<g>
	<g>
		<path d="M383.849,254.768l50.687-87.782c2.86-4.952,2.86-11.046,0.001-15.999c-2.859-4.953-8.141-8-13.859-8h-101.36
			l-50.672-87.774c-5.718-9.906-22-9.906-27.718,0l-50.672,87.774H88.897c-5.718,0-11,3.047-13.859,8
			c-2.859,4.953-2.859,11.047,0,16l50.687,87.782l-50.687,87.773c-2.859,4.953-2.859,11.047,0,16c2.859,4.953,8.141,8,13.859,8
			h101.359l50.672,87.774c2.859,4.953,8.141,8,13.859,8c5.718,0,11-3.047,13.859-8l50.672-87.774h101.359c5.718,0,11-3.047,13.859-8
			c2.859-4.953,2.859-11.047,0-16L383.849,254.768z M319.326,174.987h73.633l-36.828,63.797h-73.633L319.326,174.987z
			 M254.787,95.213l36.82,63.774l-36.82,63.786l-36.82-63.786L254.787,95.213z M116.615,174.987h73.633l36.824,63.793l-73.637-0.01
			L116.615,174.987z M190.252,334.541h-73.637l36.82-63.773l73.637,0.01L190.252,334.541z M254.787,414.315l-36.82-63.773
			l36.82-63.758l36.82,63.758L254.787,414.315z M319.322,334.541l-36.817-63.758h73.645l36.809,63.758H319.322z"/>
	</g>
</g>
<g>
	<g>
		<circle cx="139.875" cy="55.666" r="24.88"/>
	</g>
</g>
<g>
	<g>
		<circle cx="24.884" cy="254.749" r="24.879"/>
	</g>
</g>
<g>
	<g>
		<circle cx="139.807" cy="453.842" r="24.879"/>
	</g>
</g>
<g>
	<g>
		<circle cx="369.699" cy="453.898" r="24.888"/>
	</g>
</g>
<g>
	<g>
		<circle cx="484.689" cy="254.833" r="24.879"/>
	</g>
</g>
<g>
	<g>
		<circle cx="369.763" cy="55.714" r="24.879"/>
	</g>
</g>
<g>
</g>
<g>
</g>
<g>
</g>
<g>
</g>
<g>
</g>
<g>
</g>
<g>
</g>
<g>
</g>
<g>
</g>
<g>
</g>
<g>
</g>
<g>
</g>
<g>
</g>
<g>
</g>
<g>
</g>
</svg>
