<?xml version="1.0" encoding="iso-8859-1"?>
<!-- Generator: Adobe Illustrator 21.0.0, SVG Export Plug-In . SVG Version: 6.00 Build 0)  -->
<svg xmlns="http://www.w3.org/2000/svg" xmlns:xlink="http://www.w3.org/1999/xlink" version="1.1" id="Capa_1" x="0px" y="0px" viewBox="0 0 512 512" style="enable-background:new 0 0 512 512;" xml:space="preserve" width="512" height="512">
<g>
	<path d="M118.99,399.499c-2.68-4.64-7.631-7.499-12.99-7.499s-10.31,2.858-12.99,7.499L67.012,444.52   C63.079,451.332,61,459.106,61,467c0,24.813,20.187,45,45,45s45-20.187,45-45c0-7.895-2.079-15.669-6.013-22.482L118.99,399.499z    M106,482c-11.54,0-18.739-12.554-13.008-22.479L106,436.995l13.007,22.525C124.737,469.444,117.542,482,106,482z"/>
	<path d="M238.99,399.499c-2.68-4.64-7.631-7.499-12.99-7.499s-10.31,2.858-12.99,7.499l-25.999,45.021   C183.079,451.332,181,459.106,181,467c0,24.813,20.187,45,45,45s45-20.187,45-45c0-7.895-2.079-15.669-6.013-22.482L238.99,399.499   z M226,482c-11.54,0-18.739-12.554-13.008-22.479L226,436.995l13.007,22.525C244.737,469.444,237.542,482,226,482z"/>
	<path d="M358.99,399.499c-2.68-4.64-7.631-7.499-12.99-7.499s-10.31,2.858-12.99,7.499l-25.999,45.021   C303.079,451.332,301,459.106,301,467c0,24.813,20.187,45,45,45s45-20.187,45-45c0-7.894-2.079-15.668-6.013-22.482L358.99,399.499   z M346,482c-11.54,0-18.739-12.554-13.008-22.479L346,436.995l13.007,22.524C364.738,469.444,357.542,482,346,482z"/>
	<path d="M383.746,198.123C388.47,188.136,391,177.138,391,166c0-41.355-33.645-75-75-75c-25.562,0-48.865,12.835-62.575,33.614   C244.641,122.257,235.443,121,226,121c-41.346,0-78.098,23.849-95.163,60.534C127.578,181.179,124.293,181,121,181   c-49.626,0-90,40.374-90,90s40.374,90,90,90h210c49.626,0,90-40.374,90-90C421,241.061,406.302,214.494,383.746,198.123z M316,121   c24.813,0,45,20.187,45,45c0,6.611-1.404,12.971-4.098,18.805C348.696,182.334,340.001,181,331,181   c-3.293,0-6.578,0.179-9.837,0.534c-8.706-18.717-22.545-34.08-39.496-44.651C290.068,126.962,302.508,121,316,121z M331,331H121   c-33.084,0-60-26.916-60-60s26.916-60,60-60c5.238,0,10.43,0.673,15.434,2c7.72,2.048,15.692-2.314,18.129-9.92   C164.547,171.929,193.256,151,226,151c31.868,0,61.214,20.184,71.437,52.08c2.438,7.606,10.411,11.968,18.129,9.92   c5.003-1.327,10.196-2,15.434-2c33.084,0,60,26.916,60,60S364.084,331,331,331z"/>
	<path d="M316,60c8.284,0,15-6.716,15-15V15c0-8.284-6.716-15-15-15s-15,6.716-15,15v30C301,53.284,307.716,60,316,60z"/>
	<path d="M466,151h-30c-8.284,0-15,6.716-15,15s6.716,15,15,15h30c8.284,0,15-6.716,15-15S474.284,151,466,151z"/>
	<path d="M411.46,91.754l21.212-21.213c5.858-5.858,5.858-15.355,0-21.213c-5.857-5.858-15.355-5.858-21.213,0l-21.212,21.213   c-5.858,5.858-5.858,15.355,0,21.213C396.104,97.611,405.601,97.612,411.46,91.754z"/>
	<path d="M220.54,91.754c5.859,5.859,15.356,5.857,21.213,0c5.858-5.858,5.858-15.355,0-21.213l-21.212-21.213   c-5.859-5.858-15.355-5.858-21.213,0c-5.858,5.858-5.858,15.355,0,21.213L220.54,91.754z"/>
</g>















</svg>
