<?xml version="1.0" encoding="iso-8859-1"?>
<!-- Generator: Adobe Illustrator 19.0.0, SVG Export Plug-In . SVG Version: 6.00 Build 0)  -->
<svg version="1.1" id="Capa_1" xmlns="http://www.w3.org/2000/svg" xmlns:xlink="http://www.w3.org/1999/xlink" x="0px" y="0px"
	 viewBox="0 0 448 448" style="enable-background:new 0 0 448 448;" xml:space="preserve">
<g>
	<g>
		<path d="M415.959,289.531c-13.806,13.808-32,26.832-32,45.248c0,42.287,64,42.336,64,0
			C447.959,316.346,429.768,303.338,415.959,289.531z"/>
	</g>
</g>
<g>
	<g>
		<path d="M351.959,369.531c-13.806,13.808-32,26.832-32,45.248c0,42.287,64,42.336,64,0
			C383.959,396.346,365.768,383.338,351.959,369.531z"/>
	</g>
</g>
<g>
	<g>
		<path d="M352,65.487c-5.586,0-11.031,0.578-16.355,1.494C313.727,27.922,271.977,1.487,224,1.487s-89.726,26.434-111.645,65.494
			c-5.324-0.916-10.77-1.494-16.355-1.494c-53.019,0-96,42.981-96,96c0,35.19,18.992,65.869,47.226,82.583
			c0.402-0.863,0.699-1.761,1.18-2.594c5.699-9.869,16.32-16.001,27.726-16.001c5.598,0,11.121,1.484,15.981,4.289
			c7.402,4.274,12.695,11.174,14.91,19.43c0.734,2.746,0.965,5.526,0.969,8.294h17.102l-28.59-49.509
			c-4.305-7.422-4.305-16.642-0.035-23.998c4.262-7.423,12.23-12.034,20.797-12.034h57.25l28.625-49.552
			c4.262-7.423,12.23-12.034,20.797-12.034s16.535,4.611,20.778,12l28.633,49.586h57.246c8.566,0,16.535,4.611,20.762,11.969
			c4.305,7.421,4.305,16.642,0.016,24.034l-28.606,49.539h17.11c-0.004-5.547,1.317-11.03,4.164-15.962
			c5.699-9.869,16.32-16,27.722-16.001c5.598,0,11.125,1.483,15.984,4.289c5.793,3.345,10.234,8.332,12.981,14.286
			C428.988,227.392,448,196.697,448,161.487C448,108.468,405.019,65.487,352,65.487z"/>
	</g>
</g>
<g>
	<g>
		<circle cx="150.006" cy="385.455" r="16"/>
	</g>
</g>
<g>
	<g>
		<circle cx="297.814" cy="385.55" r="16"/>
	</g>
</g>
<g>
	<g>
		<path d="M304.266,257.524l33.25-57.578c1.438-2.477,1.438-5.523,0-8c-1.422-2.477-4.062-4-6.922-4H264.11l-33.25-57.586
			c-1.422-2.477-4.062-4-6.922-4s-5.5,1.523-6.922,4l-33.266,57.586h-66.484c-2.859,0-5.5,1.523-6.922,4
			c-1.438,2.477-1.438,5.523,0,8l33.25,57.578l-33.25,57.578c-1.438,2.477-1.438,5.523,0,8c1.422,2.477,4.062,4,6.922,4h66.484
			l33.266,57.586c1.422,2.477,4.062,4,6.922,4s5.5-1.523,6.922-4l33.25-57.586h66.484c2.86,0,5.501-1.523,6.922-4
			c1.438-2.477,1.438-5.523,0-8L304.266,257.524z M316.734,203.946L290.41,249.54h-52.625l26.313-45.594H316.734z M223.938,150.36
			l26.317,45.586l-26.317,45.602l-26.332-45.602L223.938,150.36z M131.126,203.946h52.637l26.324,45.59l-52.645-0.012
			L131.126,203.946z M131.126,311.102l26.313-45.578l52.649,0.012l-26.32,45.566H131.126z M223.938,364.688l-26.328-45.586
			l26.328-45.578l26.317,45.578L223.938,364.688z M264.098,311.102l-26.309-45.562h52.641l26.305,45.562H264.098z"/>
	</g>
</g>
<g>
	<g>
		<path d="M84.114,243.62c-2.519-1.454-5.27-2.146-7.981-2.146c-5.531,0-10.906,2.869-13.871,8.001
			c-4.418,7.651-1.797,17.435,5.855,21.854c2.519,1.454,5.27,2.146,7.984,2.146c5.527,0,10.902-2.869,13.867-8.001
			C94.387,257.822,91.766,248.038,84.114,243.62z"/>
	</g>
</g>
<g>
	<g>
		<path d="M379.746,243.67c-2.519-1.454-5.27-2.146-7.984-2.146c-5.527,0.001-10.902,2.87-13.867,8.002
			c-4.418,7.651-1.797,17.434,5.855,21.853c2.519,1.454,5.27,2.146,7.984,2.146c5.527,0,10.902-2.869,13.867-8.001
			C390.019,257.872,387.398,248.088,379.746,243.67z"/>
	</g>
</g>
<g>
</g>
<g>
</g>
<g>
</g>
<g>
</g>
<g>
</g>
<g>
</g>
<g>
</g>
<g>
</g>
<g>
</g>
<g>
</g>
<g>
</g>
<g>
</g>
<g>
</g>
<g>
</g>
<g>
</g>
</svg>
