<?xml version="1.0" encoding="iso-8859-1"?>
<!-- Generator: Adobe Illustrator 19.0.0, SVG Export Plug-In . SVG Version: 6.00 Build 0)  -->
<svg version="1.1" id="Capa_1" xmlns="http://www.w3.org/2000/svg" xmlns:xlink="http://www.w3.org/1999/xlink" x="0px" y="0px"
	 viewBox="0 0 457.587 457.587" style="enable-background:new 0 0 457.587 457.587;" xml:space="preserve">
<g>
	<g>
		<path d="M352,68.794c-5.586,0-11.031,0.578-16.355,1.494C313.727,31.229,271.977,4.794,224,4.794s-89.727,26.434-111.645,65.494
			c-5.324-0.916-10.77-1.494-16.355-1.494c-53.019,0-96,42.981-96,96c0,35.19,18.992,65.869,47.226,82.583
			c0.402-0.863,0.699-1.761,1.18-2.594c5.699-9.869,16.32-16.001,27.726-16.001c5.598,0,11.121,1.484,15.981,4.289
			c7.402,4.274,12.695,11.174,14.91,19.43c0.734,2.746,0.965,5.526,0.969,8.294h17.101l-28.59-49.509
			c-4.305-7.422-4.305-16.642-0.035-23.998c4.262-7.423,12.23-12.034,20.797-12.034h57.25l28.625-49.552
			c4.262-7.423,12.23-12.034,20.797-12.034s16.535,4.611,20.778,12l28.633,49.586h57.246c8.566,0,16.535,4.611,20.762,11.969
			c4.305,7.421,4.305,16.642,0.016,24.034l-28.606,49.539h17.11c-0.004-5.547,1.317-11.03,4.164-15.962
			c5.699-9.869,16.32-16,27.722-16.001c5.598,0,11.125,1.483,15.984,4.289c5.793,3.345,10.234,8.332,12.981,14.286
			C428.988,230.698,448,200.003,448,164.793C448,111.774,405.019,68.794,352,68.794z"/>
	</g>
</g>
<g>
	<g>
		<circle cx="407.974" cy="396.759" r="8"/>
	</g>
</g>
<g>
	<g>
		<path d="M408.003,340.794c-4.418,0-8,3.581-8,8v16c0,4.418,3.582,8,8,8s8-3.582,8-8v-16
			C416.003,344.374,412.422,340.794,408.003,340.794z"/>
	</g>
</g>
<g>
	<g>
		<path d="M408.003,420.794c-4.418,0-8,3.581-8,7.999v16.001c0,4.418,3.582,8,8,8s8-3.582,8-8v-16.001
			C416.003,424.374,412.422,420.794,408.003,420.794z"/>
	</g>
</g>
<g>
	<g>
		<path d="M384.304,373.874l-13.855-8c-3.828-2.209-8.718-0.898-10.93,2.928s-0.898,8.718,2.93,10.928l13.855,8
			c3.824,2.209,8.718,0.898,10.926-2.928C389.441,380.975,388.129,376.082,384.304,373.874z"/>
	</g>
</g>
<g>
	<g>
		<path d="M453.586,413.874l-13.855-8c-3.828-2.209-8.718-0.898-10.93,2.928c-2.207,3.827-0.898,8.72,2.93,10.929l13.855,8
			c3.828,2.209,8.718,0.898,10.93-2.929C458.722,420.976,457.414,416.083,453.586,413.874z"/>
	</g>
</g>
<g>
	<g>
		<path d="M387.206,408.803c-2.21-3.827-7.102-5.138-10.93-2.929l-13.851,8c-3.828,2.209-5.141,7.102-2.93,10.928
			c2.211,3.827,7.102,5.138,10.93,2.929l13.851-8C388.105,417.522,389.418,412.63,387.206,408.803z"/>
	</g>
</g>
<g>
	<g>
		<path d="M456.491,368.806c-2.211-3.826-7.106-5.137-10.93-2.928l-13.855,8c-3.828,2.209-5.137,7.102-2.93,10.928
			c2.211,3.826,7.102,5.138,10.93,2.928l13.855-8C457.386,377.525,458.698,372.632,456.491,368.806z"/>
	</g>
</g>
<g>
	<g>
		<circle cx="150.022" cy="388.813" r="16"/>
	</g>
</g>
<g>
	<g>
		<circle cx="297.814" cy="388.839" r="16"/>
	</g>
</g>
<g>
	<g>
		<path d="M304.266,260.83l33.25-57.578c1.438-2.477,1.438-5.523,0-8c-1.422-2.477-4.062-4-6.922-4H264.11l-33.25-57.586
			c-1.422-2.477-4.062-4-6.922-4s-5.5,1.523-6.922,4l-33.266,57.586h-66.484c-2.859,0-5.5,1.523-6.922,4
			c-1.438,2.477-1.438,5.523,0,8l33.25,57.578l-33.25,57.578c-1.438,2.477-1.438,5.523,0,8c1.422,2.477,4.062,4,6.922,4h66.484
			l33.266,57.586c1.422,2.477,4.062,4,6.922,4s5.5-1.523,6.922-4l33.25-57.586h66.484c2.859,0,5.5-1.523,6.922-4
			c1.438-2.477,1.438-5.523,0-8L304.266,260.83z M316.734,207.252l-26.324,45.594h-52.625l26.313-45.594H316.734z M223.937,153.667
			l26.317,45.586l-26.317,45.602l-26.332-45.602L223.937,153.667z M131.125,207.252h52.637l26.324,45.59l-52.645-0.012
			L131.125,207.252z M131.125,314.409l26.313-45.578l52.649,0.012l-26.32,45.566H131.125z M223.937,367.994l-26.328-45.586
			l26.328-45.578l26.317,45.578L223.937,367.994z M264.098,314.409l-26.309-45.562h52.641l26.305,45.562H264.098z"/>
	</g>
</g>
<g>
	<g>
		<path d="M84.113,246.926c-2.519-1.454-5.27-2.146-7.981-2.146c-5.531,0-10.906,2.869-13.871,8.001
			c-4.418,7.651-1.797,17.435,5.855,21.854c2.519,1.454,5.27,2.146,7.984,2.146c5.527,0,10.902-2.869,13.867-8.001
			C94.386,261.128,91.766,251.344,84.113,246.926z"/>
	</g>
</g>
<g>
	<g>
		<path d="M379.746,246.977c-2.519-1.455-5.27-2.146-7.984-2.146c-5.527,0.001-10.902,2.87-13.867,8.002
			c-4.418,7.652-1.797,17.435,5.855,21.853c2.519,1.454,5.27,2.146,7.984,2.146c5.527,0,10.902-2.869,13.867-8.001
			C390.018,261.178,387.398,251.395,379.746,246.977z"/>
	</g>
</g>
<g>
</g>
<g>
</g>
<g>
</g>
<g>
</g>
<g>
</g>
<g>
</g>
<g>
</g>
<g>
</g>
<g>
</g>
<g>
</g>
<g>
</g>
<g>
</g>
<g>
</g>
<g>
</g>
<g>
</g>
</svg>
