<?xml version="1.0" encoding="iso-8859-1"?>
<!-- Generator: Adobe Illustrator 21.0.0, SVG Export Plug-In . SVG Version: 6.00 Build 0)  -->
<svg xmlns="http://www.w3.org/2000/svg" xmlns:xlink="http://www.w3.org/1999/xlink" version="1.1" id="Capa_1" x="0px" y="0px" viewBox="0 0 512 512" style="enable-background:new 0 0 512 512;" xml:space="preserve" width="512" height="512">
<g>
	<path d="M481,151c0-49.626-40.374-90-90-90c-3.301,0-6.591,0.179-9.857,0.536C364.262,25.42,328.041,0,286,0   c-41.966,0-78.23,25.352-95.143,61.536C187.591,61.179,184.301,61,181,61c-49.626,0-90,40.374-90,90   c0,11.532,2.159,22.721,6.309,33.171C59.14,194.596,31,229.571,31,271c0,49.626,40.374,90,90,90h210c49.626,0,90-40.374,90-90   c0-11.706-2.249-22.896-6.333-33.164C452.848,227.418,481,192.438,481,151z M331,331H121c-33.084,0-60-26.916-60-60   s26.916-60,60-60c5.238,0,10.43,0.673,15.434,2c7.72,2.047,15.692-2.314,18.129-9.92C164.547,171.929,193.256,151,226,151   s61.453,20.929,71.437,52.079c2.438,7.606,10.411,11.968,18.129,9.92c5.003-1.327,10.196-2,15.434-2c33.084,0,60,26.916,60,60   S364.084,331,331,331z M397.682,210.619C381.203,192.438,357.412,181,331,181c-3.293,0-6.578,0.179-9.837,0.534   C304.098,144.848,267.346,121,226,121s-78.098,23.848-95.163,60.534c-0.527-0.057-1.056-0.103-1.585-0.151   C123.84,172.211,121,161.832,121,151c0-33.084,26.916-60,60-60c5.238,0,10.43,0.673,15.434,2c7.722,2.047,15.692-2.314,18.129-9.92   C224.58,51.827,253.956,30,286,30s61.42,21.827,71.437,53.079c2.438,7.606,10.412,11.969,18.129,9.92   c5.003-1.327,10.196-2,15.434-2c33.084,0,60,26.916,60,60C451,181.825,427.631,207.284,397.682,210.619z"/>
	<path d="M346,422c-8.284,0-15,6.716-15,15s6.716,15,15,15c8.271,0,15,6.729,15,15s-6.729,15-15,15h-90c-8.284,0-15,6.716-15,15   s6.716,15,15,15h90c24.813,0,45-20.187,45-45S370.813,422,346,422z"/>
	<path d="M196,392c-8.284,0-15,6.716-15,15s6.716,15,15,15c8.271,0,15,6.729,15,15s-6.729,15-15,15H76c-8.284,0-15,6.716-15,15   s6.716,15,15,15h120c24.813,0,45-20.187,45-45S220.813,392,196,392z"/>
	<path d="M76,422h60c8.284,0,15-6.716,15-15s-6.716-15-15-15H76c-8.284,0-15,6.716-15,15S67.716,422,76,422z"/>
</g>















</svg>
