<?xml version="1.0" encoding="iso-8859-1"?>
<!-- Generator: Adobe Illustrator 21.0.0, SVG Export Plug-In . SVG Version: 6.00 Build 0)  -->
<svg xmlns="http://www.w3.org/2000/svg" xmlns:xlink="http://www.w3.org/1999/xlink" version="1.1" id="Capa_1" x="0px" y="0px" viewBox="0 0 512 512" style="enable-background:new 0 0 512 512;" xml:space="preserve" width="512" height="512">
<g>
	<path d="M118.99,399.499c-2.68-4.64-7.631-7.499-12.99-7.499s-10.31,2.858-12.99,7.499L67.012,444.52   C63.079,451.332,61,459.106,61,467c0,24.813,20.187,45,45,45s45-20.187,45-45c0-7.895-2.079-15.669-6.013-22.482L118.99,399.499z    M106,482c-11.54,0-18.739-12.554-13.008-22.479L106,436.995l13.007,22.525C124.737,469.444,117.542,482,106,482z"/>
	<path d="M238.99,399.499c-2.68-4.64-7.631-7.499-12.99-7.499s-10.31,2.858-12.99,7.499l-25.999,45.021   C183.079,451.332,181,459.106,181,467c0,24.813,20.187,45,45,45s45-20.187,45-45c0-7.895-2.079-15.669-6.013-22.482L238.99,399.499   z M226,482c-11.54,0-18.739-12.554-13.008-22.479L226,436.995l13.007,22.525C244.737,469.444,237.542,482,226,482z"/>
	<path d="M358.99,399.499c-2.68-4.64-7.631-7.499-12.99-7.499s-10.31,2.858-12.99,7.499l-25.999,45.021   C303.079,451.332,301,459.106,301,467c0,24.813,20.187,45,45,45s45-20.187,45-45c0-7.894-2.079-15.668-6.013-22.482L358.99,399.499   z M346,482c-11.54,0-18.739-12.554-13.008-22.479L346,436.995l13.007,22.524C364.738,469.444,357.542,482,346,482z"/>
	<path d="M481,121c0-6.175-3.375-11.265-8.344-13.74c-5.093-2.537-11.184-1.973-15.725,1.455C446.285,116.752,433.86,121,421,121   c-33.084,0-60-26.916-60-60c0-13.128,4.478-26.589,12.285-36.931c3.428-4.541,3.992-10.631,1.455-15.725   C372.265,3.375,367.178,0,361,0c-66.168,0-120,54.281-120,121c0,0.355,0.01,0.71,0.013,1.065C236.097,121.365,231.084,121,226,121   c-41.346,0-78.098,23.848-95.163,60.534C127.578,181.179,124.293,181,121,181c-49.626,0-90,40.374-90,90s40.374,90,90,90h210   c49.626,0,90-40.374,90-90c0-14.735-3.56-28.655-9.864-40.944C453.095,210.764,481,168.4,481,121z M331,331H121   c-33.084,0-60-26.916-60-60s26.916-60,60-60c5.238,0,10.43,0.673,15.434,2c7.72,2.048,15.692-2.314,18.129-9.92   C164.547,171.929,193.256,151,226,151c32.497,0,61.386,20.722,71.437,52.079c2.438,7.606,10.411,11.969,18.129,9.92   c5.003-1.327,10.196-2,15.434-2c33.084,0,60,26.916,60,60S364.084,331,331,331z M392.486,205.343   C376.385,190.255,354.754,181,331,181c-3.293,0-6.578,0.179-9.837,0.534c-10.372-22.296-28.023-39.836-49.55-50.177   c-0.392-3.43-0.613-6.89-0.613-10.357c0-41.088,27.074-75.904,64.129-87.169C332.417,42.586,331,51.763,331,61   c0,49.626,40.374,90,90,90c8.944,0,17.727-1.343,26.151-3.962C439.109,173.608,419.043,195.445,392.486,205.343z"/>
</g>















</svg>
