<?xml version="1.0" encoding="iso-8859-1"?>
<!-- Generator: Adobe Illustrator 19.0.0, SVG Export Plug-In . SVG Version: 6.00 Build 0)  -->
<svg version="1.1" id="Capa_1" xmlns="http://www.w3.org/2000/svg" xmlns:xlink="http://www.w3.org/1999/xlink" x="0px" y="0px"
	 viewBox="0 0 448 448" style="enable-background:new 0 0 448 448;" xml:space="preserve">
<g>
	<g>
		<circle cx="376" cy="368.042" r="8"/>
	</g>
</g>
<g>
	<g>
		<path d="M376,312.004c-4.418,0-8,3.58-8,8v16c0,4.418,3.582,8,8,8s8-3.582,8-8v-16C384,315.584,380.418,312.004,376,312.004z"/>
	</g>
</g>
<g>
	<g>
		<path d="M376,392.004c-4.418,0-8,3.58-8,7.998v16.002c0,4.418,3.582,8,8,8s8-3.582,8-8v-16.002
			C384,395.584,380.418,392.004,376,392.004z"/>
	</g>
</g>
<g>
	<g>
		<path d="M352.301,345.082l-13.855-8c-3.828-2.207-8.718-0.898-10.93,2.93c-2.211,3.824-0.898,8.718,2.93,10.926l13.855,8
			c3.824,2.211,8.718,0.898,10.926-2.926C357.438,352.184,356.126,347.294,352.301,345.082z"/>
	</g>
</g>
<g>
	<g>
		<path d="M421.582,385.084l-13.855-8c-3.828-2.209-8.718-0.898-10.93,2.928c-2.207,3.828-0.898,8.718,2.93,10.93l13.855,8
			c3.828,2.207,8.718,0.898,10.93-2.93C426.719,392.186,425.41,387.294,421.582,385.084z"/>
	</g>
</g>
<g>
	<g>
		<path d="M355.203,380.012c-2.21-3.826-7.102-5.137-10.93-2.928l-13.851,8c-3.828,2.209-5.141,7.102-2.93,10.928
			c2.211,3.828,7.102,5.137,10.93,2.93l13.851-8C356.102,388.73,357.414,383.84,355.203,380.012z"/>
	</g>
</g>
<g>
	<g>
		<path d="M424.488,340.016c-2.211-3.826-7.106-5.137-10.93-2.928l-13.855,8c-3.828,2.209-5.137,7.102-2.93,10.928
			c2.211,3.826,7.102,5.137,10.93,2.928l13.855-8C425.382,348.735,426.695,343.842,424.488,340.016z"/>
	</g>
</g>
<g>
	<g>
		<circle cx="224" cy="368.042" r="8"/>
	</g>
</g>
<g>
	<g>
		<path d="M224,312.004c-4.418,0-8,3.58-8,8v16c0,4.418,3.582,8,8,8s8-3.582,8-8v-16C232,315.584,228.418,312.004,224,312.004z"/>
	</g>
</g>
<g>
	<g>
		<path d="M224,392.004c-4.418,0-8,3.58-8,7.998v16.002c0,4.418,3.582,8,8,8s8-3.582,8-8v-16.002
			C232,395.584,228.418,392.004,224,392.004z"/>
	</g>
</g>
<g>
	<g>
		<path d="M200.301,345.082l-13.855-8c-3.828-2.207-8.718-0.898-10.93,2.93c-2.211,3.824-0.898,8.718,2.93,10.926l13.855,8
			c3.824,2.211,8.718,0.898,10.926-2.926C205.438,352.184,204.126,347.294,200.301,345.082z"/>
	</g>
</g>
<g>
	<g>
		<path d="M269.582,385.084l-13.855-8c-3.828-2.209-8.718-0.898-10.93,2.928c-2.207,3.828-0.898,8.718,2.93,10.93l13.855,8
			c3.828,2.207,8.718,0.898,10.93-2.93C274.719,392.186,273.41,387.294,269.582,385.084z"/>
	</g>
</g>
<g>
	<g>
		<path d="M203.203,380.012c-2.21-3.826-7.102-5.137-10.93-2.928l-13.851,8c-3.828,2.209-5.141,7.102-2.93,10.928
			c2.211,3.828,7.102,5.137,10.93,2.93l13.851-8C204.102,388.73,205.414,383.84,203.203,380.012z"/>
	</g>
</g>
<g>
	<g>
		<path d="M272.488,340.016c-2.211-3.826-7.106-5.137-10.93-2.928l-13.855,8c-3.828,2.209-5.137,7.102-2.93,10.928
			c2.211,3.826,7.102,5.137,10.93,2.928l13.855-8C273.382,348.735,274.695,343.842,272.488,340.016z"/>
	</g>
</g>
<g>
	<g>
		<circle cx="72" cy="368.042" r="8"/>
	</g>
</g>
<g>
	<g>
		<path d="M72,312.004c-4.418,0-8,3.58-8,8v16c0,4.418,3.582,8,8,8s8-3.582,8-8v-16C80,315.584,76.418,312.004,72,312.004z"/>
	</g>
</g>
<g>
	<g>
		<path d="M72,392.004c-4.418,0-8,3.58-8,7.998v16.002c0,4.418,3.582,8,8,8s8-3.582,8-8v-16.002
			C80,395.584,76.418,392.004,72,392.004z"/>
	</g>
</g>
<g>
	<g>
		<path d="M48.301,345.082l-13.855-8c-3.828-2.207-8.718-0.898-10.93,2.93c-2.211,3.824-0.898,8.718,2.93,10.926l13.855,8
			c3.824,2.211,8.718,0.898,10.926-2.926C53.438,352.184,52.126,347.294,48.301,345.082z"/>
	</g>
</g>
<g>
	<g>
		<path d="M117.582,385.084l-13.855-8c-3.828-2.209-8.718-0.898-10.93,2.928c-2.207,3.828-0.898,8.718,2.93,10.93l13.855,8
			c3.828,2.207,8.718,0.898,10.93-2.93C122.719,392.186,121.41,387.294,117.582,385.084z"/>
	</g>
</g>
<g>
	<g>
		<path d="M51.203,380.012c-2.21-3.826-7.102-5.137-10.93-2.928l-13.851,8c-3.828,2.209-5.141,7.102-2.93,10.928
			c2.211,3.828,7.102,5.137,10.93,2.93l13.851-8C52.102,388.73,53.414,383.84,51.203,380.012z"/>
	</g>
</g>
<g>
	<g>
		<path d="M120.488,340.016c-2.211-3.826-7.106-5.137-10.93-2.928l-13.855,8c-3.828,2.209-5.137,7.102-2.93,10.928
			c2.211,3.826,7.102,5.137,10.93,2.928l13.855-8C121.382,348.735,122.695,343.842,120.488,340.016z"/>
	</g>
</g>
<g>
	<g>
		<path d="M352,87.996c-5.588,0-11.031,0.578-16.355,1.494C313.727,50.43,271.977,23.996,224,23.996S134.274,50.43,112.355,89.49
			c-5.324-0.916-10.767-1.494-16.355-1.494c-53.019,0-96,42.981-96,96c0,53.019,42.981,96,96,96h256c53.019,0,96-42.981,96-96
			C448,130.977,405.019,87.996,352,87.996z"/>
	</g>
</g>
<g>
</g>
<g>
</g>
<g>
</g>
<g>
</g>
<g>
</g>
<g>
</g>
<g>
</g>
<g>
</g>
<g>
</g>
<g>
</g>
<g>
</g>
<g>
</g>
<g>
</g>
<g>
</g>
<g>
</g>
</svg>
