<?xml version="1.0" encoding="iso-8859-1"?>
<!-- Generator: Adobe Illustrator 21.0.0, SVG Export Plug-In . SVG Version: 6.00 Build 0)  -->
<svg xmlns="http://www.w3.org/2000/svg" xmlns:xlink="http://www.w3.org/1999/xlink" version="1.1" id="Capa_1" x="0px" y="0px" viewBox="0 0 512 512" style="enable-background:new 0 0 512 512;" xml:space="preserve" width="512" height="512">
<g id="_x3C_Group_x3E__77_">
	<g>
		<path d="M286,512c-24.813,0-45-20.187-45-45c0-6.905,1.527-13.537,4.539-19.712c0.15-0.308,0.311-0.611,0.482-0.908L273,399.516    c2.677-4.65,7.634-7.516,13-7.516s10.323,2.866,13,7.516c0,0,27.31,47.462,27.46,47.77C329.472,453.461,331,460.094,331,467    C331,491.813,310.813,512,286,512z M272.321,460.825C267.846,470.701,275.118,482,286,482c10.886,0,18.152-11.303,13.679-21.174    L286,437.065L272.321,460.825z"/>
	</g>
	<g>
		<path d="M166,91h-30c-8.284,0-15-6.716-15-15s6.716-15,15-15h30c8.284,0,15,6.716,15,15S174.284,91,166,91z"/>
	</g>
	<g>
		<path d="M106,151H76c-8.284,0-15-6.716-15-15s6.716-15,15-15h30c8.284,0,15,6.716,15,15S114.284,151,106,151z"/>
	</g>
	<g>
		<path d="M436,121h-30c-8.284,0-15-6.716-15-15s6.716-15,15-15h30c8.284,0,15,6.716,15,15S444.284,121,436,121z"/>
	</g>
	<g>
		<path d="M346,91h-30c-8.284,0-15-6.716-15-15s6.716-15,15-15h30c8.284,0,15,6.716,15,15S354.284,91,346,91z"/>
	</g>
	<g>
		<path d="M286,151h-30c-8.284,0-15-6.716-15-15s6.716-15,15-15h30c8.284,0,15,6.716,15,15S294.284,151,286,151z"/>
	</g>
	<g>
		<path d="M106,451c-24.813,0-45-20.187-45-45v-77.574c0-4.007-1.56-7.773-4.394-10.607C43.706,304.92,31,295.14,31,273.574v-65.147    c0-4.007-1.56-7.773-4.394-10.607C14.181,185.394,0,173.975,0,153.574V15C0,6.716,6.716,0,15,0h482c8.284,0,15,6.716,15,15v361    c0,12.089-4.944,23.474-13.921,32.056C489.347,416.403,477.955,421,466,421c-24.813,0-45-20.187-45-45v-47.574    c0-4.007-1.56-7.773-4.393-10.606C403.706,304.919,391,295.139,391,273.573v-29.032c0-7.548-4.975-11.438-7.114-12.76    c-2.14-1.322-7.843-4.033-14.595-0.656c-5.114,2.557-8.292,7.698-8.292,13.416c0,10.366-4.428,22.099-13.18,30.852    C335.031,288.181,331,290.667,331,298.426V316c0,24.813-20.187,45-45,45s-45-20.187-45-45v-47.574    c0-4.007-1.56-7.773-4.394-10.607l-21.213-21.213C212.581,233.794,211,229.978,211,226v-23.787l-4.394-4.394    c-5.848-5.848-15.364-5.848-21.213,0L181,202.213V226c0,3.978-1.581,7.794-4.394,10.607l-21.213,21.213    c-2.833,2.833-4.393,6.6-4.393,10.606V406C151,430.813,130.813,451,106,451z M30,30v123.574c0,6.547,6.17,11.383,17.82,23.032    c8.5,8.5,13.18,19.8,13.18,31.82v65.147c0,7.767,4.049,10.262,16.82,23.032c8.5,8.5,13.18,19.8,13.18,31.82V406    c0,8.271,6.729,15,15,15s15-6.729,15-15V268.426c0-12.02,4.681-23.32,13.18-31.82l16.82-16.82V196    c0-7.618,4.322-10.535,13.18-19.393c17.546-17.546,46.095-17.545,63.64,0C236.681,185.468,241,188.383,241,196v23.787l16.82,16.82    c8.5,8.5,13.18,19.8,13.18,31.82V316c0,8.271,6.729,15,15,15s15-6.729,15-15v-17.574c0-21.462,12.53-31.17,25.607-44.246    c4.864-4.864,4.318-10.387,4.449-11.911c0.801-16.235,10.156-30.646,24.819-37.978c14.051-7.026,30.419-6.289,43.782,1.97    C413.021,214.521,421,228.831,421,244.541v29.032c0,7.772,4.057,10.271,16.82,23.034c8.5,8.499,13.18,19.8,13.18,31.82V376    c0,8.271,6.729,15,15,15c8.523,0,16-7.009,16-15V30H30z"/>
	</g>
</g>















</svg>
