<?xml version="1.0" encoding="iso-8859-1"?>
<!-- Generator: Adobe Illustrator 19.0.0, SVG Export Plug-In . SVG Version: 6.00 Build 0)  -->
<svg version="1.1" id="Capa_1" xmlns="http://www.w3.org/2000/svg" xmlns:xlink="http://www.w3.org/1999/xlink" x="0px" y="0px"
	 viewBox="0 0 448 448" style="enable-background:new 0 0 448 448;" xml:space="preserve">
<g>
	<g>
		<path d="M351.999,64c-5.588,0-11.031,0.578-16.355,1.494C313.726,26.435,271.976,0,223.999,0s-89.726,26.434-111.644,65.494
			C107.031,64.578,101.588,64,96,64c-53.019,0-96,42.981-96,96c0,50.806,39.496,92.286,89.443,95.669
			c19.172-20.08,48.447-48.19,70.557-70.296c24.098,24.098,50.426,50.721,68.133,70.627H352c53.019,0,96-42.981,96-96
			C448,106.981,405.019,64,351.999,64z"/>
	</g>
</g>
<g>
	<g>
		<path d="M287.999,291.018c-13.809,13.809-32,26.832-32,45.248c0,21.15,16.008,31.734,32.012,31.734
			c15.996,0,31.988-10.571,31.988-31.734C319.999,317.834,301.808,304.826,287.999,291.018z"/>
	</g>
</g>
<g>
	<g>
		<path d="M223.999,371.018c-13.809,13.809-32,26.832-32,45.248c0,21.15,16.008,31.734,32.012,31.734
			c15.996,0,31.988-10.571,31.988-31.734C255.999,397.834,237.808,384.826,223.999,371.018z"/>
	</g>
</g>
<g>
	<g>
		<path d="M159.999,230.505c-38.512,37.72-48,45.369-48,68.007c0,26.468,21.534,48,48,48c26.466,0,48-21.533,48-48
			C207.999,275.881,198.487,268.214,159.999,230.505z"/>
	</g>
</g>
<g>
</g>
<g>
</g>
<g>
</g>
<g>
</g>
<g>
</g>
<g>
</g>
<g>
</g>
<g>
</g>
<g>
</g>
<g>
</g>
<g>
</g>
<g>
</g>
<g>
</g>
<g>
</g>
<g>
</g>
</svg>
