<?xml version="1.0" encoding="iso-8859-1"?>
<!-- Generator: Adobe Illustrator 21.0.0, SVG Export Plug-In . SVG Version: 6.00 Build 0)  -->
<svg xmlns="http://www.w3.org/2000/svg" xmlns:xlink="http://www.w3.org/1999/xlink" version="1.1" id="Capa_1" x="0px" y="0px" viewBox="0 0 512 512" style="enable-background:new 0 0 512 512;" xml:space="preserve" width="512" height="512">
<g>
	<path d="M110.689,114.933c7.54,37.703,40.92,65.067,79.37,65.067c16.907,0,32.613-5.219,45.61-14.118l39.724,39.724   c5.857,5.858,15.356,5.858,21.213,0c5.858-5.858,5.858-15.355,0-21.213l-39.724-39.724C265.782,131.672,271,115.966,271,99.059   c0-38.449-27.365-71.829-65.067-79.369L108.942,0.292c-4.918-0.984-10.002,0.556-13.548,4.102s-5.086,8.63-4.102,13.548   L110.689,114.933z M200.05,49.107C223.778,53.853,241,74.861,241,99.059c0,8.595-2.148,16.695-5.923,23.805l-28.47-28.47   c-5.857-5.858-15.355-5.858-21.213,0c-5.858,5.858-5.858,15.355,0,21.213l28.47,28.47c-7.11,3.775-15.21,5.923-23.805,5.923   c-24.198,0-45.206-17.222-49.952-40.951l-14.985-74.928L200.05,49.107z"/>
	<path d="M493.362,332.448l-81.717,20.43C382.415,360.185,362,386.331,362,416.461c0,12.647,3.61,24.461,9.84,34.486l-35.447,35.447   c-5.858,5.858-5.858,15.355,0,21.213c5.857,5.858,15.356,5.858,21.213,0l35.447-35.447c10.025,6.23,21.84,9.84,34.486,9.84   c30.129,0,56.276-20.415,63.583-49.644l20.43-81.718c1.278-5.112-0.22-10.519-3.946-14.245   C503.881,332.668,498.475,331.172,493.362,332.448z M462.018,425.08C458.056,440.93,443.877,452,427.54,452   c-4.276,0-8.377-0.76-12.177-2.15l17.244-17.244c5.858-5.858,5.858-15.355,0-21.213c-5.857-5.858-15.355-5.858-21.213,0   l-17.244,17.244c-1.39-3.8-2.15-7.902-2.15-12.177c0-16.338,11.07-30.516,26.92-34.478l57.464-14.366L462.018,425.08z"/>
	<path d="M15,271h377c66.168,0,120-53.832,120-120c0-49.626-40.374-90-90-90s-90,40.374-90,90c0,33.084,26.916,60,60,60   s60-26.916,60-60c0-8.284-6.716-15-15-15s-15,6.716-15,15c0,16.542-13.458,30-30,30s-30-13.458-30-30c0-33.084,26.916-60,60-60   s60,26.916,60,60c0,49.626-40.374,90-90,90H15c-8.284,0-15,6.716-15,15S6.716,271,15,271z"/>
	<path d="M226,301H15c-8.284,0-15,6.716-15,15s6.716,15,15,15h211c41.355,0,75,33.645,75,75c0,24.813-20.187,45-45,45   s-45-20.187-45-45c0-8.271,6.729-15,15-15s15,6.729,15,15c0,8.284,6.716,15,15,15s15-6.716,15-15c0-24.813-20.187-45-45-45   s-45,20.187-45,45c0,41.355,33.645,75,75,75s75-33.645,75-75C331,348.103,283.897,301,226,301z"/>
	<path d="M15,211h91c8.284,0,15-6.716,15-15s-6.716-15-15-15H15c-8.284,0-15,6.716-15,15S6.716,211,15,211z"/>
	<path d="M136,391H15c-8.284,0-15,6.716-15,15s6.716,15,15,15h121c8.284,0,15-6.716,15-15S144.284,391,136,391z"/>
</g>















</svg>
