<?xml version="1.0" encoding="iso-8859-1"?>
<!-- Generator: Adobe Illustrator 19.0.0, SVG Export Plug-In . SVG Version: 6.00 Build 0)  -->
<svg version="1.1" id="Capa_1" xmlns="http://www.w3.org/2000/svg" xmlns:xlink="http://www.w3.org/1999/xlink" x="0px" y="0px"
	 viewBox="0 0 464 464" style="enable-background:new 0 0 464 464;" xml:space="preserve">
<g>
	<g>
		<path d="M400,32c0,36.77-27.229,64-64,64c36.771,0,64,27.226,64,64c0-36.774,27.229-64,64-64C427.229,96,400,68.77,400,32z
			 M400,110.819c-4.236-5.603-9.215-10.582-14.818-14.819c5.603-4.238,10.582-9.216,14.818-14.819
			c4.236,5.603,9.215,10.582,14.818,14.819C409.215,100.237,404.237,105.216,400,110.819z"/>
	</g>
</g>
<g>
	<g>
		<path d="M32,48c0,18.385-13.614,32-32,32c18.386,0,32,13.614,32,32c0-18.386,13.614-32,32-32C45.614,80,32,66.385,32,48z"/>
	</g>
</g>
<g>
	<g>
		<path d="M224,112c-88.366,0-160,71.634-160,160s71.634,160,160,160s160-71.634,160-160S312.366,112,224,112z M209,399.042
			c-0.886-0.103-1.75-0.28-2.633-0.402c2.691-0.464,4.775-2.702,4.775-5.525c0-3.156-2.558-5.715-5.713-5.715
			c-3.156,0-5.715,2.558-5.715,5.715c0,2.18,1.266,4.01,3.058,4.974c-60.49-10.16-106.774-62.755-106.774-126.089
			c0-59.572,40.93-109.701,96.133-123.898c10.607-2.727,21.942,0.446,29.89,7.977c30.742,29.12,49.977,70.23,49.977,115.921
			c0,5.468-0.57,10.787-1.107,16.112c-18.393,0.6-33.182,15.642-33.182,34.174c0,11.236,5.504,21.134,13.875,27.39
			C240.848,368.898,226.338,385.707,209,399.042z M272,340.571c-10.09,0-18.289-8.2-18.289-18.285
			C253.711,312.201,261.91,304,272,304c10.086,0,18.285,8.2,18.285,18.286C290.286,332.371,282.086,340.571,272,340.571z
			 M292.57,223.429c-11.043,0-20-8.955-20-20s8.957-20,20-20c11.047,0,20,8.955,20,20S303.618,223.429,292.57,223.429z
			 M330.668,285.496c-3.156,0-5.715-2.558-5.715-5.714c0-3.156,2.558-5.715,5.715-5.715c3.154,0,5.713,2.558,5.713,5.715
			C336.381,282.938,333.822,285.496,330.668,285.496z"/>
	</g>
</g>
<g>
	<g>
		<circle cx="175.433" cy="343.405" r="11.432"/>
	</g>
</g>
<g>
	<g>
		<circle cx="114.009" cy="309.565" r="5.712"/>
	</g>
</g>
<g>
	<g>
		<circle cx="239.241" cy="266.285" r="5.712"/>
	</g>
</g>
<g>
	<g>
		<path d="M176,192c-21.27,0-38.574,17.302-38.574,38.571c0,21.267,17.305,38.571,38.574,38.571
			c21.27,0,38.572-17.304,38.572-38.571C214.572,209.302,197.27,192,176,192z M176,253.143c-12.447,0-22.574-10.126-22.574-22.572
			C153.426,218.125,163.553,208,176,208c12.446,0,22.572,10.125,22.572,22.571C198.572,243.018,188.446,253.143,176,253.143z"/>
	</g>
</g>
<g>
</g>
<g>
</g>
<g>
</g>
<g>
</g>
<g>
</g>
<g>
</g>
<g>
</g>
<g>
</g>
<g>
</g>
<g>
</g>
<g>
</g>
<g>
</g>
<g>
</g>
<g>
</g>
<g>
</g>
</svg>
