<?xml version="1.0" encoding="iso-8859-1"?>
<!-- Generator: Adobe Illustrator 21.0.0, SVG Export Plug-In . SVG Version: 6.00 Build 0)  -->
<svg xmlns="http://www.w3.org/2000/svg" xmlns:xlink="http://www.w3.org/1999/xlink" version="1.1" id="Capa_1" x="0px" y="0px" viewBox="0 0 512.025 512.025" style="enable-background:new 0 0 512.025 512.025;" xml:space="preserve" width="512" height="512">
<g>
	<path d="M503.113,169.306c17.466-48.911,9.305-101.898-24.888-161.736c-2.67-4.674-7.641-7.558-13.023-7.558h-419.2   c-6.503,0-12.264,4.192-14.268,10.38c-2.004,6.187,0.209,12.962,5.478,16.775c0.702,0.508,31.138,22.8,63.979,56.658   c3.02,4.932,93.641,87.959,80.014,169.721c-16.604,99.622,28.042,164.581,68.419,201.531   c43.081,39.426,89.603,55.477,91.563,56.141c1.574,0.533,3.199,0.794,4.813,0.794c3.59,0,7.122-1.29,9.901-3.73   c4.027-3.538,5.861-8.956,4.81-14.212c-4.567-22.836-8.556-35.481-11.468-44.714c-4.591-14.556-6.896-21.862-6.896-57.076   c0-39.904,35.089-73.103,72.238-108.25C425.594,273.614,493.461,212.338,503.113,169.306z M393.967,262.238   c-20.575,19.466-40.008,37.852-55.075,58.223c-2.611,3.53-5.002,7.045-7.222,10.551h-75.667c-8.284,0-15,6.716-15,15   s6.716,14.8,15,14.8h61.317c-3.326,10.367-4.972,20.952-4.972,31.468c0,38.14,2.69,48.36,8.285,66.1   c1.149,3.641,2.41,7.641,3.784,12.502c-15.589-8.181-35.987-20.808-55.274-38.613c-47.138-43.517-67.32-97.719-60.1-161.257h46.96   c8.284,0,15-6.716,15-15c0-8.284-6.716-15-15-15h-43.486c0.813-25.021-5.225-51.492-18.037-78.938   c-10.771-23.073-26.372-46.933-46.442-71.063h47.965c8.284,0,15-6.716,15-15s-6.716-15-15-15h-75.093   c-11.638-11.915-22.885-22.371-32.701-31h368.166c24.572,45.657,31.402,84.634,21.117,121H317.873c-8.284,0-15,6.716-15,15   s6.716,14.8,15,14.8h146.984C447.873,211.03,420.539,237.098,393.967,262.238z"/>
	<path d="M203.322,424.531c-8.285-5.523-81.713-54.476-90-60c-5.038-3.358-11.603-3.358-16.641,0c-8.289,5.526-81.713,54.476-90,60   c-6.893,4.596-8.756,13.909-4.161,20.801c4.596,6.893,13.909,8.755,20.801,4.161l6.68-4.453v51.972c0,8.284,6.716,15,15,15h120   c8.284,0,15-6.716,15-15V445.04l6.68,4.453c6.893,4.595,16.205,2.733,20.801-4.161C212.078,438.44,210.215,429.127,203.322,424.531   z M150.002,482.012h-30v-15c0-8.284-6.716-15-15-15s-15,6.716-15,15v15h-30V425.04l45-30l45,30V482.012z"/>
</g>















</svg>
