<?xml version="1.0" encoding="iso-8859-1"?>
<!-- Generator: Adobe Illustrator 19.0.0, SVG Export Plug-In . SVG Version: 6.00 Build 0)  -->
<svg version="1.1" id="Capa_1" xmlns="http://www.w3.org/2000/svg" xmlns:xlink="http://www.w3.org/1999/xlink" x="0px" y="0px"
	 viewBox="0 0 464 464" style="enable-background:new 0 0 464 464;" xml:space="preserve">
<g>
	<g>
		<circle cx="292.563" cy="203.429" r="20"/>
	</g>
</g>
<g>
	<g>
		<circle cx="239.235" cy="266.285" r="5.712"/>
	</g>
</g>
<g>
	<g>
		<path d="M272,288c-18.914,0-34.289,15.375-34.289,34.286c0,18.91,15.375,34.285,34.289,34.285
			c18.91,0,34.285-15.375,34.285-34.285C306.285,303.375,290.91,288,272,288z M272,340.571c-10.084,0-18.289-8.203-18.289-18.285
			c0-10.083,8.205-18.286,18.289-18.286c10.082,0,18.285,8.203,18.285,18.286C290.285,332.368,282.082,340.571,272,340.571z"/>
	</g>
</g>
<g>
	<g>
		<circle cx="330.643" cy="279.757" r="5.712"/>
	</g>
</g>
<g>
	<g>
		<path d="M400,32c0,36.77-27.229,64-64,64c36.771,0,64,27.226,64,64c0-36.774,27.229-64,64-64C427.228,96,400,68.77,400,32z"/>
	</g>
</g>
<g>
	<g>
		<path d="M32,48c0,18.385-13.614,32-32,32c18.386,0,32,13.614,32,32c0-18.386,13.614-32,32-32C45.613,80,32,66.385,32,48z"/>
	</g>
</g>
<g>
	<g>
		<path d="M224,112c-88.366,0-160,71.634-160,160s71.634,160,160,160s160-71.634,160-160S312.365,112,224,112z M114,315.297
			c-3.156,0-5.715-2.558-5.715-5.715c0-3.155,2.558-5.714,5.715-5.714s5.715,2.558,5.715,5.714
			C119.714,312.738,117.156,315.297,114,315.297z M130.853,230.571c0-12.446,10.127-22.571,22.574-22.571
			c12.446,0,22.572,10.125,22.572,22.571c0,12.446-10.127,22.572-22.572,22.572C140.98,253.143,130.853,243.018,130.853,230.571z
			 M175.43,354.856c-6.313,0-11.43-5.117-11.43-11.428c0-6.311,5.117-11.429,11.43-11.429c6.31,0,11.428,5.117,11.428,11.429
			C186.857,349.739,181.74,354.856,175.43,354.856z M205.43,398.829c-3.156,0-5.715-2.558-5.715-5.714
			c0-3.156,2.558-5.715,5.715-5.715c3.154,0,5.713,2.558,5.713,5.715C211.142,396.27,208.584,398.829,205.43,398.829z
			 M255.867,395.898c-10.607,2.727-21.942-0.446-29.893-7.978C195.234,358.8,176,317.69,176,272c0-3.666,0.373-7.234,0.645-10.828
			c9.27-7.052,15.355-18.083,15.355-30.601c0-6.394-1.713-12.336-4.477-17.65c8.638-21.575,21.687-40.912,38.27-56.667
			c8.004-7.607,19.386-10.9,30.08-8.15C311.074,162.302,352,212.43,352,272C352,331.572,311.07,381.701,255.867,395.898z"/>
	</g>
</g>
<g>
</g>
<g>
</g>
<g>
</g>
<g>
</g>
<g>
</g>
<g>
</g>
<g>
</g>
<g>
</g>
<g>
</g>
<g>
</g>
<g>
</g>
<g>
</g>
<g>
</g>
<g>
</g>
<g>
</g>
</svg>
