<?xml version="1.0" encoding="iso-8859-1"?>
<!-- Generator: Adobe Illustrator 21.0.0, SVG Export Plug-In . SVG Version: 6.00 Build 0)  -->
<svg xmlns="http://www.w3.org/2000/svg" xmlns:xlink="http://www.w3.org/1999/xlink" version="1.1" id="Capa_1" x="0px" y="0px" viewBox="0 0 511.974 511.974" style="enable-background:new 0 0 511.974 511.974;" xml:space="preserve" width="512" height="512">
<g>
	<path d="M480.971,181h-46.509c-1.949-9.562-5.731-18.46-10.948-26.33l32.917-32.917c5.858-5.858,5.858-15.355,0-21.213   c-5.857-5.858-15.355-5.858-21.213,0L402.3,133.458c-7.869-5.218-16.768-9-26.33-10.948V76c0-8.284-6.716-15-15-15s-15,6.716-15,15   v46.509c-9.561,1.949-18.46,5.731-26.33,10.948l-32.917-32.917c-5.857-5.858-15.355-5.858-21.213,0   c-5.858,5.858-5.858,15.355,0,21.213l32.917,32.917c-5.218,7.869-9,16.768-10.948,26.33h-46.509c-8.284,0-15,6.716-15,15   s6.716,15,15,15h46.509c1.949,9.562,5.731,18.46,10.948,26.33l-32.917,32.917c-5.858,5.858-5.858,15.355,0,21.213   c5.857,5.858,15.356,5.858,21.213,0l32.917-32.917c7.869,5.218,16.768,9,26.33,10.948V316c0,8.284,6.716,15,15,15s15-6.716,15-15   v-46.509c9.561-1.949,18.46-5.731,26.33-10.948l32.917,32.917c5.857,5.858,15.356,5.858,21.213,0   c5.858-5.858,5.858-15.355,0-21.213l-32.917-32.917c5.218-7.869,9-16.768,10.948-26.33h46.509c8.284,0,15-6.716,15-15   S489.255,181,480.971,181z M360.971,241c-24.813,0-45-20.187-45-45s20.187-45,45-45s45,20.187,45,45S385.784,241,360.971,241z"/>
	<path d="M120.971,181c-8.284,0-15,6.716-15,15v168.58c-17.459,6.192-30,22.865-30,42.42c0,24.813,20.187,45,45,45s45-20.187,45-45   c0-19.555-12.541-36.228-30-42.42V196C135.971,187.716,129.255,181,120.971,181z M120.971,422c-8.271,0-15-6.729-15-15   s6.729-15,15-15s15,6.729,15,15S129.242,422,120.971,422z"/>
	<path d="M195.971,75c0-41.355-33.645-75-75-75s-75,33.645-75,75v258.975c-23.682,24.234-34.249,57.975-28.375,91.597   c7.436,42.558,42.245,77.429,84.65,84.8c6.18,1.074,12.37,1.603,18.518,1.603C179.296,511.97,225.971,464.764,225.971,407   c0-27.155-10.856-53.401-30-73.021V75z M107.384,480.814c-30.168-5.244-54.938-30.084-60.235-60.406   c-4.548-26.032,4.149-51.148,23.862-68.907c3.157-2.845,4.96-6.895,4.96-11.145V75c0-24.813,20.187-45,45-45s45,20.187,45,45v46   h-15c-8.284,0-15,6.716-15,15s6.716,15,15,15h15v30h-15c-8.284,0-15,6.716-15,15s6.716,15,15,15h15v30h-15c-8.284,0-15,6.716-15,15   s6.716,15,15,15h15v30h-15c-8.284,0-15,6.716-15,15s6.716,15,15,15h15v9.357c0,4.25,1.803,8.3,4.96,11.145   c16.147,14.547,25.04,34.256,25.04,55.499C195.971,452.273,155.522,489.181,107.384,480.814z"/>
</g>















</svg>
