<?xml version="1.0" encoding="iso-8859-1"?>
<!-- Generator: Adobe Illustrator 19.0.0, SVG Export Plug-In . SVG Version: 6.00 Build 0)  -->
<svg version="1.1" id="Capa_1" xmlns="http://www.w3.org/2000/svg" xmlns:xlink="http://www.w3.org/1999/xlink" x="0px" y="0px"
	 viewBox="0 0 464 464" style="enable-background:new 0 0 464 464;" xml:space="preserve">
<g>
	<g>
		<path d="M400,32c0,36.77-27.23,64-64,64c36.77,0,64,27.226,64,64c0-36.774,27.226-64,64-64C427.226,96,400,68.77,400,32z
			 M400,110.818c-4.238-5.602-9.215-10.582-14.82-14.818c5.606-4.238,10.582-9.216,14.82-14.819
			c4.238,5.603,9.215,10.582,14.82,14.819C409.215,100.236,404.238,105.216,400,110.818z"/>
	</g>
</g>
<g>
	<g>
		<path d="M32,48c0,18.385-13.614,32-32,32c18.386,0,32,13.614,32,32c0-18.386,13.614-32,32-32C45.614,80,32,66.385,32,48z"/>
	</g>
</g>
<g>
	<g>
		<circle cx="175.432" cy="343.427" r="11.432"/>
	</g>
</g>
<g>
	<g>
		<circle cx="114" cy="309.587" r="5.712"/>
	</g>
</g>
<g>
	<g>
		<path d="M159.715,192c-21.27,0-38.572,17.302-38.572,38.571c0,21.267,17.302,38.571,38.572,38.571s38.572-17.304,38.572-38.571
			C198.287,209.302,180.985,192,159.715,192z M159.715,253.142c-12.446,0-22.572-10.126-22.572-22.571
			c0-12.446,10.127-22.571,22.572-22.571s22.572,10.125,22.572,22.571C182.287,243.017,172.16,253.142,159.715,253.142z"/>
	</g>
</g>
<g>
	<g>
		<circle cx="208" cy="373.747" r="5.712"/>
	</g>
</g>
<g>
	<g>
		<path d="M224,112c-88.366,0-160,71.634-160,160s71.634,160,160,160s160-71.634,160-160S312.366,112,224,112z M224,382.735
			c0,9.692-8.598,17.346-18.194,15.975C143.813,389.851,96,336.404,96,272s47.813-117.853,109.806-126.711
			c9.596-1.372,18.194,6.282,18.194,15.975V382.735z M233.524,266.285c0-3.155,2.558-5.714,5.715-5.714s5.715,2.558,5.715,5.714
			c0,3.156-2.558,5.715-5.715,5.715S233.524,269.442,233.524,266.285z M272,356.571c-18.914,0-34.289-15.375-34.289-34.285
			C237.711,303.375,253.086,288,272,288c18.91,0,34.285,15.375,34.285,34.286C306.286,341.196,290.91,356.571,272,356.571z
			 M292.57,223.429c-11.043,0-20-8.955-20-20s8.957-20,20-20c11.047,0,20,8.955,20,20S303.618,223.429,292.57,223.429z
			 M330.668,285.496c-3.156,0-5.715-2.558-5.715-5.714c0-3.156,2.558-5.715,5.715-5.715c3.154,0,5.713,2.558,5.713,5.715
			C336.381,282.938,333.822,285.496,330.668,285.496z"/>
	</g>
</g>
<g>
	<g>
		<circle cx="272" cy="322.283" r="18.288"/>
	</g>
</g>
<g>
</g>
<g>
</g>
<g>
</g>
<g>
</g>
<g>
</g>
<g>
</g>
<g>
</g>
<g>
</g>
<g>
</g>
<g>
</g>
<g>
</g>
<g>
</g>
<g>
</g>
<g>
</g>
<g>
</g>
</svg>
