<?xml version="1.0" encoding="iso-8859-1"?>
<!-- Generator: Adobe Illustrator 21.0.0, SVG Export Plug-In . SVG Version: 6.00 Build 0)  -->
<svg xmlns="http://www.w3.org/2000/svg" xmlns:xlink="http://www.w3.org/1999/xlink" version="1.1" id="Capa_1" x="0px" y="0px" viewBox="0 0 512 512" style="enable-background:new 0 0 512 512;" xml:space="preserve" width="512" height="512">
<g>
	<path d="M106,301c24.813,0,45-20.187,45-45c0-4.627-0.702-9.127-2.061-13.454l52.136-39.102C208.216,208.213,216.788,211,226,211   c12.11,0,23.11-4.817,31.208-12.625l44.139,22.069C298.024,247.569,319.241,271,346,271c24.813,0,45-20.187,45-45   c0-6.761-1.474-13.256-4.362-19.321l60.894-60.112C453.427,149.407,460.031,151,467,151c24.813,0,45-20.187,45-45   c0-6.905-1.527-13.537-4.539-19.712c-0.15-0.308-0.311-0.611-0.482-0.908L480,38.516c-2.677-4.65-7.634-7.516-13-7.516   s-10.323,2.866-13,7.516c0,0-27.311,47.463-27.461,47.771C423.528,92.463,422,99.095,422,106c0,6.908,1.569,13.456,4.362,19.311   l-55.142,54.434L359,158.516c-2.677-4.65-7.634-7.516-13-7.516s-10.323,2.866-13,7.516l-19.764,34.332l-42.591-21.295   c0.225-1.821,0.355-3.671,0.355-5.552c0-6.906-1.528-13.539-4.541-19.714c-0.15-0.308-0.311-0.61-0.481-0.907L239,98.516   c-2.677-4.65-7.634-7.516-13-7.516s-10.323,2.866-13,7.516c0,0-27.311,47.463-27.461,47.771C182.528,152.463,181,159.095,181,166   c0,4.686,0.722,9.206,2.057,13.457l-48.383,36.287L119,188.516c-2.677-4.65-7.634-7.516-13-7.516s-10.323,2.866-13,7.516   c0,0-27.311,47.463-27.461,47.771C62.528,242.463,61,249.095,61,256C61,280.813,81.187,301,106,301z M453.322,99.825L467,76.065   l13.679,23.76C485.155,109.701,477.883,121,467,121C456.114,121,448.848,109.696,453.322,99.825z M346,196.065l13.679,23.76   C364.155,229.701,356.883,241,346,241c-10.886,0-18.152-11.304-13.679-21.175L346,196.065z M226,136.065l13.679,23.761   C244.155,169.701,236.882,181,226,181c-8.271,0-15-6.729-15-15C211,160.985,211.646,160.999,226,136.065z M92.322,249.825   L106,226.065c14.722,25.573,15,25.067,15,29.935c0,8.271-6.729,15-15,15C95.114,271,87.848,259.696,92.322,249.825z"/>
	<path d="M497,181h-60c-8.284,0-15,6.716-15,15v286h-31V316c0-8.284-6.716-15-15-15h-60c-8.284,0-15,6.716-15,15v166h-30V256   c0-8.284-6.716-15-15-15h-60c-8.284,0-15,6.716-15,15v226h-30V346c0-8.284-6.716-15-15-15H76c-8.284,0-15,6.716-15,15v136H30V15   c0-8.284-6.716-15-15-15S0,6.716,0,15v482c0,8.284,6.716,15,15,15l482,0c3.978,0,7.793-1.581,10.606-4.394S512,500.979,512,497V196   C512,187.716,505.284,181,497,181z M331,331h30v151h-30V331z M211,271h30v211h-30V271z M91,361h30v121H91V361z M482,482h-30V211h30   V482z"/>
</g>















</svg>
