<?xml version="1.0" encoding="iso-8859-1"?>
<!-- Generator: Adobe Illustrator 19.0.0, SVG Export Plug-In . SVG Version: 6.00 Build 0)  -->
<svg version="1.1" id="Capa_1" xmlns="http://www.w3.org/2000/svg" xmlns:xlink="http://www.w3.org/1999/xlink" x="0px" y="0px"
	 viewBox="0 0 464 464" style="enable-background:new 0 0 464 464;" xml:space="preserve">
<g>
	<g>
		<path d="M400,32c0,36.77-27.23,64-64,64c36.77,0,64,27.226,64,64c0-36.774,27.226-64,64-64C427.226,96,400,68.77,400,32z
			 M400,110.818c-4.238-5.602-9.215-10.582-14.82-14.818c5.606-4.238,10.582-9.216,14.82-14.819
			c4.238,5.603,9.215,10.582,14.82,14.819C409.215,100.237,404.238,105.216,400,110.818z"/>
	</g>
</g>
<g>
	<g>
		<path d="M32,48c0,18.385-13.614,32-32,32c18.386,0,32,13.614,32,32c0-18.386,13.614-32,32-32C45.614,80,32,66.385,32,48z"/>
	</g>
</g>
<g>
	<g>
		<circle cx="330.634" cy="279.747" r="5.712"/>
	</g>
</g>
<g>
	<g>
		<circle cx="292.57" cy="203.427" r="20"/>
	</g>
</g>
<g>
	<g>
		<circle cx="239.242" cy="266.283" r="5.712"/>
	</g>
</g>
<g>
	<g>
		<path d="M272,288c-18.914,0-34.289,15.375-34.289,34.286c0,18.91,15.375,34.285,34.289,34.285
			c18.91,0,34.285-15.375,34.285-34.285C306.286,303.375,290.91,288,272,288z M272,340.571c-10.09,0-18.289-8.2-18.289-18.285
			C253.711,312.201,261.91,304,272,304c10.086,0,18.285,8.2,18.285,18.286C290.286,332.371,282.086,340.571,272,340.571z"/>
	</g>
</g>
<g>
	<g>
		<path d="M224,112c-88.366,0-160,71.634-160,160s71.634,160,160,160s160-71.634,160-160S312.366,112,224,112z M114,315.297
			c-3.156,0-5.715-2.558-5.715-5.715c0-3.155,2.558-5.714,5.715-5.714s5.715,2.558,5.715,5.714
			C119.715,312.738,117.156,315.297,114,315.297z M175.43,354.857c-6.313,0-11.43-5.117-11.43-11.428
			c0-6.311,5.117-11.429,11.43-11.429c6.31,0,11.428,5.117,11.428,11.429C186.858,349.739,181.74,354.857,175.43,354.857z
			 M159.715,269.142c-21.27,0-38.572-17.304-38.572-38.571c0-21.27,17.302-38.571,38.572-38.571s38.572,17.302,38.572,38.571
			C198.287,251.839,180.985,269.142,159.715,269.142z M205.43,398.83c-3.156,0-5.715-2.558-5.715-5.714
			c0-3.156,2.558-5.715,5.715-5.715c3.154,0,5.713,2.558,5.713,5.715C211.142,396.27,208.584,398.83,205.43,398.83z
			 M242.194,398.711c-9.596,1.371-18.194-6.283-18.194-15.975V161.265c0-9.694,8.598-17.348,18.194-15.975
			C304.188,154.148,352,207.596,352,272.001S304.187,389.852,242.194,398.711z"/>
	</g>
</g>
<g>
	<g>
		<circle cx="159.714" cy="230.547" r="22.568"/>
	</g>
</g>
<g>
</g>
<g>
</g>
<g>
</g>
<g>
</g>
<g>
</g>
<g>
</g>
<g>
</g>
<g>
</g>
<g>
</g>
<g>
</g>
<g>
</g>
<g>
</g>
<g>
</g>
<g>
</g>
<g>
</g>
</svg>
