<?xml version="1.0" encoding="iso-8859-1"?>
<!-- Generator: Adobe Illustrator 21.0.0, SVG Export Plug-In . SVG Version: 6.00 Build 0)  -->
<svg xmlns="http://www.w3.org/2000/svg" xmlns:xlink="http://www.w3.org/1999/xlink" version="1.1" id="Capa_1" x="0px" y="0px" viewBox="0 0 512 512" style="enable-background:new 0 0 512 512;" xml:space="preserve" width="512" height="512">
<g>
	<path d="M476.609,395.391l-59.997-59.998c-5.857-5.858-15.355-5.858-21.213,0c-5.858,5.858-5.858,15.355,0,21.213L429.792,391   H301.005v-30.838c67.406-7.486,120-64.793,120-134.162v-75h15c8.284,0,15-6.716,15-15s-6.716-15-15-15h-15v-15   c0-6.938-1.581-13.515-4.398-19.389l30.004-30.004c5.858-5.858,5.858-15.355,0-21.213c-5.857-5.858-15.355-5.858-21.213,0   l-30.004,30.004c-1.423-0.682-2.889-1.286-4.389-1.818V15c0-8.284-6.716-15-15-15s-15,6.716-15,15v48.58   c-1.5,0.532-2.967,1.136-4.389,1.818l-30.004-30.004c-5.857-5.858-15.355-5.858-21.213,0c-5.858,5.858-5.858,15.355,0,21.213   l30.004,30.004c-2.817,5.875-4.398,12.451-4.398,19.389v105h-90.838c-7.486-67.405-64.793-120-134.162-120h-30   c-8.284,0-15,6.716-15,15v120c0,8.284,6.716,15,15,15h75.838c6.939,62.479,56.683,112.223,119.162,119.162V391h-95.73   l-25.854-51.708c-2.541-5.082-7.735-8.292-13.417-8.292h-90c-5.199,0-10.027,2.692-12.76,7.114   c-2.733,4.422-2.981,9.944-0.657,14.594L51.735,391h-5.729c-8.284,0-15,6.716-15,15s6.716,15,15,15h5.729l-19.146,38.292   c-2.325,4.649-2.076,10.172,0.657,14.594c2.733,4.422,7.561,7.114,12.76,7.114h90c5.682,0,10.875-3.21,13.417-8.292L175.276,421   h95.73v61h-15c-8.284,0-15,6.716-15,15s6.716,15,15,15h60c8.284,0,15-6.716,15-15s-6.716-15-15-15h-15v-61h128.787l-34.393,34.394   c-5.858,5.858-5.858,15.355,0,21.213c5.857,5.858,15.356,5.858,21.213,0l59.997-59.998   C482.4,410.82,482.514,401.294,476.609,395.391z M361.005,106c0-8.271,6.729-15,15-15s15,6.729,15,15v105h-30V106z M328.425,241   c-6.192,17.458-22.865,30-42.42,30s-36.228-12.542-42.42-30H328.425z M91.005,121h15c52.805,0,96.631,39.183,103.932,90h-30.438   c-6.969-34.191-37.274-60-73.493-60h-15V121z M91.005,211v-30h15c19.556,0,36.239,12.539,42.43,30H91.005z M182.074,241h30.441   c6.968,34.192,37.272,60,73.491,60s66.522-26.008,73.491-60.2h30.441c-7.3,50.817-51.126,90.2-103.932,90.2   S189.374,291.817,182.074,241z M70.276,361h56.459l15,30H85.276L70.276,361z M126.735,451H70.276l15-30h56.459L126.735,451z"/>
</g>















</svg>
