<?xml version="1.0" encoding="iso-8859-1"?>
<!-- Generator: Adobe Illustrator 19.0.0, SVG Export Plug-In . SVG Version: 6.00 Build 0)  -->
<svg version="1.1" id="Capa_1" xmlns="http://www.w3.org/2000/svg" xmlns:xlink="http://www.w3.org/1999/xlink" x="0px" y="0px"
	 viewBox="0 0 464 464" style="enable-background:new 0 0 464 464;" xml:space="preserve">
<g>
	<g>
		<circle cx="285.909" cy="343.449" r="18.288"/>
	</g>
</g>
<g>
	<g>
		<path d="M224,112c-88.366,0-160,71.634-160,160c0,88.366,71.634,160,160,160s160-71.634,160-160C384,183.634,312.365,112,224,112z
			 M292.57,183.429c11.047,0,20,8.955,20,20s-8.953,20-20,20c-11.043,0-20-8.955-20-20S281.527,183.429,292.57,183.429z
			 M114,315.297c-3.156,0-5.715-2.558-5.715-5.715c0-3.155,2.558-5.714,5.715-5.714s5.715,2.558,5.715,5.714
			C119.714,312.738,117.156,315.297,114,315.297z M175.43,354.857c-6.313,0-11.43-5.117-11.43-11.428S169.117,332,175.43,332
			c6.31,0,11.428,5.117,11.428,11.429C186.857,349.739,181.74,354.857,175.43,354.857z M159.714,276.285
			c-25.215,0-45.715-20.5-45.715-45.714c0-25.214,20.5-45.714,45.715-45.714c25.215,0,45.715,20.5,45.715,45.714
			C205.43,255.785,184.93,276.285,159.714,276.285z M205.43,398.829c-3.156,0-5.715-2.558-5.715-5.714
			c0-3.156,2.558-5.715,5.715-5.715c3.154,0,5.713,2.558,5.713,5.715C211.142,396.27,208.584,398.829,205.43,398.829z
			 M227.808,170.571c-3.154,0-5.713-2.558-5.713-5.715c0-3.155,2.558-5.714,5.713-5.714c3.156,0,5.715,2.558,5.715,5.714
			C233.523,168.013,230.965,170.571,227.808,170.571z M239.238,272c-3.156,0-5.715-2.558-5.715-5.715
			c0-3.155,2.558-5.714,5.715-5.714s5.715,2.558,5.715,5.714C244.953,269.442,242.394,272,239.238,272z M285.906,377.714
			c-18.914,0-34.289-15.375-34.289-34.285c0-18.911,15.375-34.286,34.289-34.286c18.91,0,34.285,15.375,34.285,34.286
			C320.191,362.339,304.816,377.714,285.906,377.714z M330.668,285.496c-3.156,0-5.715-2.558-5.715-5.714
			c0-3.156,2.558-5.715,5.715-5.715c3.154,0,5.713,2.558,5.713,5.715C336.381,282.938,333.822,285.496,330.668,285.496z"/>
	</g>
</g>
<g>
	<g>
		<circle cx="159.717" cy="230.569" r="29.712"/>
	</g>
</g>
<g>
	<g>
		<path d="M400,32c0,36.77-27.229,64-64,64c36.771,0,64,27.226,64,64c0-36.774,27.229-64,64-64C427.228,96,400,68.77,400,32z"/>
	</g>
</g>
<g>
	<g>
		<path d="M32,48c0,18.385-13.614,32-32,32c18.386,0,32,13.614,32,32c0-18.386,13.614-32,32-32C45.613,80,32,66.385,32,48z"/>
	</g>
</g>
<g>
</g>
<g>
</g>
<g>
</g>
<g>
</g>
<g>
</g>
<g>
</g>
<g>
</g>
<g>
</g>
<g>
</g>
<g>
</g>
<g>
</g>
<g>
</g>
<g>
</g>
<g>
</g>
<g>
</g>
</svg>
