<?xml version="1.0" encoding="iso-8859-1"?>
<!-- Generator: Adobe Illustrator 21.0.0, SVG Export Plug-In . SVG Version: 6.00 Build 0)  -->
<svg xmlns="http://www.w3.org/2000/svg" xmlns:xlink="http://www.w3.org/1999/xlink" version="1.1" id="Capa_1" x="0px" y="0px" viewBox="0 0 512 512" style="enable-background:new 0 0 512 512;" xml:space="preserve" width="512" height="512">
<g>
	<path d="M450.925,310.656c0-0.144-0.009-0.286-0.013-0.429c-1.162-40.416-14.517-78.727-38.798-111.1L268.026,6.029   C265.195,2.235,260.739,0,256.004,0s-9.191,2.235-12.022,6.029L99.917,199.098C74.46,233.039,61.004,273.463,61.004,316   c0,108.075,87.477,196,195,196C365.207,512,453.864,421.269,450.925,310.656z M123.939,217.068L256.004,40.082l132.087,177.017   c20.194,26.924,31.459,58.68,32.781,92.216c-3.282,13.271-15.29,22.751-29.119,22.751c-16.542,0-30-13.458-30-30   c0-8.284-6.716-15-15-15s-15,6.716-15,15c0,16.542-13.458,30-30,30s-30-13.458-30-30c0-8.284-6.716-15-15-15s-15,6.716-15,15   c0,16.542-13.458,30-30,30s-30-13.458-30-30c0-8.284-6.716-15-15-15s-15,6.716-15,15c0,16.542-13.458,30-30,30s-30-13.458-30-30   c0-0.412-0.029-0.817-0.062-1.221C94.436,270.441,105.434,241.741,123.939,217.068z M256.004,482   c-77.204,0-142.183-53.625-160.096-125.794c7.831,3.753,16.596,5.86,25.845,5.86c17.901,0,33.997-7.881,45-20.354   c11.003,12.473,27.099,20.354,45,20.354s33.997-7.881,45-20.354c11.003,12.473,27.099,20.354,45,20.354s33.997-7.881,45-20.354   c11.003,12.473,27.099,20.354,45,20.354c8.538,0,16.723-1.821,24.162-5.105C397.74,428.75,332.939,482,256.004,482z"/>
</g>















</svg>
