<?xml version="1.0" encoding="iso-8859-1"?>
<!-- Generator: Adobe Illustrator 19.0.0, SVG Export Plug-In . SVG Version: 6.00 Build 0)  -->
<svg version="1.1" id="Capa_1" xmlns="http://www.w3.org/2000/svg" xmlns:xlink="http://www.w3.org/1999/xlink" x="0px" y="0px"
	 viewBox="0 0 448 448" style="enable-background:new 0 0 448 448;" xml:space="preserve">
<g>
	<g>
		<path d="M240.144,257.088V80.191c0-44.288-35.73-80.191-80.05-80.191c-44.285,0-79.965,34.496-79.965,78.784V256
			C60.382,276.256,48,305.279,48,335.808C48,397.745,98.258,448,160.258,448c61.965,0,112.254-50.256,112.254-112.192
			C272.511,305.121,260.015,277.376,240.144,257.088z M160.258,416C116.004,416,80,380.026,80,335.808
			c0-21.186,8.614-42.67,23.043-57.47l9.086-9.32v-13.017V78.785c0-26.234,21.07-46.784,47.965-46.784
			c26.496,0,48.05,21.618,48.05,48.191v176.897v13.061l9.141,9.33c14.977,15.293,23.226,35.298,23.226,56.328
			C240.511,380.026,204.511,416,160.258,416z"/>
	</g>
</g>
<g>
	<g>
		<polygon points="351.742,64.128 304,128.128 335.871,128.128 335.871,192 367.871,192 367.871,128.128 400,128.128 		"/>
	</g>
</g>
<g>
	<g>
		<path d="M176.254,289.884c0-75.214,0-59.004,0-145.884h-32c0,87.016,0,70.554,0,145.886c-16.004,9.311-32,20.244-32,45.922
			c0,26.466,21.531,48,48,48s48-21.534,48-48C208.254,310.132,192.258,299.198,176.254,289.884z"/>
	</g>
</g>
<g>
</g>
<g>
</g>
<g>
</g>
<g>
</g>
<g>
</g>
<g>
</g>
<g>
</g>
<g>
</g>
<g>
</g>
<g>
</g>
<g>
</g>
<g>
</g>
<g>
</g>
<g>
</g>
<g>
</g>
</svg>
