<?xml version="1.0" encoding="iso-8859-1"?>
<!-- Generator: Adobe Illustrator 21.0.0, SVG Export Plug-In . SVG Version: 6.00 Build 0)  -->
<svg xmlns="http://www.w3.org/2000/svg" xmlns:xlink="http://www.w3.org/1999/xlink" version="1.1" id="Capa_1" x="0px" y="0px" viewBox="0 0 512 512" style="enable-background:new 0 0 512 512;" xml:space="preserve" width="512" height="512">
<g>
	<path d="M316,60c8.284,0,15-6.716,15-15V15c0-8.284-6.716-15-15-15s-15,6.716-15,15v30C301,53.284,307.716,60,316,60z"/>
	<path d="M466,151h-30c-8.284,0-15,6.716-15,15s6.716,15,15,15h30c8.284,0,15-6.716,15-15S474.284,151,466,151z"/>
	<path d="M411.459,91.754l21.214-21.213c5.858-5.858,5.858-15.355,0-21.213c-5.857-5.858-15.355-5.858-21.213,0L390.246,70.54   c-5.858,5.858-5.858,15.355,0,21.213C396.103,97.612,405.601,97.612,411.459,91.754z"/>
	<path d="M220.54,91.754c5.859,5.859,15.356,5.857,21.213,0c5.858-5.858,5.858-15.355,0-21.213l-21.212-21.213   c-5.858-5.858-15.355-5.858-21.213,0c-5.858,5.858-5.858,15.355,0,21.213L220.54,91.754z"/>
	<path d="M383.746,198.123C388.47,188.136,391,177.138,391,166c0-41.355-33.645-75-75-75c-25.561,0-48.864,12.835-62.574,33.614   C244.642,122.257,235.443,121,226,121c-41.346,0-78.098,23.849-95.163,60.534C127.578,181.179,124.293,181,121,181   c-49.626,0-90,40.374-90,90s40.374,90,90,90h210c49.626,0,90-40.374,90-90C421,241.061,406.302,214.494,383.746,198.123z M316,121   c24.813,0,45,20.187,45,45c0,6.611-1.404,12.971-4.097,18.805C348.696,182.334,340.001,181,331,181   c-3.294,0-6.578,0.179-9.837,0.534c-8.706-18.719-22.544-34.082-39.495-44.653C290.069,126.962,302.508,121,316,121z M331,331H121   c-33.084,0-60-26.916-60-60s26.916-60,60-60c5.238,0,10.43,0.673,15.434,2c7.722,2.048,15.692-2.314,18.129-9.92   C164.547,171.929,193.256,151,226,151c32.257,0,61.314,20.499,71.438,52.08c2.438,7.605,10.402,11.968,18.13,9.92   c5.003-1.327,10.194-2,15.433-2c33.084,0,60,26.916,60,60S364.084,331,331,331z"/>
	<path d="M346,422c-8.284,0-15,6.716-15,15s6.716,15,15,15c8.271,0,15,6.729,15,15s-6.729,15-15,15h-90c-8.284,0-15,6.716-15,15   s6.716,15,15,15h90c24.813,0,45-20.187,45-45S370.813,422,346,422z"/>
	<path d="M196,392c-8.284,0-15,6.716-15,15s6.716,15,15,15c8.271,0,15,6.729,15,15s-6.729,15-15,15H76c-8.284,0-15,6.716-15,15   s6.716,15,15,15h120c24.813,0,45-20.187,45-45S220.813,392,196,392z"/>
	<path d="M76,422h60c8.284,0,15-6.716,15-15s-6.716-15-15-15H76c-8.284,0-15,6.716-15,15S67.716,422,76,422z"/>
</g>















</svg>
