<?xml version="1.0" encoding="iso-8859-1"?>
<!-- Generator: Adobe Illustrator 19.0.0, SVG Export Plug-In . SVG Version: 6.00 Build 0)  -->
<svg version="1.1" id="Capa_1" xmlns="http://www.w3.org/2000/svg" xmlns:xlink="http://www.w3.org/1999/xlink" x="0px" y="0px"
	 viewBox="0 0 448.001 448.001" style="enable-background:new 0 0 448.001 448.001;" xml:space="preserve">
<g>
	<g>
		<path d="M446.406,173.187l-20.746-12.448c-10.266-6.159-12.981-19.827-5.855-29.446l14.402-19.438
			c1.477-1.99,0.297-4.833-2.152-5.198l-23.93-3.562c-11.844-1.762-19.586-13.348-16.68-24.962l5.867-23.47
			c0.602-2.402-1.574-4.578-3.977-3.978l-23.477,5.868c-11.61,2.903-23.195-4.838-24.957-16.678l-3.562-23.932
			c-0.363-2.45-3.207-3.627-5.199-2.152l-19.438,14.403c-9.617,7.127-23.285,4.408-29.446-5.857L274.812,1.593
			c-1.274-2.124-4.351-2.124-5.625,0l-12.45,20.746c-6.16,10.265-19.824,12.983-29.442,5.857l-19.442-14.403
			c-1.988-1.474-4.832-0.297-5.199,2.152l-3.539,23.796c5.734,12.317,9.027,25.99,9.027,40.451v3.859
			c18.121-12.61,40.106-20.052,63.855-20.052c61.855,0,112,50.143,112,111.999s-50.145,111.999-112,111.999
			c-16.242,0-31.641-3.534-45.57-9.754c6.578,13.042,11.133,26.996,12.965,41.59c6.828,0.021,13.527,3.465,17.344,9.824
			l12.45,20.748c1.274,2.123,4.351,2.123,5.625,0l12.446-20.747c6.16-10.266,19.828-12.983,29.446-5.857l19.438,14.403
			c1.992,1.474,4.836,0.297,5.199-2.152l3.562-23.932c1.762-11.84,13.348-19.582,24.961-16.678l23.473,5.868
			c2.402,0.601,4.578-1.576,3.977-3.978l-5.867-23.472c-2.906-11.614,4.836-23.199,16.68-24.961l23.93-3.562
			c2.45-0.364,3.629-3.207,2.152-5.198l-14.402-19.439c-7.128-9.616-4.41-23.282,5.856-29.442l20.746-12.448
			C448.531,177.538,448.531,174.461,446.406,173.187z"/>
	</g>
</g>
<g>
	<g>
		<path d="M192.145,257.089V80.192c0-44.288-35.73-80.191-80.05-80.191c-44.285,0-79.965,34.496-79.965,78.784v177.216
			C12.383,276.257,0.001,305.28,0.001,335.809c0,61.937,50.258,112.192,112.258,112.192c61.965,0,112.254-50.256,112.254-112.192
			C224.512,305.122,212.016,277.377,192.145,257.089z M112.258,416C68.005,416,32,380.026,32,335.808
			c0-21.186,8.614-42.67,23.043-57.47l9.086-9.32v-13.017V78.785c0-26.234,21.07-46.784,47.965-46.784
			c26.496,0,48.05,21.618,48.05,48.191v176.897v13.061l9.141,9.33c14.977,15.293,23.227,35.298,23.227,56.328
			C192.512,380.026,156.512,416,112.258,416z"/>
	</g>
</g>
<g>
	<g>
		<path d="M128.255,289.884c0-75.214,0-59.004,0-145.884h-32c0,87.016,0,70.554,0,145.886c-16.004,9.311-32,20.244-32,45.922
			c0,26.466,21.531,48,48,48s48-21.534,48-48C160.255,310.132,144.258,299.198,128.255,289.884z"/>
	</g>
</g>
<g>
</g>
<g>
</g>
<g>
</g>
<g>
</g>
<g>
</g>
<g>
</g>
<g>
</g>
<g>
</g>
<g>
</g>
<g>
</g>
<g>
</g>
<g>
</g>
<g>
</g>
<g>
</g>
<g>
</g>
</svg>
