<?xml version="1.0" encoding="iso-8859-1"?>
<!-- Generator: Adobe Illustrator 21.0.0, SVG Export Plug-In . SVG Version: 6.00 Build 0)  -->
<svg xmlns="http://www.w3.org/2000/svg" xmlns:xlink="http://www.w3.org/1999/xlink" version="1.1" id="Capa_1" x="0px" y="0px" viewBox="0 0 512.001 512.001" style="enable-background:new 0 0 512.001 512.001;" xml:space="preserve" width="512" height="512">
<g>
	<path d="M316.001,60c8.284,0,15-6.716,15-15V15c0-8.284-6.716-15-15-15s-15,6.716-15,15v30C301.001,53.284,307.716,60,316.001,60z"/>
	<path d="M466.001,151h-30c-8.284,0-15,6.716-15,15s6.716,15,15,15h30c8.284,0,15-6.716,15-15S474.285,151,466.001,151z"/>
	<path d="M411.46,91.754l21.214-21.213c5.858-5.858,5.858-15.355,0-21.213c-5.857-5.858-15.355-5.858-21.213,0l-21.214,21.213   c-5.858,5.858-5.858,15.355,0,21.213C396.103,97.611,405.601,97.612,411.46,91.754z"/>
	<path d="M220.541,91.754c5.857,5.858,15.354,5.858,21.213,0c5.858-5.858,5.858-15.355,0-21.213l-21.213-21.213   c-5.857-5.858-15.354-5.858-21.213,0c-5.858,5.858-5.858,15.355,0,21.213L220.541,91.754z"/>
	<path d="M383.747,198.124c4.724-9.987,7.254-20.985,7.254-32.124c0-41.355-33.645-75-75-75c-25.561,0-48.865,12.835-62.574,33.614   c-8.784-2.356-17.982-3.614-27.426-3.614c-41.346,0-78.098,23.848-95.163,60.534c-3.259-0.355-6.543-0.534-9.837-0.534   c-49.626,0-90,40.374-90,90s40.374,90,90,90h24.507l-22.37,37.282c-2.78,4.634-2.854,10.406-0.191,15.108   c2.663,4.703,7.649,7.61,13.053,7.61h75v76c0,8.299,6.74,15.003,15,15.001c5.188,0,10.13-2.701,12.884-7.322L324.522,361h6.478   c49.626,0,90-40.374,90-90C421.001,241.061,406.302,214.494,383.747,198.124z M316.001,121c24.813,0,45,20.187,45,45   c0,6.611-1.404,12.971-4.098,18.805c-8.207-2.471-16.901-3.805-25.902-3.805c-3.294,0-6.578,0.179-9.837,0.534   c-8.706-18.719-22.544-34.082-39.495-44.653C290.069,126.962,302.509,121,316.001,121z M241.001,442.536V406   c0-8.284-6.716-15-15-15h-63.507l48.507-80.845V346c0,8.284,6.716,15,15,15h63.598L241.001,442.536z M331.001,331   c-9.395,0-79.845,0-90,0v-75c0-6.742-4.499-12.656-10.996-14.456c-6.496-1.8-13.398,0.957-16.866,6.738L163.508,331h-42.507   c-33.084,0-60-26.916-60-60s26.916-60,60-60c5.238,0,10.43,0.673,15.434,2c7.722,2.047,15.692-2.314,18.129-9.92   c9.984-31.15,38.693-52.079,71.437-52.079c10.027,0,19.671,1.971,28.52,5.589c0.105,0.047,0.203,0.104,0.31,0.148   c0.148,0.062,0.299,0.104,0.448,0.161c19.691,8.304,35.319,24.843,42.16,46.182c2.438,7.605,10.402,11.968,18.13,9.92   c5.003-1.327,10.194-2,15.433-2c33.084,0,60,26.916,60,60S364.085,331,331.001,331z"/>
</g>















</svg>
