<?xml version="1.0" encoding="iso-8859-1"?>
<!-- Generator: Adobe Illustrator 19.0.0, SVG Export Plug-In . SVG Version: 6.00 Build 0)  -->
<svg version="1.1" id="Capa_1" xmlns="http://www.w3.org/2000/svg" xmlns:xlink="http://www.w3.org/1999/xlink" x="0px" y="0px"
	 viewBox="0 0 448 448" style="enable-background:new 0 0 448 448;" xml:space="preserve">
<g>
	<g>
		<path d="M303.89,257.087V80.191C303.89,35.903,268.156,0,223.836,0c-44.282,0-79.961,34.496-79.961,78.784V256
			c-19.75,20.256-32.133,49.279-32.133,79.808C111.742,397.745,162,448,224,448c61.969,0,112.258-50.256,112.258-112.192
			C336.258,305.12,323.758,277.375,303.89,257.087z M224,416c-44.25,0-80.258-35.974-80.258-80.192
			c0-21.186,8.617-42.67,23.047-57.47l9.086-9.32V256V78.784c0-26.234,21.07-46.784,47.961-46.784
			c26.5,0,48.054,21.618,48.054,48.191v176.897v13.061l9.141,9.33c14.977,15.294,23.226,35.299,23.226,56.329
			C304.258,380.025,268.258,416,224,416z"/>
	</g>
</g>
<g>
	<g>
		<path d="M240,289.883c0-75.214,0-59.004,0-145.884h-32c0,87.016,0,70.554,0,145.886c-16.004,9.311-32,20.244-32,45.922
			c0,26.466,21.531,48,48,48s48-21.534,48-48C272,310.131,256.004,299.197,240,289.883z"/>
	</g>
</g>
<g>
</g>
<g>
</g>
<g>
</g>
<g>
</g>
<g>
</g>
<g>
</g>
<g>
</g>
<g>
</g>
<g>
</g>
<g>
</g>
<g>
</g>
<g>
</g>
<g>
</g>
<g>
</g>
<g>
</g>
</svg>
