<?xml version="1.0" encoding="iso-8859-1"?>
<!-- Generator: Adobe Illustrator 21.0.0, SVG Export Plug-In . SVG Version: 6.00 Build 0)  -->
<svg xmlns="http://www.w3.org/2000/svg" xmlns:xlink="http://www.w3.org/1999/xlink" version="1.1" id="Capa_1" x="0px" y="0px" viewBox="0 0 512 512" style="enable-background:new 0 0 512 512;" xml:space="preserve" width="512" height="512">
<g>
	<path d="M441.656,227.26c-5.095-2.536-11.184-1.973-15.726,1.456C415.285,236.752,402.86,241,390,241c-33.084,0-60-26.916-60-60   c0-12.861,4.248-25.285,12.285-35.931c3.429-4.541,3.992-10.631,1.455-15.725c-2.307-4.633-6.817-7.715-11.896-8.235   C331.222,121.036,330.614,121,330,121c-66.168,0-120,53.832-120,120c0,0.355,0.01,0.71,0.013,1.065   C205.097,241.365,200.083,241,195,241c-41.346,0-78.098,23.848-95.163,60.534C96.578,301.179,93.293,301,90,301   c-49.626,0-90,40.374-90,90s40.374,90,90,90h210c49.626,0,90-40.374,90-90c0-14.735-3.56-28.655-9.864-40.944   C422.095,330.764,450,288.4,450,241c0-0.613-0.036-1.22-0.109-1.842C449.371,234.079,446.289,229.567,441.656,227.26z M300,451H90   c-33.084,0-60-26.916-60-60s26.916-60,60-60c5.238,0,10.43,0.673,15.434,2c7.722,2.048,15.692-2.314,18.129-9.92   C133.547,291.929,162.256,271,195,271c32.501,0,61.388,20.726,71.438,52.08c2.438,7.606,10.405,11.969,18.13,9.92   c5.003-1.327,10.194-2,15.433-2c33.084,0,60,26.916,60,60S333.084,451,300,451z M361.486,325.343   C345.385,310.255,323.754,301,300,301c-3.294,0-6.578,0.179-9.837,0.534c-10.371-22.296-28.023-39.836-49.55-50.177   c-0.392-3.43-0.613-6.89-0.613-10.357c0-40.579,26.991-74.97,63.966-86.162C301.345,163.266,300,172.053,300,181   c0,49.626,40.374,90,90,90c8.944,0,17.727-1.343,26.151-3.962C408.109,293.608,388.042,315.445,361.486,325.343z"/>
	<path d="M497,91c-24.813,0-45-20.187-45-45c0-8.284-6.716-15-15-15s-15,6.716-15,15c0,24.813-20.187,45-45,45   c-8.284,0-15,6.716-15,15s6.716,15,15,15c24.813,0,45,20.187,45,45c0,8.284,6.716,15,15,15s15-6.716,15-15   c0-24.813,20.187-45,45-45c8.284,0,15-6.716,15-15S505.284,91,497,91z M437,121.047c-4.279-5.697-9.35-10.768-15.047-15.047   c5.697-4.279,10.768-9.35,15.047-15.047c4.279,5.697,9.35,10.768,15.047,15.047C446.35,110.279,441.279,115.35,437,121.047z"/>
</g>















</svg>
