<?xml version="1.0" encoding="iso-8859-1"?>
<!-- Generator: Adobe Illustrator 19.0.0, SVG Export Plug-In . SVG Version: 6.00 Build 0)  -->
<svg version="1.1" id="Capa_1" xmlns="http://www.w3.org/2000/svg" xmlns:xlink="http://www.w3.org/1999/xlink" x="0px" y="0px"
	 viewBox="0 0 461.946 461.946" style="enable-background:new 0 0 461.946 461.946;" xml:space="preserve">
<g>
	<g>
		<path d="M374.124,182.958l37.234-64.453c2.86-4.946,2.86-11.047,0-16.001c-2.859-4.953-8.141-8-13.859-8h-74.438l-37.203-64.453
			c-5.718-9.906-22-9.906-27.718,0l-37.203,64.453h-12.793v32h12.785l23.355,40.464l-36.141-0.007v32l36.141,0.007l-23.355,40.45
			h-12.785v9.785l49.996,86.668c2.859,4.953,8.141,8,13.859,8s11-3.047,13.859-8l37.203-64.453h74.438c5.718,0,11-3.047,13.859-8
			c2.859-4.953,2.859-11.054,0-16L374.124,182.958z M271.999,295.871l-23.351-40.452l23.351-40.442l23.351,40.442L271.999,295.871z
			 M271.999,150.961l-23.351-40.457l23.351-40.453l23.351,40.453L271.999,150.961z M323.07,239.418l-23.351-40.446h46.707
			l23.355,40.446H323.07z M346.406,166.973H299.71l23.359-40.469h46.711L346.406,166.973z"/>
	</g>
</g>
<g>
	<g>
		<circle cx="358.927" cy="333.621" r="16"/>
	</g>
</g>
<g>
	<g>
		<circle cx="445.943" cy="182.979" r="16"/>
	</g>
</g>
<g>
	<g>
		<circle cx="358.97" cy="32.36" r="16"/>
	</g>
</g>
<g>
	<g>
		<path d="M192.144,264.061V87.164h0c0-14.492-4.125-27.898-10.828-39.63c1.313,0.348,2.59,0.81,4.012,0.81c8.836,0,16-7.164,16-16
			c0-8.837-7.164-16-16-16c-8.508,0-15.301,6.686-15.813,15.061c-14.535-15.023-34.82-24.432-57.422-24.432
			c-44.285,0-79.965,34.496-79.965,78.784v177.216C12.382,283.229,0,312.252,0,342.781c0,61.937,50.258,112.192,112.258,112.192
			c61.965,0,112.254-50.256,112.254-112.192C224.511,312.094,212.015,284.349,192.144,264.061z M112.258,422.973
			c-44.254,0-80.258-35.974-80.258-80.192c0-33.293,16.523-50.786,32.129-66.791c0-111.834,0-80.474,0-190.233
			c0-26.234,21.07-46.784,47.965-46.784c26.496,0,48.05,21.618,48.05,48.191c0,109.358,0,78.366,0,189.957
			c15.677,16.002,32.368,32.744,32.368,65.66C192.511,386.998,156.511,422.973,112.258,422.973z"/>
	</g>
</g>
<g>
	<g>
		<path d="M127.999,296.857c0-75.214,0-59.004,0-145.884h-32c0,87.016,0,70.554,0,145.886c-16.004,9.311-32,20.244-32,45.922
			c0,26.466,21.531,48,48,48c26.469,0,48-21.534,48-48C159.999,317.105,144.003,306.17,127.999,296.857z"/>
	</g>
</g>
<g>
</g>
<g>
</g>
<g>
</g>
<g>
</g>
<g>
</g>
<g>
</g>
<g>
</g>
<g>
</g>
<g>
</g>
<g>
</g>
<g>
</g>
<g>
</g>
<g>
</g>
<g>
</g>
<g>
</g>
</svg>
