<?xml version="1.0" encoding="iso-8859-1"?>
<!-- Generator: Adobe Illustrator 21.0.0, SVG Export Plug-In . SVG Version: 6.00 Build 0)  -->
<svg xmlns="http://www.w3.org/2000/svg" xmlns:xlink="http://www.w3.org/1999/xlink" version="1.1" id="Capa_1" x="0px" y="0px" viewBox="0 0 512.002 512.002" style="enable-background:new 0 0 512.002 512.002;" xml:space="preserve" width="512" height="512">
<g>
	<path d="M496.016,150c0-49.626-40.374-90-90-90c-3.294,0-6.578,0.179-9.837,0.534C379.116,23.844,342.364,0,301.016,0   c-41.346,0-78.098,23.848-95.163,60.534C202.594,60.179,199.31,60,196.016,60c-49.626,0-90,40.374-90,90   c0,11.532,2.159,22.72,6.309,33.171c-38.168,10.426-66.309,45.4-66.309,86.829c0,27.357,12.273,51.899,31.598,68.419   l-30.052,60.947c-3.664,7.43-0.61,16.424,6.82,20.087c7.431,3.664,16.424,0.609,20.087-6.82l28.963-58.74   c10.109,3.94,21.097,6.106,32.583,6.106h20.907l-19.367,39.38c-3.656,7.434-0.593,16.424,6.841,20.08   c7.442,3.659,16.427,0.586,20.08-6.841L190.355,360h56.568l-19.367,39.38c-3.656,7.434-0.593,16.424,6.841,20.08   c7.442,3.659,16.427,0.586,20.08-6.841L280.355,360h56.569l-19.367,39.38c-3.656,7.434-0.594,16.424,6.84,20.08   c7.442,3.658,16.427,0.588,20.08-6.841l27.803-56.532c36.854-11.266,63.737-45.594,63.737-86.087   c0-11.706-2.249-22.896-6.333-33.164C467.864,226.418,496.016,191.438,496.016,150z M346.016,330h-210c-33.084,0-60-26.916-60-60   s26.916-60,60-60c5.238,0,10.43,0.673,15.434,2c7.719,2.048,15.692-2.314,18.129-9.92c9.984-31.15,38.693-52.079,71.437-52.079   c32.743,0,61.452,20.929,71.438,52.08c2.438,7.605,10.403,11.967,18.13,9.92c5.003-1.327,10.194-2,15.433-2   c33.084,0,60,26.916,60,60S379.1,330,346.016,330z M412.698,209.619C396.219,191.438,372.429,180,346.016,180   c-3.294,0-6.578,0.179-9.837,0.534C319.116,143.844,282.364,120,241.016,120c-41.346,0-78.098,23.848-95.163,60.534   c-0.527-0.057-1.056-0.103-1.585-0.151c-5.412-9.172-8.252-19.55-8.252-30.383c0-33.084,26.916-60,60-60   c5.238,0,10.43,0.673,15.434,2c7.721,2.048,15.691-2.314,18.129-9.92C239.564,50.929,268.272,30,301.016,30   c32.743,0,61.452,20.929,71.438,52.08c2.438,7.605,10.402,11.969,18.13,9.92c5.003-1.327,10.194-2,15.433-2   c33.084,0,60,26.916,60,60C466.016,180.825,442.647,206.284,412.698,209.619z"/>
	<ellipse transform="matrix(0.8444 -0.5357 0.5357 0.8444 -254.4175 118.0336)" cx="75.988" cy="497" rx="15" ry="15"/>
	<ellipse transform="matrix(0.8444 -0.5357 0.5357 0.8444 -240.4146 166.2461)" cx="165.988" cy="497" rx="15" ry="15"/>
	<ellipse transform="matrix(0.8444 -0.5357 0.5357 0.8444 -226.4116 214.4587)" cx="255.988" cy="497" rx="15" ry="15"/>
	<ellipse transform="matrix(0.8444 -0.5357 0.5357 0.8444 -212.4087 262.6712)" cx="345.988" cy="497" rx="15" ry="15"/>
	<ellipse transform="matrix(0.8444 -0.5357 0.5357 0.8444 -237.3128 86.9258)" cx="30.988" cy="452" rx="15" ry="15"/>
	<ellipse transform="matrix(0.8444 -0.5357 0.5357 0.8444 -223.3098 135.1384)" cx="120.988" cy="452" rx="15" ry="15"/>
	<ellipse transform="matrix(0.8444 -0.5357 0.5357 0.8444 -209.3068 183.3509)" cx="210.988" cy="452" rx="15" ry="15"/>
	<ellipse transform="matrix(0.8444 -0.5357 0.5357 0.8444 -195.3039 231.5635)" cx="300.988" cy="452" rx="15" ry="15"/>
</g>















</svg>
