<?xml version="1.0" encoding="iso-8859-1"?>
<!-- Generator: Adobe Illustrator 19.0.0, SVG Export Plug-In . SVG Version: 6.00 Build 0)  -->
<svg version="1.1" id="Capa_1" xmlns="http://www.w3.org/2000/svg" xmlns:xlink="http://www.w3.org/1999/xlink" x="0px" y="0px"
	 viewBox="0 0 448 448" style="enable-background:new 0 0 448 448;" xml:space="preserve">
<g>
	<g>
		<path d="M240.144,257.088V80.191c0-44.289-35.73-80.191-80.05-80.191c-44.285,0-79.965,34.496-79.965,78.785V256
			C60.383,276.256,48,305.279,48,335.809C48,397.744,98.258,448,160.258,448c61.965,0,112.254-50.256,112.254-112.191
			C272.512,305.122,260.016,277.375,240.144,257.088z M160.258,416C116.004,416,80,380.026,80,335.809
			c0-21.187,8.614-42.672,23.043-57.473l9.086-9.32V256V78.785c0-26.234,21.07-46.785,47.965-46.785
			c26.496,0,48.05,21.617,48.05,48.191v176.897v13.061l9.141,9.33c14.977,15.294,23.227,35.298,23.227,56.33
			C240.512,380.026,204.512,416,160.258,416z"/>
	</g>
</g>
<g>
	<g>
		<polygon points="368.128,128 368.128,64.129 336.128,64.129 336.128,128 304,128 352.257,192 400,128 		"/>
	</g>
</g>
<g>
	<g>
		<path d="M176.253,289.882c0-75.213,0-59.004,0-145.883h-32c0,87.016,0,70.554,0,145.886c-16.004,9.31-32,20.242-32,45.922
			c0,26.465,21.531,48,48,48s48-21.535,48-48C208.253,310.133,192.257,299.197,176.253,289.882z"/>
	</g>
</g>
<g>
</g>
<g>
</g>
<g>
</g>
<g>
</g>
<g>
</g>
<g>
</g>
<g>
</g>
<g>
</g>
<g>
</g>
<g>
</g>
<g>
</g>
<g>
</g>
<g>
</g>
<g>
</g>
<g>
</g>
</svg>
