<?xml version="1.0" encoding="iso-8859-1"?>
<!-- Generator: Adobe Illustrator 19.0.0, SVG Export Plug-In . SVG Version: 6.00 Build 0)  -->
<svg version="1.1" id="Capa_1" xmlns="http://www.w3.org/2000/svg" xmlns:xlink="http://www.w3.org/1999/xlink" x="0px" y="0px"
	 viewBox="0 0 463.997 463.997" style="enable-background:new 0 0 463.997 463.997;" xml:space="preserve">
<g>
	<g>
		<path d="M454.076,125.95l-29.023-17.414l20.149-27.187c1.074-1.45,0.218-3.516-1.562-3.782l-33.477-4.981l8.207-32.832
			c0.438-1.75-1.145-3.328-2.894-2.894l-32.832,8.207l-4.981-33.473c-0.266-1.782-2.332-2.637-3.782-1.566l-27.191,20.149
			l-17.41-29.019c-0.93-1.543-3.164-1.543-4.094,0l-17.41,29.019l-27.191-20.149c-1.45-1.07-3.516-0.215-3.782,1.566l-4.981,33.473
			l-32.832-8.207c-1.75-0.434-3.332,1.145-2.894,2.894l8.207,32.832l-33.477,4.981c-1.782,0.266-2.637,2.332-1.562,3.782
			l20.149,27.187l-6.461,3.879c2.774-0.094,5.484-0.418,8.282-0.418c5.914,0,11.715,0.465,17.523,0.886
			c7.078-36.942,39.469-64.886,78.477-64.886c44.183,0,80,35.817,80,80c0,17.375-5.68,33.336-15.086,46.453
			c7.488,6.793,14.606,13.965,21.187,21.641l-3.172-12.683l33.477-4.981c1.782-0.266,2.637-2.332,1.562-3.782l-20.149-27.191
			l29.023-17.41C455.619,129.114,455.619,126.88,454.076,125.95z"/>
	</g>
</g>
<g>
	<g>
		<path d="M231.998,319.997c-5.461,0-10.786,0.563-16,1.446v94.488c0,8.914-7.297,15.969-16.207,15.969
			c-8.898,0-16.114-7.215-16.114-16.129c0-8.879-7.168-16.062-16.031-16.062c-8.898,0-16.062,7.183-16.062,16.062
			c0,26.656,21.566,48.226,48.207,48.226c26.656,0,48.207-21.41,48.207-48.066v-94.488
			C242.783,320.559,237.459,319.997,231.998,319.997z"/>
	</g>
</g>
<g>
	<g>
		<path d="M231.998,127.997c-118.598,0-215.41,92.234-223.234,208.848c20.27-20.293,48.285-32.848,79.234-32.848
			c27.43,0,52.527,9.89,72,26.262c20.457-17.195,46.484-26.262,72-26.262c26.527,0,52.598,9.95,72,26.262
			c19.473-16.371,44.57-26.262,72-26.262c30.95,0,58.965,12.554,79.234,32.844C447.408,220.231,350.592,127.997,231.998,127.997z"/>
	</g>
</g>
<g>
</g>
<g>
</g>
<g>
</g>
<g>
</g>
<g>
</g>
<g>
</g>
<g>
</g>
<g>
</g>
<g>
</g>
<g>
</g>
<g>
</g>
<g>
</g>
<g>
</g>
<g>
</g>
<g>
</g>
</svg>
