<?xml version="1.0" encoding="iso-8859-1"?>
<!-- Generator: Adobe Illustrator 21.0.0, SVG Export Plug-In . SVG Version: 6.00 Build 0)  -->
<svg xmlns="http://www.w3.org/2000/svg" xmlns:xlink="http://www.w3.org/1999/xlink" version="1.1" id="Capa_1" x="0px" y="0px" viewBox="0 0 512.116 512.116" style="enable-background:new 0 0 512.116 512.116;" xml:space="preserve" width="512" height="512">
<g>
	<path d="M256.116,181.058c-41.355,0-75,33.645-75,75s33.645,75,75,75c41.355,0,75-33.645,75-75S297.472,181.058,256.116,181.058z    M256.116,301.058c-24.813,0-45-20.187-45-45s20.187-45,45-45c24.813,0,45,20.187,45,45S280.93,301.058,256.116,301.058z"/>
	<path d="M359.237,104.738c30.656-45.868,83.003-74.68,137.879-74.68c8.284,0,15-6.716,15-15s-6.716-15-15-15h-181   c-97.865,0-180.554,63.182-211.748,150.259C58.683,118.388,30,67.09,30,15.194c0-8.284-6.716-15-15-15s-15,6.716-15,15v181   C0,291.793,63.956,373.3,149.058,405.945c-32.998,46.744-83.87,76.113-133.806,76.113c-8.284,0-15,6.716-15,15s6.716,15,15,15h181   c95.893,0,176.82-67.381,209.398-151.71c46.948,31.681,76.467,83.66,76.467,136.71c0,8.284,6.716,15,15,15s15-6.716,15-15v-181   C512.116,219.007,446.515,136.307,359.237,104.738z M482.116,396.719c-18.602-29.179-45.07-54.528-77.532-72.037   c-8.385-4.522-18.813-0.172-21.508,8.956c-25.387,86-103.958,148.42-186.825,148.42h-83.769   c28.521-18.414,54.112-44.722,72.538-76.746c4.859-8.446,0.488-19.213-8.861-21.898C90.103,358.699,30,281.712,30,196.194v-80.881   c0.209,0.329,0.419,0.655,0.63,0.983c18.754,29.057,44.704,53.32,75.043,70.165c8.567,4.755,19.345,0.141,21.803-9.355   c22.41-86.579,99.981-147.046,188.64-147.046h77.731c-29.882,18.833-54.233,45.242-70.433,76.393   c-4.42,8.499,0.165,18.931,9.43,21.411c86.493,23.15,149.271,102.299,149.271,188.197V396.719z"/>
</g>















</svg>
