<?xml version="1.0" encoding="iso-8859-1"?>
<!-- Generator: Adobe Illustrator 19.0.0, SVG Export Plug-In . SVG Version: 6.00 Build 0)  -->
<svg version="1.1" id="Capa_1" xmlns="http://www.w3.org/2000/svg" xmlns:xlink="http://www.w3.org/1999/xlink" x="0px" y="0px"
	 viewBox="0 0 463.999 463.999" style="enable-background:new 0 0 463.999 463.999;" xml:space="preserve">
<g>
	<g>
		<path d="M125.589,285.167c-6.762-1.008-12.359-5.377-14.977-11.691s-1.75-13.363,2.32-18.859l14.406-19.435
			c0.93-1.258,0.926-2.531,0.758-3.377c-0.168-0.844-0.652-2.019-1.988-2.822l-20.754-12.453c-3.359-2.016-5.82-4.962-7.418-8.351
			c-2.453,3.426-4.695,7.014-6.687,10.756C85.086,217.216,78.714,216,72,216c-39.766,0-72,32.234-72,72c0,39.766,32.234,72,72,72
			h8.406c3.018-33.314,24.659-61.295,54.421-73.459L125.589,285.167z"/>
	</g>
</g>
<g>
	<g>
		<path d="M462.406,197.187l-20.746-12.45c-10.266-6.159-12.981-19.826-5.855-29.444l14.402-19.438
			c1.477-1.99,0.297-4.833-2.152-5.198l-23.93-3.561c-11.844-1.762-19.582-13.349-16.68-24.962l5.867-23.47
			c0.602-2.402-1.574-4.579-3.977-3.978l-23.477,5.868c-11.61,2.903-23.195-4.838-24.957-16.678l-3.562-23.932
			c-0.363-2.45-3.207-3.627-5.195-2.152l-19.442,14.403c-9.617,7.127-23.285,4.408-29.446-5.857l-12.446-20.746
			c-1.274-2.124-4.351-2.124-5.625,0l-12.45,20.746c-6.156,10.265-19.824,12.983-29.442,5.857l-19.44-14.403
			c-1.988-1.474-4.832-0.297-5.199,2.152l-3.558,23.932c-1.762,11.84-13.348,19.581-24.961,16.678l-23.474-5.868
			c-2.402-0.601-4.578,1.576-3.977,3.978l5.867,23.472c2.902,11.614-4.84,23.198-16.68,24.961l-23.93,3.561
			c-2.453,0.364-3.629,3.208-2.156,5.198l14.406,19.438c7.125,9.618,4.406,23.285-5.859,29.444l-20.742,12.45
			c-2.125,1.274-2.125,4.351,0,5.625l20.746,12.45c10.262,6.159,12.981,19.825,5.855,29.442l-14.406,19.439
			c-1.473,1.99-0.297,4.833,2.156,5.198l23.93,3.562c5.215,0.776,9.554,3.525,12.621,7.275c1.172-0.047,2.32-0.178,3.504-0.178
			c3.774,0,7.558,0.287,11.496,0.884c4.57-6.705,9.902-12.716,15.687-18.189c-12.11-17.89-19.183-39.466-19.183-62.695
			c0-61.855,50.145-112,112-112s112,50.145,112,112c0,31.793-13.309,60.426-34.586,80.814c3.602-0.505,7.11-0.814,10.586-0.814
			c11.328,0,22.129,2.226,32.086,6.143c2.43-6.766,8.332-12.094,16.039-13.242l23.93-3.562c2.45-0.364,3.629-3.207,2.152-5.198
			l-14.402-19.439c-7.127-9.618-4.409-23.283,5.857-29.442l20.746-12.45C464.53,201.538,464.53,198.461,462.406,197.187z"/>
	</g>
</g>
<g>
	<g>
		<path d="M375.999,296c-6.715,0-13.086,1.215-19.25,2.934C340.605,268.638,308.726,248,271.999,248
			c-36.727,0-68.606,20.638-84.75,50.934c-6.164-1.718-12.535-2.934-19.25-2.934c-39.766,0-72,32.234-72,72
			c0,39.766,32.234,72,72,72h208c39.766,0,72-32.234,72-72C447.999,328.234,415.765,296,375.999,296z"/>
	</g>
</g>
<g>
</g>
<g>
</g>
<g>
</g>
<g>
</g>
<g>
</g>
<g>
</g>
<g>
</g>
<g>
</g>
<g>
</g>
<g>
</g>
<g>
</g>
<g>
</g>
<g>
</g>
<g>
</g>
<g>
</g>
</svg>
