<?xml version="1.0" encoding="iso-8859-1"?>
<!-- Generator: Adobe Illustrator 21.0.0, SVG Export Plug-In . SVG Version: 6.00 Build 0)  -->
<svg xmlns="http://www.w3.org/2000/svg" xmlns:xlink="http://www.w3.org/1999/xlink" version="1.1" id="Capa_1" x="0px" y="0px" viewBox="0 0 511.974 511.974" style="enable-background:new 0 0 511.974 511.974;" xml:space="preserve" width="512" height="512">
<g>
	<path d="M150.971,271c-8.284,0-15,6.716-15,15v78.58c-17.459,6.192-30,22.865-30,42.42c0,24.813,20.187,45,45,45s45-20.187,45-45   c0-19.555-12.541-36.228-30-42.42V286C165.971,277.716,159.255,271,150.971,271z M150.971,422c-8.271,0-15-6.729-15-15   s6.729-15,15-15s15,6.729,15,15S159.242,422,150.971,422z"/>
	<path d="M225.971,75c0-41.355-33.645-75-75-75s-75,33.645-75,75v258.975c-23.682,24.234-34.249,57.975-28.375,91.597   c7.436,42.558,42.245,77.429,84.65,84.8c6.18,1.074,12.37,1.603,18.518,1.603C209.296,511.97,255.971,464.764,255.971,407   c0-27.155-10.856-53.401-30-73.021V75z M137.384,480.814c-30.168-5.244-54.938-30.084-60.235-60.406   c-4.548-26.032,4.149-51.148,23.862-68.907c3.157-2.845,4.96-6.895,4.96-11.145V75c0-24.813,20.187-45,45-45s45,20.187,45,45v46   h-15c-8.284,0-15,6.716-15,15s6.716,15,15,15h15v30h-15c-8.284,0-15,6.716-15,15s6.716,15,15,15h15v30h-15c-8.284,0-15,6.716-15,15   s6.716,15,15,15h15v30h-15c-8.284,0-15,6.716-15,15s6.716,15,15,15h15v9.357c0,4.25,1.803,8.3,4.96,11.145   c16.147,14.547,25.04,34.256,25.04,55.499C225.971,452.268,185.527,489.181,137.384,480.814z"/>
	<path d="M442.184,196l19.394-19.394c5.858-5.858,5.858-15.355,0-21.213c-5.857-5.858-15.355-5.858-21.213,0L414.758,181h-11.367   c-4.527-12.764-14.656-22.893-27.42-27.42v-11.367l25.606-25.606c5.858-5.858,5.858-15.355,0-21.213   c-5.857-5.858-15.355-5.858-21.213,0l-19.394,19.393l-19.394-19.393c-5.857-5.858-15.355-5.858-21.213,0   c-5.858,5.858-5.858,15.355,0,21.213l25.606,25.606v11.367c-12.764,4.527-22.893,14.656-27.42,27.42h-11.367l-25.606-25.606   c-5.857-5.858-15.355-5.858-21.213,0c-5.858,5.858-5.858,15.355,0,21.213L279.758,196l-19.394,19.394   c-5.858,5.858-5.858,15.355,0,21.213c5.857,5.858,15.356,5.858,21.213,0L307.184,211h11.367   c4.527,12.764,14.656,22.893,27.42,27.42v11.367l-25.606,25.606c-5.858,5.858-5.858,15.355,0,21.213   c5.857,5.858,15.355,5.858,21.213,0l19.394-19.393l19.394,19.393c5.857,5.858,15.356,5.858,21.213,0   c5.858-5.858,5.858-15.355,0-21.213l-25.606-25.606V238.42c12.764-4.527,22.893-14.656,27.42-27.42h11.367l25.606,25.606   c5.857,5.858,15.356,5.858,21.213,0c5.858-5.858,5.858-15.355,0-21.213L442.184,196z M360.971,211c-8.271,0-15-6.729-15-15   s6.729-15,15-15s15,6.729,15,15S369.242,211,360.971,211z"/>
</g>















</svg>
