<?xml version="1.0" encoding="iso-8859-1"?>
<!-- Generator: Adobe Illustrator 19.0.0, SVG Export Plug-In . SVG Version: 6.00 Build 0)  -->
<svg version="1.1" id="Capa_1" xmlns="http://www.w3.org/2000/svg" xmlns:xlink="http://www.w3.org/1999/xlink" x="0px" y="0px"
	 viewBox="0 0 448.001 448.001" style="enable-background:new 0 0 448.001 448.001;" xml:space="preserve">
<g>
	<g>
		<path d="M144,16.716c0,36.77-27.229,64-64,64c36.772,0,64,27.226,64,64c0-36.774,27.229-64,64-64
			C171.229,80.716,144,53.485,144,16.716z"/>
	</g>
</g>
<g>
	<g>
		<path d="M32,137.467c0,18.385-13.614,32-32,32c18.387,0,32,13.614,32,32c0-18.386,13.614-32,32-32
			C45.614,169.467,32,155.852,32,137.467z"/>
	</g>
</g>
<g>
	<g>
		<path d="M447.929,189.856c-5.191,0.869-10.49,1.428-15.928,1.428c-52.537,0-95.156-42.217-95.928-94.57
			c-36.326,6.08-65.428,32.633-75.76,67.306c5.09,1.334,10.086,2.938,14.974,4.809c6.826-23.458,24.022-42.638,46.926-51.739
			c10.142,50.746,54.938,89.422,108.182,90.183c-2.645,12.992-8.562,24.758-16.683,34.641c4.504,2.988,8.726,6.346,12.742,9.935
			c13.457-16.523,21.547-37.592,21.547-60.565C448.001,190.804,447.934,190.337,447.929,189.856z"/>
	</g>
</g>
<g>
	<g>
		<path d="M352,239.285c-5.588,0-11.031,0.578-16.355,1.496C313.727,201.72,271.977,175.285,224,175.285
			s-89.726,26.435-111.645,65.496c-5.324-0.918-10.767-1.496-16.355-1.496c-53.019,0-96,42.981-96,96c0,53.019,42.981,96,96,96h256
			c53.019,0,96-42.981,96-96C448,282.266,405.02,239.285,352,239.285z"/>
	</g>
</g>
<g>
</g>
<g>
</g>
<g>
</g>
<g>
</g>
<g>
</g>
<g>
</g>
<g>
</g>
<g>
</g>
<g>
</g>
<g>
</g>
<g>
</g>
<g>
</g>
<g>
</g>
<g>
</g>
<g>
</g>
</svg>
