<?xml version="1.0" encoding="iso-8859-1"?>
<!-- Generator: Adobe Illustrator 21.0.0, SVG Export Plug-In . SVG Version: 6.00 Build 0)  -->
<svg xmlns="http://www.w3.org/2000/svg" xmlns:xlink="http://www.w3.org/1999/xlink" version="1.1" id="Capa_1" x="0px" y="0px" viewBox="0 0 512 512" style="enable-background:new 0 0 512 512;" xml:space="preserve" width="512" height="512">
<g>
	<path d="M512,136c0-0.613-0.036-1.22-0.109-1.842c-0.52-5.079-3.602-9.591-8.234-11.898c-5.095-2.537-11.185-1.973-15.726,1.455   C477.285,131.752,464.86,136,452,136c-33.636,0-61-26.916-61-60c0-12.86,4.248-25.285,12.285-35.931   c3.429-4.541,3.992-10.631,1.455-15.725C402.271,19.385,397.19,16,391,16c-66.168,0-120,53.832-120,120   c0,0.355,0.01,0.71,0.013,1.065C266.097,136.364,261.084,136,256,136c-41.346,0-78.098,23.849-95.163,60.534   C157.578,196.179,154.293,196,151,196c-49.626,0-90,40.374-90,90c0,11.52,2.154,22.697,6.295,33.138C29.5,329.285,0,363.758,0,406   c0,49.741,41.232,90,91,90h210c49.626,0,90-40.374,90-90c0-11.706-2.249-22.896-6.333-33.164C422.848,362.418,451,327.438,451,286   c0-14.719-3.552-28.624-9.844-40.903C483.696,225.744,512,183.335,512,136z M301,466H91c-33.636,0-61-26.916-61-60s27.364-60,61-60   c5.237,0,10.43,0.673,15.434,2c7.721,2.048,15.691-2.314,18.129-9.92C134.547,306.929,163.256,286,196,286   s61.453,20.929,71.438,52.08c2.438,7.607,10.415,11.969,18.13,9.92c5.002-1.327,10.194-2,15.433-2c33.084,0,60,26.916,60,60   S334.084,466,301,466z M367.682,345.619C351.203,327.438,327.412,316,301,316c-3.294,0-6.578,0.179-9.837,0.534   C274.098,279.849,237.345,256,196,256c-41.346,0-78.098,23.849-95.163,60.534c-0.527-0.058-1.056-0.103-1.585-0.151   C93.84,307.211,91,296.833,91,286c0-33.084,26.916-60,60-60c5.237,0,10.43,0.673,15.434,2c7.719,2.048,15.691-2.314,18.129-9.92   C194.547,186.929,223.256,166,256,166c32.634,0,61.428,20.855,71.438,52.08c2.438,7.605,10.407,11.968,18.13,9.92   c5.002-1.327,10.194-2,15.433-2c33.084,0,60,26.916,60,60C421,316.825,397.631,342.284,367.682,345.619z M422.496,220.353   C406.394,205.259,384.759,196,361,196c-3.294,0-6.578,0.179-9.837,0.534c-10.371-22.299-28.022-39.839-49.55-50.179   C301.221,142.925,301,139.466,301,136c0-40.579,26.991-74.97,63.966-86.162C362.345,58.266,361,67.053,361,76   c0,49.743,41.232,90,91,90c8.912,0,17.663-1.333,26.06-3.934C469.863,188.562,449.469,210.391,422.496,220.353z"/>
</g>















</svg>
