<?xml version="1.0" encoding="iso-8859-1"?>
<!-- Generator: Adobe Illustrator 21.0.0, SVG Export Plug-In . SVG Version: 6.00 Build 0)  -->
<svg xmlns="http://www.w3.org/2000/svg" xmlns:xlink="http://www.w3.org/1999/xlink" version="1.1" id="Capa_1" x="0px" y="0px" viewBox="0 0 512.027 512.027" style="enable-background:new 0 0 512.027 512.027;" xml:space="preserve" width="512" height="512">
<g>
	<path d="M346.013,181.013h-35.789l79.221-159.321c4.954-9.966-2.316-21.679-13.432-21.679h-90c-6.01,0-11.439,3.587-13.797,9.115   l-90,211c-4.219,9.892,3.06,20.885,13.797,20.885h39.213l-83.448,251.272c-3.224,9.708,4.025,19.732,14.227,19.729   c5.132,0,10.094-2.642,12.882-7.303l180-301C364.857,193.728,357.647,181.013,346.013,181.013z M223.388,371.843l46.86-141.103   c3.22-9.693-4.006-19.728-14.235-19.728h-37.294l77.204-181h55.88l-79.22,159.321c-4.956,9.966,2.318,21.679,13.431,21.679h33.553   L223.388,371.843z"/>
	<path d="M177.979,278.471c-2.686-4.617-7.624-7.458-12.966-7.458h-39.188l23.419-70.257c3.232-9.698-3.995-19.743-14.23-19.743h-60   c-6.133,0-11.649,3.734-13.927,9.429l-60,150c-3.941,9.854,3.34,20.571,13.927,20.571h41.727L30.3,494.09   c-1.85,9.313,5.308,17.925,14.708,17.925c5.264,0,10.311-2.783,13.043-7.586l120-211   C180.693,288.785,180.665,283.088,177.979,278.471z M77.782,409.052l11.943-60.117c1.842-9.272-5.262-17.923-14.712-17.923H37.168   l48-120h29.033L90.782,281.27c-3.232,9.698,3.995,19.743,14.23,19.743h34.213L77.782,409.052z"/>
	<path d="M497.013,271.013h-39.188l23.419-70.257c3.233-9.699-3.996-19.743-14.23-19.743h-60c-6.134,0-11.649,3.734-13.927,9.429   l-60,150c-3.934,9.835,3.318,20.571,13.927,20.571h41.727L362.3,494.09c-1.849,9.308,5.303,17.925,14.709,17.925   c5.264,0,10.311-2.783,13.043-7.586l120-211C515.719,283.464,508.52,271.013,497.013,271.013z M409.781,409.052l11.944-60.117   c1.838-9.25-5.244-17.923-14.713-17.923h-37.845l48-120h29.033l-23.419,70.257c-3.233,9.699,3.996,19.743,14.23,19.743h34.213   L409.781,409.052z"/>
</g>















</svg>
