<?xml version="1.0" encoding="iso-8859-1"?>
<!-- Generator: Adobe Illustrator 19.0.0, SVG Export Plug-In . SVG Version: 6.00 Build 0)  -->
<svg version="1.1" id="Capa_1" xmlns="http://www.w3.org/2000/svg" xmlns:xlink="http://www.w3.org/1999/xlink" x="0px" y="0px"
	 viewBox="0 0 480 480" style="enable-background:new 0 0 480 480;" xml:space="preserve">
<g>
	<g>
		<path d="M0,200v64c8.793,0,17.207,1.528,25.121,4.167c14.149-19.142,33.43-34.206,55.875-43.109C57.918,209.261,30.034,200,0,200z
			"/>
	</g>
</g>
<g>
	<g>
		<path d="M0,119v64c38.293,0,73.459,13.486,101.119,35.894C109.795,217.03,118.775,216,128,216h0.078
			c8.836-11.762,19.32-21.953,30.805-30.754C118.205,144.414,62.09,119,0,119z"/>
	</g>
</g>
<g>
	<g>
		<path d="M0,40v64c67.176,0,127.828,27.848,171.363,72.492c19.539-12.217,41.602-20.293,64.867-23.206
			C180.467,84.326,95.393,40,0,40z"/>
	</g>
</g>
<g>
	<g>
		<path d="M384,248c-5.588,0-11.031,0.578-16.355,1.494C345.727,210.435,303.977,184,256,184s-89.726,26.434-111.645,65.494
			C139.031,248.578,133.588,248,128,248c-53.019,0-96,42.981-96,96c0,53.019,42.981,96,96,96h256c53.019,0,96-42.981,96-96
			C480,290.981,437.02,248,384,248z"/>
	</g>
</g>
<g>
</g>
<g>
</g>
<g>
</g>
<g>
</g>
<g>
</g>
<g>
</g>
<g>
</g>
<g>
</g>
<g>
</g>
<g>
</g>
<g>
</g>
<g>
</g>
<g>
</g>
<g>
</g>
<g>
</g>
</svg>
