<?xml version="1.0" encoding="iso-8859-1"?>
<!-- Generator: Adobe Illustrator 19.0.0, SVG Export Plug-In . SVG Version: 6.00 Build 0)  -->
<svg version="1.1" id="Capa_1" xmlns="http://www.w3.org/2000/svg" xmlns:xlink="http://www.w3.org/1999/xlink" x="0px" y="0px"
	 viewBox="0 0 464.143 464.143" style="enable-background:new 0 0 464.143 464.143;" xml:space="preserve">
<g>
	<g>
		<path d="M136.14,224.071c0-11.262,1.317-22.205,3.641-32.77c-20.813,8.514-38.031,24.002-48.531,43.703
			c-6.164-1.718-12.535-2.934-19.25-2.934c-39.766,0-72,32.234-72,72c0,39.766,32.234,72,72,72h8.406
			c3.663-40.446,34.807-72.983,74.562-78.926C143.018,275.464,136.14,250.596,136.14,224.071z"/>
	</g>
</g>
<g>
	<g>
		<path d="M416.143,8.072c0,27.577-20.422,48-48,48c27.578,0,48,20.42,48,48c0-27.58,20.418-48,48-48
			C436.561,56.072,416.143,35.648,416.143,8.072z"/>
	</g>
</g>
<g>
	<g>
		<path d="M160.143,8.072c0,18.385-13.614,32-32,32c18.387,0,32,13.613,32,32c0-18.386,13.614-32,32-32
			C173.757,40.072,160.143,26.456,160.143,8.072z"/>
	</g>
</g>
<g>
	<g>
		<circle cx="233.162" cy="188.75" r="22.976"/>
	</g>
</g>
<g>
	<g>
		<path d="M288.144,87.183c-75.602,0-136.891,61.287-136.891,136.889c0,26.583,7.699,51.311,20.813,72.313
			c2.457,0.133,4.886,0.186,7.43,0.571c20.742-30.43,55.176-48.884,92.504-48.884c21.898,0,42.707,6.496,60.43,17.889
			c16.446-7.374,34.152,8.047,28.023,25.766c1.344,1.747,2.801,3.394,4.05,5.229c12.394-1.879,25.492-0.682,37.516,3.048
			c14.519-21.733,23.012-47.834,23.012-75.932C425.03,148.47,363.746,87.183,288.144,87.183z M194.358,260.984
			c-2.687,0-4.871-2.182-4.871-4.872c0-2.69,2.183-4.872,4.871-4.872c2.691,0,4.875,2.182,4.875,4.872
			C199.234,258.803,197.05,260.984,194.358,260.984z M233.132,227.725c-21.496,0-38.973-17.478-38.973-38.974
			c0-21.496,17.477-38.974,38.973-38.974c21.496,0,38.977,17.478,38.977,38.974C272.109,210.247,254.628,227.725,233.132,227.725z
			 M291.39,137.596c-2.691,0-4.871-2.182-4.871-4.872c0-2.69,2.18-4.871,4.871-4.871c2.691,0,4.871,2.181,4.871,4.871
			C296.261,135.415,294.081,137.596,291.39,137.596z M301.132,224.071c-2.687,0-4.871-2.182-4.871-4.872
			c0-2.69,2.183-4.872,4.871-4.872c2.691,0,4.875,2.182,4.875,4.872C306.007,221.889,303.824,224.071,301.132,224.071z
			 M346.605,182.661c-9.418,0-17.05-7.634-17.05-17.052c-0.001-9.416,7.632-17.05,17.05-17.05c9.418,0,17.05,7.634,17.05,17.05
			C363.655,175.026,356.022,182.661,346.605,182.661z M379.081,235.577c-2.691,0-4.871-2.181-4.871-4.871
			c0-2.69,2.18-4.872,4.871-4.872c2.691,0,4.871,2.182,4.871,4.872C383.952,233.396,381.772,235.577,379.081,235.577z"/>
	</g>
</g>
<g>
	<g>
		<path d="M375.999,312.072c-6.715,0-13.086,1.215-19.25,2.934c-16.145-30.295-48.023-50.934-84.75-50.934
			c-36.727,0-68.606,20.638-84.75,50.934c-6.164-1.718-12.535-2.934-19.25-2.934c-39.766,0-72,32.234-72,72
			c0,39.766,32.234,72,72,72h208c39.766,0,72-32.234,72-72C447.999,344.306,415.765,312.072,375.999,312.072z"/>
	</g>
</g>
<g>
</g>
<g>
</g>
<g>
</g>
<g>
</g>
<g>
</g>
<g>
</g>
<g>
</g>
<g>
</g>
<g>
</g>
<g>
</g>
<g>
</g>
<g>
</g>
<g>
</g>
<g>
</g>
<g>
</g>
</svg>
