<?xml version="1.0" encoding="iso-8859-1"?>
<!-- Generator: Adobe Illustrator 21.0.0, SVG Export Plug-In . SVG Version: 6.00 Build 0)  -->
<svg xmlns="http://www.w3.org/2000/svg" xmlns:xlink="http://www.w3.org/1999/xlink" version="1.1" id="Capa_1" x="0px" y="0px" viewBox="0 0 512.031 512.031" style="enable-background:new 0 0 512.031 512.031;" xml:space="preserve" width="512" height="512">
<g>
	<path d="M392.03,226.014c33.084,0,60-26.916,60-60c0-8.284-6.716-15-15-15s-15,6.716-15,15c0,16.542-13.458,30-30,30   c-26.081,0-29.976-19.418-29.976-30.993c0-23.797,19.062-59.007,59.976-59.007c44.157,0,59.891,31.425,59.891,60.833   c0,43.226-31.504,89.167-89.891,89.167h-377c-8.284,0-15,6.716-15,15s6.716,15,15,15h377c76.185,0,119.891-61.284,119.891-119.167   c0-49.945-32.354-90.833-89.891-90.833c-55.575,0-89.976,46.202-89.976,89.007C332.055,201.503,356.157,226.014,392.03,226.014z"/>
	<path d="M227.03,316.014h-212c-8.284,0-15,6.716-15,15s6.716,15,15,15h212c28.207,0,45.762,13.084,55.522,24.06   c12.184,13.703,19.458,32.523,19.458,50.344c0,10.696-3.243,45.596-44.98,45.596c-30.662,0-44.947-25.792-44.947-43.224   c0-5.333,1.325-9.822,3.732-12.638c0.875-1.023,3.536-4.138,11.215-4.138c8.271,0,15,6.729,15,15c0,8.284,6.716,15,15,15   s15-6.716,15-15c0-24.813-20.187-45-45-45c-17.772,0-28.31,7.965-34.021,14.646c-7.148,8.364-10.927,19.474-10.927,32.129   c0,35.215,28.654,73.224,74.947,73.224c51.796,0,74.98-37.968,74.98-75.596c0-25.338-9.855-50.954-27.04-70.279   C285.403,328.134,257.723,316.014,227.03,316.014z"/>
	<path d="M15.03,226.014h91c8.284,0,15-6.716,15-15s-6.716-15-15-15h-91c-8.284,0-15,6.716-15,15S6.746,226.014,15.03,226.014z"/>
	<path d="M136.03,406.014h-121c-8.284,0-15,6.716-15,15s6.716,15,15,15h121c8.284,0,15-6.716,15-15S144.315,406.014,136.03,406.014z   "/>
	<path d="M95.424,161.621c5.857,5.858,15.356,5.858,21.213,0l25.606-25.606h11.367c4.527,12.764,14.656,22.893,27.42,27.42v11.367   l-25.606,25.606c-5.858,5.858-5.858,15.355,0,21.213c5.857,5.858,15.355,5.858,21.213,0l19.394-19.393l19.394,19.393   c5.857,5.858,15.356,5.858,21.213,0c5.858-5.858,5.858-15.355,0-21.213l-25.606-25.606v-11.367   c12.764-4.527,22.893-14.656,27.42-27.42h11.367l25.606,25.606c5.857,5.858,15.356,5.858,21.213,0   c5.858-5.858,5.858-15.355,0-21.213l-19.394-19.394l19.394-19.394c5.858-5.858,5.858-15.355,0-21.213   c-5.857-5.858-15.355-5.858-21.213,0l-25.606,25.606H238.45c-4.527-12.764-14.656-22.893-27.42-27.42V67.227l25.606-25.606   c5.858-5.858,5.858-15.355,0-21.213c-5.857-5.858-15.355-5.858-21.213,0L196.03,39.801l-19.394-19.393   c-5.857-5.858-15.355-5.858-21.213,0c-5.858,5.858-5.858,15.355,0,21.213l25.606,25.606v11.367   c-12.764,4.527-22.893,14.656-27.42,27.42h-11.367l-25.606-25.606c-5.857-5.858-15.355-5.858-21.213,0   c-5.858,5.858-5.858,15.355,0,21.213l19.393,19.394l-19.393,19.394C89.566,146.266,89.566,155.763,95.424,161.621z M196.03,106.014   c8.271,0,15,6.729,15,15s-6.729,15-15,15s-15-6.729-15-15S187.759,106.014,196.03,106.014z"/>
	<path d="M497.03,406.014h-34.019l17.01-29.461c4.143-7.174,1.685-16.348-5.49-20.49c-7.174-4.144-16.348-1.685-20.49,5.49   l-17.01,29.462l-17.01-29.462c-4.143-7.175-13.315-9.632-20.49-5.49s-9.633,13.316-5.49,20.49l17.01,29.461H377.03   c-8.284,0-15,6.716-15,15s6.716,15,15,15h34.019l-17.01,29.461c-4.143,7.174-1.685,16.348,5.49,20.49   c7.168,4.14,16.345,1.689,20.49-5.49l17.01-29.462l17.01,29.462c4.142,7.174,13.315,9.632,20.49,5.49   c7.175-4.142,9.633-13.316,5.49-20.49l-17.01-29.461h34.019c8.284,0,15-6.716,15-15S505.315,406.014,497.03,406.014z"/>
	<ellipse transform="matrix(0.8444 -0.5357 0.5357 0.8444 -123.3336 237.3912)" cx="347.002" cy="331.014" rx="15" ry="15"/>
	<ellipse transform="matrix(0.8444 -0.5357 0.5357 0.8444 -245.8535 115.5555)" cx="76.002" cy="481.014" rx="15" ry="15"/>
	<ellipse transform="matrix(0.8444 -0.5357 0.5357 0.8444 -78.564 31.5329)" cx="15.002" cy="151.014" rx="15" ry="15"/>
</g>















</svg>
