<?xml version="1.0" encoding="iso-8859-1"?>
<!-- Generator: Adobe Illustrator 19.0.0, SVG Export Plug-In . SVG Version: 6.00 Build 0)  -->
<svg version="1.1" id="Capa_1" xmlns="http://www.w3.org/2000/svg" xmlns:xlink="http://www.w3.org/1999/xlink" x="0px" y="0px"
	 viewBox="0 0 448 448" style="enable-background:new 0 0 448 448;" xml:space="preserve">
<g>
	<g>
		<path d="M224,112c-35.297,0-64,28.711-64,64c0,8.836,7.156,16,16,16s16-7.164,16-16c0-17.649,14.359-32,32-32s32,14.351,32,32
			s-14.359,32-32,32H16c-8.844,0-16,7.164-16,16s7.156,16,16,16h208c35.297,0,64-28.711,64-64S259.297,112,224,112z"/>
	</g>
</g>
<g>
	<g>
		<path d="M447.988,207.782c0-57.216-51.692-104.463-111.961-94.23c-0.09,0.017-0.172,0.008-0.262,0.026
			C313.328,73.336,270.828,48,224,48c-33.95,0-65.578,13.658-89.054,36.466C124.618,62.98,102.821,48,77.422,48
			c-35.297,0-64,28.711-64,64c0,8.836,7.156,16,16,16s16-7.164,16-16c0-17.649,14.359-32,32-32s32,14.351,32,32
			c0,17.011-13.873,32-32,32H16c-8.844,0-16,7.164-16,16s7.156,16,16,16h61.422c26.566,0,49.371-16.274,59.043-39.364
			C151.984,102.222,186.222,80,224,80c53.591,0,96,43.877,96,96c0,53.019-42.981,96-96,96H16c-8.844,0-16,7.164-16,16
			s7.156,16,16,16h61.422c17.641,0,32,14.351,32,32s-14.359,32-32,32s-32-14.351-32-32c0-8.836-7.156-16-16-16
			c-8.844,0-16,7.164-16,16c0,35.289,28.703,64,64,64c35.297,0,64-28.711,64-64c0-11.708-3.39-22.548-8.902-32H224h128
			c53.501,0,96-43.83,96-96C448,207.926,447.988,207.855,447.988,207.782z"/>
	</g>
</g>
<g>
</g>
<g>
</g>
<g>
</g>
<g>
</g>
<g>
</g>
<g>
</g>
<g>
</g>
<g>
</g>
<g>
</g>
<g>
</g>
<g>
</g>
<g>
</g>
<g>
</g>
<g>
</g>
<g>
</g>
</svg>
