<?xml version="1.0" encoding="iso-8859-1"?>
<!-- Generator: Adobe Illustrator 21.0.0, SVG Export Plug-In . SVG Version: 6.00 Build 0)  -->
<svg xmlns="http://www.w3.org/2000/svg" xmlns:xlink="http://www.w3.org/1999/xlink" version="1.1" id="Capa_1" x="0px" y="0px" viewBox="0 0 512.002 512.002" style="enable-background:new 0 0 512.002 512.002;" xml:space="preserve" width="512" height="512">
<g>
	<path d="M316.016,60c8.284,0,15-6.716,15-15V15c0-8.284-6.716-15-15-15s-15,6.716-15,15v30C301.016,53.284,307.732,60,316.016,60z"/>
	<path d="M466.016,151h-30c-8.284,0-15,6.716-15,15s6.716,15,15,15h30c8.284,0,15-6.716,15-15S474.3,151,466.016,151z"/>
	<path d="M411.475,91.754l21.214-21.213c5.858-5.858,5.858-15.355,0-21.213c-5.857-5.858-15.355-5.858-21.213,0l-21.214,21.213   c-5.858,5.858-5.858,15.355,0,21.213C396.118,97.611,405.617,97.612,411.475,91.754z"/>
	<path d="M220.557,91.754c5.857,5.858,15.355,5.858,21.213,0c5.858-5.858,5.858-15.355,0-21.213l-21.214-21.213   c-5.857-5.858-15.355-5.858-21.213,0c-5.858,5.858-5.858,15.355,0,21.213L220.557,91.754z"/>
	<path d="M383.762,198.124c4.724-9.987,7.254-20.985,7.254-32.124c0-41.355-33.645-75-75-75c-25.561,0-48.864,12.835-62.574,33.614   c-8.784-2.356-17.983-3.614-27.426-3.614c-41.348,0-78.1,23.844-95.163,60.534c-3.259-0.355-6.543-0.534-9.837-0.534   c-49.626,0-90,40.374-90,90s40.374,90,90,90h210c49.626,0,90-40.374,90-90C421.016,241.061,406.318,214.494,383.762,198.124z    M316.016,121c24.813,0,45,20.187,45,45c0,6.611-1.404,12.971-4.098,18.805c-8.207-2.471-16.901-3.805-25.902-3.805   c-3.294,0-6.578,0.179-9.837,0.534c-8.706-18.719-22.544-34.082-39.495-44.653C290.085,126.962,302.525,121,316.016,121z    M331.016,331h-210c-33.084,0-60-26.916-60-60s26.916-60,60-60c5.238,0,10.43,0.673,15.433,2c7.72,2.048,15.691-2.314,18.13-9.92   c9.985-31.151,38.694-52.08,71.438-52.08c10.028,0,19.674,1.971,28.523,5.59c0.104,0.046,0.201,0.102,0.307,0.147   c0.147,0.061,0.297,0.104,0.445,0.16c19.692,8.303,35.322,24.843,42.163,46.183c2.438,7.605,10.401,11.969,18.13,9.92   c5.003-1.327,10.194-2,15.433-2c33.084,0,60,26.916,60,60S364.1,331,331.016,331z"/>
	<ellipse transform="matrix(0.8444 -0.5357 0.5357 0.8444 -259.0844 101.9621)" cx="45.988" cy="497" rx="15" ry="15"/>
	<ellipse transform="matrix(0.8444 -0.5357 0.5357 0.8444 -240.4139 166.2453)" cx="165.988" cy="497" rx="15" ry="15"/>
	<ellipse transform="matrix(0.8444 -0.5357 0.5357 0.8444 -221.7434 230.5284)" cx="285.988" cy="497" rx="15" ry="15"/>
	<ellipse transform="matrix(0.8444 -0.5357 0.5357 0.8444 -225.6429 127.1023)" cx="105.988" cy="452" rx="15" ry="15"/>
	<ellipse transform="matrix(0.8444 -0.5357 0.5357 0.8444 -206.9725 191.3854)" cx="225.988" cy="452" rx="15" ry="15"/>
	<ellipse transform="matrix(0.8444 -0.5357 0.5357 0.8444 -188.302 255.6686)" cx="345.988" cy="452" rx="15" ry="15"/>
	<ellipse transform="matrix(0.8444 -0.5357 0.5357 0.8444 -203.073 294.8116)" cx="405.988" cy="497" rx="15" ry="15"/>
	<ellipse transform="matrix(0.8444 -0.5357 0.5357 0.8444 -210.872 87.9592)" cx="45.988" cy="407" rx="15" ry="15"/>
	<ellipse transform="matrix(0.8444 -0.5357 0.5357 0.8444 -192.2015 152.2424)" cx="165.988" cy="407" rx="15" ry="15"/>
	<ellipse transform="matrix(0.8444 -0.5357 0.5357 0.8444 -173.531 216.5256)" cx="285.988" cy="407" rx="15" ry="15"/>
	<ellipse transform="matrix(0.8444 -0.5357 0.5357 0.8444 -154.8606 280.8087)" cx="405.988" cy="407" rx="15" ry="15"/>
</g>















</svg>
