<?xml version="1.0" encoding="iso-8859-1"?>
<!-- Generator: Adobe Illustrator 19.0.0, SVG Export Plug-In . SVG Version: 6.00 Build 0)  -->
<svg version="1.1" id="Capa_1" xmlns="http://www.w3.org/2000/svg" xmlns:xlink="http://www.w3.org/1999/xlink" x="0px" y="0px"
	 viewBox="0 0 464.001 464.001" style="enable-background:new 0 0 464.001 464.001;" xml:space="preserve">
<g>
	<g>
		<path d="M145.345,200H48.001c-8.844,0-16,7.164-16,16s7.156,16,16,16h97.344c8.844,0,16-7.164,16-16S154.189,200,145.345,200z"/>
	</g>
</g>
<g>
	<g>
		<path d="M368.001,168c-5.535,0-11.008,0.561-16.41,1.493C329.638,130.464,287.875,104,240.001,104
			c-28.938,0-56.25,9.422-78.969,27.258c-6.953,5.453-8.172,15.508-2.718,22.461c5.454,6.953,15.531,8.172,22.469,2.711
			c17.031-13.367,37.516-20.43,59.218-20.43c52.938,0,96,43.062,96,96c0,52.938-43.062,96-96,96h-176c-8.844,0-16,7.164-16,16
			s7.156,16,16,16h304c52.938,0,96-43.062,96-96C464.001,211.063,420.938,168,368.001,168z M368.001,328H324.38
			c26.676-23.475,43.621-57.758,43.621-96c0-10.95-1.531-21.523-4.129-31.675c1.379-0.088,2.738-0.325,4.129-0.325
			c35.297,0,64,28.711,64,64C432.001,299.289,403.298,328,368.001,328z"/>
	</g>
</g>
<g>
	<g>
		<path d="M240.001,168c-10.844,0-21.562,2.766-31.016,8c-7.718,4.282-10.516,14.023-6.234,21.75
			c4.297,7.742,14.016,10.523,21.766,6.234c4.766-2.641,9.969-3.984,15.484-3.984c17.641,0,32,14.351,32,32s-14.359,32-32,32H16
			c-8.844,0-16,7.164-16,16s7.156,16,16,16h224C275.298,296,304.001,267.289,304.001,232C304.001,196.712,275.298,168,240.001,168z"
			/>
	</g>
</g>
<g>
</g>
<g>
</g>
<g>
</g>
<g>
</g>
<g>
</g>
<g>
</g>
<g>
</g>
<g>
</g>
<g>
</g>
<g>
</g>
<g>
</g>
<g>
</g>
<g>
</g>
<g>
</g>
<g>
</g>
</svg>
