<?xml version="1.0" encoding="iso-8859-1"?>
<!-- Generator: Adobe Illustrator 19.0.0, SVG Export Plug-In . SVG Version: 6.00 Build 0)  -->
<svg version="1.1" id="Capa_1" xmlns="http://www.w3.org/2000/svg" xmlns:xlink="http://www.w3.org/1999/xlink" x="0px" y="0px"
	 viewBox="0 0 448 448" style="enable-background:new 0 0 448 448;" xml:space="preserve">
<g>
	<g>
		<circle cx="379.36" cy="226" r="8"/>
	</g>
</g>
<g>
	<g>
		<circle cx="290.96" cy="147" r="16"/>
	</g>
</g>
<g>
	<g>
		<path d="M144,16c0,36.77-27.229,64-64,64c36.771,0,64,27.226,64,64c0-36.774,27.229-64,64-64C171.229,80,144,52.77,144,16z"/>
	</g>
</g>
<g>
	<g>
		<path d="M32,128c0,18.385-13.614,32-32,32c18.386,0,32,13.614,32,32c0-18.386,13.614-32,32-32C45.614,160,32,146.385,32,128z"/>
	</g>
</g>
<g>
	<g>
		<path d="M447.904,179.266c0.03-1.162-0.447-2.278-1.306-3.062c-0.859-0.782-2.018-1.156-3.172-1.017
			c-4.078,0.491-8.213,0.797-12.424,0.797c-59.854,0-108.682-46.966-111.782-106.05c-0.061-1.158-0.619-2.23-1.534-2.943
			c-0.912-0.713-2.09-1-3.226-0.778C262.928,76.266,224,121.526,224,176c0,5.447,0.519,10.761,1.274,16H260c-2.209,0-4-1.791-4-4
			s1.791-4,4-4s4,1.791,4,4s-1.791,4-4,4h18.222c8.836,0,16,7.163,16,16c0,0.413-0.205,0.758-0.234,1.163
			c-1.798-0.699-3.721-1.163-5.766-1.163h-192c-8.836,0-16,7.163-16,16c0,8.836,7.164,16,16,16c44.879,0,103.324,0,148.086,0
			c3.982,5.731,8.402,11.128,13.379,16h59.141c-0.386-0.615-0.828-1.218-0.828-2c0-2.209,1.791-4,4-4s4,1.791,4,4
			c0,0.782-0.442,1.385-0.828,2h35.05c8.836,0,16,7.163,16,16c0,0.414-0.199,0.76-0.233,1.164c-1.798-0.7-3.72-1.164-5.767-1.164
			c-113.262,0-203.199,0-320,0c-8.836,0-16,7.163-16,16c0,8.836,7.164,16,16,16c254.484,0,168.053,0,320,0c8.836,0,16-7.164,16-16
			c0-3.689-1.457-6.928-3.554-9.634C419.469,261.407,446.774,223.443,447.904,179.266z M290.998,179c-17.65,0-32-14.35-32-32
			c0-17.65,14.35-32,32-32s32,14.35,32,32C322.998,164.65,308.649,179,290.998,179z M328,224c-4.418,0-8-3.582-8-8s3.582-8,8-8
			s8,3.582,8,8S332.418,224,328,224z M346.664,176c-2.207,0-4-1.791-4-4s1.793-4,4-4c2.211,0,4,1.791,4,4S348.875,176,346.664,176z
			 M379.332,250c-13.238,0-24-10.762-24-24s10.762-24,24-24s24,10.762,24,24S392.57,250,379.332,250z M410.664,192
			c-2.207,0-4-1.791-4-4s1.793-4,4-4c2.211,0,4,1.791,4,4S412.875,192,410.664,192z"/>
	</g>
</g>
<g>
	<g>
		<path d="M368.222,400c-55.086,0-200.094,0-256.222,0c-8.836,0-16,7.163-16,16c0,8.836,7.164,16,16,16h256.222
			c8.836,0,16-7.164,16-16C384.222,407.163,377.058,400,368.222,400z"/>
	</g>
</g>
<g>
	<g>
		<path d="M432,336c-157.133,0-264.217,0-416,0c-8.836,0-16,7.163-16,16c0,8.836,7.164,16,16,16c271.594,0,142.73,0,416,0
			c8.836,0,16-7.164,16-16C448,343.163,440.836,336,432,336z"/>
	</g>
</g>
<g>
	<g>
		<circle cx="48" cy="224" r="16"/>
	</g>
</g>
<g>
	<g>
		<circle cx="416" cy="416" r="16"/>
	</g>
</g>
<g>
</g>
<g>
</g>
<g>
</g>
<g>
</g>
<g>
</g>
<g>
</g>
<g>
</g>
<g>
</g>
<g>
</g>
<g>
</g>
<g>
</g>
<g>
</g>
<g>
</g>
<g>
</g>
<g>
</g>
</svg>
