<?xml version="1.0" encoding="iso-8859-1"?>
<!-- Generator: Adobe Illustrator 21.0.0, SVG Export Plug-In . SVG Version: 6.00 Build 0)  -->
<svg xmlns="http://www.w3.org/2000/svg" xmlns:xlink="http://www.w3.org/1999/xlink" version="1.1" id="Capa_1" x="0px" y="0px" viewBox="0 0 512 512" style="enable-background:new 0 0 512 512;" xml:space="preserve" width="512" height="512">
<g>
	<path d="M346,76c8.284,0,15-6.716,15-15V31c0-8.284-6.716-15-15-15s-15,6.716-15,15v30C331,69.284,337.716,76,346,76z"/>
	<path d="M497,166h-30c-8.284,0-15,6.716-15,15s6.716,15,15,15h30c8.284,0,15-6.716,15-15S505.284,166,497,166z"/>
	<path d="M441.459,106.754l21.214-21.213c5.858-5.858,5.858-15.355,0-21.213c-5.857-5.858-15.355-5.858-21.213,0l-21.214,21.213   c-5.858,5.858-5.858,15.355,0,21.213C426.102,112.611,435.601,112.612,441.459,106.754z"/>
	<path d="M250.541,106.754c5.857,5.858,15.355,5.858,21.213,0c5.858-5.858,5.858-15.355,0-21.213L250.54,64.327   c-5.857-5.858-15.355-5.858-21.213,0c-5.858,5.858-5.858,15.355,0,21.213L250.541,106.754z"/>
	<path d="M413.746,213.124C418.47,203.136,421,192.138,421,181c0-41.355-33.645-75-75-75c-25.561,0-48.864,12.835-62.574,33.614   C274.642,137.257,265.443,136,256,136c-41.348,0-78.1,23.844-95.163,60.534C157.578,196.179,154.294,196,151,196   c-49.626,0-90,40.374-90,90c0,11.519,2.154,22.697,6.295,33.137c-15.045,4.039-28.903,11.898-40.337,23.126   C9.574,359.333,0,381.969,0,406s9.574,46.667,26.958,63.736C44.206,486.673,66.95,496,91,496h210c49.626,0,90-40.374,90-90   c0-11.706-2.249-22.896-6.333-33.164C422.848,362.418,451,327.438,451,286C451,256.061,436.302,229.494,413.746,213.124z M346,136   c24.813,0,45,20.187,45,45c0,6.611-1.404,12.971-4.098,18.805C378.696,197.334,370.001,196,361,196   c-3.294,0-6.578,0.179-9.837,0.534c-8.706-18.719-22.544-34.082-39.495-44.653C320.069,141.962,332.508,136,346,136z M301,466H91   c-33.636,0-61-26.916-61-60s27.364-60,61-60c5.238,0,10.43,0.673,15.433,2c7.722,2.047,15.691-2.314,18.13-9.92   C134.548,306.929,163.257,286,196,286s61.452,20.929,71.438,52.08c2.438,7.605,10.403,11.968,18.13,9.92   c5.003-1.327,10.194-2,15.433-2c33.084,0,60,26.916,60,60S334.084,466,301,466z M367.682,345.619   C351.203,327.438,327.412,316,301,316c-3.294,0-6.578,0.179-9.837,0.534C274.1,279.844,237.348,256,196,256   s-78.1,23.844-95.163,60.534c-0.527-0.057-1.057-0.103-1.585-0.151C93.84,307.211,91,296.832,91,286c0-33.084,26.916-60,60-60   c5.238,0,10.43,0.673,15.433,2c7.721,2.047,15.691-2.314,18.13-9.92C194.548,186.929,223.257,166,256,166   c32.325,0,61.334,20.562,71.438,52.08c2.438,7.605,10.402,11.968,18.13,9.92c5.003-1.327,10.194-2,15.433-2   c33.084,0,60,26.916,60,60C421,316.825,397.631,342.284,367.682,345.619z"/>
</g>















</svg>
