<?xml version="1.0" encoding="iso-8859-1"?>
<!-- Generator: Adobe Illustrator 21.0.0, SVG Export Plug-In . SVG Version: 6.00 Build 0)  -->
<svg xmlns="http://www.w3.org/2000/svg" xmlns:xlink="http://www.w3.org/1999/xlink" version="1.1" id="Capa_1" x="0px" y="0px" viewBox="0 0 512 512" style="enable-background:new 0 0 512 512;" xml:space="preserve" width="512" height="512">
<g>
	<path d="M465.49,374.076C442.063,385.97,417,392,391,392c-90.981,0-165-74.467-165-166c0-89.667,72.536-164.054,161.695-165.822   c6.778-0.135,12.623-4.798,14.26-11.376c1.636-6.578-1.343-13.437-7.268-16.731C356.95,11.09,314.18,0,271,0   C130.393,0,16,114.841,16,256c0,141.159,114.393,256,255,256c86.585,0,166.532-43.506,213.86-116.378   c3.695-5.69,3.111-13.153-1.425-18.198C478.898,372.377,471.54,371.006,465.49,374.076z M271,482C146.935,482,46,380.617,46,256   S146.935,30,271,30c21.131,0,42.148,3.01,62.36,8.851c-30.56,9.495-58.516,26.554-81.549,50.169   C215.821,125.919,196,174.566,196,226c0,108.075,87.477,196,195,196c12.35,0,24.515-1.147,36.446-3.431   C385.933,458.919,330.224,482,271,482z"/>
	<path d="M376,136c0-8.284-6.716-15-15-15s-15,6.716-15,15c0,24.813-20.187,45-45,45c-8.284,0-15,6.716-15,15s6.716,15,15,15   c24.813,0,45,20.187,45,45c0,8.284,6.716,15,15,15s15-6.716,15-15c0-24.813,20.187-45,45-45c8.284,0,15-6.716,15-15   s-6.716-15-15-15C396.187,181,376,160.813,376,136z M361,211.047c-4.279-5.697-9.35-10.768-15.047-15.047   c5.697-4.279,10.768-9.35,15.047-15.047c4.279,5.697,9.35,10.768,15.047,15.047C370.35,200.279,365.279,205.35,361,211.047z"/>
	<path d="M481,271c-8.271,0-15-6.729-15-15c0-8.284-6.716-15-15-15s-15,6.716-15,15c0,8.271-6.729,15-15,15c-8.284,0-15,6.716-15,15   s6.716,15,15,15c8.271,0,15,6.729,15,15c0,8.284,6.716,15,15,15s15-6.716,15-15c0-8.271,6.729-15,15-15c8.284,0,15-6.716,15-15   S489.284,271,481,271z"/>
</g>















</svg>
