<?xml version="1.0" encoding="iso-8859-1"?>
<!-- Generator: Adobe Illustrator 19.0.0, SVG Export Plug-In . SVG Version: 6.00 Build 0)  -->
<svg version="1.1" id="Capa_1" xmlns="http://www.w3.org/2000/svg" xmlns:xlink="http://www.w3.org/1999/xlink" x="0px" y="0px"
	 viewBox="0 0 448 448" style="enable-background:new 0 0 448 448;" xml:space="preserve">
<g>
	<g>
		<circle cx="47.91" cy="227.303" r="16"/>
	</g>
</g>
<g>
	<g>
		<circle cx="415.91" cy="419.303" r="16"/>
	</g>
</g>
<g>
	<g>
		<path d="M288,211.218H96c-8.836,0-16,7.164-16,16s7.164,16,16,16h192c8.836,0,16-7.164,16-16S296.836,211.218,288,211.218z"/>
	</g>
</g>
<g>
	<g>
		<path d="M368,403.218H112c-8.836,0-16,7.164-16,16s7.164,16,16,16h256c8.836,0,16-7.164,16-16S376.836,403.218,368,403.218z"/>
	</g>
</g>
<g>
	<g>
		<path d="M432,339.218H16c-8.836,0-16,7.164-16,16s7.164,16,16,16h416c8.836,0,16-7.164,16-16S440.836,339.218,432,339.218z"/>
	</g>
</g>
<g>
	<g>
		<path d="M368,275.218H48c-8.836,0-16,7.164-16,16s7.164,16,16,16h320c8.836,0,16-7.164,16-16S376.836,275.218,368,275.218z"/>
	</g>
</g>
<g>
	<g>
		<path d="M434.649,30.621c-7.313-3.11-13.004-8.802-16.114-16.115c-1.027-2.412-4.222-2.412-5.25,0
			c-3.11,7.313-8.801,13.006-16.114,16.115c-2.414,1.027-2.414,4.222,0,5.248c7.313,3.109,13.004,8.802,16.114,16.115
			c1.027,2.414,4.222,2.414,5.25,0c3.11-7.313,8.801-13.006,16.114-16.115C437.063,34.843,437.063,31.648,434.649,30.621z"/>
	</g>
</g>
<g>
	<g>
		<path d="M105.039,93.418c-17.617-6.236-31.065-19.686-37.301-37.301c-1.25-3.53-6.406-3.53-7.656,0
			c-6.236,17.615-19.683,31.065-37.301,37.301c-3.527,1.25-3.527,6.406,0,7.656c17.617,6.234,31.065,19.683,37.301,37.299
			c1.25,3.53,6.406,3.53,7.656,0c6.236-17.615,19.683-31.065,37.301-37.299C108.566,99.824,108.566,94.667,105.039,93.418z"/>
	</g>
</g>
<g>
	<g>
		<path d="M447.661,208.414c-1.457-82.477-68.369-152.222-150.729-156.854c-87.094-4.897-160.114,59.904-168.438,143.74h56.946
			c-4.889-7.275-7.753-16.019-7.753-25.43c0-29.91,28.85-53.187,60.195-43.477c13.654,4.23,24.748,15.344,28.988,28.992
			c4.6,14.797,1.824,29.008-5.508,39.914h26.324v-94.742c0-9.69,8.594-17.34,18.187-15.977
			c62.078,8.832,109.813,62.199,109.813,126.718c0,24.42-6.961,47.16-18.828,66.574c1.908,4.098,3.05,8.617,3.05,13.426
			c0,17.645-14.355,32-32,32h33.947C430.798,293.8,448.452,253.186,447.661,208.414z"/>
	</g>
</g>
<g>
	<g>
		<circle cx="223.406" cy="169.871" r="29.712"/>
	</g>
</g>
<g>
	<g>
		<circle cx="355.678" cy="151.279" r="20"/>
	</g>
</g>
<g>
	<g>
		<circle cx="309.398" cy="109.583" r="5.712"/>
	</g>
</g>
<g>
	<g>
		<circle cx="329.998" cy="195.303" r="5.712"/>
	</g>
</g>
<g>
	<g>
		<circle cx="345.998" cy="237.583" r="12"/>
	</g>
</g>
<g>
	<g>
		<circle cx="394.318" cy="219.079" r="5.712"/>
	</g>
</g>
<g>
</g>
<g>
</g>
<g>
</g>
<g>
</g>
<g>
</g>
<g>
</g>
<g>
</g>
<g>
</g>
<g>
</g>
<g>
</g>
<g>
</g>
<g>
</g>
<g>
</g>
<g>
</g>
<g>
</g>
</svg>
