<?xml version="1.0" encoding="iso-8859-1"?>
<!-- Generator: Adobe Illustrator 19.0.0, SVG Export Plug-In . SVG Version: 6.00 Build 0)  -->
<svg version="1.1" id="Capa_1" xmlns="http://www.w3.org/2000/svg" xmlns:xlink="http://www.w3.org/1999/xlink" x="0px" y="0px"
	 viewBox="0 0 448 448" style="enable-background:new 0 0 448 448;" xml:space="preserve">
<g>
	<g>
		<path d="M144,16c0,36.77-27.229,64-64,64c36.771,0,64,27.226,64,64c0-36.774,27.229-64,64-64C171.229,80,144,52.77,144,16z"/>
	</g>
</g>
<g>
	<g>
		<path d="M32,128c0,18.385-13.614,32-32,32c18.386,0,32,13.614,32,32c0-18.386,13.614-32,32-32C45.614,160,32,146.385,32,128z"/>
	</g>
</g>
<g>
	<g>
		<path d="M288,208H96c-8.836,0-16,7.163-16,16c0,8.836,7.164,16,16,16h192c8.836,0,16-7.164,16-16C304,215.163,296.836,208,288,208
			z"/>
	</g>
</g>
<g>
	<g>
		<path d="M368,400H112c-8.836,0-16,7.163-16,16c0,8.836,7.164,16,16,16h256c8.836,0,16-7.164,16-16
			C384,407.163,376.836,400,368,400z"/>
	</g>
</g>
<g>
	<g>
		<path d="M432,336H16c-8.836,0-16,7.163-16,16c0,8.836,7.164,16,16,16h416c8.836,0,16-7.164,16-16C448,343.163,440.836,336,432,336
			z"/>
	</g>
</g>
<g>
	<g>
		<path d="M368,272H48c-8.836,0-16,7.163-16,16c0,8.836,7.164,16,16,16h320c8.836,0,16-7.164,16-16C384,279.163,376.836,272,368,272
			z"/>
	</g>
</g>
<g>
	<g>
		<circle cx="48" cy="224" r="16"/>
	</g>
</g>
<g>
	<g>
		<circle cx="416" cy="416" r="16"/>
	</g>
</g>
<g>
</g>
<g>
</g>
<g>
</g>
<g>
</g>
<g>
</g>
<g>
</g>
<g>
</g>
<g>
</g>
<g>
</g>
<g>
</g>
<g>
</g>
<g>
</g>
<g>
</g>
<g>
</g>
<g>
</g>
</svg>
