<?xml version="1.0" encoding="iso-8859-1"?>
<!-- Generator: Adobe Illustrator 19.0.0, SVG Export Plug-In . SVG Version: 6.00 Build 0)  -->
<svg version="1.1" id="Capa_1" xmlns="http://www.w3.org/2000/svg" xmlns:xlink="http://www.w3.org/1999/xlink" x="0px" y="0px"
	 viewBox="0 0 448 448" style="enable-background:new 0 0 448 448;" xml:space="preserve">
<g>
	<g>
		<circle cx="31.999" cy="223.993" r="16"/>
	</g>
</g>
<g>
	<g>
		<circle cx="431.999" cy="416.009" r="16"/>
	</g>
</g>
<g>
	<g>
		<circle cx="379.335" cy="225.993" r="8"/>
	</g>
</g>
<g>
	<g>
		<circle cx="291.015" cy="146.993" r="16"/>
	</g>
</g>
<g>
	<g>
		<path d="M432,335.991c-158.992,0-263.539,0-416,0c-8.836,0-16,7.163-16,16c0,8.836,7.164,16,16,16c168.306,0,213.379,0,416,0
			c8.836,0,16-7.164,16-16C448,343.154,440.836,335.991,432,335.991z"/>
	</g>
</g>
<g>
	<g>
		<path d="M368.222,399.991c-80.394,0-175.705,0-256.222,0c-8.836,0-16,7.163-16,16c0,8.836,7.164,16,16,16h256.222
			c8.836,0,16-7.164,16-16C384.222,407.154,377.058,399.991,368.222,399.991z"/>
	</g>
</g>
<g>
	<g>
		<path d="M448,175.991c0-61.857-50.145-112-112-112s-112,50.143-112,112c0,5.438,0.426,10.774,1.19,16H288c8.801,0,16,7.2,16,16
			c-78.543,0-128.863,0-207.778,0c-8.836,0-16,7.163-16,16c0,8.836,7.164,16,16,16c35.869,0,70.05,0,147.938,0
			c4.043,5.79,8.695,11.094,13.738,16H352c8.801,0,16,7.2,16,16c-4.562,0-7.801,0-10.102,0c-3.383,0-4.695,0-4.844,0
			c-16.282,0-81.336,0-304.832,0c-8.836,0-16,7.163-16,16c0,8.836,7.164,16,16,16c110.961,0,202.446,0,320,0c8.836,0,16-7.164,16-16
			c0-3.585-1.402-6.729-3.394-9.397C420.355,261.298,448,221.895,448,175.991z M291,178.991c-17.65,0-32-14.35-32-32
			c0-17.65,14.35-32,32-32s32,14.35,32,32C323,164.641,308.65,178.991,291,178.991z M320,231.991c-4.418,0-8-3.582-8-8s3.582-8,8-8
			s8,3.582,8,8C328,228.409,324.418,231.991,320,231.991z M338.668,104.991c-2.211,0-4-1.791-4-4s1.789-4,4-4c2.207,0,4,1.791,4,4
			S340.875,104.991,338.668,104.991z M346.668,175.991c-2.211,0-4-1.791-4-4s1.789-4,4-4c2.207,0,4,1.791,4,4
			S348.875,175.991,346.668,175.991z M384,113.991c7.73,0,14,6.269,14,14s-6.27,14-14,14s-14-6.269-14-14
			S376.27,113.991,384,113.991z M379.334,249.991c-13.238,0-24-10.762-24-24s10.762-24,24-24c13.236,0,24,10.762,24,24
			S392.57,249.991,379.334,249.991z M410.668,185.438c-2.211,0-4-1.791-4-4s1.789-4,4-4c2.207,0,4,1.791,4,4
			S412.875,185.438,410.668,185.438z"/>
	</g>
</g>
<g>
	<g>
		<path d="M144,15.991c0,36.77-27.229,64-64,64c36.771,0,64,27.226,64,64c0-36.774,27.229-64,64-64
			C171.229,79.991,144,52.761,144,15.991z"/>
	</g>
</g>
<g>
	<g>
		<path d="M32,127.991c0,18.385-13.614,32-32,32c18.387,0,32,13.614,32,32c0-18.386,13.614-32,32-32
			C45.614,159.991,32,146.376,32,127.991z"/>
	</g>
</g>
<g>
</g>
<g>
</g>
<g>
</g>
<g>
</g>
<g>
</g>
<g>
</g>
<g>
</g>
<g>
</g>
<g>
</g>
<g>
</g>
<g>
</g>
<g>
</g>
<g>
</g>
<g>
</g>
<g>
</g>
</svg>
