<?xml version="1.0" encoding="iso-8859-1"?>
<!-- Generator: Adobe Illustrator 21.0.0, SVG Export Plug-In . SVG Version: 6.00 Build 0)  -->
<svg xmlns="http://www.w3.org/2000/svg" xmlns:xlink="http://www.w3.org/1999/xlink" version="1.1" id="Capa_1" x="0px" y="0px" viewBox="0 0 512 512" style="enable-background:new 0 0 512 512;" xml:space="preserve" width="512" height="512">
<g>
	<path d="M472.916,121.648c-0.001,0-0.002,0-0.003-0.001c-0.003,0-0.005-0.002-0.008-0.002L199.397,61.389   c-4.398-1.02-9.087-0.022-12.721,2.86c-0.001,0.001-0.002,0.002-0.003,0.002c-0.004,0.003-0.009,0.007-0.013,0.01   c-0.011,0.008-0.021,0.017-0.031,0.025L61,164.791V87.42C78.459,81.228,91,64.555,91,45C91,20.187,70.813,0,46,0   C21.134,0,0,20.096,0,45c0,19.993,13.543,36.486,31,42.493v108.489c0,0.006-0.001,0.012-0.001,0.018c0,0.002,0,0.003,0,0.005   c0,0.006,0.001,0.012,0.001,0.018V482H15c-8.284,0-15,6.716-15,15s6.716,15,15,15h61c8.284,0,15-6.716,15-15s-6.716-15-15-15H61   V227.209l125.63,100.504c3.123,2.5,7.218,3.62,11.017,3.196l272.352-30.075c0.002,0,0.004,0,0.006,0   C502.213,297.264,512,244.389,512,211C512,170.826,499.915,127.618,472.916,121.648z M46,30c8.271,0,15,6.729,15,15   s-6.729,15-15,15c-8.523,0-16-7.009-16-15S37.477,30,46,30z M374.798,281.165C365.75,257.525,361,230.905,361,203.5   c0-25.603,4.184-50.622,12.141-73.114l62.517,13.773c-1.314,2.483-2.587,5.209-3.798,8.237C425.502,168.292,422,189.104,422,211   s3.502,42.708,9.859,58.604c0.708,1.77,1.438,3.438,2.183,5.019L374.798,281.165z M288.754,290.667   C277.126,264.79,271,234.888,271,203.5c0-32.719,6.946-64.685,19.674-91.282l52.963,11.668C335.34,148.652,331,175.834,331,203.5   c0,28.267,4.519,55.905,13.139,81.051L288.754,290.667z M482,211c0,35.208-10.091,55.76-15,59.625   c-4.909-3.865-15-24.417-15-59.625s10.091-55.76,15-59.625C471.909,155.239,482,175.791,482,211z M204.282,93.185l56.383,12.422   C247.761,134.918,241,168.362,241,203.5c0,32.119,5.72,63.028,16.642,90.602l-52.846,5.836C196.918,282.784,181,242.383,181,196   C181,150.601,196.253,110.925,204.282,93.185z M161.619,269.286L70.012,196l91.607-73.286C155.768,143.377,151,168.614,151,196   S155.768,248.623,161.619,269.286z"/>
</g>















</svg>
