<?xml version="1.0" encoding="iso-8859-1"?>
<!-- Generator: Adobe Illustrator 19.0.0, SVG Export Plug-In . SVG Version: 6.00 Build 0)  -->
<svg version="1.1" id="Capa_1" xmlns="http://www.w3.org/2000/svg" xmlns:xlink="http://www.w3.org/1999/xlink" x="0px" y="0px"
	 viewBox="0 0 448.138 448.138" style="enable-background:new 0 0 448.138 448.138;" xml:space="preserve">
<g>
	<g>
		<path d="M405.962,202.246c0-0.001-0.07-0.061-0.106-0.095L236.542,35.36c-6.248-6.248-16.379-6.248-22.627,0
			c-6.25,6.248-6.25,16.379,0,22.628l105.598,102.966c-5.114-0.546-10.24-0.886-15.375-0.886c-26.965,0-53.89,7.61-77.435,22.662
			l23.306,23.306c16.39-9.081,34.873-13.968,54.129-13.968c29.916,0,58.043,11.65,79.198,32.804
			c43.668,43.669,43.668,114.724,0,158.392c-21.154,21.154-49.282,32.805-79.198,32.805s-58.043-11.65-79.198-32.805
			c-39.814-39.815-43.182-102.32-10.386-146.152l18.389,18.39c-4.117,5.386-6.66,12.034-6.66,19.323c0,17.65,14.35,32,32,32
			c17.649,0,32-14.35,32-32c0-14.672-9.973-26.93-23.457-30.695L59.486,36.79c-6.246-6.249-16.379-6.249-22.625,0
			c-6.25,6.248-6.25,16.379,0,22.627l154.809,154.81c-24.207,30.23-34.459,67.935-30.75,104.504l-101.75-99.066
			c-6.25-6.249-16.379-6.249-22.629,0c-6.246,6.248-6.246,16.379,0,22.627l165.774,163.6c28.119,28.117,64.97,42.177,101.824,42.177
			c36.854,0,73.705-14.059,101.824-42.177C462.196,349.657,462.196,258.481,405.962,202.246z M244.55,267.108l12.225,12.226
			c4,3.998,9.541,5.15,14.683,4.03c-2.855,4.385-7.562,7.461-13.176,7.461c-8.822,0-16-7.178-16-16
			C242.282,271.971,243.235,269.43,244.55,267.108z"/>
	</g>
</g>
<g>
	<g>
		<path d="M346.614,329.824c-13.237,0-24,10.763-24,24c0,13.238,10.764,24,24,24c13.238,0,24-10.762,24-24
			S359.853,329.824,346.614,329.824z M346.614,361.824c-4.412,0-8-3.589-8-8s3.588-8,8-8c4.412,0,8,3.589,8,8
			S351.026,361.824,346.614,361.824z"/>
	</g>
</g>
<g>
	<g>
		<circle cx="305.952" cy="228.822" r="4"/>
	</g>
</g>
<g>
	<g>
		<circle cx="313.952" cy="299.822" r="4"/>
	</g>
</g>
<g>
	<g>
		<circle cx="226.28" cy="330.134" r="4"/>
	</g>
</g>
<g>
	<g>
		<circle cx="377.976" cy="309.286" r="4"/>
	</g>
</g>
<g>
	<g>
		<circle cx="290.28" cy="388.606" r="4"/>
	</g>
</g>
<g>
	<g>
		<path d="M276.173,349.996c-0.114-0.192-0.234-0.351-0.362-0.534c-0.721-1.072-1.634-1.956-2.775-2.576
			c-1.137-0.617-2.371-1.062-3.754-1.062c-4.418,0-8,3.582-8,8c0,1.382,0.442,2.618,1.058,3.753
			c0.619,1.138,1.508,2.058,2.578,2.776c0.183,0.127,0.342,0.248,0.535,0.36c1.152,0.645,2.412,1.11,3.828,1.11c4.418,0,8-3.582,8-8
			C277.282,352.409,276.816,351.148,276.173,349.996z"/>
	</g>
</g>
<g>
	<g>
		<circle cx="351.256" cy="255.846" r="14"/>
	</g>
</g>
<g>
	<g>
		<path d="M384.138,0.068c0,36.77-27.229,64-64,64c36.771,0,64,27.227,64,64c0-36.774,27.229-64,64-64
			C411.366,64.068,384.138,36.838,384.138,0.068z"/>
	</g>
</g>
<g>
	<g>
		<path d="M64.138,352.068c0,18.385-13.614,32-32,32c18.386,0,32,13.614,32,32c0-18.386,13.614-32,32-32
			C77.751,384.068,64.138,370.453,64.138,352.068z"/>
	</g>
</g>
<g>
	<g>
		<circle cx="16" cy="199.046" r="16"/>
	</g>
</g>
<g>
	<g>
		<circle cx="16.064" cy="16.142" r="16"/>
	</g>
</g>
<g>
	<g>
		<circle cx="194.512" cy="16.222" r="16"/>
	</g>
</g>
<g>
</g>
<g>
</g>
<g>
</g>
<g>
</g>
<g>
</g>
<g>
</g>
<g>
</g>
<g>
</g>
<g>
</g>
<g>
</g>
<g>
</g>
<g>
</g>
<g>
</g>
<g>
</g>
<g>
</g>
</svg>
