<?xml version="1.0" encoding="iso-8859-1"?>
<!-- Generator: Adobe Illustrator 21.0.0, SVG Export Plug-In . SVG Version: 6.00 Build 0)  -->
<svg xmlns="http://www.w3.org/2000/svg" xmlns:xlink="http://www.w3.org/1999/xlink" version="1.1" id="Capa_1" x="0px" y="0px" viewBox="0 0 512 512" style="enable-background:new 0 0 512 512;" xml:space="preserve" width="512" height="512">
<g>
	<path d="M256,121.5c8.284,0,15-6.716,15-15v-61c0-8.284-6.716-15-15-15s-15,6.716-15,15v61C241,114.784,247.716,121.5,256,121.5z"/>
	<path d="M173.259,125.942c2.393,5.777,7.978,9.264,13.864,9.264c1.913,0,3.857-0.368,5.734-1.146   c7.653-3.17,11.288-11.945,8.118-19.599l-11.48-27.716c-3.17-7.654-11.946-11.287-19.599-8.118   c-7.653,3.17-11.288,11.945-8.118,19.599L173.259,125.942z"/>
	<path d="M319.143,134.06c1.877,0.777,3.821,1.146,5.734,1.146c5.886,0,11.472-3.487,13.864-9.264l11.48-27.716   c3.17-7.654-0.465-16.428-8.118-19.599c-7.652-3.169-16.429,0.464-19.599,8.118l-11.48,27.716   C307.854,122.115,311.489,130.89,319.143,134.06z"/>
	<path d="M15,301.5h61c8.284,0,15-6.716,15-15s-6.716-15-15-15H15c-8.284,0-15,6.716-15,15S6.716,301.5,15,301.5z"/>
	<path d="M421,286.5c0,8.284,6.716,15,15,15h61c8.284,0,15-6.716,15-15s-6.716-15-15-15h-61C427.716,271.5,421,278.216,421,286.5z"/>
	<path d="M118.114,169.827c2.929,2.929,6.768,4.394,10.606,4.394s7.678-1.464,10.606-4.394c5.858-5.858,5.858-15.355,0-21.213   L96.9,106.188c-5.857-5.858-15.355-5.858-21.213,0c-5.858,5.858-5.858,15.355,0,21.213L118.114,169.827z"/>
	<path d="M383.279,174.221c3.838,0,7.678-1.465,10.606-4.394l42.427-42.426c5.858-5.857,5.858-15.355,0-21.213   c-5.856-5.858-15.354-5.858-21.213,0l-42.427,42.426c-5.858,5.857-5.858,15.355,0,21.213   C375.602,172.756,379.44,174.221,383.279,174.221z"/>
	<path d="M408.44,223.357c2.393,5.777,7.978,9.264,13.864,9.264c1.913,0,3.857-0.368,5.734-1.146l27.716-11.48   c7.653-3.17,11.288-11.945,8.118-19.598c-3.171-7.654-11.945-11.289-19.599-8.118l-27.716,11.48   C408.905,206.929,405.271,215.704,408.44,223.357z"/>
	<path d="M56.245,219.995l27.717,11.48c1.878,0.777,3.821,1.146,5.734,1.146c5.886,0,11.472-3.487,13.864-9.264   c3.17-7.654-0.465-16.428-8.118-19.599l-27.717-11.48c-7.656-3.17-16.429,0.464-19.599,8.118S48.592,216.825,56.245,219.995z"/>
	<path d="M497,331.5H383.281c5.074-14.38,7.719-29.606,7.719-45c0-74.439-60.561-135-135-135s-135,60.561-135,135   c0,15.394,2.645,30.62,7.719,45H15c-8.284,0-15,6.716-15,15s6.716,15,15,15h344.856c0.025,0,0.051,0.002,0.076,0.002   c0.025,0,0.05-0.002,0.075-0.002H497c8.284,0,15-6.716,15-15S505.284,331.5,497,331.5z M151,286.5c0-57.897,47.103-105,105-105   s105,47.103,105,105c0,15.622-3.488,31.014-10.121,45H161.121C154.488,317.514,151,302.122,151,286.5z"/>
	<path d="M437,391.5H75c-8.284,0-15,6.716-15,15s6.716,15,15,15h362c8.284,0,15-6.716,15-15S445.284,391.5,437,391.5z"/>
	<path d="M377,451.5H135c-8.284,0-15,6.716-15,15s6.716,15,15,15h242c8.284,0,15-6.716,15-15S385.284,451.5,377,451.5z"/>
</g>















</svg>
