<?xml version="1.0" encoding="iso-8859-1"?>
<!-- Generator: Adobe Illustrator 19.0.0, SVG Export Plug-In . SVG Version: 6.00 Build 0)  -->
<svg version="1.1" id="Capa_1" xmlns="http://www.w3.org/2000/svg" xmlns:xlink="http://www.w3.org/1999/xlink" x="0px" y="0px"
	 viewBox="0 0 488.005 488.005" style="enable-background:new 0 0 488.005 488.005;" xml:space="preserve">
<g>
	<g>
		<path d="M474.846,125.951l-29.023-17.413l20.149-27.191c1.074-1.447,0.218-3.514-1.562-3.78l-33.477-4.981l8.207-32.832
			c0.438-1.747-1.145-3.33-2.894-2.894l-32.832,8.208l-4.981-33.474c-0.266-1.782-2.332-2.638-3.782-1.566L367.46,30.178
			l-17.41-29.019c-0.93-1.545-3.164-1.545-4.094,0l-17.41,29.019l-27.191-20.149c-1.45-1.071-3.516-0.215-3.782,1.566l-4.981,33.474
			l-32.832-8.208c-1.75-0.437-3.332,1.146-2.894,2.894l6.801,27.215c8.718,1.72,17.258,4.03,25.434,7.287
			c14.629-16.027,35.492-26.258,58.902-26.258c44.183,0,80,35.818,80,80c0,6.423-0.953,12.585-2.383,18.57
			c12.95,8.57,23.981,19.764,32.418,32.808l6.371-0.948c1.782-0.265,2.637-2.333,1.562-3.779l-20.149-27.191l29.023-17.413
			C476.389,129.117,476.389,126.879,474.846,125.951z"/>
	</g>
</g>
<g>
	<g>
		<path d="M241.065,360.818c-8.422-2.828-17.438,1.742-20.234,10.117l-32,96c-2.797,8.383,1.734,17.446,10.11,20.242
			c1.687,0.562,3.39,0.828,5.062,0.828c6.703,0,12.938-4.242,15.172-10.946l32-96C253.971,372.677,249.44,363.615,241.065,360.818z"
			/>
	</g>
</g>
<g>
	<g>
		<path d="M321.065,360.818c-8.438-2.828-17.438,1.742-20.234,10.117l-16,48c-2.797,8.383,1.734,17.446,10.11,20.242
			c1.687,0.562,3.39,0.828,5.062,0.828c6.703,0,12.938-4.242,15.172-10.946l16-48C333.971,372.677,329.44,363.615,321.065,360.818z"
			/>
	</g>
</g>
<g>
	<g>
		<path d="M161.065,360.818c-8.422-2.828-17.438,1.742-20.234,10.117l-16,48c-2.797,8.383,1.734,17.446,10.11,20.242
			c1.687,0.562,3.39,0.828,5.062,0.828c6.703,0,12.938-4.242,15.172-10.946l16-48C173.971,372.677,169.44,363.615,161.065,360.818z"
			/>
	</g>
</g>
<g>
	<g>
		<path d="M364.002,143.998c-5.586,0-11.031,0.578-16.355,1.494c-21.918-39.059-63.668-65.494-111.645-65.494
			s-89.726,26.434-111.645,65.494c-5.324-0.916-10.77-1.494-16.355-1.494c-53.019,0-96,42.981-96,96s42.981,96,96,96h256
			c53.019,0,96-42.981,96-96C460.002,186.979,417.021,143.998,364.002,143.998z"/>
	</g>
</g>
<g>
</g>
<g>
</g>
<g>
</g>
<g>
</g>
<g>
</g>
<g>
</g>
<g>
</g>
<g>
</g>
<g>
</g>
<g>
</g>
<g>
</g>
<g>
</g>
<g>
</g>
<g>
</g>
<g>
</g>
</svg>
