<?xml version="1.0" encoding="iso-8859-1"?>
<!-- Generator: Adobe Illustrator 21.0.0, SVG Export Plug-In . SVG Version: 6.00 Build 0)  -->
<svg xmlns="http://www.w3.org/2000/svg" xmlns:xlink="http://www.w3.org/1999/xlink" version="1.1" id="Capa_1" x="0px" y="0px" viewBox="0 0 512 512" style="enable-background:new 0 0 512 512;" xml:space="preserve" width="512" height="512">
<g>
	<path d="M497,0h-31c-94.979,0-185.636,35.797-255.272,100.796c-65.35,60.998-106.531,142.267-117.041,230.246   C92.792,331.016,91.896,331,91,331c-49.682,0-91,41.151-91,91c0,49.74,41.232,90,91,90h210c49.626,0,90-40.374,90-90   c0-47.74-37.005-87.551-83.853-90.764C326.95,260.969,392.229,209.8,466,209.8l31,0.2c8.284,0,15-6.716,15-15V15   C512,6.716,505.284,0,497,0z M200.925,271.127C243.61,163.462,349.611,90,466,90h16v30h-16   c-102.823,0-195.319,62.431-235.045,156.942C221.447,273.607,211.356,271.607,200.925,271.127z M466,30h16v30h-16   c-68.632,0-133.934,21.911-188.847,63.362c-50.627,38.218-89.273,91.772-109.55,151.519c-13.428,3.741-25.852,10.083-36.624,18.564   C168.306,141.951,305.997,30,466,30z M361,422c0,33.084-26.916,60-60,60H91c-33.636,0-61-26.916-61-60c0-33.065,27.935-61,61-61   c5.237,0,10.43,0.673,15.434,2c7.717,2.047,15.69-2.312,18.129-9.92C134.548,321.929,163.257,301,196,301   c32.545,0,61.401,20.768,71.438,52.08c2.438,7.605,10.409,11.967,18.13,9.92c5.002-1.327,10.194-2,15.433-2   C334.084,361,361,388.364,361,422z M466,180.2c-46.554,0-91.681,16.697-127.066,47.38c-26.89,23.315-46.85,53.376-57.939,86.666   c-6.537-9.026-14.43-16.887-23.348-23.343C292.173,206.151,374.455,150,466,150h16v30.2L466,180.2z"/>
</g>















</svg>
