<?xml version="1.0" encoding="iso-8859-1"?>
<!-- Generator: Adobe Illustrator 19.0.0, SVG Export Plug-In . SVG Version: 6.00 Build 0)  -->
<svg version="1.1" id="Capa_1" xmlns="http://www.w3.org/2000/svg" xmlns:xlink="http://www.w3.org/1999/xlink" x="0px" y="0px"
	 viewBox="0 0 448 448" style="enable-background:new 0 0 448 448;" xml:space="preserve">
<g>
	<g>
		<path d="M144,16c0,36.77-27.229,64-64,64c36.772,0,64,27.226,64,64c0-36.774,27.229-64,64-64C171.229,80,144,52.77,144,16z"/>
	</g>
</g>
<g>
	<g>
		<path d="M32,136.752c0,18.385-13.614,32-32,32c18.387,0,32,13.613,32,32c0-18.386,13.614-32,32-32
			C45.614,168.752,32,155.137,32,136.752z"/>
	</g>
</g>
<g>
	<g>
		<path d="M352,240c-5.588,0-11.031,0.578-16.355,1.494C313.727,202.434,271.977,176,224,176s-89.726,26.434-111.645,65.494
			C107.031,240.578,101.588,240,96,240c-53.019,0-96,42.981-96,96c0,53.019,42.981,96,96,96h256c53.019,0,96-42.981,96-96
			C448,282.981,405.02,240,352,240z"/>
	</g>
</g>
<g>
</g>
<g>
</g>
<g>
</g>
<g>
</g>
<g>
</g>
<g>
</g>
<g>
</g>
<g>
</g>
<g>
</g>
<g>
</g>
<g>
</g>
<g>
</g>
<g>
</g>
<g>
</g>
<g>
</g>
</svg>
