<?xml version="1.0" encoding="iso-8859-1"?>
<!-- Generator: Adobe Illustrator 21.0.0, SVG Export Plug-In . SVG Version: 6.00 Build 0)  -->
<svg xmlns="http://www.w3.org/2000/svg" xmlns:xlink="http://www.w3.org/1999/xlink" version="1.1" id="Capa_1" x="0px" y="0px" viewBox="0 0 512 512" style="enable-background:new 0 0 512 512;" xml:space="preserve" width="512" height="512">
<g>
	<path d="M482,332.979V76c0-41.466-33.538-76-75-76c-18.878,0-36.72,7.125-50.63,20.129C325.112,6.951,290.646,0,256,0   c-7.241,0-14.434,0.32-21.573,0.918c-0.262,0.018-0.524,0.036-0.785,0.067C104.135,12.229,0,121.579,0,256   c0,140.97,115.049,256,256,256c32.114,0,64.267-5.989,93.544-17.343c11.623,7.797,24.764,13.287,38.732,15.714   c6.071,1.056,12.16,1.575,18.21,1.575c24.582-0.001,48.481-8.577,67.55-24.617C498.162,467.034,512,437.391,512,406   C512,378.844,501.144,352.598,482,332.979z M205.007,74.588c2.208,22.606,12.138,43.77,27.96,59.592   c5.181,5.18,8.033,12.067,8.033,19.393c0,49.504-90,3.829-90,84.853c0,7.653,1.486,15.077,4.324,21.943l-37.654-9.414   c-26.685-6.671-35.565-39.848-16.357-59.055c14.471-14.471,21.938-34.478,20.487-54.892c-1.225-17.239-8.724-33.275-20.881-45.246   c29.681-28.042,66.931-48.145,108.326-56.887C205.188,47.561,203.688,61.091,205.007,74.588z M177.84,443.045l-7.376,22.128   c-6.652-2.73-13.146-5.768-19.464-9.098v-97.65c0-4.006,1.56-7.773,4.393-10.605l41.991-41.991   c12.617,7.296,27.621,9.534,42.284,5.952c6.54-1.595,13.25,1.595,16.332,7.759l7.097,14.194c3.84,7.68,3.84,16.851,0.001,24.53   l-18.278,36.555l-44.413,22.207C189.656,422.401,181.643,431.641,177.84,443.045z M30,256c0-53.859,18.949-103.368,50.515-142.238   c6.613,6.808,10.677,15.769,11.36,25.374c0.834,11.733-3.458,23.234-11.775,31.552c-35.581,35.581-19.115,97.021,30.295,109.373   l56.266,14.066l-32.48,32.48c-8.499,8.499-13.18,19.798-13.18,31.819v78.715C65.8,395.896,30,330.05,30,256z M198.914,474.69   l7.385-22.158c1.268-3.802,3.939-6.882,7.522-8.673l48.886-24.443c2.903-1.452,5.257-3.805,6.708-6.708l20.515-41.027   c8.039-16.081,8.039-35.282-0.001-51.363l-7.098-14.194c-9.384-18.769-30.06-28.423-50.283-23.485   c-9.406,2.3-19.106-0.41-25.943-7.246l-17.572-17.573c-5.181-5.18-8.033-12.067-8.033-19.393c0-49.504,90-3.829,90-84.853   c0-15.34-5.974-29.761-16.82-40.606c-21.562-21.563-25.692-56.493-10.24-82.644C247.934,30.112,251.954,30,256,30   c28.375,0,56.577,5.255,82.487,15.254C334.249,54.842,332,65.264,332,76v256.975c-23.682,24.234-34.249,57.975-28.374,91.597   c3.038,17.386,10.505,33.489,21.098,47.008C302.779,478.425,279.391,482,256,482C236.286,482,217.156,479.456,198.914,474.69z    M454.725,464.371c-17.218,14.483-38.993,20.323-61.311,16.443c-29.585-5.143-54.918-30.968-60.235-61.407   c-4.549-26.032,4.148-51.147,23.861-68.906c3.157-2.845,4.96-6.895,4.96-11.145V76c0-24.935,20.607-46,45-46s45,21.065,45,46v15   h-30V76c0-8.284-6.716-15-15-15s-15,6.716-15,15v287.58c-17.459,6.192-30,22.865-30,42.42c0,24.813,20.187,45,45,45   s45-20.187,45-45c0-19.555-12.541-36.228-30-42.42V121h30v218.357c0,4.25,1.803,8.3,4.96,11.145   C473.107,365.048,482,384.758,482,406C482,428.515,472.059,449.79,454.725,464.371z M407,391c8.271,0,15,6.729,15,15   s-6.729,15-15,15s-15-6.729-15-15S398.729,391,407,391z"/>
</g>















</svg>
