<?xml version="1.0" encoding="iso-8859-1"?>
<!-- Generator: Adobe Illustrator 19.0.0, SVG Export Plug-In . SVG Version: 6.00 Build 0)  -->
<svg version="1.1" id="Capa_1" xmlns="http://www.w3.org/2000/svg" xmlns:xlink="http://www.w3.org/1999/xlink" x="0px" y="0px"
	 viewBox="0 0 448 448" style="enable-background:new 0 0 448 448;" xml:space="preserve">
<g>
	<g>
		<path d="M229.062,304.812c-8.422-2.828-17.438,1.742-20.234,10.117l-32,96c-2.797,8.383,1.734,17.446,10.11,20.242
			c1.687,0.562,3.39,0.828,5.062,0.828c6.703,0,12.938-4.242,15.172-10.946l32-96C241.969,316.672,237.438,307.609,229.062,304.812z
			"/>
	</g>
</g>
<g>
	<g>
		<path d="M309.062,304.812c-8.438-2.828-17.438,1.742-20.234,10.117l-16,48c-2.797,8.383,1.734,17.446,10.11,20.242
			c1.687,0.562,3.39,0.828,5.062,0.828c6.703,0,12.938-4.242,15.172-10.946l16-48C321.969,316.672,317.438,307.609,309.062,304.812z
			"/>
	</g>
</g>
<g>
	<g>
		<path d="M149.062,304.812c-8.422-2.828-17.438,1.742-20.234,10.117l-16,48c-2.797,8.383,1.734,17.446,10.11,20.242
			c1.687,0.562,3.39,0.828,5.062,0.828c6.703,0,12.938-4.242,15.172-10.946l16-48C161.969,316.672,157.438,307.609,149.062,304.812z
			"/>
	</g>
</g>
<g>
	<g>
		<path d="M352,80c-5.586,0-11.031,0.578-16.355,1.496C313.727,42.438,271.977,16,224,16s-89.726,26.438-111.645,65.496
			C107.031,80.579,101.586,80,96,80c-53.019,0-96,42.981-96,96c0,53.019,42.981,96,96,96h256c53.019,0,96-42.981,96-96
			C448,122.981,405.019,80,352,80z"/>
	</g>
</g>
<g>
</g>
<g>
</g>
<g>
</g>
<g>
</g>
<g>
</g>
<g>
</g>
<g>
</g>
<g>
</g>
<g>
</g>
<g>
</g>
<g>
</g>
<g>
</g>
<g>
</g>
<g>
</g>
<g>
</g>
</svg>
