<?xml version="1.0" encoding="iso-8859-1"?>
<!-- Generator: Adobe Illustrator 19.0.0, SVG Export Plug-In . SVG Version: 6.00 Build 0)  -->
<svg version="1.1" id="Capa_1" xmlns="http://www.w3.org/2000/svg" xmlns:xlink="http://www.w3.org/1999/xlink" x="0px" y="0px"
	 viewBox="0 0 448 448" style="enable-background:new 0 0 448 448;" xml:space="preserve">
<g>
	<g>
		<path d="M352,64c-5.588,0-11.031,0.578-16.355,1.494C313.727,26.435,271.977,0,224,0s-89.726,26.434-111.645,65.494
			C107.031,64.578,101.588,64,96,64c-53.019,0-96,42.981-96,96c0,41.982,26.992,77.576,64.534,90.615
			c10.951-14.426,22.81-24.589,63.466-65.242c42,41.996,56.722,54.329,67.602,70.627H352c53.02,0,96-42.981,96-96
			C448,106.981,405.019,64,352,64z"/>
	</g>
</g>
<g>
	<g>
		<circle cx="375.997" cy="343.983" r="8"/>
	</g>
</g>
<g>
	<g>
		<path d="M376,288c-4.418,0-8,3.581-8,8v16c0,4.418,3.582,8,8,8s8-3.582,8-8v-16C384,291.581,380.418,288,376,288z"/>
	</g>
</g>
<g>
	<g>
		<path d="M376,368c-4.418,0-8,3.581-8,7.999V392c0,4.418,3.582,8,8,8s8-3.582,8-8v-16.001C384,371.581,380.418,368,376,368z"/>
	</g>
</g>
<g>
	<g>
		<path d="M352.301,321.08l-13.855-8c-3.828-2.209-8.718-0.898-10.93,2.928s-0.898,8.718,2.93,10.928l13.855,8
			c3.824,2.209,8.718,0.898,10.926-2.928C357.438,328.182,356.125,323.289,352.301,321.08z"/>
	</g>
</g>
<g>
	<g>
		<path d="M421.582,361.081l-13.855-8c-3.828-2.209-8.718-0.898-10.93,2.928c-2.207,3.827-0.898,8.72,2.93,10.929l13.855,8
			c3.828,2.209,8.718,0.898,10.93-2.929C426.719,368.182,425.41,363.29,421.582,361.081z"/>
	</g>
</g>
<g>
	<g>
		<path d="M355.203,356.01c-2.211-3.827-7.102-5.138-10.93-2.929l-13.851,8c-3.828,2.209-5.141,7.102-2.93,10.928
			c2.211,3.827,7.102,5.138,10.93,2.929l13.851-8C356.102,364.729,357.414,359.836,355.203,356.01z"/>
	</g>
</g>
<g>
	<g>
		<path d="M424.488,316.012c-2.211-3.826-7.106-5.137-10.93-2.928l-13.855,8c-3.828,2.209-5.137,7.102-2.93,10.928
			c2.211,3.827,7.102,5.138,10.93,2.928l13.855-8C425.382,324.731,426.695,319.838,424.488,316.012z"/>
	</g>
</g>
<g>
	<g>
		<circle cx="247.997" cy="391.983" r="8"/>
	</g>
</g>
<g>
	<g>
		<path d="M248,336c-4.418,0-8,3.581-8,8v16c0,4.418,3.582,8,8,8s8-3.582,8-8v-16C256,339.581,252.418,336,248,336z"/>
	</g>
</g>
<g>
	<g>
		<path d="M248,416c-4.418,0-8,3.581-8,7.999V440c0,4.418,3.582,8,8,8s8-3.582,8-8v-16.001C256,419.581,252.418,416,248,416z"/>
	</g>
</g>
<g>
	<g>
		<path d="M224.301,369.08l-13.855-8c-3.828-2.209-8.718-0.898-10.93,2.928c-2.211,3.826-0.898,8.718,2.93,10.928l13.855,8
			c3.824,2.209,8.718,0.898,10.926-2.928C229.438,376.182,228.125,371.289,224.301,369.08z"/>
	</g>
</g>
<g>
	<g>
		<path d="M293.582,409.081l-13.855-8c-3.828-2.209-8.718-0.898-10.93,2.928c-2.207,3.827-0.898,8.72,2.93,10.929l13.855,8
			c3.828,2.209,8.718,0.898,10.93-2.929C298.719,416.182,297.41,411.29,293.582,409.081z"/>
	</g>
</g>
<g>
	<g>
		<path d="M227.203,404.01c-2.211-3.827-7.102-5.138-10.93-2.929l-13.851,8c-3.828,2.209-5.141,7.102-2.93,10.928
			c2.211,3.827,7.102,5.138,10.93,2.929l13.851-8C228.102,412.729,229.414,407.836,227.203,404.01z"/>
	</g>
</g>
<g>
	<g>
		<path d="M296.488,364.012c-2.211-3.826-7.106-5.137-10.93-2.928l-13.855,8c-3.828,2.209-5.137,7.102-2.93,10.928
			c2.211,3.827,7.102,5.138,10.93,2.928l13.855-8C297.382,372.731,298.695,367.838,296.488,364.012z"/>
	</g>
</g>
<g>
	<g>
		<path d="M128,230.505c-38.512,37.72-48,45.369-48,68.007c0,26.468,21.534,48,48,48c26.466,0,48-21.532,48-48
			C176,275.881,166.488,268.213,128,230.505z"/>
	</g>
</g>
<g>
</g>
<g>
</g>
<g>
</g>
<g>
</g>
<g>
</g>
<g>
</g>
<g>
</g>
<g>
</g>
<g>
</g>
<g>
</g>
<g>
</g>
<g>
</g>
<g>
</g>
<g>
</g>
<g>
</g>
</svg>
