<?xml version="1.0" encoding="iso-8859-1"?>
<!-- Generator: Adobe Illustrator 21.0.0, SVG Export Plug-In . SVG Version: 6.00 Build 0)  -->
<svg xmlns="http://www.w3.org/2000/svg" xmlns:xlink="http://www.w3.org/1999/xlink" version="1.1" id="Capa_1" x="0px" y="0px" viewBox="0 0 512.002 512.002" style="enable-background:new 0 0 512.002 512.002;" xml:space="preserve" width="512" height="512">
<g>
	<path d="M481.016,151c0-49.626-40.374-90-90-90c-3.3,0-6.592,0.179-9.857,0.536c-7.368-15.763-18.626-29.79-32.535-40.335   C330.328,7.331,308.678,0,286.016,0s-44.312,7.331-62.607,21.201c-13.909,10.544-25.167,24.572-32.535,40.335   c-3.266-0.356-6.558-0.536-9.857-0.536c-49.626,0-90,40.374-90,90c0,11.532,2.159,22.72,6.309,33.171   c-38.168,10.426-66.309,45.4-66.309,86.829c0,49.626,40.374,90,90,90h210c49.626,0,90-40.374,90-90   c0-11.706-2.249-22.896-6.333-33.164C452.864,227.418,481.016,192.438,481.016,151z M331.016,331h-210c-33.084,0-60-26.916-60-60   s26.916-60,60-60c5.238,0,10.43,0.673,15.433,2c7.721,2.047,15.691-2.314,18.13-9.92c9.985-31.151,38.694-52.08,71.438-52.08   s61.452,20.929,71.438,52.08c2.438,7.605,10.402,11.968,18.13,9.92c5.003-1.327,10.194-2,15.433-2c33.084,0,60,26.916,60,60   S364.1,331,331.016,331z M397.698,210.619C381.219,192.438,357.429,181,331.016,181c-3.294,0-6.578,0.179-9.837,0.534   C304.116,144.844,267.364,121,226.016,121s-78.1,23.844-95.163,60.534c-0.527-0.057-1.057-0.103-1.585-0.151   c-5.412-9.172-8.251-19.551-8.251-30.383c0-33.084,26.916-60,60-60c5.238,0,10.43,0.673,15.433,2   c7.721,2.048,15.691-2.314,18.13-9.92C224.597,51.827,253.973,30,286.016,30s61.419,21.827,71.438,53.08   c2.438,7.605,10.403,11.968,18.13,9.92c5.003-1.327,10.194-2,15.433-2c33.084,0,60,26.916,60,60   C451.016,181.825,427.648,207.284,397.698,210.619z"/>
	<ellipse transform="matrix(0.8444 -0.5357 0.5357 0.8444 -259.0848 101.9624)" cx="45.988" cy="497" rx="15" ry="15"/>
	<ellipse transform="matrix(0.8444 -0.5357 0.5357 0.8444 -240.4142 166.2457)" cx="165.988" cy="497" rx="15" ry="15"/>
	<ellipse transform="matrix(0.8444 -0.5357 0.5357 0.8444 -221.7437 230.529)" cx="285.988" cy="497" rx="15" ry="15"/>
	<ellipse transform="matrix(0.8444 -0.5357 0.5357 0.8444 -225.6433 127.1026)" cx="105.988" cy="452" rx="15" ry="15"/>
	<ellipse transform="matrix(0.8444 -0.5357 0.5357 0.8444 -206.9727 191.3859)" cx="225.988" cy="452" rx="15" ry="15"/>
	<ellipse transform="matrix(0.8444 -0.5357 0.5357 0.8444 -188.3022 255.6692)" cx="345.988" cy="452" rx="15" ry="15"/>
	<ellipse transform="matrix(0.8444 -0.5357 0.5357 0.8444 -203.0732 294.8123)" cx="405.988" cy="497" rx="15" ry="15"/>
	<ellipse transform="matrix(0.8444 -0.5357 0.5357 0.8444 -210.8723 87.9595)" cx="45.988" cy="407" rx="15" ry="15"/>
	<ellipse transform="matrix(0.8444 -0.5357 0.5357 0.8444 -192.2018 152.2428)" cx="165.988" cy="407" rx="15" ry="15"/>
	<ellipse transform="matrix(0.8444 -0.5357 0.5357 0.8444 -173.5313 216.5261)" cx="285.988" cy="407" rx="15" ry="15"/>
	<ellipse transform="matrix(0.8444 -0.5357 0.5357 0.8444 -154.8607 280.8094)" cx="405.988" cy="407" rx="15" ry="15"/>
</g>















</svg>
