<?xml version="1.0" encoding="iso-8859-1"?>
<!-- Generator: Adobe Illustrator 19.0.0, SVG Export Plug-In . SVG Version: 6.00 Build 0)  -->
<svg version="1.1" id="Capa_1" xmlns="http://www.w3.org/2000/svg" xmlns:xlink="http://www.w3.org/1999/xlink" x="0px" y="0px"
	 viewBox="0 0 448 448" style="enable-background:new 0 0 448 448;" xml:space="preserve">
<g>
	<g>
		<path d="M96,337.509c-13.809,13.808-32,26.832-32,45.248c0,42.288,64,42.336,64,0C128,364.341,109.809,351.317,96,337.509z"/>
	</g>
</g>
<g>
	<g>
		<path d="M384,337.509c-13.809,13.808-32,26.832-32,45.248c0,42.288,64,42.336,64,0C416,364.341,397.809,351.317,384,337.509z"/>
	</g>
</g>
<g>
	<g>
		<path d="M352,97.509c-5.586,0-11.031,0.578-16.355,1.494C313.727,59.944,271.977,33.509,224,33.509s-89.726,26.434-111.645,65.494
			c-5.324-0.916-10.77-1.494-16.355-1.494c-53.019,0-96,42.981-96,96c0,53.019,42.981,96,96,96h64l73.859-134.194
			c5.965-10.895,22.523-6.658,22.523,5.764v64.43h51.149c6.082,0,9.938,6.519,7.008,11.851l-27.461,52.149H352
			c53.019,0,96-42.981,96-96C448,140.49,405.019,97.509,352,97.509z"/>
	</g>
</g>
<g>
	<g>
		<path d="M294.008,241.509c-46.508,0-34.062,0-53.625,0c0-23.031,0-41.664,0-64.796l-62.258,112.789h46.257v80.11L294.008,241.509z
			"/>
	</g>
</g>
<g>
</g>
<g>
</g>
<g>
</g>
<g>
</g>
<g>
</g>
<g>
</g>
<g>
</g>
<g>
</g>
<g>
</g>
<g>
</g>
<g>
</g>
<g>
</g>
<g>
</g>
<g>
</g>
<g>
</g>
</svg>
