<?xml version="1.0" encoding="iso-8859-1"?>
<!-- Generator: Adobe Illustrator 21.0.0, SVG Export Plug-In . SVG Version: 6.00 Build 0)  -->
<svg xmlns="http://www.w3.org/2000/svg" xmlns:xlink="http://www.w3.org/1999/xlink" version="1.1" id="Capa_1" x="0px" y="0px" viewBox="0 0 512.001 512.001" style="enable-background:new 0 0 512.001 512.001;" xml:space="preserve" width="512" height="512">
<g>
	<path d="M481.001,121c0-6.167-3.369-11.262-8.345-13.74c-5.093-2.536-11.183-1.973-15.725,1.456   C446.287,116.752,433.862,121,421.001,121c-33.084,0-60-26.916-60-60c0-13.129,4.478-26.589,12.285-36.931   c3.429-4.541,3.992-10.631,1.455-15.725C372.273,3.387,367.192,0,361.001,0c-66.168,0-120,54.281-120,121   c0,0.355,0.01,0.71,0.013,1.065c-4.917-0.7-9.93-1.065-15.013-1.065c-41.348,0-78.1,23.844-95.163,60.534   c-3.259-0.355-6.543-0.534-9.837-0.534c-49.626,0-90,40.374-90,90s40.374,90,90,90h24.507l-22.37,37.282   c-2.78,4.634-2.854,10.406-0.19,15.108c2.662,4.703,7.648,7.61,13.053,7.61h75v76c0,6.75,4.509,12.669,11.018,14.462   c1.322,0.364,2.66,0.54,3.983,0.54c5.187,0,10.13-2.701,12.884-7.322L324.522,361h6.478c49.626,0,90-40.374,90-90   c0-14.735-3.56-28.655-9.864-40.944C453.095,210.764,481.001,168.4,481.001,121z M241.001,442.536V406c0-8.284-6.716-15-15-15   h-63.507l48.507-80.845V346c0,8.284,6.716,15,15,15h63.598L241.001,442.536z M331.001,331c-9.395,0-79.845,0-90,0v-75   c0-6.742-4.498-12.656-10.996-14.456c-6.498-1.799-13.396,0.957-16.866,6.738L163.508,331h-42.507c-33.084,0-60-26.916-60-60   s26.916-60,60-60c5.238,0,10.43,0.673,15.433,2c7.72,2.047,15.691-2.314,18.13-9.92c9.985-31.151,38.694-52.08,71.438-52.08   c32.431,0,61.365,20.658,71.438,52.08c2.438,7.605,10.404,11.968,18.13,9.92c5.003-1.327,10.194-2,15.433-2   c33.084,0,60,26.916,60,60S364.085,331,331.001,331z M392.487,205.343C376.385,190.255,354.755,181,331.001,181   c-3.294,0-6.578,0.179-9.837,0.534c-10.371-22.299-28.022-39.839-49.551-50.179c-0.392-3.43-0.612-6.889-0.612-10.355   c0-41.088,27.074-75.904,64.129-87.169c-2.712,8.754-4.129,17.933-4.129,27.169c0,49.626,40.374,90,90,90   c8.944,0,17.727-1.343,26.151-3.962C439.11,173.608,419.043,195.445,392.487,205.343z"/>
</g>















</svg>
