<?xml version="1.0" encoding="iso-8859-1"?>
<!-- Generator: Adobe Illustrator 21.0.0, SVG Export Plug-In . SVG Version: 6.00 Build 0)  -->
<svg xmlns="http://www.w3.org/2000/svg" xmlns:xlink="http://www.w3.org/1999/xlink" version="1.1" id="Capa_1" x="0px" y="0px" viewBox="0 0 512.001 512.001" style="enable-background:new 0 0 512.001 512.001;" xml:space="preserve" width="512" height="512">
<g>
	<path d="M481.001,150c0-49.626-40.374-90-90-90c-3.294,0-6.578,0.179-9.837,0.534C364.1,23.844,327.348,0,286.001,0   s-78.1,23.844-95.163,60.534c-3.259-0.355-6.543-0.534-9.837-0.534c-49.626,0-90,40.374-90,90c0,11.532,2.159,22.72,6.309,33.171   c-38.168,10.426-66.309,45.4-66.309,86.829c0,38.391,24.119,71.631,58.705,84.413l-26.612,44.944   c-2.745,4.637-2.793,10.39-0.124,15.071C65.637,419.11,70.612,422,76.001,422h75v75c0,6.759,4.52,12.682,11.038,14.467   c1.315,0.36,2.646,0.534,3.963,0.534c5.202,0,10.158-2.717,12.906-7.359L264.551,360h66.449c49.626,0,90-40.374,90-90   c0-11.706-2.249-22.896-6.333-33.164C452.848,226.418,481.001,191.438,481.001,150z M181.001,442.226V407c0-8.284-6.716-15-15-15   h-63.687l48.687-82.226V345c0,8.284,6.716,15,15,15h63.687L181.001,442.226z M331.001,330c-6.592,0-143.422,0-150,0v-75   c0-6.759-4.52-12.682-11.038-14.467c-6.513-1.784-13.426,1.009-16.869,6.825l-47.718,80.59   c-25.823-6.91-44.375-30.446-44.375-57.948c0-33.084,26.916-60,60-60c5.238,0,10.43,0.673,15.433,2   c7.72,2.048,15.691-2.314,18.13-9.92c9.985-31.151,38.694-52.08,71.438-52.08s61.452,20.929,71.438,52.08   c2.438,7.605,10.404,11.968,18.13,9.92c5.003-1.327,10.194-2,15.433-2c33.084,0,60,26.916,60,60S364.085,330,331.001,330z    M397.682,209.619C381.203,191.438,357.413,180,331.001,180c-3.294,0-6.578,0.179-9.837,0.534   C304.1,143.844,267.348,120,226.001,120s-78.1,23.844-95.163,60.534c-0.527-0.057-1.057-0.103-1.585-0.151   c-5.412-9.172-8.251-19.551-8.251-30.383c0-33.084,26.916-60,60-60c5.238,0,10.43,0.673,15.433,2   c7.722,2.047,15.691-2.314,18.13-9.92C224.548,50.929,253.257,30,286.001,30s61.452,20.929,71.438,52.08   c2.438,7.605,10.402,11.968,18.13,9.92c5.003-1.327,10.194-2,15.433-2c33.084,0,60,26.916,60,60   C451.001,180.825,427.632,206.284,397.682,209.619z"/>
	<path d="M358.991,399.499c-2.681-4.64-7.632-7.499-12.99-7.499s-10.31,2.858-12.99,7.499l-25.996,45.019   c-3.935,6.812-6.014,14.586-6.014,22.483c0,24.813,20.187,45,45,45s45-20.187,45-45c0-7.894-2.079-15.667-6.014-22.482   L358.991,399.499z M346.001,482c-11.561,0-18.731-12.57-13.008-22.479l13.008-22.525l13.007,22.523   C364.745,469.461,357.529,482,346.001,482z"/>
</g>















</svg>
