<?xml version="1.0" encoding="iso-8859-1"?>
<!-- Generator: Adobe Illustrator 19.0.0, SVG Export Plug-In . SVG Version: 6.00 Build 0)  -->
<svg version="1.1" id="Capa_1" xmlns="http://www.w3.org/2000/svg" xmlns:xlink="http://www.w3.org/1999/xlink" x="0px" y="0px"
	 viewBox="0 0 448 448" style="enable-background:new 0 0 448 448;" xml:space="preserve">
<g>
	<g>
		<circle cx="237.909" cy="351.458" r="18.288"/>
	</g>
</g>
<g>
	<g>
		<path d="M288,328c-9.586,0-18.923-0.994-28.046-2.61c7.422,6.293,12.238,15.566,12.238,26.039
			c0,18.91-15.375,34.285-34.285,34.285c-18.914,0-34.289-15.375-34.289-34.285c0-16.899,12.305-30.889,28.414-33.692
			c-32.149-12.026-59.398-33.982-77.922-62.278c-6.736,16.858-23.156,28.827-42.394,28.827c-25.215,0-45.715-20.5-45.715-45.714
			c0-25.214,20.5-45.714,45.715-45.714c6.824,0,13.242,1.603,19.062,4.294c-1.744-9.466-2.778-19.182-2.778-29.151
			c0-14.628,2.133-28.73,5.809-42.191C65.95,144.344,16,206.262,16,280c0,88.366,71.634,160,160,160
			c73.738,0,135.656-49.95,154.191-117.809C316.73,325.868,302.629,328,288,328z M66,323.298c-3.156,0-5.715-2.558-5.715-5.715
			c0-3.155,2.558-5.714,5.715-5.714s5.715,2.558,5.715,5.714C71.715,320.738,69.157,323.298,66,323.298z M127.43,362.857
			c-6.313,0-11.43-5.117-11.43-11.428S121.117,340,127.43,340c6.31,0,11.428,5.117,11.428,11.429
			C138.858,357.74,133.741,362.857,127.43,362.857z M157.43,406.83c-3.156,0-5.715-2.558-5.715-5.714
			c0-3.156,2.558-5.715,5.715-5.715c3.154,0,5.713,2.558,5.713,5.715C163.143,404.271,160.584,406.83,157.43,406.83z"/>
	</g>
</g>
<g>
	<g>
		<circle cx="111.717" cy="238.578" r="29.712"/>
	</g>
</g>
<g>
	<g>
		<path d="M384,8c0,36.77-27.229,64-64,64c36.771,0,64,27.226,64,64c0-36.774,27.229-64,64-64C411.229,72,384,44.77,384,8z
			 M384,86.82c-4.236-5.603-9.215-10.582-14.818-14.819c5.603-4.238,10.582-9.216,14.818-14.819
			c4.236,5.603,9.215,10.582,14.818,14.819C393.215,76.238,388.237,81.216,384,86.82z"/>
	</g>
</g>
<g>
	<g>
		<path d="M32,8c0,18.385-13.614,32-32,32c18.387,0,32,13.614,32,32c0-18.386,13.614-32,32-32C45.614,40,32,26.385,32,8z"/>
	</g>
</g>
<g>
</g>
<g>
</g>
<g>
</g>
<g>
</g>
<g>
</g>
<g>
</g>
<g>
</g>
<g>
</g>
<g>
</g>
<g>
</g>
<g>
</g>
<g>
</g>
<g>
</g>
<g>
</g>
<g>
</g>
</svg>
