<?xml version="1.0" encoding="iso-8859-1"?>
<!-- Generator: Adobe Illustrator 19.0.0, SVG Export Plug-In . SVG Version: 6.00 Build 0)  -->
<svg version="1.1" id="Capa_1" xmlns="http://www.w3.org/2000/svg" xmlns:xlink="http://www.w3.org/1999/xlink" x="0px" y="0px"
	 viewBox="0 0 448 448" style="enable-background:new 0 0 448 448;" xml:space="preserve">
<g>
	<g>
		<path d="M352,105.508c-5.592,0-11.032,0.576-16.352,1.496C313.728,67.94,271.976,41.508,224,41.508s-89.728,26.432-111.648,65.496
			c-5.32-0.92-10.768-1.496-16.352-1.496c-53.016,0-96,42.984-96,96s42.984,96,96,96h256c53.016,0,96-42.984,96-96
			S405.016,105.508,352,105.508z"/>
	</g>
</g>
<g>
	<g>
		<path d="M80,329.508c-13.808,13.808-32,26.832-32,45.248c0,21.152,16.008,31.736,32.016,31.736c16,0,31.992-10.568,31.992-31.736
			C112,356.34,93.808,343.316,80,329.508z"/>
	</g>
</g>
<g>
	<g>
		<path d="M224,329.508c-13.808,13.808-32,26.832-32,45.248c0,21.152,16.008,31.736,32.008,31.736S256,395.924,256,374.756
			C256,356.34,237.808,343.316,224,329.508z"/>
	</g>
</g>
<g>
	<g>
		<path d="M368,329.508c-13.808,13.808-32,26.832-32,45.248c0,21.152,16.008,31.736,32.008,31.736S400,395.924,400,374.756
			C400,356.34,381.808,343.316,368,329.508z"/>
	</g>
</g>
<g>
</g>
<g>
</g>
<g>
</g>
<g>
</g>
<g>
</g>
<g>
</g>
<g>
</g>
<g>
</g>
<g>
</g>
<g>
</g>
<g>
</g>
<g>
</g>
<g>
</g>
<g>
</g>
<g>
</g>
</svg>
