<?xml version="1.0" encoding="iso-8859-1"?>
<!-- Generator: Adobe Illustrator 21.0.0, SVG Export Plug-In . SVG Version: 6.00 Build 0)  -->
<svg xmlns="http://www.w3.org/2000/svg" xmlns:xlink="http://www.w3.org/1999/xlink" version="1.1" id="Capa_1" x="0px" y="0px" viewBox="0 0 512 512" style="enable-background:new 0 0 512 512;" xml:space="preserve" width="512" height="512">
<g>
	<path d="M256,121c-74.439,0-135,60.561-135,135s60.561,135,135,135s135-60.561,135-135S330.439,121,256,121z M256,361   c-57.897,0-105-47.103-105-105s47.103-105,105-105s105,47.103,105,105S313.897,361,256,361z"/>
	<path d="M256,91c8.284,0,15-6.716,15-15V15c0-8.284-6.716-15-15-15s-15,6.716-15,15v61C241,84.284,247.716,91,256,91z"/>
	<path d="M256,421c-8.284,0-15,6.716-15,15v61c0,8.284,6.716,15,15,15s15-6.716,15-15v-61C271,427.716,264.284,421,256,421z"/>
	<path d="M173.259,95.442c3.171,7.655,11.947,11.288,19.599,8.118c7.653-3.17,11.288-11.945,8.118-19.598l-11.48-27.716   c-3.17-7.654-11.945-11.288-19.599-8.118s-11.288,11.945-8.118,19.598L173.259,95.442z"/>
	<path d="M338.741,416.558c-3.17-7.654-11.945-11.287-19.599-8.118c-7.653,3.17-11.288,11.945-8.118,19.599l11.48,27.716   c3.17,7.655,11.945,11.288,19.599,8.118c7.653-3.17,11.288-11.945,8.118-19.599L338.741,416.558z"/>
	<path d="M319.143,103.56c7.654,3.171,16.429-0.466,19.599-8.118l11.48-27.716c3.17-7.654-0.465-16.428-8.118-19.598   c-7.652-3.17-16.429,0.464-19.599,8.118l-11.48,27.716C307.854,91.615,311.489,100.39,319.143,103.56z"/>
	<path d="M192.857,408.44c-7.653-3.169-16.428,0.464-19.599,8.118l-11.48,27.716c-3.17,7.654,0.465,16.428,8.118,19.599   c7.656,3.171,16.43-0.467,19.599-8.118l11.48-27.716C204.146,420.385,200.511,411.61,192.857,408.44z"/>
	<path d="M91,256c0-8.284-6.716-15-15-15H15c-8.284,0-15,6.716-15,15s6.716,15,15,15h61C84.284,271,91,264.284,91,256z"/>
	<path d="M497,241h-61c-8.284,0-15,6.716-15,15s6.716,15,15,15h61c8.284,0,15-6.716,15-15S505.284,241,497,241z"/>
	<path d="M118.114,139.327c5.857,5.858,15.355,5.858,21.213,0c5.858-5.858,5.858-15.355,0-21.213L96.9,75.688   c-5.857-5.858-15.355-5.858-21.213,0c-5.858,5.858-5.858,15.355,0,21.213L118.114,139.327z"/>
	<path d="M393.886,372.673c-5.857-5.858-15.355-5.858-21.213,0c-5.858,5.858-5.858,15.355,0,21.213l42.427,42.426   c5.857,5.858,15.356,5.858,21.213,0c5.858-5.858,5.858-15.355,0-21.213L393.886,372.673z"/>
	<path d="M118.114,372.673l-42.427,42.426c-5.858,5.857-5.858,15.355,0,21.213c5.857,5.858,15.355,5.858,21.213,0l42.427-42.426   c5.858-5.857,5.858-15.355,0-21.213C133.47,366.815,123.972,366.815,118.114,372.673z"/>
	<path d="M393.886,139.327l42.427-42.426c5.858-5.858,5.858-15.355,0-21.213c-5.856-5.858-15.354-5.858-21.213,0l-42.427,42.426   c-5.858,5.858-5.858,15.355,0,21.213C378.529,145.185,388.027,145.185,393.886,139.327z"/>
	<path d="M103.561,319.143c-3.17-7.654-11.945-11.288-19.599-8.118l-27.717,11.48c-7.653,3.17-11.288,11.945-8.118,19.598   c3.171,7.655,11.947,11.288,19.599,8.118l27.717-11.48C103.096,335.571,106.73,326.797,103.561,319.143z"/>
	<path d="M408.439,192.857c3.171,7.655,11.947,11.288,19.599,8.118l27.717-11.48c7.653-3.17,11.288-11.945,8.118-19.598   s-11.946-11.288-19.599-8.118l-27.717,11.48C408.904,176.429,405.27,185.203,408.439,192.857z"/>
	<path d="M455.755,322.505l-27.717-11.48c-7.656-3.171-16.429,0.464-19.599,8.118s0.465,16.428,8.118,19.598l27.717,11.48   c7.658,3.172,16.43-0.468,19.599-8.118C467.043,334.45,463.408,325.676,455.755,322.505z"/>
	<path d="M56.245,189.495l27.717,11.48c7.657,3.172,16.43-0.468,19.599-8.118c3.17-7.654-0.465-16.428-8.118-19.598l-27.717-11.48   c-7.656-3.171-16.429,0.464-19.599,8.118S48.592,186.324,56.245,189.495z"/>
</g>















</svg>
