<?xml version="1.0" encoding="iso-8859-1"?>
<!-- Generator: Adobe Illustrator 21.0.0, SVG Export Plug-In . SVG Version: 6.00 Build 0)  -->
<svg xmlns="http://www.w3.org/2000/svg" xmlns:xlink="http://www.w3.org/1999/xlink" version="1.1" id="Capa_1" x="0px" y="0px" viewBox="0 0 512 512" style="enable-background:new 0 0 512 512;" xml:space="preserve" width="512" height="512">
<g>
	<path d="M121,376h210c49.626,0,90-40.374,90-90c0-11.706-2.249-22.896-6.333-33.164C452.848,242.418,481,207.438,481,166   c0-49.626-40.374-90-90-90c-3.294,0-6.578,0.179-9.837,0.534C364.099,39.844,327.348,16,286,16s-78.1,23.845-95.163,60.534   C187.577,76.179,184.294,76,181,76c-49.626,0-90,40.374-90,90c0,11.532,2.159,22.721,6.309,33.171C59.14,209.597,31,244.571,31,286   C31,335.626,71.374,376,121,376z M181,106c5.237,0,10.43,0.673,15.434,2c7.716,2.048,15.69-2.313,18.129-9.92   C224.548,66.929,253.257,46,286,46s61.452,20.929,71.438,52.08c2.438,7.606,10.408,11.969,18.13,9.92   c5.002-1.327,10.194-2,15.433-2c33.084,0,60,26.916,60,60c0,30.825-23.369,56.284-53.318,59.619   C381.203,207.438,357.412,196,331,196c-3.294,0-6.578,0.179-9.837,0.534C304.099,159.844,267.348,136,226,136   s-78.1,23.845-95.163,60.534c-0.528-0.057-1.057-0.103-1.585-0.151C123.84,187.211,121,176.832,121,166   C121,132.916,147.916,106,181,106z M121,226c5.237,0,10.43,0.673,15.434,2c7.716,2.047,15.69-2.313,18.129-9.92   C164.548,186.929,193.257,166,226,166s61.452,20.929,71.438,52.08c2.438,7.606,10.41,11.97,18.13,9.92   c5.002-1.327,10.194-2,15.433-2c33.084,0,60,26.916,60,60s-26.916,60-60,60H121c-33.084,0-60-26.916-60-60S87.916,226,121,226z"/>
	<path d="M497,406H15c-8.284,0-15,6.716-15,15s6.716,15,15,15h482c8.284,0,15-6.716,15-15S505.284,406,497,406z"/>
	<path d="M467,466H45c-8.284,0-15,6.716-15,15s6.716,15,15,15h422c8.284,0,15-6.716,15-15S475.284,466,467,466z"/>
</g>















</svg>
