<?xml version="1.0" encoding="iso-8859-1"?>
<!-- Generator: Adobe Illustrator 21.0.0, SVG Export Plug-In . SVG Version: 6.00 Build 0)  -->
<svg xmlns="http://www.w3.org/2000/svg" xmlns:xlink="http://www.w3.org/1999/xlink" version="1.1" id="Capa_1" x="0px" y="0px" viewBox="0 0 512 512" style="enable-background:new 0 0 512 512;" xml:space="preserve" width="512" height="512">
<g>
	<path d="M481,150c0-49.626-40.374-90-90-90c-3.294,0-6.578,0.179-9.837,0.534C364.099,23.844,327.348,0,286,0   s-78.1,23.845-95.163,60.534C187.577,60.179,184.294,60,181,60c-49.626,0-90,40.374-90,90c0,11.532,2.159,22.721,6.309,33.171   C59.14,193.597,31,228.571,31,270c0,39.111,25.08,72.469,60,84.852V406c0,8.284,6.716,15,15,15s15-6.716,15-15v-46h90v46   c0,8.284,6.716,15,15,15s15-6.716,15-15v-46h90v46c0,8.284,6.716,15,15,15s15-6.716,15-15v-51.148   c34.92-12.383,60-45.741,60-84.852c0-11.706-2.249-22.896-6.333-33.164C452.848,226.418,481,191.438,481,150z M331,330H121   c-33.084,0-60-26.916-60-60s26.916-60,60-60c5.237,0,10.43,0.673,15.434,2c7.716,2.047,15.69-2.313,18.129-9.92   C164.548,170.929,193.257,150,226,150s61.452,20.929,71.438,52.08c2.438,7.606,10.41,11.969,18.13,9.92   c5.002-1.327,10.194-2,15.433-2c33.084,0,60,26.916,60,60S364.084,330,331,330z M397.682,209.619   C381.203,191.438,357.412,180,331,180c-3.294,0-6.578,0.179-9.837,0.534C304.099,143.844,267.348,120,226,120   s-78.1,23.845-95.163,60.534c-0.528-0.057-1.057-0.103-1.585-0.151C123.84,171.211,121,160.832,121,150c0-33.084,26.916-60,60-60   c5.237,0,10.43,0.673,15.434,2c7.716,2.049,15.69-2.313,18.129-9.92C224.548,50.929,253.257,30,286,30s61.452,20.929,71.438,52.08   c2.438,7.606,10.408,11.969,18.13,9.92c5.002-1.327,10.194-2,15.433-2c33.084,0,60,26.916,60,60   C451,180.825,427.631,206.284,397.682,209.619z"/>
	<path d="M166,421c-8.284,0-15,6.716-15,15v61c0,8.284,6.716,15,15,15s15-6.716,15-15v-61C181,427.716,174.284,421,166,421z"/>
	<path d="M286,421c-8.284,0-15,6.716-15,15v61c0,8.284,6.716,15,15,15s15-6.716,15-15v-61C301,427.716,294.284,421,286,421z"/>
	<path d="M406,421c-8.284,0-15,6.716-15,15v61c0,8.284,6.716,15,15,15s15-6.716,15-15v-61C421,427.716,414.284,421,406,421z"/>
	<path d="M46,421c-8.284,0-15,6.716-15,15v61c0,8.284,6.716,15,15,15s15-6.716,15-15v-61C61,427.716,54.284,421,46,421z"/>
</g>















</svg>
