<?xml version="1.0" encoding="iso-8859-1"?>
<!-- Generator: Adobe Illustrator 21.0.0, SVG Export Plug-In . SVG Version: 6.00 Build 0)  -->
<svg xmlns="http://www.w3.org/2000/svg" xmlns:xlink="http://www.w3.org/1999/xlink" version="1.1" id="Capa_1" x="0px" y="0px" viewBox="0 0 512.002 512.002" style="enable-background:new 0 0 512.002 512.002;" xml:space="preserve" width="512" height="512">
<g>
	<path d="M360.998,0h-90c-6.01,0-11.439,3.587-13.797,9.115l-90,211C162.982,230.006,170.26,241,180.998,241h39.213l-83.448,251.272   c-3.225,9.708,4.025,19.732,14.228,19.729c5.132,0,10.094-2.642,12.882-7.303l180-301c5.97-9.984-1.24-22.699-12.874-22.699   h-35.789L374.43,21.679C379.384,11.713,372.114,0,360.998,0z M257.566,189.321c-4.954,9.966,2.316,21.679,13.432,21.679h33.553   l-96.178,160.83l46.86-141.103c3.219-9.694-4.007-19.728-14.235-19.728h-37.294l77.203-181h55.88L257.566,189.321z"/>
</g>















</svg>
