<?xml version="1.0" encoding="iso-8859-1"?>
<!-- Generator: Adobe Illustrator 21.0.0, SVG Export Plug-In . SVG Version: 6.00 Build 0)  -->
<svg xmlns="http://www.w3.org/2000/svg" xmlns:xlink="http://www.w3.org/1999/xlink" version="1.1" id="Capa_1" x="0px" y="0px" viewBox="0 0 512 512" style="enable-background:new 0 0 512 512;" xml:space="preserve" width="512" height="512">
<g>
	<path d="M406,0H106c-8.284,0-15,6.716-15,15v482c0,8.284,6.716,15,15,15h300c8.284,0,15-6.716,15-15V15C421,6.716,414.284,0,406,0z    M121,392V90h270v302H121z M391,30v30H121V30H391z M121,482v-60h120v15c0,8.284,6.716,15,15,15s15-6.716,15-15v-15h120v60H121z"/>
	<path d="M196,301c-8.284,0-15,6.716-15,15v30c0,8.284,6.716,15,15,15s15-6.716,15-15v-30C211,307.716,204.284,301,196,301z"/>
	<path d="M256,301c-8.284,0-15,6.716-15,15v30c0,8.284,6.716,15,15,15s15-6.716,15-15v-30C271,307.716,264.284,301,256,301z"/>
	<path d="M316,301c-8.284,0-15,6.716-15,15v30c0,8.284,6.716,15,15,15s15-6.716,15-15v-30C331,307.716,324.284,301,316,301z"/>
	<path d="M329.907,183.199C323.813,147.922,292.991,121,256,121s-67.813,26.922-73.907,62.199C164.064,189.07,151,206.038,151,226   c0,24.813,20.187,45,45,45h120c24.813,0,45-20.187,45-45C361,206.038,347.936,189.07,329.907,183.199z M316,241H196   c-8.271,0-15-6.729-15-15s6.729-15,15-15c8.284,0,15-6.716,15-15c0-24.813,20.187-45,45-45s45,20.187,45,45c0,8.284,6.716,15,15,15   c8.271,0,15,6.729,15,15S324.271,241,316,241z"/>
</g>















</svg>
