<?xml version="1.0" encoding="iso-8859-1"?>
<!-- Generator: Adobe Illustrator 21.0.0, SVG Export Plug-In . SVG Version: 6.00 Build 0)  -->
<svg xmlns="http://www.w3.org/2000/svg" xmlns:xlink="http://www.w3.org/1999/xlink" version="1.1" id="Capa_1" x="0px" y="0px" viewBox="0 0 512 512" style="enable-background:new 0 0 512 512;" xml:space="preserve" width="512" height="512">
<g>
	<path d="M256,0C115.031,0,0,115.049,0,256c0,140.97,115.049,256,256,256c140.969,0,256-115.049,256-256C512,115.03,396.951,0,256,0   z M256,482C131.383,482,30,380.617,30,256S131.383,30,256,30s226,101.383,226,226S380.617,482,256,482z"/>
	<path d="M136,121c-24.813,0-45,20.187-45,45s20.187,45,45,45s45-20.187,45-45S160.813,121,136,121z M136,181   c-8.271,0-15-6.729-15-15s6.729-15,15-15s15,6.729,15,15S144.271,181,136,181z"/>
	<path d="M406,301h-60c-8.284,0-15,6.716-15,15c0,8.271-6.729,15-15,15s-15-6.729-15-15V196c0-8.271,6.729-15,15-15s15,6.729,15,15   c0,8.284,6.716,15,15,15h60c8.284,0,15-6.716,15-15c0-57.897-47.103-105-105-105s-105,47.103-105,105v120   c0,57.897,47.103,105,105,105s105-47.103,105-105C421,307.716,414.284,301,406,301z M316,391c-41.355,0-75-33.645-75-75V196   c0-41.355,33.645-75,75-75c36.219,0,66.523,25.809,73.493,60H358.43c-6.19-17.461-22.873-30-42.43-30c-24.813,0-45,20.187-45,45   v120c0,24.813,20.187,45,45,45c19.557,0,36.239-12.539,42.43-30h31.063C382.523,365.191,352.219,391,316,391z"/>
</g>















</svg>
