<?xml version="1.0" encoding="iso-8859-1"?>
<!-- Generator: Adobe Illustrator 21.0.0, SVG Export Plug-In . SVG Version: 6.00 Build 0)  -->
<svg xmlns="http://www.w3.org/2000/svg" xmlns:xlink="http://www.w3.org/1999/xlink" version="1.1" id="Capa_1" x="0px" y="0px" viewBox="0 0 512 512" style="enable-background:new 0 0 512 512;" xml:space="preserve" width="512" height="512">
<g>
	<path d="M256,151h46.509c1.948,9.562,5.731,18.46,10.948,26.33l-32.917,32.917c-5.858,5.858-5.858,15.355,0,21.213   c5.857,5.857,15.355,5.858,21.213,0l32.917-32.917c7.869,5.217,16.768,9,26.33,10.948V256c0,8.284,6.716,15,15,15s15-6.716,15-15   v-46.509c9.562-1.949,18.46-5.731,26.33-10.948l32.917,32.917c5.857,5.858,15.354,5.858,21.213,0   c5.858-5.858,5.858-15.355,0-21.213l-32.917-32.917c5.218-7.869,9-16.768,10.948-26.33H497c8.284,0,15-6.716,15-15s-6.716-15-15-15   h-47.509c-1.948-9.562-5.731-18.46-10.948-26.33l32.917-32.917c5.858-5.858,5.858-15.355,0-21.213   c-5.857-5.857-15.355-5.858-21.213,0L417.33,73.458c-7.869-5.217-16.768-9-26.33-10.948V15c0-8.284-6.716-15-15-15s-15,6.716-15,15   V62.51c-9.562,1.949-18.46,5.731-26.33,10.948l-32.917-32.917c-5.857-5.857-15.355-5.858-21.213,0   c-5.858,5.858-5.858,15.355,0,21.213l32.917,32.917c-5.218,7.869-9,16.768-10.948,26.33H256c-8.284,0-15,6.716-15,15   S247.716,151,256,151z M376,91c24.813,0,45,20.187,45,45s-20.187,45-45,45s-45-20.187-45-45S351.187,91,376,91z"/>
	<path d="M135,331c8.284,0,15-6.716,15-15v-30c0-8.284-6.716-15-15-15s-15,6.716-15,15v30C120,324.284,126.716,331,135,331z"/>
	<path d="M135,421c8.284,0,15-6.716,15-15v-30c0-8.284-6.716-15-15-15s-15,6.716-15,15v30C120,414.284,126.716,421,135,421z"/>
	<path d="M497,331c-8.284,0-15,6.716-15,15v30c0,8.271-6.729,15-15,15h-16v-45c0-24.813-20.187-45-45-45s-45,20.187-45,45v75h-15   c-8.271,0-15-6.729-15-15v-30c0-8.284-6.716-15-15-15s-15,6.716-15,15v30c0,24.813,20.187,45,45,45h15v31H210v-91h15   c24.813,0,45-20.187,45-45v-60c0-24.813-20.187-45-45-45c-5.622,0-11.008,1.037-15.974,2.928   c-5.841-35.936-36.717-62.603-73.544-62.904C135.321,181.019,135.163,181,135,181c-0.132,0-0.26,0.017-0.391,0.02   C91.21,181.162,60,218.235,60,259.21v14.371c-4.695-1.665-9.741-2.58-15-2.58c-24.813,0-45,20.187-45,45v90   c0,24.813,20.187,45,45,45h15v31H15c-8.284,0-15,6.716-15,15s6.716,15,15,15c7.237,0,468.558,0,482,0c8.284,0,15-6.716,15-15   s-6.716-15-15-15h-46v-61h16c24.813,0,45-20.187,45-45v-30C512,337.716,505.284,331,497,331z M75,421H45c-8.271,0-15-6.729-15-15   v-90c0-8.271,6.729-15,15-15s15,6.729,15,15v60c0,8.284,6.716,15,15,15s15-6.716,15-15c0-14.707,0-104.777,0-116.791   c0-20.858,12.47-39.215,30-45.649V226c0,8.284,6.716,15,15,15s15-6.716,15-15v-12.455c17.461,6.17,30,22.883,30,42.455   c0,6.359,0,53.641,0,60c0,8.284,6.716,15,15,15s15-6.716,15-15v-30c0-8.271,6.729-15,15-15s15,6.729,15,15v60   c0,8.271-6.729,15-15,15h-30c-8.284,0-15,6.716-15,15v106h-30v-16c0-8.284-6.716-15-15-15s-15,6.716-15,15v16H90v-46   C90,427.716,83.284,421,75,421z M391,482V346c0-8.271,6.729-15,15-15s15,6.729,15,15v136H391z"/>
</g>















</svg>
